<?xml version="1.0" encoding="iso-8859-1"?>
<!-- Generator: Adobe Illustrator 19.0.0, SVG Export Plug-In . SVG Version: 6.00 Build 0)  -->
<svg version="1.1" id="Capa_1" xmlns="http://www.w3.org/2000/svg" xmlns:xlink="http://www.w3.org/1999/xlink" x="0px" y="0px"
	 viewBox="0 0 480.304 480.304" style="enable-background:new 0 0 480.304 480.304;" xml:space="preserve">
<linearGradient id="SVGID_1_" gradientUnits="userSpaceOnUse" x1="-23.0709" y1="615.7673" x2="-23.0709" y2="555.4853" gradientTransform="matrix(8 0 0 -8 452.8714 4942.8027)">
	<stop  offset="0" style="stop-color:#FC5C7D"/>
	<stop  offset="0.129" style="stop-color:#F35E85"/>
	<stop  offset="0.343" style="stop-color:#D9659B"/>
	<stop  offset="0.616" style="stop-color:#B070BF"/>
	<stop  offset="0.934" style="stop-color:#777FF0"/>
	<stop  offset="1" style="stop-color:#6A82FB"/>
</linearGradient>
<path style="fill:url(#SVGID_1_);" d="M280.304,280.2c-0.026,22.08-17.92,39.974-40,40v16c30.913-0.035,55.965-25.087,56-56H280.304
	z"/>
<g>
	
		<linearGradient id="SVGID_2_" gradientUnits="userSpaceOnUse" x1="-27.0707" y1="615.7673" x2="-27.0707" y2="555.4853" gradientTransform="matrix(8 0 0 -8 452.8714 4942.8027)">
		<stop  offset="0" style="stop-color:#FC5C7D"/>
		<stop  offset="0.129" style="stop-color:#F35E85"/>
		<stop  offset="0.343" style="stop-color:#D9659B"/>
		<stop  offset="0.616" style="stop-color:#B070BF"/>
		<stop  offset="0.934" style="stop-color:#777FF0"/>
		<stop  offset="1" style="stop-color:#6A82FB"/>
	</linearGradient>
	<path style="fill:url(#SVGID_2_);" d="M424.304,416.2c22.091,0.131,40.105-17.672,40.236-39.763
		c0.131-22.091-17.672-40.105-39.763-40.236c-12.407-0.073-24.146,5.615-31.777,15.399l-72.152-36.072
		c13.462-30.512,8.438-66.02-12.96-91.6l88.648-88.648c21.667,15.42,51.732,10.355,67.151-11.312
		c15.42-21.667,10.355-51.732-11.312-67.151c-21.667-15.42-51.732-10.355-67.151,11.312c-11.894,16.713-11.894,39.126,0,55.839
		l-88.648,88.648c-15.458-12.915-34.898-20.104-55.04-20.352L225.368,79.072c21.517-5.006,34.902-26.507,29.896-48.023
		C250.258,9.532,228.757-3.853,207.24,1.153s-34.902,26.507-29.896,48.023c3.624,15.576,16.177,27.497,31.919,30.312l16.296,114.048
		c-19.805,3.379-37.854,13.445-51.136,28.52l-79.336-43.272c5.925-25.921-10.285-51.737-36.205-57.662
		c-25.921-5.925-51.737,10.285-57.662,36.205s10.285,51.737,36.205,57.662c19.957,4.562,40.616-3.996,51.502-21.333l76,41.432
		c-19.656,32.513-16.047,74.001,8.928,102.632l-63.728,69.04c-18.494-11.97-43.19-6.681-55.16,11.812
		c-11.97,18.494-6.681,43.19,11.812,55.16c18.494,11.97,43.19,6.681,55.16-11.812c8.681-13.412,8.522-30.71-0.404-43.96
		l63.84-69.152c37.792,30.375,93.053,24.363,123.428-13.43c1.513-1.882,2.947-3.826,4.3-5.826l72.696,36.352
		c-0.951,3.351-1.454,6.813-1.496,10.296C384.331,398.281,402.224,416.174,424.304,416.2L424.304,416.2z M424.304,352.2
		c13.255,0,24,10.745,24,24s-10.745,24-24,24s-24-10.745-24-24S411.049,352.2,424.304,352.2z M48.304,200.2
		c-17.673,0-32-14.327-32-32s14.327-32,32-32s32,14.327,32,32S65.977,200.2,48.304,200.2z M424.304,64.2c17.673,0,32,14.327,32,32
		s-14.327,32-32,32s-32-14.327-32-32S406.631,64.2,424.304,64.2z M192.304,40.2c0-13.255,10.745-24,24-24s24,10.745,24,24
		s-10.745,24-24,24S192.304,53.455,192.304,40.2z M88.304,464.2c-13.255,0-24-10.745-24-24s10.745-24,24-24s24,10.745,24,24
		S101.559,464.2,88.304,464.2z M240.304,352.2c-15.951-0.023-31.436-5.373-44-15.2l17.92-19.408l-11.76-10.864l-17.688,19.2
		c-25.266-30.637-20.912-75.956,9.725-101.221c9.602-7.919,21.095-13.209,33.355-15.355l4.568,32l15.84-2.272l-4.384-30.688
		c39.685,2.051,70.194,35.884,68.143,75.569C310.049,322.153,278.546,352.127,240.304,352.2L240.304,352.2z"/>
	
		<linearGradient id="SVGID_3_" gradientUnits="userSpaceOnUse" x1="-4.5709" y1="615.7673" x2="-4.5709" y2="555.4853" gradientTransform="matrix(8 0 0 -8 452.8714 4942.8027)">
		<stop  offset="0" style="stop-color:#FC5C7D"/>
		<stop  offset="0.129" style="stop-color:#F35E85"/>
		<stop  offset="0.343" style="stop-color:#D9659B"/>
		<stop  offset="0.616" style="stop-color:#B070BF"/>
		<stop  offset="0.934" style="stop-color:#777FF0"/>
		<stop  offset="1" style="stop-color:#6A82FB"/>
	</linearGradient>
	<path style="fill:url(#SVGID_3_);" d="M408.304,160.2h16v16h-16V160.2z"/>
	
		<linearGradient id="SVGID_4_" gradientUnits="userSpaceOnUse" x1="0.9291" y1="615.7673" x2="0.9291" y2="555.4853" gradientTransform="matrix(8 0 0 -8 452.8714 4942.8027)">
		<stop  offset="0" style="stop-color:#FC5C7D"/>
		<stop  offset="0.129" style="stop-color:#F35E85"/>
		<stop  offset="0.343" style="stop-color:#D9659B"/>
		<stop  offset="0.616" style="stop-color:#B070BF"/>
		<stop  offset="0.934" style="stop-color:#777FF0"/>
		<stop  offset="1" style="stop-color:#6A82FB"/>
	</linearGradient>
	<path style="fill:url(#SVGID_4_);" d="M440.304,160.2h40v16h-40V160.2z"/>
	
		<linearGradient id="SVGID_5_" gradientUnits="userSpaceOnUse" x1="-2.0709" y1="615.7673" x2="-2.0709" y2="555.4853" gradientTransform="matrix(8 0 0 -8 452.8714 4942.8027)">
		<stop  offset="0" style="stop-color:#FC5C7D"/>
		<stop  offset="0.129" style="stop-color:#F35E85"/>
		<stop  offset="0.343" style="stop-color:#D9659B"/>
		<stop  offset="0.616" style="stop-color:#B070BF"/>
		<stop  offset="0.934" style="stop-color:#777FF0"/>
		<stop  offset="1" style="stop-color:#6A82FB"/>
	</linearGradient>
	<path style="fill:url(#SVGID_5_);" d="M392.304,192.2h88v16h-88V192.2z"/>
	
		<linearGradient id="SVGID_6_" gradientUnits="userSpaceOnUse" x1="-19.5709" y1="615.7673" x2="-19.5709" y2="555.4853" gradientTransform="matrix(8 0 0 -8 452.8714 4942.8027)">
		<stop  offset="0" style="stop-color:#FC5C7D"/>
		<stop  offset="0.129" style="stop-color:#F35E85"/>
		<stop  offset="0.343" style="stop-color:#D9659B"/>
		<stop  offset="0.616" style="stop-color:#B070BF"/>
		<stop  offset="0.934" style="stop-color:#777FF0"/>
		<stop  offset="1" style="stop-color:#6A82FB"/>
	</linearGradient>
	<path style="fill:url(#SVGID_6_);" d="M288.304,0.2h16v16h-16V0.2z"/>
	
		<linearGradient id="SVGID_7_" gradientUnits="userSpaceOnUse" x1="-14.0709" y1="615.7673" x2="-14.0709" y2="555.4853" gradientTransform="matrix(8 0 0 -8 452.8714 4942.8027)">
		<stop  offset="0" style="stop-color:#FC5C7D"/>
		<stop  offset="0.129" style="stop-color:#F35E85"/>
		<stop  offset="0.343" style="stop-color:#D9659B"/>
		<stop  offset="0.616" style="stop-color:#B070BF"/>
		<stop  offset="0.934" style="stop-color:#777FF0"/>
		<stop  offset="1" style="stop-color:#6A82FB"/>
	</linearGradient>
	<path style="fill:url(#SVGID_7_);" d="M320.304,0.2h40v16h-40V0.2z"/>
	
		<linearGradient id="SVGID_8_" gradientUnits="userSpaceOnUse" x1="-17.0709" y1="615.7673" x2="-17.0709" y2="555.4853" gradientTransform="matrix(8 0 0 -8 452.8714 4942.8027)">
		<stop  offset="0" style="stop-color:#FC5C7D"/>
		<stop  offset="0.129" style="stop-color:#F35E85"/>
		<stop  offset="0.343" style="stop-color:#D9659B"/>
		<stop  offset="0.616" style="stop-color:#B070BF"/>
		<stop  offset="0.934" style="stop-color:#777FF0"/>
		<stop  offset="1" style="stop-color:#6A82FB"/>
	</linearGradient>
	<path style="fill:url(#SVGID_8_);" d="M272.304,32.2h88v16h-88V32.2z"/>
	
		<linearGradient id="SVGID_9_" gradientUnits="userSpaceOnUse" x1="-4.5709" y1="615.7673" x2="-4.5709" y2="555.4853" gradientTransform="matrix(8 0 0 -8 452.8714 4942.8027)">
		<stop  offset="0" style="stop-color:#FC5C7D"/>
		<stop  offset="0.129" style="stop-color:#F35E85"/>
		<stop  offset="0.343" style="stop-color:#D9659B"/>
		<stop  offset="0.616" style="stop-color:#B070BF"/>
		<stop  offset="0.934" style="stop-color:#777FF0"/>
		<stop  offset="1" style="stop-color:#6A82FB"/>
	</linearGradient>
	<path style="fill:url(#SVGID_9_);" d="M408.304,432.2h16v16h-16V432.2z"/>
	
		<linearGradient id="SVGID_10_" gradientUnits="userSpaceOnUse" x1="0.9291" y1="615.7673" x2="0.9291" y2="555.4853" gradientTransform="matrix(8 0 0 -8 452.8714 4942.8027)">
		<stop  offset="0" style="stop-color:#FC5C7D"/>
		<stop  offset="0.129" style="stop-color:#F35E85"/>
		<stop  offset="0.343" style="stop-color:#D9659B"/>
		<stop  offset="0.616" style="stop-color:#B070BF"/>
		<stop  offset="0.934" style="stop-color:#777FF0"/>
		<stop  offset="1" style="stop-color:#6A82FB"/>
	</linearGradient>
	<path style="fill:url(#SVGID_10_);" d="M440.304,432.2h40v16h-40V432.2z"/>
	
		<linearGradient id="SVGID_11_" gradientUnits="userSpaceOnUse" x1="-2.0709" y1="615.7673" x2="-2.0709" y2="555.4853" gradientTransform="matrix(8 0 0 -8 452.8714 4942.8027)">
		<stop  offset="0" style="stop-color:#FC5C7D"/>
		<stop  offset="0.129" style="stop-color:#F35E85"/>
		<stop  offset="0.343" style="stop-color:#D9659B"/>
		<stop  offset="0.616" style="stop-color:#B070BF"/>
		<stop  offset="0.934" style="stop-color:#777FF0"/>
		<stop  offset="1" style="stop-color:#6A82FB"/>
	</linearGradient>
	<path style="fill:url(#SVGID_11_);" d="M392.304,464.2h88v16h-88V464.2z"/>
	
		<linearGradient id="SVGID_12_" gradientUnits="userSpaceOnUse" x1="-35.5709" y1="615.7673" x2="-35.5709" y2="555.4853" gradientTransform="matrix(8 0 0 -8 452.8714 4942.8027)">
		<stop  offset="0" style="stop-color:#FC5C7D"/>
		<stop  offset="0.129" style="stop-color:#F35E85"/>
		<stop  offset="0.343" style="stop-color:#D9659B"/>
		<stop  offset="0.616" style="stop-color:#B070BF"/>
		<stop  offset="0.934" style="stop-color:#777FF0"/>
		<stop  offset="1" style="stop-color:#6A82FB"/>
	</linearGradient>
	<path style="fill:url(#SVGID_12_);" d="M160.304,432.2h16v16h-16V432.2z"/>
	
		<linearGradient id="SVGID_13_" gradientUnits="userSpaceOnUse" x1="-30.0709" y1="615.7673" x2="-30.0709" y2="555.4853" gradientTransform="matrix(8 0 0 -8 452.8714 4942.8027)">
		<stop  offset="0" style="stop-color:#FC5C7D"/>
		<stop  offset="0.129" style="stop-color:#F35E85"/>
		<stop  offset="0.343" style="stop-color:#D9659B"/>
		<stop  offset="0.616" style="stop-color:#B070BF"/>
		<stop  offset="0.934" style="stop-color:#777FF0"/>
		<stop  offset="1" style="stop-color:#6A82FB"/>
	</linearGradient>
	<path style="fill:url(#SVGID_13_);" d="M192.304,432.2h40v16h-40V432.2z"/>
	
		<linearGradient id="SVGID_14_" gradientUnits="userSpaceOnUse" x1="-33.0709" y1="615.7673" x2="-33.0709" y2="555.4853" gradientTransform="matrix(8 0 0 -8 452.8714 4942.8027)">
		<stop  offset="0" style="stop-color:#FC5C7D"/>
		<stop  offset="0.129" style="stop-color:#F35E85"/>
		<stop  offset="0.343" style="stop-color:#D9659B"/>
		<stop  offset="0.616" style="stop-color:#B070BF"/>
		<stop  offset="0.934" style="stop-color:#777FF0"/>
		<stop  offset="1" style="stop-color:#6A82FB"/>
	</linearGradient>
	<path style="fill:url(#SVGID_14_);" d="M144.304,464.2h88v16h-88V464.2z"/>
	
		<linearGradient id="SVGID_15_" gradientUnits="userSpaceOnUse" x1="-53.5709" y1="615.7673" x2="-53.5709" y2="555.4853" gradientTransform="matrix(8 0 0 -8 452.8714 4942.8027)">
		<stop  offset="0" style="stop-color:#FC5C7D"/>
		<stop  offset="0.129" style="stop-color:#F35E85"/>
		<stop  offset="0.343" style="stop-color:#D9659B"/>
		<stop  offset="0.616" style="stop-color:#B070BF"/>
		<stop  offset="0.934" style="stop-color:#777FF0"/>
		<stop  offset="1" style="stop-color:#6A82FB"/>
	</linearGradient>
	<path style="fill:url(#SVGID_15_);" d="M16.304,232.2h16v16h-16V232.2z"/>
	
		<linearGradient id="SVGID_16_" gradientUnits="userSpaceOnUse" x1="-48.0709" y1="615.7673" x2="-48.0709" y2="555.4853" gradientTransform="matrix(8 0 0 -8 452.8714 4942.8027)">
		<stop  offset="0" style="stop-color:#FC5C7D"/>
		<stop  offset="0.129" style="stop-color:#F35E85"/>
		<stop  offset="0.343" style="stop-color:#D9659B"/>
		<stop  offset="0.616" style="stop-color:#B070BF"/>
		<stop  offset="0.934" style="stop-color:#777FF0"/>
		<stop  offset="1" style="stop-color:#6A82FB"/>
	</linearGradient>
	<path style="fill:url(#SVGID_16_);" d="M48.304,232.2h40v16h-40V232.2z"/>
	
		<linearGradient id="SVGID_17_" gradientUnits="userSpaceOnUse" x1="-51.0709" y1="615.7673" x2="-51.0709" y2="555.4853" gradientTransform="matrix(8 0 0 -8 452.8714 4942.8027)">
		<stop  offset="0" style="stop-color:#FC5C7D"/>
		<stop  offset="0.129" style="stop-color:#F35E85"/>
		<stop  offset="0.343" style="stop-color:#D9659B"/>
		<stop  offset="0.616" style="stop-color:#B070BF"/>
		<stop  offset="0.934" style="stop-color:#777FF0"/>
		<stop  offset="1" style="stop-color:#6A82FB"/>
	</linearGradient>
	<path style="fill:url(#SVGID_17_);" d="M0.304,264.2h88v16h-88V264.2z"/>
</g>
<g>
</g>
<g>
</g>
<g>
</g>
<g>
</g>
<g>
</g>
<g>
</g>
<g>
</g>
<g>
</g>
<g>
</g>
<g>
</g>
<g>
</g>
<g>
</g>
<g>
</g>
<g>
</g>
<g>
</g>
</svg>
