<?xml version="1.0" encoding="iso-8859-1"?>
<!-- Generator: Adobe Illustrator 19.0.0, SVG Export Plug-In . SVG Version: 6.00 Build 0)  -->
<svg version="1.1" id="Capa_1" xmlns="http://www.w3.org/2000/svg" xmlns:xlink="http://www.w3.org/1999/xlink" x="0px" y="0px"
	 viewBox="0 0 480 480" style="enable-background:new 0 0 480 480;" xml:space="preserve">
<linearGradient id="SVGID_1_" gradientUnits="userSpaceOnUse" x1="-1.875" y1="619.796" x2="-1.875" y2="555.595" gradientTransform="matrix(8 0 0 -8 454.9999 4941)">
	<stop  offset="0" style="stop-color:#FC5C7D"/>
	<stop  offset="0.129" style="stop-color:#F35E85"/>
	<stop  offset="0.343" style="stop-color:#D9659B"/>
	<stop  offset="0.616" style="stop-color:#B070BF"/>
	<stop  offset="0.934" style="stop-color:#777FF0"/>
	<stop  offset="1" style="stop-color:#6A82FB"/>
</linearGradient>
<path style="fill:url(#SVGID_1_);" d="M472,16h-64c-4.418,0-8,3.582-8,8v368c0,0.08,0.048,0.152,0.056,0.232
	c0.018,1.16,0.291,2.301,0.8,3.344l32,64c1.971,3.954,6.774,5.562,10.729,3.591c1.555-0.775,2.816-2.036,3.591-3.591l32-64
	c0.509-1.045,0.783-2.189,0.8-3.352c0.013-0.074,0.021-0.149,0.024-0.224V24C480,19.582,476.418,16,472,16L472,16z M416,112h16v272
	h-16V112z M416,80h48v16h-48V80z M448,112h16v272h-16V112z M464,32v32h-48V32H464z M420.944,400h38.112L440,438.112L420.944,400z"/>
<g>
	
		<linearGradient id="SVGID_2_" gradientUnits="userSpaceOnUse" x1="-33.875" y1="619.796" x2="-33.875" y2="555.595" gradientTransform="matrix(8 0 0 -8 454.9999 4941)">
		<stop  offset="0" style="stop-color:#FC5C7D"/>
		<stop  offset="0.129" style="stop-color:#F35E85"/>
		<stop  offset="0.343" style="stop-color:#D9659B"/>
		<stop  offset="0.616" style="stop-color:#B070BF"/>
		<stop  offset="0.934" style="stop-color:#777FF0"/>
		<stop  offset="1" style="stop-color:#6A82FB"/>
	</linearGradient>
	<path style="fill:url(#SVGID_2_);" d="M72,128h224c4.418,0,8-3.582,8-8V72c0-4.418-3.582-8-8-8H72c-4.418,0-8,3.582-8,8v48
		C64,124.418,67.582,128,72,128z M80,80h208v32H80V80z"/>
	
		<linearGradient id="SVGID_3_" gradientUnits="userSpaceOnUse" x1="-33.875" y1="619.796" x2="-33.875" y2="555.595" gradientTransform="matrix(8 0 0 -8 454.9999 4941)">
		<stop  offset="0" style="stop-color:#FC5C7D"/>
		<stop  offset="0.129" style="stop-color:#F35E85"/>
		<stop  offset="0.343" style="stop-color:#D9659B"/>
		<stop  offset="0.616" style="stop-color:#B070BF"/>
		<stop  offset="0.934" style="stop-color:#777FF0"/>
		<stop  offset="1" style="stop-color:#6A82FB"/>
	</linearGradient>
	<path style="fill:url(#SVGID_3_);" d="M64,144h240v16H64V144z"/>
	
		<linearGradient id="SVGID_4_" gradientUnits="userSpaceOnUse" x1="-41.875" y1="619.796" x2="-41.875" y2="555.595" gradientTransform="matrix(8 0 0 -8 454.9999 4941)">
		<stop  offset="0" style="stop-color:#FC5C7D"/>
		<stop  offset="0.129" style="stop-color:#F35E85"/>
		<stop  offset="0.343" style="stop-color:#D9659B"/>
		<stop  offset="0.616" style="stop-color:#B070BF"/>
		<stop  offset="0.934" style="stop-color:#777FF0"/>
		<stop  offset="1" style="stop-color:#6A82FB"/>
	</linearGradient>
	<path style="fill:url(#SVGID_4_);" d="M72,288h96c4.418,0,8-3.582,8-8v-96c0-4.418-3.582-8-8-8H72c-4.418,0-8,3.582-8,8v96
		C64,284.418,67.582,288,72,288z M131.312,232L160,203.312v57.376L131.312,232z M148.688,272H91.312L120,243.312L148.688,272z
		 M120,220.688L91.312,192h57.376L120,220.688z M108.688,232L80,260.688v-57.376L108.688,232z"/>
	
		<linearGradient id="SVGID_5_" gradientUnits="userSpaceOnUse" x1="-30.875" y1="619.796" x2="-30.875" y2="555.595" gradientTransform="matrix(8 0 0 -8 454.9999 4941)">
		<stop  offset="0" style="stop-color:#FC5C7D"/>
		<stop  offset="0.129" style="stop-color:#F35E85"/>
		<stop  offset="0.343" style="stop-color:#D9659B"/>
		<stop  offset="0.616" style="stop-color:#B070BF"/>
		<stop  offset="0.934" style="stop-color:#777FF0"/>
		<stop  offset="1" style="stop-color:#6A82FB"/>
	</linearGradient>
	<path style="fill:url(#SVGID_5_);" d="M200,176h16v16h-16V176z"/>
	
		<linearGradient id="SVGID_6_" gradientUnits="userSpaceOnUse" x1="-23.375" y1="619.796" x2="-23.375" y2="555.595" gradientTransform="matrix(8 0 0 -8 454.9999 4941)">
		<stop  offset="0" style="stop-color:#FC5C7D"/>
		<stop  offset="0.129" style="stop-color:#F35E85"/>
		<stop  offset="0.343" style="stop-color:#D9659B"/>
		<stop  offset="0.616" style="stop-color:#B070BF"/>
		<stop  offset="0.934" style="stop-color:#777FF0"/>
		<stop  offset="1" style="stop-color:#6A82FB"/>
	</linearGradient>
	<path style="fill:url(#SVGID_6_);" d="M232,176h72v16h-72V176z"/>
	
		<linearGradient id="SVGID_7_" gradientUnits="userSpaceOnUse" x1="-25.375" y1="619.796" x2="-25.375" y2="555.595" gradientTransform="matrix(8 0 0 -8 454.9999 4941)">
		<stop  offset="0" style="stop-color:#FC5C7D"/>
		<stop  offset="0.129" style="stop-color:#F35E85"/>
		<stop  offset="0.343" style="stop-color:#D9659B"/>
		<stop  offset="0.616" style="stop-color:#B070BF"/>
		<stop  offset="0.934" style="stop-color:#777FF0"/>
		<stop  offset="1" style="stop-color:#6A82FB"/>
	</linearGradient>
	<path style="fill:url(#SVGID_7_);" d="M200,208h104v16H200V208z"/>
	
		<linearGradient id="SVGID_8_" gradientUnits="userSpaceOnUse" x1="-25.375" y1="619.796" x2="-25.375" y2="555.595" gradientTransform="matrix(8 0 0 -8 454.9999 4941)">
		<stop  offset="0" style="stop-color:#FC5C7D"/>
		<stop  offset="0.129" style="stop-color:#F35E85"/>
		<stop  offset="0.343" style="stop-color:#D9659B"/>
		<stop  offset="0.616" style="stop-color:#B070BF"/>
		<stop  offset="0.934" style="stop-color:#777FF0"/>
		<stop  offset="1" style="stop-color:#6A82FB"/>
	</linearGradient>
	<path style="fill:url(#SVGID_8_);" d="M200,240h104v16H200V240z"/>
	
		<linearGradient id="SVGID_9_" gradientUnits="userSpaceOnUse" x1="-25.375" y1="619.796" x2="-25.375" y2="555.595" gradientTransform="matrix(8 0 0 -8 454.9999 4941)">
		<stop  offset="0" style="stop-color:#FC5C7D"/>
		<stop  offset="0.129" style="stop-color:#F35E85"/>
		<stop  offset="0.343" style="stop-color:#D9659B"/>
		<stop  offset="0.616" style="stop-color:#B070BF"/>
		<stop  offset="0.934" style="stop-color:#777FF0"/>
		<stop  offset="1" style="stop-color:#6A82FB"/>
	</linearGradient>
	<path style="fill:url(#SVGID_9_);" d="M200,272h104v16H200V272z"/>
	
		<linearGradient id="SVGID_10_" gradientUnits="userSpaceOnUse" x1="-33.875" y1="619.796" x2="-33.875" y2="555.595" gradientTransform="matrix(8 0 0 -8 454.9999 4941)">
		<stop  offset="0" style="stop-color:#FC5C7D"/>
		<stop  offset="0.129" style="stop-color:#F35E85"/>
		<stop  offset="0.343" style="stop-color:#D9659B"/>
		<stop  offset="0.616" style="stop-color:#B070BF"/>
		<stop  offset="0.934" style="stop-color:#777FF0"/>
		<stop  offset="1" style="stop-color:#6A82FB"/>
	</linearGradient>
	<path style="fill:url(#SVGID_10_);" d="M304,392v-48c0-4.418-3.582-8-8-8H72c-4.418,0-8,3.582-8,8v48c0,4.418,3.582,8,8,8h224
		C300.418,400,304,396.418,304,392z M288,384H80v-32h208V384z"/>
	
		<linearGradient id="SVGID_11_" gradientUnits="userSpaceOnUse" x1="-33.875" y1="619.796" x2="-33.875" y2="555.595" gradientTransform="matrix(8 0 0 -8 454.9999 4941)">
		<stop  offset="0" style="stop-color:#FC5C7D"/>
		<stop  offset="0.129" style="stop-color:#F35E85"/>
		<stop  offset="0.343" style="stop-color:#D9659B"/>
		<stop  offset="0.616" style="stop-color:#B070BF"/>
		<stop  offset="0.934" style="stop-color:#777FF0"/>
		<stop  offset="1" style="stop-color:#6A82FB"/>
	</linearGradient>
	<path style="fill:url(#SVGID_11_);" d="M64,304h240v16H64V304z"/>
	
		<linearGradient id="SVGID_12_" gradientUnits="userSpaceOnUse" x1="-33.875" y1="619.796" x2="-33.875" y2="555.595" gradientTransform="matrix(8 0 0 -8 454.9999 4941)">
		<stop  offset="0" style="stop-color:#FC5C7D"/>
		<stop  offset="0.129" style="stop-color:#F35E85"/>
		<stop  offset="0.343" style="stop-color:#D9659B"/>
		<stop  offset="0.616" style="stop-color:#B070BF"/>
		<stop  offset="0.934" style="stop-color:#777FF0"/>
		<stop  offset="1" style="stop-color:#6A82FB"/>
	</linearGradient>
	<path style="fill:url(#SVGID_12_);" d="M32,480h272c17.673,0,32-14.327,32-32v-8h24c4.418,0,8-3.582,8-8V8c0-4.418-3.582-8-8-8H56
		c-4.418,0-8,3.582-8,8v24h-8c-4.418,0-8,3.582-8,8v376H8c-4.418,0-8,3.582-8,8v24C0,465.673,14.327,480,32,480z M64,16h288v408h-16
		V40c0-4.418-3.582-8-8-8H64V16z M48,48h272v400c0,8.837-7.163,16-16,16s-16-7.163-16-16v-24c0-4.418-3.582-8-8-8H48V48z M16,432
		h256v16c-0.009,5.619,1.474,11.141,4.296,16H32c-8.837,0-16-7.163-16-16L16,432z"/>
</g>
<g>
</g>
<g>
</g>
<g>
</g>
<g>
</g>
<g>
</g>
<g>
</g>
<g>
</g>
<g>
</g>
<g>
</g>
<g>
</g>
<g>
</g>
<g>
</g>
<g>
</g>
<g>
</g>
<g>
</g>
</svg>
