<?xml version="1.0" encoding="iso-8859-1"?>
<!-- Generator: Adobe Illustrator 19.0.0, SVG Export Plug-In . SVG Version: 6.00 Build 0)  -->
<svg version="1.1" id="Capa_1" xmlns="http://www.w3.org/2000/svg" xmlns:xlink="http://www.w3.org/1999/xlink" x="0px" y="0px"
	 viewBox="0 0 439.976 439.976" style="enable-background:new 0 0 439.976 439.976;" xml:space="preserve">
<linearGradient id="SVGID_1_" gradientUnits="userSpaceOnUse" x1="-51.0417" y1="600.3034" x2="-51.0417" y2="540.0214" gradientTransform="matrix(8 0 0 -8 628.3215 4803.6279)">
	<stop  offset="0" style="stop-color:#FC5C7D"/>
	<stop  offset="0.129" style="stop-color:#F35E85"/>
	<stop  offset="0.343" style="stop-color:#D9659B"/>
	<stop  offset="0.616" style="stop-color:#B070BF"/>
	<stop  offset="0.934" style="stop-color:#777FF0"/>
	<stop  offset="1" style="stop-color:#6A82FB"/>
</linearGradient>
<path style="fill:url(#SVGID_1_);" d="M317.064,21.088L107.76,230.392c-0.981,0.983-1.69,2.204-2.056,3.544L89.288,294.12
	l-77.696,77.696c-15.552,15.689-15.441,41.016,0.248,56.568c15.592,15.456,40.728,15.456,56.32,0l77.696-77.696l60.184-16.416
	c1.34-0.366,2.561-1.075,3.544-2.056l209.304-209.304c28.118-28.118,28.118-73.706,0-101.824S345.182-7.029,317.064,21.088
	L317.064,21.088z M373.64,88.968c-6.329,6.047-16.295,6.047-22.624,0c-6.249-6.247-6.251-16.378-0.003-22.627
	s16.378-6.251,22.627-0.003s6.251,16.378,0.003,22.627C373.642,88.966,373.641,88.967,373.64,88.968z M339.704,100.28
	c10.269,10.358,26.283,12.366,38.792,4.864l17.776,17.768L203.928,315.24l-79.2-79.2L317.064,43.712l17.768,17.776
	c-7.502,12.509-5.494,28.523,4.864,38.792L339.704,100.28z M56.84,417.072c-9.208,9.534-24.402,9.798-33.936,0.59
	c-9.534-9.208-9.798-24.402-0.59-33.936c0.193-0.2,0.39-0.397,0.59-0.59L39.88,366.16l33.944,33.944L56.84,417.072z
	 M139.592,335.816c-1.341,0.368-2.562,1.08-3.544,2.064l-50.912,50.904l-11.32-11.312l50.92-50.912l-11.32-11.32l-50.912,50.92
	l-11.312-11.32l50.904-50.904c0.984-0.982,1.696-2.203,2.064-3.544l13.352-48.936l71.016,71.016L139.592,335.816z M407.592,111.6
	L389.8,93.832c7.511-12.508,5.506-28.529-4.856-38.8c-10.45-9.941-26.167-11.889-38.728-4.8l-17.84-17.84
	c21.87-21.87,57.33-21.87,79.2,0c21.87,21.87,21.87,57.33,0,79.2l0,0L407.592,111.6z"/>
<linearGradient id="SVGID_2_" gradientUnits="userSpaceOnUse" x1="-46.6852" y1="600.3034" x2="-46.6852" y2="540.0214" gradientTransform="matrix(8 0 0 -8 628.3215 4803.6279)">
	<stop  offset="0" style="stop-color:#FC5C7D"/>
	<stop  offset="0.129" style="stop-color:#F35E85"/>
	<stop  offset="0.343" style="stop-color:#D9659B"/>
	<stop  offset="0.616" style="stop-color:#B070BF"/>
	<stop  offset="0.934" style="stop-color:#777FF0"/>
	<stop  offset="1" style="stop-color:#6A82FB"/>
</linearGradient>
<path style="fill:url(#SVGID_2_);" d="M288.776,94.624L164.328,219.08c-3.123,3.124-3.123,8.188,0,11.312l45.256,45.256
	c3.124,3.123,8.188,3.123,11.312,0L345.352,151.2c3.123-3.124,3.123-8.188,0-11.312l-45.264-45.264
	C296.964,91.501,291.9,91.501,288.776,94.624L288.776,94.624z M215.24,258.68l-33.944-33.944L294.44,111.592l33.944,33.944
	L215.24,258.68z"/>
<linearGradient id="SVGID_3_" gradientUnits="userSpaceOnUse" x1="-43.0565" y1="595.7759" x2="-85.6845" y2="553.1519" gradientTransform="matrix(5.6569 -5.6569 -5.6569 -5.6569 3908.251 3127.8621)">
	<stop  offset="0" style="stop-color:#FC5C7D"/>
	<stop  offset="0.129" style="stop-color:#F35E85"/>
	<stop  offset="0.343" style="stop-color:#D9659B"/>
	<stop  offset="0.616" style="stop-color:#B070BF"/>
	<stop  offset="0.934" style="stop-color:#777FF0"/>
	<stop  offset="1" style="stop-color:#6A82FB"/>
</linearGradient>
<path style="fill:url(#SVGID_3_);" d="M283.132,145.536l11.314-11.314l11.314,11.314l-11.314,11.314L283.132,145.536z"/>
<linearGradient id="SVGID_4_" gradientUnits="userSpaceOnUse" x1="-43.8861" y1="594.9485" x2="-86.5101" y2="552.3245" gradientTransform="matrix(5.6569 -5.6569 -5.6569 -5.6569 3885.6189 3118.4939)">
	<stop  offset="0" style="stop-color:#FC5C7D"/>
	<stop  offset="0.129" style="stop-color:#F35E85"/>
	<stop  offset="0.343" style="stop-color:#D9659B"/>
	<stop  offset="0.616" style="stop-color:#B070BF"/>
	<stop  offset="0.934" style="stop-color:#777FF0"/>
	<stop  offset="1" style="stop-color:#6A82FB"/>
</linearGradient>
<path style="fill:url(#SVGID_4_);" d="M260.494,168.169l11.314-11.314l11.314,11.314l-11.314,11.314L260.494,168.169z"/>
<linearGradient id="SVGID_5_" gradientUnits="userSpaceOnUse" x1="-44.7153" y1="594.1207" x2="-87.3383" y2="551.4957" gradientTransform="matrix(5.6569 -5.6569 -5.6569 -5.6569 3863.011 3109.1179)">
	<stop  offset="0" style="stop-color:#FC5C7D"/>
	<stop  offset="0.129" style="stop-color:#F35E85"/>
	<stop  offset="0.343" style="stop-color:#D9659B"/>
	<stop  offset="0.616" style="stop-color:#B070BF"/>
	<stop  offset="0.934" style="stop-color:#777FF0"/>
	<stop  offset="1" style="stop-color:#6A82FB"/>
</linearGradient>
<path style="fill:url(#SVGID_5_);" d="M237.881,190.794l11.319-11.319l11.314,11.314l-11.319,11.319L237.881,190.794z"/>
<linearGradient id="SVGID_6_" gradientUnits="userSpaceOnUse" x1="-48.8566" y1="589.9789" x2="-91.4806" y2="547.3519" gradientTransform="matrix(5.6569 -5.6569 -5.6569 -5.6569 3749.8909 3062.262)">
	<stop  offset="0" style="stop-color:#FC5C7D"/>
	<stop  offset="0.129" style="stop-color:#F35E85"/>
	<stop  offset="0.343" style="stop-color:#D9659B"/>
	<stop  offset="0.616" style="stop-color:#B070BF"/>
	<stop  offset="0.934" style="stop-color:#777FF0"/>
	<stop  offset="1" style="stop-color:#6A82FB"/>
</linearGradient>
<path style="fill:url(#SVGID_6_);" d="M124.772,303.937l11.314-11.314l11.314,11.314l-11.314,11.314L124.772,303.937z"/>
<g>
</g>
<g>
</g>
<g>
</g>
<g>
</g>
<g>
</g>
<g>
</g>
<g>
</g>
<g>
</g>
<g>
</g>
<g>
</g>
<g>
</g>
<g>
</g>
<g>
</g>
<g>
</g>
<g>
</g>
</svg>
