<?xml version="1.0" encoding="iso-8859-1"?>
<!-- Generator: Adobe Illustrator 19.0.0, SVG Export Plug-In . SVG Version: 6.00 Build 0)  -->
<svg version="1.1" id="Capa_1" xmlns="http://www.w3.org/2000/svg" xmlns:xlink="http://www.w3.org/1999/xlink" x="0px" y="0px"
	 viewBox="0 0 480.019 480.019" style="enable-background:new 0 0 480.019 480.019;" xml:space="preserve">
<g>
	
		<linearGradient id="SVGID_1_" gradientUnits="userSpaceOnUse" x1="-26.8653" y1="617.5333" x2="-26.8653" y2="551.6243" gradientTransform="matrix(8 0 0 -8 454.9323 4941.1738)">
		<stop  offset="0" style="stop-color:#FC5C7D"/>
		<stop  offset="0.129" style="stop-color:#F35E85"/>
		<stop  offset="0.343" style="stop-color:#D9659B"/>
		<stop  offset="0.616" style="stop-color:#B070BF"/>
		<stop  offset="0.934" style="stop-color:#777FF0"/>
		<stop  offset="1" style="stop-color:#6A82FB"/>
	</linearGradient>
	<path style="fill:url(#SVGID_1_);" d="M424.01,400.019c26.499-0.026,47.974-21.501,48-48v-248c-0.026-26.499-21.501-47.974-48-48
		h-96.8C305.209,7.882,248.351-13.305,200.214,8.695c-20.949,9.575-37.749,26.375-47.324,47.324H56.01
		c-26.499,0.026-47.974,21.501-48,48v248c0.026,26.499,21.501,47.974,48,48h124.912l-10.68,32H80.01c-13.255,0-24,10.745-24,24
		s10.745,24,24,24h320c13.255,0,24-10.745,24-24s-10.745-24-24-24h-90.232l-10.68-32H424.01z M240.01,16.019
		c44.183,0,80,35.817,80,80s-35.817,80-80,80s-80-35.817-80-80C160.058,51.857,195.847,16.068,240.01,16.019z M56.01,72.019h91.2
		c-6.981,26.299-2.319,54.329,12.8,76.952v53.28l-33.904,11.304c-5.879-16.559-24.068-25.217-40.627-19.338
		c-16.559,5.879-25.217,24.068-19.338,40.627c5.879,16.559,24.068,25.217,40.627,19.338c10.709-3.802,18.578-13.028,20.642-24.203
		l43.128-14.4c3.257-1.085,5.459-4.127,5.472-7.56v-40.648c11.415,10.27,25.135,17.64,40,21.488v46.88l-14.4,9.6
		c-15.052-10.261-35.572-6.376-45.833,8.675c-10.261,15.052-6.377,35.572,8.675,45.833s35.572,6.376,45.833-8.675
		c6.83-10.019,7.612-22.977,2.037-33.745l16.128-10.752c2.225-1.484,3.56-3.982,3.56-6.656v-48.408c2.648,0.224,5.296,0.408,8,0.408
		c2.704,0,5.352-0.184,8-0.408v32.408c0,2.674,1.335,5.172,3.56,6.656l16.128,10.752c-2.39,4.495-3.655,9.502-3.688,14.592
		c-0.054,17.726,14.273,32.139,31.999,32.193s32.139-14.273,32.193-31.999s-14.273-32.139-31.999-32.193
		c-6.326-0.019-12.516,1.831-17.793,5.319l-14.4-9.6v-30.88c14.865-3.848,28.585-11.218,40-21.488v32.648
		c-0.001,3.032,1.712,5.805,4.424,7.16l44.104,22.048c2.922,17.385,19.384,29.11,36.769,26.188
		c17.385-2.922,29.11-19.384,26.188-36.769c-2.922-17.385-19.384-29.11-36.769-26.188c-11.038,1.855-20.298,9.356-24.404,19.769
		l-34.312-17.152v-46.104c15.132-22.616,19.81-50.648,12.84-76.952h91.16c17.673,0,32,14.327,32,32v216h-432v-216
		C24.01,86.346,38.337,72.019,56.01,72.019L56.01,72.019z M112.01,224.019c0,8.837-7.163,16-16,16s-16-7.163-16-16s7.163-16,16-16
		S112.01,215.183,112.01,224.019z M200.01,272.019c0,8.837-7.163,16-16,16s-16-7.163-16-16s7.163-16,16-16
		S200.01,263.183,200.01,272.019z M296.01,240.019c8.837,0,16,7.163,16,16s-7.163,16-16,16s-16-7.163-16-16
		S287.173,240.019,296.01,240.019z M368.01,224.019c0-8.837,7.163-16,16-16s16,7.163,16,16s-7.163,16-16,16
		S368.01,232.856,368.01,224.019z M24.01,352.019v-16h432v16c0,17.673-14.327,32-32,32h-368
		C38.337,384.019,24.01,369.692,24.01,352.019z M408.01,456.019c0,4.418-3.582,8-8,8h-320c-4.418,0-8-3.582-8-8s3.582-8,8-8h320
		C404.428,448.019,408.01,451.601,408.01,456.019z M292.89,432.019H187.114l10.68-32h84.432L292.89,432.019z"/>
	
		<linearGradient id="SVGID_2_" gradientUnits="userSpaceOnUse" x1="-26.8633" y1="617.5333" x2="-26.8633" y2="551.6243" gradientTransform="matrix(8 0 0 -8 454.9323 4941.1738)">
		<stop  offset="0" style="stop-color:#FC5C7D"/>
		<stop  offset="0.129" style="stop-color:#F35E85"/>
		<stop  offset="0.343" style="stop-color:#D9659B"/>
		<stop  offset="0.616" style="stop-color:#B070BF"/>
		<stop  offset="0.934" style="stop-color:#777FF0"/>
		<stop  offset="1" style="stop-color:#6A82FB"/>
	</linearGradient>
	<path style="fill:url(#SVGID_2_);" d="M232.026,352.019h16v16h-16L232.026,352.019z"/>
</g>
<g>
	
		<linearGradient id="SVGID_3_" gradientUnits="userSpaceOnUse" x1="-26.8653" y1="617.5333" x2="-26.8653" y2="551.6243" gradientTransform="matrix(8 0 0 -8 454.9323 4941.1738)">
		<stop  offset="0" style="stop-color:#FC5C7D"/>
		<stop  offset="0.129" style="stop-color:#F35E85"/>
		<stop  offset="0.343" style="stop-color:#D9659B"/>
		<stop  offset="0.616" style="stop-color:#B070BF"/>
		<stop  offset="0.934" style="stop-color:#777FF0"/>
		<stop  offset="1" style="stop-color:#6A82FB"/>
	</linearGradient>
	<path style="fill:url(#SVGID_3_);" d="M232.01,59.331v52.688h16V59.331l18.344,18.344l11.312-11.312l-32-32
		c-3.124-3.123-8.188-3.123-11.312,0l-32,32l11.312,11.312L232.01,59.331z"/>
	
		<linearGradient id="SVGID_4_" gradientUnits="userSpaceOnUse" x1="-26.8653" y1="617.5333" x2="-26.8653" y2="551.6243" gradientTransform="matrix(8 0 0 -8 454.9323 4941.1738)">
		<stop  offset="0" style="stop-color:#FC5C7D"/>
		<stop  offset="0.129" style="stop-color:#F35E85"/>
		<stop  offset="0.343" style="stop-color:#D9659B"/>
		<stop  offset="0.616" style="stop-color:#B070BF"/>
		<stop  offset="0.934" style="stop-color:#777FF0"/>
		<stop  offset="1" style="stop-color:#6A82FB"/>
	</linearGradient>
	<path style="fill:url(#SVGID_4_);" d="M200.01,144.019h80c4.418,0,8-3.582,8-8v-24h-16v16h-64v-16h-16v24
		C192.01,140.438,195.591,144.019,200.01,144.019z"/>
	
		<linearGradient id="SVGID_5_" gradientUnits="userSpaceOnUse" x1="-46.3653" y1="617.5333" x2="-46.3653" y2="551.6243" gradientTransform="matrix(8 0 0 -8 454.9323 4941.1738)">
		<stop  offset="0" style="stop-color:#FC5C7D"/>
		<stop  offset="0.129" style="stop-color:#F35E85"/>
		<stop  offset="0.343" style="stop-color:#D9659B"/>
		<stop  offset="0.616" style="stop-color:#B070BF"/>
		<stop  offset="0.934" style="stop-color:#777FF0"/>
		<stop  offset="1" style="stop-color:#6A82FB"/>
	</linearGradient>
	<path style="fill:url(#SVGID_5_);" d="M48.01,128.019h72v16h-72V128.019z"/>
	
		<linearGradient id="SVGID_6_" gradientUnits="userSpaceOnUse" x1="-47.8653" y1="617.5333" x2="-47.8653" y2="551.6243" gradientTransform="matrix(8 0 0 -8 454.9323 4941.1738)">
		<stop  offset="0" style="stop-color:#FC5C7D"/>
		<stop  offset="0.129" style="stop-color:#F35E85"/>
		<stop  offset="0.343" style="stop-color:#D9659B"/>
		<stop  offset="0.616" style="stop-color:#B070BF"/>
		<stop  offset="0.934" style="stop-color:#777FF0"/>
		<stop  offset="1" style="stop-color:#6A82FB"/>
	</linearGradient>
	<path style="fill:url(#SVGID_6_);" d="M48.01,160.019h48v16h-48V160.019z"/>
	
		<linearGradient id="SVGID_7_" gradientUnits="userSpaceOnUse" x1="-44.3653" y1="617.5333" x2="-44.3653" y2="551.6243" gradientTransform="matrix(8 0 0 -8 454.9323 4941.1738)">
		<stop  offset="0" style="stop-color:#FC5C7D"/>
		<stop  offset="0.129" style="stop-color:#F35E85"/>
		<stop  offset="0.343" style="stop-color:#D9659B"/>
		<stop  offset="0.616" style="stop-color:#B070BF"/>
		<stop  offset="0.934" style="stop-color:#777FF0"/>
		<stop  offset="1" style="stop-color:#6A82FB"/>
	</linearGradient>
	<path style="fill:url(#SVGID_7_);" d="M80.01,96.019h40v16h-40V96.019z"/>
	
		<linearGradient id="SVGID_8_" gradientUnits="userSpaceOnUse" x1="-49.8653" y1="617.5333" x2="-49.8653" y2="551.6243" gradientTransform="matrix(8 0 0 -8 454.9323 4941.1738)">
		<stop  offset="0" style="stop-color:#FC5C7D"/>
		<stop  offset="0.129" style="stop-color:#F35E85"/>
		<stop  offset="0.343" style="stop-color:#D9659B"/>
		<stop  offset="0.616" style="stop-color:#B070BF"/>
		<stop  offset="0.934" style="stop-color:#777FF0"/>
		<stop  offset="1" style="stop-color:#6A82FB"/>
	</linearGradient>
	<path style="fill:url(#SVGID_8_);" d="M48.01,96.019h16v16h-16V96.019z"/>
	
		<linearGradient id="SVGID_9_" gradientUnits="userSpaceOnUse" x1="-49.8653" y1="617.5333" x2="-49.8653" y2="551.6243" gradientTransform="matrix(8 0 0 -8 454.9323 4941.1738)">
		<stop  offset="0" style="stop-color:#FC5C7D"/>
		<stop  offset="0.129" style="stop-color:#F35E85"/>
		<stop  offset="0.343" style="stop-color:#D9659B"/>
		<stop  offset="0.616" style="stop-color:#B070BF"/>
		<stop  offset="0.934" style="stop-color:#777FF0"/>
		<stop  offset="1" style="stop-color:#6A82FB"/>
	</linearGradient>
	<path style="fill:url(#SVGID_9_);" d="M48.01,280.019h16v16h-16V280.019z"/>
	
		<linearGradient id="SVGID_10_" gradientUnits="userSpaceOnUse" x1="-45.8653" y1="617.5333" x2="-45.8653" y2="551.6243" gradientTransform="matrix(8 0 0 -8 454.9323 4941.1738)">
		<stop  offset="0" style="stop-color:#FC5C7D"/>
		<stop  offset="0.129" style="stop-color:#F35E85"/>
		<stop  offset="0.343" style="stop-color:#D9659B"/>
		<stop  offset="0.616" style="stop-color:#B070BF"/>
		<stop  offset="0.934" style="stop-color:#777FF0"/>
		<stop  offset="1" style="stop-color:#6A82FB"/>
	</linearGradient>
	<path style="fill:url(#SVGID_10_);" d="M80.01,280.019h16v16h-16V280.019z"/>
	
		<linearGradient id="SVGID_11_" gradientUnits="userSpaceOnUse" x1="-41.8653" y1="617.5333" x2="-41.8653" y2="551.6243" gradientTransform="matrix(8 0 0 -8 454.9323 4941.1738)">
		<stop  offset="0" style="stop-color:#FC5C7D"/>
		<stop  offset="0.129" style="stop-color:#F35E85"/>
		<stop  offset="0.343" style="stop-color:#D9659B"/>
		<stop  offset="0.616" style="stop-color:#B070BF"/>
		<stop  offset="0.934" style="stop-color:#777FF0"/>
		<stop  offset="1" style="stop-color:#6A82FB"/>
	</linearGradient>
	<path style="fill:url(#SVGID_11_);" d="M112.01,280.019h16v16h-16V280.019z"/>
	
		<linearGradient id="SVGID_12_" gradientUnits="userSpaceOnUse" x1="-3.8653" y1="617.5333" x2="-3.8653" y2="551.6243" gradientTransform="matrix(8 0 0 -8 454.9323 4941.1738)">
		<stop  offset="0" style="stop-color:#FC5C7D"/>
		<stop  offset="0.129" style="stop-color:#F35E85"/>
		<stop  offset="0.343" style="stop-color:#D9659B"/>
		<stop  offset="0.616" style="stop-color:#B070BF"/>
		<stop  offset="0.934" style="stop-color:#777FF0"/>
		<stop  offset="1" style="stop-color:#6A82FB"/>
	</linearGradient>
	<path style="fill:url(#SVGID_12_);" d="M416.01,280.019h16v16h-16V280.019z"/>
	
		<linearGradient id="SVGID_13_" gradientUnits="userSpaceOnUse" x1="-7.8653" y1="617.5333" x2="-7.8653" y2="551.6243" gradientTransform="matrix(8 0 0 -8 454.9323 4941.1738)">
		<stop  offset="0" style="stop-color:#FC5C7D"/>
		<stop  offset="0.129" style="stop-color:#F35E85"/>
		<stop  offset="0.343" style="stop-color:#D9659B"/>
		<stop  offset="0.616" style="stop-color:#B070BF"/>
		<stop  offset="0.934" style="stop-color:#777FF0"/>
		<stop  offset="1" style="stop-color:#6A82FB"/>
	</linearGradient>
	<path style="fill:url(#SVGID_13_);" d="M384.01,280.019h16v16h-16V280.019z"/>
	
		<linearGradient id="SVGID_14_" gradientUnits="userSpaceOnUse" x1="-11.8653" y1="617.5333" x2="-11.8653" y2="551.6243" gradientTransform="matrix(8 0 0 -8 454.9323 4941.1738)">
		<stop  offset="0" style="stop-color:#FC5C7D"/>
		<stop  offset="0.129" style="stop-color:#F35E85"/>
		<stop  offset="0.343" style="stop-color:#D9659B"/>
		<stop  offset="0.616" style="stop-color:#B070BF"/>
		<stop  offset="0.934" style="stop-color:#777FF0"/>
		<stop  offset="1" style="stop-color:#6A82FB"/>
	</linearGradient>
	<path style="fill:url(#SVGID_14_);" d="M352.01,280.019h16v16h-16V280.019z"/>
	
		<linearGradient id="SVGID_15_" gradientUnits="userSpaceOnUse" x1="-7.3653" y1="617.5333" x2="-7.3653" y2="551.6243" gradientTransform="matrix(8 0 0 -8 454.9323 4941.1738)">
		<stop  offset="0" style="stop-color:#FC5C7D"/>
		<stop  offset="0.129" style="stop-color:#F35E85"/>
		<stop  offset="0.343" style="stop-color:#D9659B"/>
		<stop  offset="0.616" style="stop-color:#B070BF"/>
		<stop  offset="0.934" style="stop-color:#777FF0"/>
		<stop  offset="1" style="stop-color:#6A82FB"/>
	</linearGradient>
	<path style="fill:url(#SVGID_15_);" d="M360.01,128.019h72v16h-72V128.019z"/>
	
		<linearGradient id="SVGID_16_" gradientUnits="userSpaceOnUse" x1="-8.8653" y1="617.5333" x2="-8.8653" y2="551.6243" gradientTransform="matrix(8 0 0 -8 454.9323 4941.1738)">
		<stop  offset="0" style="stop-color:#FC5C7D"/>
		<stop  offset="0.129" style="stop-color:#F35E85"/>
		<stop  offset="0.343" style="stop-color:#D9659B"/>
		<stop  offset="0.616" style="stop-color:#B070BF"/>
		<stop  offset="0.934" style="stop-color:#777FF0"/>
		<stop  offset="1" style="stop-color:#6A82FB"/>
	</linearGradient>
	<path style="fill:url(#SVGID_16_);" d="M360.01,160.019h48v16h-48V160.019z"/>
	
		<linearGradient id="SVGID_17_" gradientUnits="userSpaceOnUse" x1="-5.3653" y1="617.5333" x2="-5.3653" y2="551.6243" gradientTransform="matrix(8 0 0 -8 454.9323 4941.1738)">
		<stop  offset="0" style="stop-color:#FC5C7D"/>
		<stop  offset="0.129" style="stop-color:#F35E85"/>
		<stop  offset="0.343" style="stop-color:#D9659B"/>
		<stop  offset="0.616" style="stop-color:#B070BF"/>
		<stop  offset="0.934" style="stop-color:#777FF0"/>
		<stop  offset="1" style="stop-color:#6A82FB"/>
	</linearGradient>
	<path style="fill:url(#SVGID_17_);" d="M392.01,96.019h40v16h-40V96.019z"/>
	
		<linearGradient id="SVGID_18_" gradientUnits="userSpaceOnUse" x1="-10.8653" y1="617.5333" x2="-10.8653" y2="551.6243" gradientTransform="matrix(8 0 0 -8 454.9323 4941.1738)">
		<stop  offset="0" style="stop-color:#FC5C7D"/>
		<stop  offset="0.129" style="stop-color:#F35E85"/>
		<stop  offset="0.343" style="stop-color:#D9659B"/>
		<stop  offset="0.616" style="stop-color:#B070BF"/>
		<stop  offset="0.934" style="stop-color:#777FF0"/>
		<stop  offset="1" style="stop-color:#6A82FB"/>
	</linearGradient>
	<path style="fill:url(#SVGID_18_);" d="M360.01,96.019h16v16h-16V96.019z"/>
</g>
<g>
</g>
<g>
</g>
<g>
</g>
<g>
</g>
<g>
</g>
<g>
</g>
<g>
</g>
<g>
</g>
<g>
</g>
<g>
</g>
<g>
</g>
<g>
</g>
<g>
</g>
<g>
</g>
<g>
</g>
</svg>
