<?xml version="1.0" encoding="iso-8859-1"?>
<!-- Generator: Adobe Illustrator 19.0.0, SVG Export Plug-In . SVG Version: 6.00 Build 0)  -->
<svg version="1.1" id="Capa_1" xmlns="http://www.w3.org/2000/svg" xmlns:xlink="http://www.w3.org/1999/xlink" x="0px" y="0px"
	 viewBox="0 0 480 480" style="enable-background:new 0 0 480 480;" xml:space="preserve">
<linearGradient id="SVGID_1_" gradientUnits="userSpaceOnUse" x1="-31.851" y1="619.13" x2="-31.851" y2="554.625" gradientTransform="matrix(8 0 0 -8 482.8321 4941)">
	<stop  offset="0" style="stop-color:#FC5C7D"/>
	<stop  offset="0.129" style="stop-color:#F35E85"/>
	<stop  offset="0.343" style="stop-color:#D9659B"/>
	<stop  offset="0.616" style="stop-color:#B070BF"/>
	<stop  offset="0.934" style="stop-color:#777FF0"/>
	<stop  offset="1" style="stop-color:#6A82FB"/>
</linearGradient>
<path style="fill:url(#SVGID_1_);" d="M220.024,32h16v16h-16V32z"/>
<g>
	
		<linearGradient id="SVGID_2_" gradientUnits="userSpaceOnUse" x1="-27.851" y1="619.13" x2="-27.851" y2="554.625" gradientTransform="matrix(8 0 0 -8 482.8321 4941)">
		<stop  offset="0" style="stop-color:#FC5C7D"/>
		<stop  offset="0.129" style="stop-color:#F35E85"/>
		<stop  offset="0.343" style="stop-color:#D9659B"/>
		<stop  offset="0.616" style="stop-color:#B070BF"/>
		<stop  offset="0.934" style="stop-color:#777FF0"/>
		<stop  offset="1" style="stop-color:#6A82FB"/>
	</linearGradient>
	<path style="fill:url(#SVGID_2_);" d="M252.024,32h16v16h-16V32z"/>
	
		<linearGradient id="SVGID_3_" gradientUnits="userSpaceOnUse" x1="-24.851" y1="619.13" x2="-24.851" y2="554.625" gradientTransform="matrix(8 0 0 -8 482.8321 4941)">
		<stop  offset="0" style="stop-color:#FC5C7D"/>
		<stop  offset="0.129" style="stop-color:#F35E85"/>
		<stop  offset="0.343" style="stop-color:#D9659B"/>
		<stop  offset="0.616" style="stop-color:#B070BF"/>
		<stop  offset="0.934" style="stop-color:#777FF0"/>
		<stop  offset="1" style="stop-color:#6A82FB"/>
	</linearGradient>
	<path style="fill:url(#SVGID_3_);" d="M276.024,120h16v16h-16V120z"/>
	
		<linearGradient id="SVGID_4_" gradientUnits="userSpaceOnUse" x1="-37.851" y1="619.13" x2="-37.851" y2="554.625" gradientTransform="matrix(8 0 0 -8 482.8321 4941)">
		<stop  offset="0" style="stop-color:#FC5C7D"/>
		<stop  offset="0.129" style="stop-color:#F35E85"/>
		<stop  offset="0.343" style="stop-color:#D9659B"/>
		<stop  offset="0.616" style="stop-color:#B070BF"/>
		<stop  offset="0.934" style="stop-color:#777FF0"/>
		<stop  offset="1" style="stop-color:#6A82FB"/>
	</linearGradient>
	<path style="fill:url(#SVGID_4_);" d="M172.024,280h16v16h-16V280z"/>
	
		<linearGradient id="SVGID_5_" gradientUnits="userSpaceOnUse" x1="-29.851" y1="619.13" x2="-29.851" y2="554.625" gradientTransform="matrix(8 0 0 -8 482.8321 4941)">
		<stop  offset="0" style="stop-color:#FC5C7D"/>
		<stop  offset="0.129" style="stop-color:#F35E85"/>
		<stop  offset="0.343" style="stop-color:#D9659B"/>
		<stop  offset="0.616" style="stop-color:#B070BF"/>
		<stop  offset="0.934" style="stop-color:#777FF0"/>
		<stop  offset="1" style="stop-color:#6A82FB"/>
	</linearGradient>
	<path style="fill:url(#SVGID_5_);" d="M236.024,432h16v16h-16V432z"/>
	
		<linearGradient id="SVGID_6_" gradientUnits="userSpaceOnUse" x1="-30.354" y1="619.13" x2="-30.354" y2="554.625" gradientTransform="matrix(8 0 0 -8 482.8321 4941)">
		<stop  offset="0" style="stop-color:#FC5C7D"/>
		<stop  offset="0.129" style="stop-color:#F35E85"/>
		<stop  offset="0.343" style="stop-color:#D9659B"/>
		<stop  offset="0.616" style="stop-color:#B070BF"/>
		<stop  offset="0.934" style="stop-color:#777FF0"/>
		<stop  offset="1" style="stop-color:#6A82FB"/>
	</linearGradient>
	<path style="fill:url(#SVGID_6_);" d="M124.024,480h240c17.673,0,32-14.327,32-32v-88h64c4.418,0,8-3.582,8-8V224
		c0-4.418-3.582-8-8-8h-64V32c0-17.673-14.327-32-32-32h-240c-17.673,0-32,14.327-32,32v88h-32c-8.837,0-16,7.163-16,16v0.8
		c-21.65,4.396-35.636,25.51-31.24,47.16c3.196,15.741,15.499,28.044,31.24,31.24v0.8c0,8.837,7.163,16,16,16v80
		c0,13.255,10.745,24,24,24c2.732-0.027,5.438-0.524,8-1.472V448C92.024,465.673,106.351,480,124.024,480z M108.024,217.36v-82.72
		l112-21.04v124.8L108.024,217.36z M124.024,236.64V248h-16v-14.4L124.024,236.64z M364.024,464h-240c-8.837,0-16-7.163-16-16v-32
		h272v32C380.024,456.837,372.861,464,364.024,464z M452.024,344h-144V232h144V344z M300.024,216c-4.418,0-8,3.582-8,8v128
		c0,4.418,3.582,8,8,8h80v40h-272V264h24c4.418,0,8-3.582,8-8v-16.36l86.528,16.224c0.486,0.089,0.978,0.135,1.472,0.136
		c4.418,0,8-3.582,8-8V104c0-4.418-3.581-8-7.999-8.001c-0.494,0-0.987,0.046-1.473,0.137L108.024,118.4V80h272v136H300.024z
		 M124.024,16h240c8.837,0,16,7.163,16,16v32h-272V32C108.024,23.163,115.187,16,124.024,16z M60.024,136h32v80h-32V136z
		 M28.024,176c0.012-10.168,6.418-19.229,16-22.632v45.264C34.442,195.229,28.036,186.168,28.024,176L28.024,176z M92.024,232v48
		h-16v-48H92.024z M84.024,320c-4.418,0-8-3.582-8-8v-16h16v16C92.024,316.418,88.442,320,84.024,320z"/>
	
		<linearGradient id="SVGID_7_" gradientUnits="userSpaceOnUse" x1="-11.8499" y1="619.13" x2="-11.8499" y2="554.625" gradientTransform="matrix(8 0 0 -8 482.8321 4941)">
		<stop  offset="0" style="stop-color:#FC5C7D"/>
		<stop  offset="0.129" style="stop-color:#F35E85"/>
		<stop  offset="0.343" style="stop-color:#D9659B"/>
		<stop  offset="0.616" style="stop-color:#B070BF"/>
		<stop  offset="0.934" style="stop-color:#777FF0"/>
		<stop  offset="1" style="stop-color:#6A82FB"/>
	</linearGradient>
	<path style="fill:url(#SVGID_7_);" d="M343.536,326.624c2.201,1.49,4.998,1.79,7.464,0.8l80-32
		c4.105-1.635,6.107-6.288,4.471-10.393c-0.813-2.041-2.43-3.658-4.471-4.471l-80-32c-4.101-1.644-8.758,0.349-10.402,4.45
		c-0.381,0.951-0.576,1.966-0.574,2.99v64C340.023,322.654,341.339,325.135,343.536,326.624L343.536,326.624z M356.024,267.816
		L406.488,288l-50.464,20.184V267.816z"/>
	
		<linearGradient id="SVGID_8_" gradientUnits="userSpaceOnUse" x1="-34.851" y1="619.13" x2="-34.851" y2="554.625" gradientTransform="matrix(8 0 0 -8 482.8321 4941)">
		<stop  offset="0" style="stop-color:#FC5C7D"/>
		<stop  offset="0.129" style="stop-color:#F35E85"/>
		<stop  offset="0.343" style="stop-color:#D9659B"/>
		<stop  offset="0.616" style="stop-color:#B070BF"/>
		<stop  offset="0.934" style="stop-color:#777FF0"/>
		<stop  offset="1" style="stop-color:#6A82FB"/>
	</linearGradient>
	<path style="fill:url(#SVGID_8_);" d="M140.024,312h128v16h-128V312z"/>
	
		<linearGradient id="SVGID_9_" gradientUnits="userSpaceOnUse" x1="-36.351" y1="619.13" x2="-36.351" y2="554.625" gradientTransform="matrix(8 0 0 -8 482.8321 4941)">
		<stop  offset="0" style="stop-color:#FC5C7D"/>
		<stop  offset="0.129" style="stop-color:#F35E85"/>
		<stop  offset="0.343" style="stop-color:#D9659B"/>
		<stop  offset="0.616" style="stop-color:#B070BF"/>
		<stop  offset="0.934" style="stop-color:#777FF0"/>
		<stop  offset="1" style="stop-color:#6A82FB"/>
	</linearGradient>
	<path style="fill:url(#SVGID_9_);" d="M140.024,344h104v16h-104V344z"/>
	
		<linearGradient id="SVGID_10_" gradientUnits="userSpaceOnUse" x1="-30.851" y1="619.13" x2="-30.851" y2="554.625" gradientTransform="matrix(8 0 0 -8 482.8321 4941)">
		<stop  offset="0" style="stop-color:#FC5C7D"/>
		<stop  offset="0.129" style="stop-color:#F35E85"/>
		<stop  offset="0.343" style="stop-color:#D9659B"/>
		<stop  offset="0.616" style="stop-color:#B070BF"/>
		<stop  offset="0.934" style="stop-color:#777FF0"/>
		<stop  offset="1" style="stop-color:#6A82FB"/>
	</linearGradient>
	<path style="fill:url(#SVGID_10_);" d="M204.024,280h64v16h-64V280z"/>
	
		<linearGradient id="SVGID_11_" gradientUnits="userSpaceOnUse" x1="-21.851" y1="619.13" x2="-21.851" y2="554.625" gradientTransform="matrix(8 0 0 -8 482.8321 4941)">
		<stop  offset="0" style="stop-color:#FC5C7D"/>
		<stop  offset="0.129" style="stop-color:#F35E85"/>
		<stop  offset="0.343" style="stop-color:#D9659B"/>
		<stop  offset="0.616" style="stop-color:#B070BF"/>
		<stop  offset="0.934" style="stop-color:#777FF0"/>
		<stop  offset="1" style="stop-color:#6A82FB"/>
	</linearGradient>
	<path style="fill:url(#SVGID_11_);" d="M260.024,152h96v16h-96V152z"/>
	
		<linearGradient id="SVGID_12_" gradientUnits="userSpaceOnUse" x1="-23.351" y1="619.13" x2="-23.351" y2="554.625" gradientTransform="matrix(8 0 0 -8 482.8321 4941)">
		<stop  offset="0" style="stop-color:#FC5C7D"/>
		<stop  offset="0.129" style="stop-color:#F35E85"/>
		<stop  offset="0.343" style="stop-color:#D9659B"/>
		<stop  offset="0.616" style="stop-color:#B070BF"/>
		<stop  offset="0.934" style="stop-color:#777FF0"/>
		<stop  offset="1" style="stop-color:#6A82FB"/>
	</linearGradient>
	<path style="fill:url(#SVGID_12_);" d="M260.024,184h72v16h-72V184z"/>
	
		<linearGradient id="SVGID_13_" gradientUnits="userSpaceOnUse" x1="-18.851" y1="619.13" x2="-18.851" y2="554.625" gradientTransform="matrix(8 0 0 -8 482.8321 4941)">
		<stop  offset="0" style="stop-color:#FC5C7D"/>
		<stop  offset="0.129" style="stop-color:#F35E85"/>
		<stop  offset="0.343" style="stop-color:#D9659B"/>
		<stop  offset="0.616" style="stop-color:#B070BF"/>
		<stop  offset="0.934" style="stop-color:#777FF0"/>
		<stop  offset="1" style="stop-color:#6A82FB"/>
	</linearGradient>
	<path style="fill:url(#SVGID_13_);" d="M308.024,120h48v16h-48V120z"/>
</g>
<g>
</g>
<g>
</g>
<g>
</g>
<g>
</g>
<g>
</g>
<g>
</g>
<g>
</g>
<g>
</g>
<g>
</g>
<g>
</g>
<g>
</g>
<g>
</g>
<g>
</g>
<g>
</g>
<g>
</g>
</svg>
