<?xml version="1.0" encoding="iso-8859-1"?>
<!-- Generator: Adobe Illustrator 19.0.0, SVG Export Plug-In . SVG Version: 6.00 Build 0)  -->
<svg version="1.1" id="Capa_1" xmlns="http://www.w3.org/2000/svg" xmlns:xlink="http://www.w3.org/1999/xlink" x="0px" y="0px"
	 viewBox="0 0 480.009 480.009" style="enable-background:new 0 0 480.009 480.009;" xml:space="preserve">
<linearGradient id="SVGID_1_" gradientUnits="userSpaceOnUse" x1="-28.4119" y1="615.4011" x2="-28.4119" y2="554.73" gradientTransform="matrix(8 0 0 -8 454.9584 4941.0815)">
	<stop  offset="0" style="stop-color:#FC5C7D"/>
	<stop  offset="0.129" style="stop-color:#F35E85"/>
	<stop  offset="0.343" style="stop-color:#D9659B"/>
	<stop  offset="0.616" style="stop-color:#B070BF"/>
	<stop  offset="0.934" style="stop-color:#777FF0"/>
	<stop  offset="1" style="stop-color:#6A82FB"/>
</linearGradient>
<path style="fill:url(#SVGID_1_);" d="M240.006,272.009c-4.407,0.014-8.767-0.896-12.8-2.672l-6.4,14.672
	c6.053,2.653,12.592,4.015,19.2,4c26.51,0.072,48.058-21.36,48.131-47.869c0.072-26.51-21.36-48.058-47.869-48.131
	c-13.891-0.038-27.117,5.944-36.261,16.4c-1.324-0.216-2.66-0.35-4-0.4c-17.893-0.23-32.584,14.089-32.813,31.981
	s14.089,32.584,31.981,32.813c17.893,0.23,32.584-14.089,32.813-31.981c0.128-9.93-4.306-19.37-12.029-25.613
	c13.719-11.106,33.844-8.989,44.95,4.73c11.106,13.719,8.989,33.844-4.73,44.95C254.471,269.509,247.348,272.023,240.006,272.009z
	 M200.006,256.009c-8.837,0-16-7.163-16-16c0-8.837,7.163-16,16-16s16,7.163,16,16C216.006,248.846,208.842,256.009,200.006,256.009
	z"/>
<g>
	
		<linearGradient id="SVGID_2_" gradientUnits="userSpaceOnUse" x1="-24.8503" y1="615.4011" x2="-24.8503" y2="554.73" gradientTransform="matrix(8 0 0 -8 454.9584 4941.0815)">
		<stop  offset="0" style="stop-color:#FC5C7D"/>
		<stop  offset="0.129" style="stop-color:#F35E85"/>
		<stop  offset="0.343" style="stop-color:#D9659B"/>
		<stop  offset="0.616" style="stop-color:#B070BF"/>
		<stop  offset="0.934" style="stop-color:#777FF0"/>
		<stop  offset="1" style="stop-color:#6A82FB"/>
	</linearGradient>
	<path style="fill:url(#SVGID_2_);" d="M104.006,240.009c-0.109,75,60.603,135.888,135.603,135.997
		c38.274,0.055,74.794-16.043,100.573-44.333c24.194,11.028,52.748,0.355,63.776-23.84c11.028-24.194,0.355-52.748-23.84-63.776
		c-24.194-11.028-52.748-0.355-63.776,23.84c-8.48,18.604-4.284,40.535,10.464,54.696c-45.715,47.837-121.554,49.556-169.391,3.841
		s-49.556-121.554-3.841-169.391s121.554-49.556,169.391-3.841c18.067,17.266,30.283,39.749,34.937,64.303l15.72-2.992
		c-14.002-73.794-85.174-122.265-158.969-108.264C150.411,118.439,103.937,174.621,104.006,240.009z M360.006,256.009
		c17.673,0,32,14.327,32,32s-14.327,32-32,32s-32-14.327-32-32S342.333,256.009,360.006,256.009z"/>
	
		<linearGradient id="SVGID_3_" gradientUnits="userSpaceOnUse" x1="-10.8691" y1="615.4011" x2="-10.8691" y2="554.73" gradientTransform="matrix(8 0 0 -8 454.9584 4941.0815)">
		<stop  offset="0" style="stop-color:#FC5C7D"/>
		<stop  offset="0.129" style="stop-color:#F35E85"/>
		<stop  offset="0.343" style="stop-color:#D9659B"/>
		<stop  offset="0.616" style="stop-color:#B070BF"/>
		<stop  offset="0.934" style="stop-color:#777FF0"/>
		<stop  offset="1" style="stop-color:#6A82FB"/>
	</linearGradient>
	<path style="fill:url(#SVGID_3_);" d="M360.006,288.009h16v16h-16V288.009z"/>
	
		<linearGradient id="SVGID_4_" gradientUnits="userSpaceOnUse" x1="-32.8691" y1="615.4011" x2="-32.8691" y2="554.73" gradientTransform="matrix(8 0 0 -8 454.9584 4941.0815)">
		<stop  offset="0" style="stop-color:#FC5C7D"/>
		<stop  offset="0.129" style="stop-color:#F35E85"/>
		<stop  offset="0.343" style="stop-color:#D9659B"/>
		<stop  offset="0.616" style="stop-color:#B070BF"/>
		<stop  offset="0.934" style="stop-color:#777FF0"/>
		<stop  offset="1" style="stop-color:#6A82FB"/>
	</linearGradient>
	<path style="fill:url(#SVGID_4_);" d="M184.006,48.009h16v16h-16V48.009z"/>
	
		<linearGradient id="SVGID_5_" gradientUnits="userSpaceOnUse" x1="-50.8691" y1="615.4011" x2="-50.8691" y2="554.73" gradientTransform="matrix(8 0 0 -8 454.9584 4941.0815)">
		<stop  offset="0" style="stop-color:#FC5C7D"/>
		<stop  offset="0.129" style="stop-color:#F35E85"/>
		<stop  offset="0.343" style="stop-color:#D9659B"/>
		<stop  offset="0.616" style="stop-color:#B070BF"/>
		<stop  offset="0.934" style="stop-color:#777FF0"/>
		<stop  offset="1" style="stop-color:#6A82FB"/>
	</linearGradient>
	<path style="fill:url(#SVGID_5_);" d="M40.006,176.009h16v16h-16V176.009z"/>
	
		<linearGradient id="SVGID_6_" gradientUnits="userSpaceOnUse" x1="-5.8691" y1="615.4011" x2="-5.8691" y2="554.73" gradientTransform="matrix(8 0 0 -8 454.9584 4941.0815)">
		<stop  offset="0" style="stop-color:#FC5C7D"/>
		<stop  offset="0.129" style="stop-color:#F35E85"/>
		<stop  offset="0.343" style="stop-color:#D9659B"/>
		<stop  offset="0.616" style="stop-color:#B070BF"/>
		<stop  offset="0.934" style="stop-color:#777FF0"/>
		<stop  offset="1" style="stop-color:#6A82FB"/>
	</linearGradient>
	<path style="fill:url(#SVGID_6_);" d="M400.006,224.009h16v16h-16V224.009z"/>
	
		<linearGradient id="SVGID_7_" gradientUnits="userSpaceOnUse" x1="-1.8691" y1="615.4011" x2="-1.8691" y2="554.73" gradientTransform="matrix(8 0 0 -8 454.9584 4941.0815)">
		<stop  offset="0" style="stop-color:#FC5C7D"/>
		<stop  offset="0.129" style="stop-color:#F35E85"/>
		<stop  offset="0.343" style="stop-color:#D9659B"/>
		<stop  offset="0.616" style="stop-color:#B070BF"/>
		<stop  offset="0.934" style="stop-color:#777FF0"/>
		<stop  offset="1" style="stop-color:#6A82FB"/>
	</linearGradient>
	<path style="fill:url(#SVGID_7_);" d="M432.006,32.009h16v16h-16V32.009z"/>
	
		<linearGradient id="SVGID_8_" gradientUnits="userSpaceOnUse" x1="-33.8691" y1="615.4011" x2="-33.8691" y2="554.73" gradientTransform="matrix(8 0 0 -8 454.9584 4941.0815)">
		<stop  offset="0" style="stop-color:#FC5C7D"/>
		<stop  offset="0.129" style="stop-color:#F35E85"/>
		<stop  offset="0.343" style="stop-color:#D9659B"/>
		<stop  offset="0.616" style="stop-color:#B070BF"/>
		<stop  offset="0.934" style="stop-color:#777FF0"/>
		<stop  offset="1" style="stop-color:#6A82FB"/>
	</linearGradient>
	<path style="fill:url(#SVGID_8_);" d="M176.006,416.009h16v16h-16V416.009z"/>
	
		<linearGradient id="SVGID_9_" gradientUnits="userSpaceOnUse" x1="-8.8691" y1="615.4011" x2="-8.8691" y2="554.73" gradientTransform="matrix(8 0 0 -8 454.9584 4941.0815)">
		<stop  offset="0" style="stop-color:#FC5C7D"/>
		<stop  offset="0.129" style="stop-color:#F35E85"/>
		<stop  offset="0.343" style="stop-color:#D9659B"/>
		<stop  offset="0.616" style="stop-color:#B070BF"/>
		<stop  offset="0.934" style="stop-color:#777FF0"/>
		<stop  offset="1" style="stop-color:#6A82FB"/>
	</linearGradient>
	<path style="fill:url(#SVGID_9_);" d="M376.006,464.009h16v16h-16V464.009z"/>
	
		<linearGradient id="SVGID_10_" gradientUnits="userSpaceOnUse" x1="-54.8691" y1="615.4011" x2="-54.8691" y2="554.73" gradientTransform="matrix(8 0 0 -8 454.9584 4941.0815)">
		<stop  offset="0" style="stop-color:#FC5C7D"/>
		<stop  offset="0.129" style="stop-color:#F35E85"/>
		<stop  offset="0.343" style="stop-color:#D9659B"/>
		<stop  offset="0.616" style="stop-color:#B070BF"/>
		<stop  offset="0.934" style="stop-color:#777FF0"/>
		<stop  offset="1" style="stop-color:#6A82FB"/>
	</linearGradient>
	<path style="fill:url(#SVGID_10_);" d="M8.006,456.009h16v16h-16V456.009z"/>
	
		<linearGradient id="SVGID_11_" gradientUnits="userSpaceOnUse" x1="-45.8691" y1="615.4011" x2="-45.8691" y2="554.73" gradientTransform="matrix(8 0 0 -8 454.9584 4941.0815)">
		<stop  offset="0" style="stop-color:#FC5C7D"/>
		<stop  offset="0.129" style="stop-color:#F35E85"/>
		<stop  offset="0.343" style="stop-color:#D9659B"/>
		<stop  offset="0.616" style="stop-color:#B070BF"/>
		<stop  offset="0.934" style="stop-color:#777FF0"/>
		<stop  offset="1" style="stop-color:#6A82FB"/>
	</linearGradient>
	<path style="fill:url(#SVGID_11_);" d="M80.006,424.009h16v16h-16V424.009z"/>
	
		<linearGradient id="SVGID_12_" gradientUnits="userSpaceOnUse" x1="-36.8691" y1="615.4011" x2="-36.8691" y2="554.73" gradientTransform="matrix(8 0 0 -8 454.9584 4941.0815)">
		<stop  offset="0" style="stop-color:#FC5C7D"/>
		<stop  offset="0.129" style="stop-color:#F35E85"/>
		<stop  offset="0.343" style="stop-color:#D9659B"/>
		<stop  offset="0.616" style="stop-color:#B070BF"/>
		<stop  offset="0.934" style="stop-color:#777FF0"/>
		<stop  offset="1" style="stop-color:#6A82FB"/>
	</linearGradient>
	<path style="fill:url(#SVGID_12_);" d="M152.006,264.009h16v16h-16V264.009z"/>
	
		<linearGradient id="SVGID_13_" gradientUnits="userSpaceOnUse" x1="-45.8691" y1="615.4011" x2="-45.8691" y2="554.73" gradientTransform="matrix(8 0 0 -8 454.9584 4941.0815)">
		<stop  offset="0" style="stop-color:#FC5C7D"/>
		<stop  offset="0.129" style="stop-color:#F35E85"/>
		<stop  offset="0.343" style="stop-color:#D9659B"/>
		<stop  offset="0.616" style="stop-color:#B070BF"/>
		<stop  offset="0.934" style="stop-color:#777FF0"/>
		<stop  offset="1" style="stop-color:#6A82FB"/>
	</linearGradient>
	<path style="fill:url(#SVGID_13_);" d="M88.006,64.009v16c4.418,0,8,3.582,8,8s-3.582,8-8,8s-8-3.582-8-8h-16
		c0,13.255,10.745,24,24,24s24-10.745,24-24S101.261,64.009,88.006,64.009z"/>
	
		<linearGradient id="SVGID_14_" gradientUnits="userSpaceOnUse" x1="-26.8692" y1="615.4011" x2="-26.8692" y2="554.73" gradientTransform="matrix(8 0 0 -8 454.9584 4941.0815)">
		<stop  offset="0" style="stop-color:#FC5C7D"/>
		<stop  offset="0.129" style="stop-color:#F35E85"/>
		<stop  offset="0.343" style="stop-color:#D9659B"/>
		<stop  offset="0.616" style="stop-color:#B070BF"/>
		<stop  offset="0.934" style="stop-color:#777FF0"/>
		<stop  offset="1" style="stop-color:#6A82FB"/>
	</linearGradient>
	<path style="fill:url(#SVGID_14_);" d="M472.006,112.009c-0.026-22.08-17.92-39.974-40-40c-5.895,0.027-11.71,1.375-17.016,3.944
		C341.444-2.76,224.377-22.645,128.966,27.369C100.004,0.771,54.963,2.687,28.365,31.649s-24.682,74.003,4.28,100.601
		s74.003,24.682,100.601-4.28c22.339-24.325,25.019-60.818,6.472-88.145c88.015-44.261,194.632-25.644,262.44,45.824
		c-14.717,16.237-13.485,41.331,2.752,56.048c10.855,9.839,26.249,12.896,40.04,7.952c12.618,28.451,19.11,59.237,19.056,90.36
		c-0.141,123.653-100.347,223.859-224,224c-31.674,0.047-62.99-6.693-91.84-19.768c11.211-28.772-3.026-61.185-31.798-72.396
		c-17.409-6.783-37.055-4.422-52.362,6.292c-49.159-62.32-61.551-146.048-32.552-219.936l-14.896-5.856
		c-31.238,79.67-17.666,169.948,35.616,236.912c-19.177,24.214-15.092,59.39,9.122,78.566c24.214,19.177,59.39,15.092,78.566-9.122
		c0.132-0.166,0.262-0.333,0.392-0.5c31.275,14.419,65.313,21.86,99.752,21.808c132.486-0.15,239.85-107.514,240-240
		c0.052-33.977-7.177-67.572-21.2-98.52C467.18,133.973,471.977,123.261,472.006,112.009L472.006,112.009z M80.006,136.009
		c-30.928,0-56-25.072-56-56s25.072-56,56-56s56,25.072,56,56C135.971,110.922,110.919,135.974,80.006,136.009z M96.006,464.009
		c-22.091,0-40-17.909-40-40s17.909-40,40-40s40,17.909,40,40C135.979,446.089,118.086,463.983,96.006,464.009z M408.006,112.009
		c0-13.255,10.745-24,24-24s24,10.745,24,24s-10.745,24-24,24S408.006,125.264,408.006,112.009z"/>
	
		<linearGradient id="SVGID_15_" gradientUnits="userSpaceOnUse" x1="-0.8691" y1="615.4011" x2="-0.8691" y2="554.73" gradientTransform="matrix(8 0 0 -8 454.9584 4941.0815)">
		<stop  offset="0" style="stop-color:#FC5C7D"/>
		<stop  offset="0.129" style="stop-color:#F35E85"/>
		<stop  offset="0.343" style="stop-color:#D9659B"/>
		<stop  offset="0.616" style="stop-color:#B070BF"/>
		<stop  offset="0.934" style="stop-color:#777FF0"/>
		<stop  offset="1" style="stop-color:#6A82FB"/>
	</linearGradient>
	<path style="fill:url(#SVGID_15_);" d="M448.006,408.009c-17.673,0-32,14.327-32,32s14.327,32,32,32s32-14.327,32-32
		S465.679,408.009,448.006,408.009z M448.006,456.009c-8.837,0-16-7.163-16-16s7.163-16,16-16s16,7.163,16,16
		S456.842,456.009,448.006,456.009z"/>
</g>
<g>
</g>
<g>
</g>
<g>
</g>
<g>
</g>
<g>
</g>
<g>
</g>
<g>
</g>
<g>
</g>
<g>
</g>
<g>
</g>
<g>
</g>
<g>
</g>
<g>
</g>
<g>
</g>
<g>
</g>
</svg>
