<?xml version="1.0" encoding="iso-8859-1"?>
<!-- Generator: Adobe Illustrator 19.0.0, SVG Export Plug-In . SVG Version: 6.00 Build 0)  -->
<svg version="1.1" id="Capa_1" xmlns="http://www.w3.org/2000/svg" xmlns:xlink="http://www.w3.org/1999/xlink" x="0px" y="0px"
	 viewBox="0 0 480.019 480.019" style="enable-background:new 0 0 480.019 480.019;" xml:space="preserve">
<linearGradient id="SVGID_1_" gradientUnits="userSpaceOnUse" x1="-26.8738" y1="616.4588" x2="-26.8738" y2="555.2118" gradientTransform="matrix(8 0 0 -8 455 4941.5112)">
	<stop  offset="0" style="stop-color:#FC5C7D"/>
	<stop  offset="0.129" style="stop-color:#F35E85"/>
	<stop  offset="0.343" style="stop-color:#D9659B"/>
	<stop  offset="0.616" style="stop-color:#B070BF"/>
	<stop  offset="0.934" style="stop-color:#777FF0"/>
	<stop  offset="1" style="stop-color:#6A82FB"/>
</linearGradient>
<path style="fill:url(#SVGID_1_);" d="M368,181.497v-29.44c13.255,0,24-10.745,24-24s-10.745-24-24-24h-24v-24h40
	c4.418,0,8-3.582,8-8v-40c0-17.673-14.327-32-32-32H64c-17.673,0-32,14.327-32,32v320H8c-4.418,0-8,3.582-8,8v16
	c0,17.673,14.327,32,32,32h167c44.185,71.305,137.808,93.291,209.114,49.106s93.291-137.808,49.106-209.114
	C436.973,215.375,405.09,191.592,368,181.497z M376,128.057c0,4.418-3.582,8-8,8h-80c-4.418,0-8-3.582-8-8c0-4.418,3.582-8,8-8h80
	C372.418,120.057,376,123.639,376,128.057z M376,32.057v32h-32v-32c0-8.837,7.163-16,16-16S376,23.22,376,32.057z M48,32.057
	c0-8.837,7.163-16,16-16h268.448c-2.879,4.843-4.415,10.366-4.448,16v72h-40c-13.255,0-24,10.745-24,24s10.745,24,24,24v29.44
	c-75.194,19.927-122.832,93.851-109.912,170.56H48V32.057z M32,392.057c-8.837,0-16-7.163-16-16v-8h165.52
	c2.248,8.235,5.192,16.264,8.8,24H32z M328,464.057c-75.08,0.045-135.98-60.783-136.025-135.863
	c-0.038-63.496,43.885-118.562,105.801-132.641c3.644-0.83,6.228-4.071,6.224-7.808v-35.688h48v35.688
	c-0.004,3.737,2.58,6.978,6.224,7.808c73.211,16.648,119.064,89.492,102.417,162.703C446.562,420.172,391.497,464.095,328,464.057z"
	/>
<g>
	
		<linearGradient id="SVGID_2_" gradientUnits="userSpaceOnUse" x1="-25.1055" y1="616.4588" x2="-25.1055" y2="555.2118" gradientTransform="matrix(8 0 0 -8 455 4941.5112)">
		<stop  offset="0" style="stop-color:#FC5C7D"/>
		<stop  offset="0.129" style="stop-color:#F35E85"/>
		<stop  offset="0.343" style="stop-color:#D9659B"/>
		<stop  offset="0.616" style="stop-color:#B070BF"/>
		<stop  offset="0.934" style="stop-color:#777FF0"/>
		<stop  offset="1" style="stop-color:#6A82FB"/>
	</linearGradient>
	<path style="fill:url(#SVGID_2_);" d="M283.696,242.865l-7.392-14.184c-23.263,12.135-41.548,32.025-51.688,56.224l14.768,6.168
		C248.076,270.324,263.752,253.27,283.696,242.865z"/>
	
		<linearGradient id="SVGID_3_" gradientUnits="userSpaceOnUse" x1="-15.871" y1="616.4588" x2="-15.871" y2="555.2118" gradientTransform="matrix(8 0 0 -8 455 4941.5112)">
		<stop  offset="0" style="stop-color:#FC5C7D"/>
		<stop  offset="0.129" style="stop-color:#F35E85"/>
		<stop  offset="0.343" style="stop-color:#D9659B"/>
		<stop  offset="0.616" style="stop-color:#B070BF"/>
		<stop  offset="0.934" style="stop-color:#777FF0"/>
		<stop  offset="1" style="stop-color:#6A82FB"/>
	</linearGradient>
	<path style="fill:url(#SVGID_3_);" d="M419.848,320.857c-10.966,10.951-28.73,10.951-39.696,0l-4.984-4.984
		c-17.225-17.186-45.111-17.186-62.336,0l-4.984,4.984c-10.966,10.951-28.73,10.951-39.696,0
		c-12.197-12.085-30.286-16.018-46.4-10.088c-2.889,1.068-4.909,3.701-5.192,6.768c-0.32,3.456-0.528,6.944-0.528,10.488
		c0,61.856,50.144,112,112,112s112-50.144,112-112c0-2.496-0.168-4.952-0.4-8.184c-0.312-4.407-4.138-7.727-8.546-7.414
		c-1.923,0.136-3.732,0.962-5.094,2.326L419.848,320.857z M328,424.057c-52.996-0.057-95.943-43.004-96-96c0-1.192,0-2.4,0.08-3.552
		c9.013-1.622,18.251,1.253,24.752,7.704c17.225,17.186,45.111,17.186,62.336,0l4.984-4.984c10.966-10.951,28.73-10.951,39.696,0
		l4.984,4.984c14.555,14.51,37.195,17.064,54.616,6.16C418.122,387.084,377.005,423.996,328,424.057L328,424.057z"/>
	
		<linearGradient id="SVGID_4_" gradientUnits="userSpaceOnUse" x1="-18.952" y1="616.4588" x2="-18.952" y2="555.2118" gradientTransform="matrix(8 0 0 -8 455 4941.5112)">
		<stop  offset="0" style="stop-color:#FC5C7D"/>
		<stop  offset="0.129" style="stop-color:#F35E85"/>
		<stop  offset="0.343" style="stop-color:#D9659B"/>
		<stop  offset="0.616" style="stop-color:#B070BF"/>
		<stop  offset="0.934" style="stop-color:#777FF0"/>
		<stop  offset="1" style="stop-color:#6A82FB"/>
	</linearGradient>
	<path style="fill:url(#SVGID_4_);" d="M313.224,233.185l-2.448-15.808c-5.843,0.904-11.605,2.268-17.232,4.08l4.912,15.2
		C303.279,235.11,308.217,233.949,313.224,233.185z"/>
	
		<linearGradient id="SVGID_5_" gradientUnits="userSpaceOnUse" x1="-11.875" y1="616.4588" x2="-11.875" y2="555.2118" gradientTransform="matrix(8 0 0 -8 455 4941.5112)">
		<stop  offset="0" style="stop-color:#FC5C7D"/>
		<stop  offset="0.129" style="stop-color:#F35E85"/>
		<stop  offset="0.343" style="stop-color:#D9659B"/>
		<stop  offset="0.616" style="stop-color:#B070BF"/>
		<stop  offset="0.934" style="stop-color:#777FF0"/>
		<stop  offset="1" style="stop-color:#6A82FB"/>
	</linearGradient>
	<path style="fill:url(#SVGID_5_);" d="M352,344.057h16v16h-16V344.057z"/>
	
		<linearGradient id="SVGID_6_" gradientUnits="userSpaceOnUse" x1="-21.875" y1="616.4588" x2="-21.875" y2="555.2118" gradientTransform="matrix(8 0 0 -8 455 4941.5112)">
		<stop  offset="0" style="stop-color:#FC5C7D"/>
		<stop  offset="0.129" style="stop-color:#F35E85"/>
		<stop  offset="0.343" style="stop-color:#D9659B"/>
		<stop  offset="0.616" style="stop-color:#B070BF"/>
		<stop  offset="0.934" style="stop-color:#777FF0"/>
		<stop  offset="1" style="stop-color:#6A82FB"/>
	</linearGradient>
	<path style="fill:url(#SVGID_6_);" d="M272,368.057h16v16h-16V368.057z"/>
	
		<linearGradient id="SVGID_7_" gradientUnits="userSpaceOnUse" x1="-13.875" y1="616.4588" x2="-13.875" y2="555.2118" gradientTransform="matrix(8 0 0 -8 455 4941.5112)">
		<stop  offset="0" style="stop-color:#FC5C7D"/>
		<stop  offset="0.129" style="stop-color:#F35E85"/>
		<stop  offset="0.343" style="stop-color:#D9659B"/>
		<stop  offset="0.616" style="stop-color:#B070BF"/>
		<stop  offset="0.934" style="stop-color:#777FF0"/>
		<stop  offset="1" style="stop-color:#6A82FB"/>
	</linearGradient>
	<path style="fill:url(#SVGID_7_);" d="M336,384.057h16v16h-16V384.057z"/>
	
		<linearGradient id="SVGID_8_" gradientUnits="userSpaceOnUse" x1="-37.875" y1="616.4588" x2="-37.875" y2="555.2118" gradientTransform="matrix(8 0 0 -8 455 4941.5112)">
		<stop  offset="0" style="stop-color:#FC5C7D"/>
		<stop  offset="0.129" style="stop-color:#F35E85"/>
		<stop  offset="0.343" style="stop-color:#D9659B"/>
		<stop  offset="0.616" style="stop-color:#B070BF"/>
		<stop  offset="0.934" style="stop-color:#777FF0"/>
		<stop  offset="1" style="stop-color:#6A82FB"/>
	</linearGradient>
	<path style="fill:url(#SVGID_8_);" d="M112,141.001v19.056h16v-19.056l24-12l24,12v19.056h16v-19.056l27.576-13.744
		c2.725-1.362,4.441-4.153,4.424-7.2v-32h16v-16h-22.112L192,59.113V40.057h-16v19.056l-24,12l-24-12V40.057h-16v19.056
		L84.424,72.897c-2.712,1.355-4.425,4.128-4.424,7.16v32H64v16h22.112L112,141.001z M208,115.113l-24,12l-24-12V85.001l24-12l24,12
		V115.113z M96,85.001l24-12l24,12v30.112l-24,12l-24-12V85.001z"/>
	
		<linearGradient id="SVGID_9_" gradientUnits="userSpaceOnUse" x1="-40.375" y1="616.4588" x2="-40.375" y2="555.2118" gradientTransform="matrix(8 0 0 -8 455 4941.5112)">
		<stop  offset="0" style="stop-color:#FC5C7D"/>
		<stop  offset="0.129" style="stop-color:#F35E85"/>
		<stop  offset="0.343" style="stop-color:#D9659B"/>
		<stop  offset="0.616" style="stop-color:#B070BF"/>
		<stop  offset="0.934" style="stop-color:#777FF0"/>
		<stop  offset="1" style="stop-color:#6A82FB"/>
	</linearGradient>
	<path style="fill:url(#SVGID_9_);" d="M72,216.057h120v16H72V216.057z"/>
	
		<linearGradient id="SVGID_10_" gradientUnits="userSpaceOnUse" x1="-41.875" y1="616.4588" x2="-41.875" y2="555.2118" gradientTransform="matrix(8 0 0 -8 455 4941.5112)">
		<stop  offset="0" style="stop-color:#FC5C7D"/>
		<stop  offset="0.129" style="stop-color:#F35E85"/>
		<stop  offset="0.343" style="stop-color:#D9659B"/>
		<stop  offset="0.616" style="stop-color:#B070BF"/>
		<stop  offset="0.934" style="stop-color:#777FF0"/>
		<stop  offset="1" style="stop-color:#6A82FB"/>
	</linearGradient>
	<path style="fill:url(#SVGID_10_);" d="M72,248.057h96v16H72V248.057z"/>
	
		<linearGradient id="SVGID_11_" gradientUnits="userSpaceOnUse" x1="-42.875" y1="616.4588" x2="-42.875" y2="555.2118" gradientTransform="matrix(8 0 0 -8 455 4941.5112)">
		<stop  offset="0" style="stop-color:#FC5C7D"/>
		<stop  offset="0.129" style="stop-color:#F35E85"/>
		<stop  offset="0.343" style="stop-color:#D9659B"/>
		<stop  offset="0.616" style="stop-color:#B070BF"/>
		<stop  offset="0.934" style="stop-color:#777FF0"/>
		<stop  offset="1" style="stop-color:#6A82FB"/>
	</linearGradient>
	<path style="fill:url(#SVGID_11_);" d="M72,280.057h80v16H72V280.057z"/>
	
		<linearGradient id="SVGID_12_" gradientUnits="userSpaceOnUse" x1="-37.375" y1="616.4588" x2="-37.375" y2="555.2118" gradientTransform="matrix(8 0 0 -8 455 4941.5112)">
		<stop  offset="0" style="stop-color:#FC5C7D"/>
		<stop  offset="0.129" style="stop-color:#F35E85"/>
		<stop  offset="0.343" style="stop-color:#D9659B"/>
		<stop  offset="0.616" style="stop-color:#B070BF"/>
		<stop  offset="0.934" style="stop-color:#777FF0"/>
		<stop  offset="1" style="stop-color:#6A82FB"/>
	</linearGradient>
	<path style="fill:url(#SVGID_12_);" d="M120,184.057h72v16h-72V184.057z"/>
	
		<linearGradient id="SVGID_13_" gradientUnits="userSpaceOnUse" x1="-23.875" y1="616.4588" x2="-23.875" y2="555.2118" gradientTransform="matrix(8 0 0 -8 455 4941.5112)">
		<stop  offset="0" style="stop-color:#FC5C7D"/>
		<stop  offset="0.129" style="stop-color:#F35E85"/>
		<stop  offset="0.343" style="stop-color:#D9659B"/>
		<stop  offset="0.616" style="stop-color:#B070BF"/>
		<stop  offset="0.934" style="stop-color:#777FF0"/>
		<stop  offset="1" style="stop-color:#6A82FB"/>
	</linearGradient>
	<path style="fill:url(#SVGID_13_);" d="M256,56.057h16v16h-16V56.057z"/>
	
		<linearGradient id="SVGID_14_" gradientUnits="userSpaceOnUse" x1="-44.875" y1="616.4588" x2="-44.875" y2="555.2118" gradientTransform="matrix(8 0 0 -8 455 4941.5112)">
		<stop  offset="0" style="stop-color:#FC5C7D"/>
		<stop  offset="0.129" style="stop-color:#F35E85"/>
		<stop  offset="0.343" style="stop-color:#D9659B"/>
		<stop  offset="0.616" style="stop-color:#B070BF"/>
		<stop  offset="0.934" style="stop-color:#777FF0"/>
		<stop  offset="1" style="stop-color:#6A82FB"/>
	</linearGradient>
	<path style="fill:url(#SVGID_14_);" d="M88,184.057h16v16H88V184.057z"/>
	
		<linearGradient id="SVGID_15_" gradientUnits="userSpaceOnUse" x1="-19.875" y1="616.4588" x2="-19.875" y2="555.2118" gradientTransform="matrix(8 0 0 -8 455 4941.5112)">
		<stop  offset="0" style="stop-color:#FC5C7D"/>
		<stop  offset="0.129" style="stop-color:#F35E85"/>
		<stop  offset="0.343" style="stop-color:#D9659B"/>
		<stop  offset="0.616" style="stop-color:#B070BF"/>
		<stop  offset="0.934" style="stop-color:#777FF0"/>
		<stop  offset="1" style="stop-color:#6A82FB"/>
	</linearGradient>
	<path style="fill:url(#SVGID_15_);" d="M288,56.057h16v16h-16V56.057z"/>
</g>
<g>
</g>
<g>
</g>
<g>
</g>
<g>
</g>
<g>
</g>
<g>
</g>
<g>
</g>
<g>
</g>
<g>
</g>
<g>
</g>
<g>
</g>
<g>
</g>
<g>
</g>
<g>
</g>
<g>
</g>
</svg>
