<?xml version="1.0" encoding="iso-8859-1"?>
<!-- Generator: Adobe Illustrator 19.0.0, SVG Export Plug-In . SVG Version: 6.00 Build 0)  -->
<svg version="1.1" id="Capa_1" xmlns="http://www.w3.org/2000/svg" xmlns:xlink="http://www.w3.org/1999/xlink" x="0px" y="0px"
	 viewBox="0 0 480 480" style="enable-background:new 0 0 480 480;" xml:space="preserve">
<linearGradient id="SVGID_1_" gradientUnits="userSpaceOnUse" x1="-26.875" y1="604.38" x2="-26.875" y2="544.025" gradientTransform="matrix(8 0 0 -8 455 4833)">
	<stop  offset="0" style="stop-color:#FC5C7D"/>
	<stop  offset="0.129" style="stop-color:#F35E85"/>
	<stop  offset="0.343" style="stop-color:#D9659B"/>
	<stop  offset="0.616" style="stop-color:#B070BF"/>
	<stop  offset="0.934" style="stop-color:#777FF0"/>
	<stop  offset="1" style="stop-color:#6A82FB"/>
</linearGradient>
<path style="fill:url(#SVGID_1_);" d="M448,12H32C14.327,12,0,26.327,0,44v304c0,17.673,14.327,32,32,32h128v40h-32
	c-13.255,0-24,10.745-24,24s10.745,24,24,24h224c13.255,0,24-10.745,24-24s-10.745-24-24-24h-32v-40h128c17.673,0,32-14.327,32-32
	V44C480,26.327,465.673,12,448,12z M32,28h416c8.837,0,16,7.163,16,16v272H16V44C16,35.163,23.163,28,32,28z M360,444
	c0,4.418-3.582,8-8,8H128c-4.418,0-8-3.582-8-8s3.582-8,8-8h224C356.418,436,360,439.582,360,444z M304,420H176v-40h128V420z
	 M448,364H32c-8.837,0-16-7.163-16-16v-16h448v16C464,356.837,456.837,364,448,364z"/>
<g>
	
		<linearGradient id="SVGID_2_" gradientUnits="userSpaceOnUse" x1="-36.875" y1="604.38" x2="-36.875" y2="544.025" gradientTransform="matrix(8 0 0 -8 455 4833)">
		<stop  offset="0" style="stop-color:#FC5C7D"/>
		<stop  offset="0.129" style="stop-color:#F35E85"/>
		<stop  offset="0.343" style="stop-color:#D9659B"/>
		<stop  offset="0.616" style="stop-color:#B070BF"/>
		<stop  offset="0.934" style="stop-color:#777FF0"/>
		<stop  offset="1" style="stop-color:#6A82FB"/>
	</linearGradient>
	<path style="fill:url(#SVGID_2_);" d="M80,172c0,8.837,7.163,16,16,16v76c0,15.464,12.536,28,28,28s28-12.536,28-28v-44h24
		c4.418,0,8-3.582,8-8v-16.368l86.528,16.224c0.485,0.096,0.978,0.144,1.472,0.144c4.418,0,8-3.582,8-8V60
		c-0.004-4.418-3.589-7.997-8.007-7.993c-0.491,0-0.982,0.046-1.465,0.137L143.28,76H96c-8.837,0-16,7.163-16,16
		c-22.091,0-40,17.909-40,40S57.909,172,80,172L80,172z M136,236h-24v-48h24V236z M124,276c-6.627,0-12-5.373-12-12v-12h24v12
		C136,270.627,130.627,276,124,276z M168,204h-16v-14.4l16,3V204z M264,194.4l-112-21.04V90.64l112-21V194.4z M96,92h40v80H96V92z
		 M80,108v48c-13.255,0-24-10.745-24-24S66.745,108,80,108z"/>
	
		<linearGradient id="SVGID_3_" gradientUnits="userSpaceOnUse" x1="-10.375" y1="604.38" x2="-10.375" y2="544.025" gradientTransform="matrix(8 0 0 -8 455 4833)">
		<stop  offset="0" style="stop-color:#FC5C7D"/>
		<stop  offset="0.129" style="stop-color:#F35E85"/>
		<stop  offset="0.343" style="stop-color:#D9659B"/>
		<stop  offset="0.616" style="stop-color:#B070BF"/>
		<stop  offset="0.934" style="stop-color:#777FF0"/>
		<stop  offset="1" style="stop-color:#6A82FB"/>
	</linearGradient>
	<path style="fill:url(#SVGID_3_);" d="M304,108h136v16H304V108z"/>
	
		<linearGradient id="SVGID_4_" gradientUnits="userSpaceOnUse" x1="-12.375" y1="604.38" x2="-12.375" y2="544.025" gradientTransform="matrix(8 0 0 -8 455 4833)">
		<stop  offset="0" style="stop-color:#FC5C7D"/>
		<stop  offset="0.129" style="stop-color:#F35E85"/>
		<stop  offset="0.343" style="stop-color:#D9659B"/>
		<stop  offset="0.616" style="stop-color:#B070BF"/>
		<stop  offset="0.934" style="stop-color:#777FF0"/>
		<stop  offset="1" style="stop-color:#6A82FB"/>
	</linearGradient>
	<path style="fill:url(#SVGID_4_);" d="M304,140h104v16H304V140z"/>
	
		<linearGradient id="SVGID_5_" gradientUnits="userSpaceOnUse" x1="-6.875" y1="604.38" x2="-6.875" y2="544.025" gradientTransform="matrix(8 0 0 -8 455 4833)">
		<stop  offset="0" style="stop-color:#FC5C7D"/>
		<stop  offset="0.129" style="stop-color:#F35E85"/>
		<stop  offset="0.343" style="stop-color:#D9659B"/>
		<stop  offset="0.616" style="stop-color:#B070BF"/>
		<stop  offset="0.934" style="stop-color:#777FF0"/>
		<stop  offset="1" style="stop-color:#6A82FB"/>
	</linearGradient>
	<path style="fill:url(#SVGID_5_);" d="M360,76h80v16h-80V76z"/>
	
		<linearGradient id="SVGID_6_" gradientUnits="userSpaceOnUse" x1="-10.375" y1="604.38" x2="-10.375" y2="544.025" gradientTransform="matrix(8 0 0 -8 455 4833)">
		<stop  offset="0" style="stop-color:#FC5C7D"/>
		<stop  offset="0.129" style="stop-color:#F35E85"/>
		<stop  offset="0.343" style="stop-color:#D9659B"/>
		<stop  offset="0.616" style="stop-color:#B070BF"/>
		<stop  offset="0.934" style="stop-color:#777FF0"/>
		<stop  offset="1" style="stop-color:#6A82FB"/>
	</linearGradient>
	<path style="fill:url(#SVGID_6_);" d="M304,236h136v16H304V236z"/>
	
		<linearGradient id="SVGID_7_" gradientUnits="userSpaceOnUse" x1="-12.375" y1="604.38" x2="-12.375" y2="544.025" gradientTransform="matrix(8 0 0 -8 455 4833)">
		<stop  offset="0" style="stop-color:#FC5C7D"/>
		<stop  offset="0.129" style="stop-color:#F35E85"/>
		<stop  offset="0.343" style="stop-color:#D9659B"/>
		<stop  offset="0.616" style="stop-color:#B070BF"/>
		<stop  offset="0.934" style="stop-color:#777FF0"/>
		<stop  offset="1" style="stop-color:#6A82FB"/>
	</linearGradient>
	<path style="fill:url(#SVGID_7_);" d="M304,268h104v16H304V268z"/>
	
		<linearGradient id="SVGID_8_" gradientUnits="userSpaceOnUse" x1="-6.875" y1="604.38" x2="-6.875" y2="544.025" gradientTransform="matrix(8 0 0 -8 455 4833)">
		<stop  offset="0" style="stop-color:#FC5C7D"/>
		<stop  offset="0.129" style="stop-color:#F35E85"/>
		<stop  offset="0.343" style="stop-color:#D9659B"/>
		<stop  offset="0.616" style="stop-color:#B070BF"/>
		<stop  offset="0.934" style="stop-color:#777FF0"/>
		<stop  offset="1" style="stop-color:#6A82FB"/>
	</linearGradient>
	<path style="fill:url(#SVGID_8_);" d="M360,204h80v16h-80V204z"/>
	
		<linearGradient id="SVGID_9_" gradientUnits="userSpaceOnUse" x1="-14.875" y1="604.38" x2="-14.875" y2="544.025" gradientTransform="matrix(8 0 0 -8 455 4833)">
		<stop  offset="0" style="stop-color:#FC5C7D"/>
		<stop  offset="0.129" style="stop-color:#F35E85"/>
		<stop  offset="0.343" style="stop-color:#D9659B"/>
		<stop  offset="0.616" style="stop-color:#B070BF"/>
		<stop  offset="0.934" style="stop-color:#777FF0"/>
		<stop  offset="1" style="stop-color:#6A82FB"/>
	</linearGradient>
	<path style="fill:url(#SVGID_9_);" d="M328,204h16v16h-16V204z"/>
	
		<linearGradient id="SVGID_10_" gradientUnits="userSpaceOnUse" x1="-14.875" y1="604.38" x2="-14.875" y2="544.025" gradientTransform="matrix(8 0 0 -8 455 4833)">
		<stop  offset="0" style="stop-color:#FC5C7D"/>
		<stop  offset="0.129" style="stop-color:#F35E85"/>
		<stop  offset="0.343" style="stop-color:#D9659B"/>
		<stop  offset="0.616" style="stop-color:#B070BF"/>
		<stop  offset="0.934" style="stop-color:#777FF0"/>
		<stop  offset="1" style="stop-color:#6A82FB"/>
	</linearGradient>
	<path style="fill:url(#SVGID_10_);" d="M328,76h16v16h-16V76z"/>
</g>
<g>
</g>
<g>
</g>
<g>
</g>
<g>
</g>
<g>
</g>
<g>
</g>
<g>
</g>
<g>
</g>
<g>
</g>
<g>
</g>
<g>
</g>
<g>
</g>
<g>
</g>
<g>
</g>
<g>
</g>
</svg>
