<?xml version="1.0" encoding="iso-8859-1"?>
<!-- Generator: Adobe Illustrator 19.0.0, SVG Export Plug-In . SVG Version: 6.00 Build 0)  -->
<svg version="1.1" id="Capa_1" xmlns="http://www.w3.org/2000/svg" xmlns:xlink="http://www.w3.org/1999/xlink" x="0px" y="0px"
	 viewBox="0 0 480.144 480.144" style="enable-background:new 0 0 480.144 480.144;" xml:space="preserve">
<g>
	
		<linearGradient id="SVGID_1_" gradientUnits="userSpaceOnUse" x1="-26.8029" y1="615.567" x2="-26.8029" y2="555.285" gradientTransform="matrix(8 0 0 -8 454.4955 4941)">
		<stop  offset="0" style="stop-color:#FC5C7D"/>
		<stop  offset="0.129" style="stop-color:#F35E85"/>
		<stop  offset="0.343" style="stop-color:#D9659B"/>
		<stop  offset="0.616" style="stop-color:#B070BF"/>
		<stop  offset="0.934" style="stop-color:#777FF0"/>
		<stop  offset="1" style="stop-color:#6A82FB"/>
	</linearGradient>
	<path style="fill:url(#SVGID_1_);" d="M240.072,128c22.091,0,40-17.909,40-40s-17.909-40-40-40s-40,17.909-40,40
		C200.099,110.08,217.992,127.974,240.072,128z M240.072,64c13.255,0,24,10.745,24,24s-10.745,24-24,24c-13.255,0-24-10.745-24-24
		S226.817,64,240.072,64z"/>
	
		<linearGradient id="SVGID_2_" gradientUnits="userSpaceOnUse" x1="-26.8029" y1="615.567" x2="-26.8029" y2="555.285" gradientTransform="matrix(8 0 0 -8 454.4955 4941)">
		<stop  offset="0" style="stop-color:#FC5C7D"/>
		<stop  offset="0.129" style="stop-color:#F35E85"/>
		<stop  offset="0.343" style="stop-color:#D9659B"/>
		<stop  offset="0.616" style="stop-color:#B070BF"/>
		<stop  offset="0.934" style="stop-color:#777FF0"/>
		<stop  offset="1" style="stop-color:#6A82FB"/>
	</linearGradient>
	<path style="fill:url(#SVGID_2_);" d="M232.072,80h16v16h-16V80z"/>
	
		<linearGradient id="SVGID_3_" gradientUnits="userSpaceOnUse" x1="-26.8029" y1="615.567" x2="-26.8029" y2="555.285" gradientTransform="matrix(8 0 0 -8 454.4955 4941)">
		<stop  offset="0" style="stop-color:#FC5C7D"/>
		<stop  offset="0.129" style="stop-color:#F35E85"/>
		<stop  offset="0.343" style="stop-color:#D9659B"/>
		<stop  offset="0.616" style="stop-color:#B070BF"/>
		<stop  offset="0.934" style="stop-color:#777FF0"/>
		<stop  offset="1" style="stop-color:#6A82FB"/>
	</linearGradient>
	<path style="fill:url(#SVGID_3_);" d="M472.072,0h-112c-4.418,0-8,3.582-8,8v9.96L309.84,30.032
		c-3.893-8.527-12.394-14.007-21.768-14.032h-96c-9.374,0.025-17.875,5.505-21.768,14.032L128.072,17.96V8c0-4.418-3.582-8-8-8h-112
		c-4.418,0-8,3.582-8,8v192c0,4.418,3.582,8,8,8h16v24h-16c-4.418,0-8,3.582-8,8v192c0,4.418,3.582,8,8,8h112c4.418,0,8-3.582,8-8
		V302.04l40-11.432V296c0.037,10.606,7.045,19.925,17.224,22.904l5.064,25.344c-18.648,7.192-30.288,18.512-30.288,31.752
		c0,21.448,30.4,37.928,72,39.808v9.496c-14.819,4.418-23.251,20.013-18.833,34.833c4.418,14.819,20.013,23.251,34.833,18.833
		c14.819-4.418,23.251-20.013,18.833-34.833c-2.699-9.052-9.78-16.134-18.833-18.833v-9.496c41.6-1.88,72-18.4,72-39.808
		c0-13.24-11.64-24.56-30.288-31.752l5.064-25.344c10.179-2.979,17.187-12.298,17.224-22.904v-5.392l40,11.432V432
		c0,4.418,3.582,8,8,8h112c4.418,0,8-3.582,8-8V240c0-4.418-3.582-8-8-8h-16v-24h16c4.418,0,8-3.582,8-8V8
		C480.072,3.582,476.49,0,472.072,0z M464.072,64h-40V16h40V64z M368.072,192v-48h40v48H368.072z M408.072,360h-40v-48h40V360z
		 M424.072,312h40v48h-40V312z M368.072,296v-48h40v48H368.072z M360.072,232c-4.418,0-8,3.582-8,8v5.392l-40-11.432V200
		c-0.042-10.134-6.445-19.15-16-22.528v-18.944c9.555-3.378,15.958-12.394,16-22.528V86.04l40-11.432V200c0,4.418,3.582,8,8,8h16v24
		H360.072z M168.072,200v33.96l-40,11.432V240c0-4.418-3.582-8-8-8h-16v-24h16c4.418,0,8-3.582,8-8V74.608l40,11.432V136
		c0.042,10.134,6.445,19.15,16,22.528v18.944C174.517,180.85,168.114,189.866,168.072,200z M72.072,312h40v48h-40V312z M56.072,360
		h-40v-48h40V360z M72.072,296v-48h40v48H72.072z M72.072,80h40v48h-40V80z M56.072,128h-40V80h40V128z M112.072,144v48h-40v-48
		H112.072z M200.072,160h80v16h-80V160z M368.072,128V80h40v48H368.072z M424.072,80h40v48h-40V80z M408.072,16v48h-40V16H408.072z
		 M352.072,57.96l-40,11.432V46.04l40-11.432V57.96z M184.072,40c0-4.418,3.582-8,8-8h96c4.418,0,8,3.582,8,8v96
		c0,4.418-3.582,8-8,8h-96c-4.418,0-8-3.582-8-8V40z M168.072,46.04v23.352l-40-11.432V34.608L168.072,46.04z M112.072,64h-40V16h40
		V64z M56.072,16v48h-40V16H56.072z M16.072,144h40v48h-40V144z M40.072,208h48v24h-48V208z M56.072,248v48h-40v-48H56.072z
		 M16.072,376h40v48h-40V376z M72.072,424v-48h40v48H72.072z M128.072,285.392V262.04l40-11.432v23.352L128.072,285.392z
		 M252.072,452c0,6.627-5.373,12-12,12s-12-5.373-12-12s5.373-12,12-12S252.072,445.373,252.072,452L252.072,452z M304.072,376
		c0,9.104-21.6,22.008-56,23.776V384h-16v15.776c-34.4-1.768-56-14.672-56-23.776c0-9.792,24.928-24,64-24
		S304.072,366.208,304.072,376z M240.072,336c-11.537-0.053-23.044,1.17-34.312,3.648L201.832,320h76.48l-3.928,19.648
		C263.116,337.17,251.609,335.947,240.072,336z M296.072,296c0,4.418-3.582,8-8,8h-96c-4.418,0-8-3.582-8-8v-96c0-4.418,3.582-8,8-8
		h96c4.418,0,8,3.582,8,8V296z M312.072,273.96v-23.352l40,11.432v23.352L312.072,273.96z M368.072,376h40v48h-40V376z M424.072,424
		v-48h40v48H424.072z M464.072,296h-40v-48h40V296z M440.072,232h-48v-24h48V232z M424.072,192v-48h40v48H424.072z"/>
	
		<linearGradient id="SVGID_4_" gradientUnits="userSpaceOnUse" x1="-26.8029" y1="615.567" x2="-26.8029" y2="555.285" gradientTransform="matrix(8 0 0 -8 454.4955 4941)">
		<stop  offset="0" style="stop-color:#FC5C7D"/>
		<stop  offset="0.129" style="stop-color:#F35E85"/>
		<stop  offset="0.343" style="stop-color:#D9659B"/>
		<stop  offset="0.616" style="stop-color:#B070BF"/>
		<stop  offset="0.934" style="stop-color:#777FF0"/>
		<stop  offset="1" style="stop-color:#6A82FB"/>
	</linearGradient>
	<path style="fill:url(#SVGID_4_);" d="M272.072,208h-64c-4.418,0-8,3.582-8,8v64c0,4.418,3.582,8,8,8h64c4.418,0,8-3.582,8-8v-64
		C280.072,211.582,276.49,208,272.072,208z M264.072,272h-48v-48h48V272z"/>
</g>
<g>
</g>
<g>
</g>
<g>
</g>
<g>
</g>
<g>
</g>
<g>
</g>
<g>
</g>
<g>
</g>
<g>
</g>
<g>
</g>
<g>
</g>
<g>
</g>
<g>
</g>
<g>
</g>
<g>
</g>
</svg>
