<?xml version="1.0" encoding="iso-8859-1"?>
<!-- Generator: Adobe Illustrator 19.0.0, SVG Export Plug-In . SVG Version: 6.00 Build 0)  -->
<svg version="1.1" id="Capa_1" xmlns="http://www.w3.org/2000/svg" xmlns:xlink="http://www.w3.org/1999/xlink" x="0px" y="0px"
	 viewBox="0 0 480 480" style="enable-background:new 0 0 480 480;" xml:space="preserve">
<linearGradient id="SVGID_1_" gradientUnits="userSpaceOnUse" x1="-2.375" y1="619.796" x2="-2.375" y2="555.595" gradientTransform="matrix(8 0 0 -8 259 4941)">
	<stop  offset="0" style="stop-color:#FC5C7D"/>
	<stop  offset="0.129" style="stop-color:#F35E85"/>
	<stop  offset="0.343" style="stop-color:#D9659B"/>
	<stop  offset="0.616" style="stop-color:#B070BF"/>
	<stop  offset="0.934" style="stop-color:#777FF0"/>
	<stop  offset="1" style="stop-color:#6A82FB"/>
</linearGradient>
<path style="fill:url(#SVGID_1_);" d="M68,472c0,4.418,3.582,8,8,8h80c4.418,0,8-3.582,8-8v-8h22.136
	c21.715,10.502,45.519,15.971,69.64,16H344c10.777-0.041,20.573-6.263,25.192-16H420c17.673,0,32-14.327,32-32V32
	c0-17.673-14.327-32-32-32H116C98.327,0,84,14.327,84,32v272h-8c-4.418,0-8,3.582-8,8v8H28v16h40v112H28v16h40V472z M344,464
	h-88.224c-22.287-0.037-44.262-5.24-64.2-15.2c-1.114-0.54-2.338-0.814-3.576-0.8h-24V336h24c1.94,0,3.813-0.705,5.272-1.984
	l14.352-12.552C237.719,295.268,252.154,255.39,245.8,216h1.6c13.149-0.039,24.625,8.904,27.8,21.664
	c5.532,21.946,3.964,45.081-4.48,66.08L270.584,304H252v16h92c6.627,0,12,5.373,12,12s-5.373,12-12,12h-20v16h20
	c6.627,0,12,5.373,12,12s-5.373,12-12,12h-20v16h20c6.627,0,12,5.373,12,12s-5.373,12-12,12h-20v16h20c6.627,0,12,5.373,12,12
	S350.627,464,344,464L344,464z M116,16h304c8.837,0,16,7.163,16,16v32H100V32C100,23.163,107.163,16,116,16z M100,80h336v352
	c0,8.837-7.163,16-16,16h-48.408c-0.849-6.075-3.681-11.7-8.056-16c11.046-10.715,11.314-28.355,0.599-39.401
	c-0.197-0.203-0.396-0.402-0.599-0.599c11.046-10.715,11.314-28.355,0.599-39.401c-0.197-0.203-0.396-0.402-0.599-0.599
	c11.068-10.768,11.311-28.47,0.542-39.538c-5.273-5.42-12.517-8.473-20.078-8.462h-56.432c7.861-22.601,8.945-47.007,3.12-70.216
	c-4.937-19.87-22.79-33.811-43.264-33.784H236c-4.418,0-8,3.582-8,8c0,0.655,0.081,1.308,0.24,1.944
	c9.189,36.382-2.857,74.841-31.16,99.48L184.992,320H164v-8c0-4.418-3.582-8-8-8h-56L100,80z M84,320h64v144H84V320z"/>
<g>
	
		<linearGradient id="SVGID_2_" gradientUnits="userSpaceOnUse" x1="-17.875" y1="619.796" x2="-17.875" y2="555.595" gradientTransform="matrix(8 0 0 -8 259 4941)">
		<stop  offset="0" style="stop-color:#FC5C7D"/>
		<stop  offset="0.129" style="stop-color:#F35E85"/>
		<stop  offset="0.343" style="stop-color:#D9659B"/>
		<stop  offset="0.616" style="stop-color:#B070BF"/>
		<stop  offset="0.934" style="stop-color:#777FF0"/>
		<stop  offset="1" style="stop-color:#6A82FB"/>
	</linearGradient>
	<path style="fill:url(#SVGID_2_);" d="M108,432h16v16h-16V432z"/>
	
		<linearGradient id="SVGID_3_" gradientUnits="userSpaceOnUse" x1="-16.875" y1="619.796" x2="-16.875" y2="555.595" gradientTransform="matrix(8 0 0 -8 259 4941)">
		<stop  offset="0" style="stop-color:#FC5C7D"/>
		<stop  offset="0.129" style="stop-color:#F35E85"/>
		<stop  offset="0.343" style="stop-color:#D9659B"/>
		<stop  offset="0.616" style="stop-color:#B070BF"/>
		<stop  offset="0.934" style="stop-color:#777FF0"/>
		<stop  offset="1" style="stop-color:#6A82FB"/>
	</linearGradient>
	<path style="fill:url(#SVGID_3_);" d="M116,32h16v16h-16V32z"/>
	
		<linearGradient id="SVGID_4_" gradientUnits="userSpaceOnUse" x1="-12.875" y1="619.796" x2="-12.875" y2="555.595" gradientTransform="matrix(8 0 0 -8 259 4941)">
		<stop  offset="0" style="stop-color:#FC5C7D"/>
		<stop  offset="0.129" style="stop-color:#F35E85"/>
		<stop  offset="0.343" style="stop-color:#D9659B"/>
		<stop  offset="0.616" style="stop-color:#B070BF"/>
		<stop  offset="0.934" style="stop-color:#777FF0"/>
		<stop  offset="1" style="stop-color:#6A82FB"/>
	</linearGradient>
	<path style="fill:url(#SVGID_4_);" d="M148,32h16v16h-16V32z"/>
	
		<linearGradient id="SVGID_5_" gradientUnits="userSpaceOnUse" x1="-8.875" y1="619.796" x2="-8.875" y2="555.595" gradientTransform="matrix(8 0 0 -8 259 4941)">
		<stop  offset="0" style="stop-color:#FC5C7D"/>
		<stop  offset="0.129" style="stop-color:#F35E85"/>
		<stop  offset="0.343" style="stop-color:#D9659B"/>
		<stop  offset="0.616" style="stop-color:#B070BF"/>
		<stop  offset="0.934" style="stop-color:#777FF0"/>
		<stop  offset="1" style="stop-color:#6A82FB"/>
	</linearGradient>
	<path style="fill:url(#SVGID_5_);" d="M180,32h16v16h-16V32z"/>
	
		<linearGradient id="SVGID_6_" gradientUnits="userSpaceOnUse" x1="-6.375" y1="619.796" x2="-6.375" y2="555.595" gradientTransform="matrix(8 0 0 -8 259 4941)">
		<stop  offset="0" style="stop-color:#FC5C7D"/>
		<stop  offset="0.129" style="stop-color:#F35E85"/>
		<stop  offset="0.343" style="stop-color:#D9659B"/>
		<stop  offset="0.616" style="stop-color:#B070BF"/>
		<stop  offset="0.934" style="stop-color:#777FF0"/>
		<stop  offset="1" style="stop-color:#6A82FB"/>
	</linearGradient>
	<path style="fill:url(#SVGID_6_);" d="M124,136h168v16H124V136z"/>
	
		<linearGradient id="SVGID_7_" gradientUnits="userSpaceOnUse" x1="-6.375" y1="619.796" x2="-6.375" y2="555.595" gradientTransform="matrix(8 0 0 -8 259 4941)">
		<stop  offset="0" style="stop-color:#FC5C7D"/>
		<stop  offset="0.129" style="stop-color:#F35E85"/>
		<stop  offset="0.343" style="stop-color:#D9659B"/>
		<stop  offset="0.616" style="stop-color:#B070BF"/>
		<stop  offset="0.934" style="stop-color:#777FF0"/>
		<stop  offset="1" style="stop-color:#6A82FB"/>
	</linearGradient>
	<path style="fill:url(#SVGID_7_);" d="M124,168h168v16H124V168z"/>
</g>
<linearGradient id="SVGID_8_" gradientUnits="userSpaceOnUse" x1="-2.375" y1="619.796" x2="-2.375" y2="555.595" gradientTransform="matrix(8 0 0 -8 259 4941)">
	<stop  offset="0" style="stop-color:#FC5C7D"/>
	<stop  offset="0.129" style="stop-color:#F35E85"/>
	<stop  offset="0.343" style="stop-color:#D9659B"/>
	<stop  offset="0.616" style="stop-color:#B070BF"/>
	<stop  offset="0.934" style="stop-color:#777FF0"/>
	<stop  offset="1" style="stop-color:#6A82FB"/>
</linearGradient>
<path style="fill:url(#SVGID_8_);" d="M188,104h104v16H188V104z"/>
<g>
	
		<linearGradient id="SVGID_9_" gradientUnits="userSpaceOnUse" x1="-11.875" y1="619.796" x2="-11.875" y2="555.595" gradientTransform="matrix(8 0 0 -8 259 4941)">
		<stop  offset="0" style="stop-color:#FC5C7D"/>
		<stop  offset="0.129" style="stop-color:#F35E85"/>
		<stop  offset="0.343" style="stop-color:#D9659B"/>
		<stop  offset="0.616" style="stop-color:#B070BF"/>
		<stop  offset="0.934" style="stop-color:#777FF0"/>
		<stop  offset="1" style="stop-color:#6A82FB"/>
	</linearGradient>
	<path style="fill:url(#SVGID_9_);" d="M156,104h16v16h-16V104z"/>
	
		<linearGradient id="SVGID_10_" gradientUnits="userSpaceOnUse" x1="13.125" y1="619.796" x2="13.125" y2="555.595" gradientTransform="matrix(8 0 0 -8 259 4941)">
		<stop  offset="0" style="stop-color:#FC5C7D"/>
		<stop  offset="0.129" style="stop-color:#F35E85"/>
		<stop  offset="0.343" style="stop-color:#D9659B"/>
		<stop  offset="0.616" style="stop-color:#B070BF"/>
		<stop  offset="0.934" style="stop-color:#777FF0"/>
		<stop  offset="1" style="stop-color:#6A82FB"/>
	</linearGradient>
	<path style="fill:url(#SVGID_10_);" d="M324,280h80c4.418,0,8-3.582,8-8v-64c0-4.418-3.582-8-8-8h-80c-4.418,0-8,3.582-8,8v64
		C316,276.418,319.582,280,324,280z M332,216h64v48h-64V216z"/>
	
		<linearGradient id="SVGID_11_" gradientUnits="userSpaceOnUse" x1="13.125" y1="619.796" x2="13.125" y2="555.595" gradientTransform="matrix(8 0 0 -8 259 4941)">
		<stop  offset="0" style="stop-color:#FC5C7D"/>
		<stop  offset="0.129" style="stop-color:#F35E85"/>
		<stop  offset="0.343" style="stop-color:#D9659B"/>
		<stop  offset="0.616" style="stop-color:#B070BF"/>
		<stop  offset="0.934" style="stop-color:#777FF0"/>
		<stop  offset="1" style="stop-color:#6A82FB"/>
	</linearGradient>
	<path style="fill:url(#SVGID_11_);" d="M324,184h80c4.418,0,8-3.582,8-8v-64c0-4.418-3.582-8-8-8h-80c-4.418,0-8,3.582-8,8v64
		C316,180.418,319.582,184,324,184z M332,120h64v48h-64V120z"/>
	
		<linearGradient id="SVGID_12_" gradientUnits="userSpaceOnUse" x1="-12.375" y1="619.796" x2="-12.375" y2="555.595" gradientTransform="matrix(8 0 0 -8 259 4941)">
		<stop  offset="0" style="stop-color:#FC5C7D"/>
		<stop  offset="0.129" style="stop-color:#F35E85"/>
		<stop  offset="0.343" style="stop-color:#D9659B"/>
		<stop  offset="0.616" style="stop-color:#B070BF"/>
		<stop  offset="0.934" style="stop-color:#777FF0"/>
		<stop  offset="1" style="stop-color:#6A82FB"/>
	</linearGradient>
	<path style="fill:url(#SVGID_12_);" d="M196,272v-64c0-4.418-3.582-8-8-8h-56c-4.418,0-8,3.582-8,8v64c0,4.418,3.582,8,8,8h56
		C192.418,280,196,276.418,196,272z M180,264h-40v-48h40V264z"/>
</g>
<g>
</g>
<g>
</g>
<g>
</g>
<g>
</g>
<g>
</g>
<g>
</g>
<g>
</g>
<g>
</g>
<g>
</g>
<g>
</g>
<g>
</g>
<g>
</g>
<g>
</g>
<g>
</g>
<g>
</g>
</svg>
