<?xml version="1.0" encoding="iso-8859-1"?>
<!-- Generator: Adobe Illustrator 19.0.0, SVG Export Plug-In . SVG Version: 6.00 Build 0)  -->
<svg version="1.1" id="Capa_1" xmlns="http://www.w3.org/2000/svg" xmlns:xlink="http://www.w3.org/1999/xlink" x="0px" y="0px"
	 viewBox="0 0 477.055 477.055" style="enable-background:new 0 0 477.055 477.055;" xml:space="preserve">
<linearGradient id="SVGID_1_" gradientUnits="userSpaceOnUse" x1="-47.8737" y1="627.1006" x2="-47.8737" y2="565.4576" gradientTransform="matrix(8 0 0 -8 454.9911 5020.3135)">
	<stop  offset="0" style="stop-color:#FC5C7D"/>
	<stop  offset="0.129" style="stop-color:#F35E85"/>
	<stop  offset="0.343" style="stop-color:#D9659B"/>
	<stop  offset="0.616" style="stop-color:#B070BF"/>
	<stop  offset="0.934" style="stop-color:#777FF0"/>
	<stop  offset="1" style="stop-color:#6A82FB"/>
</linearGradient>
<path style="fill:url(#SVGID_1_);" d="M64.001,232.813h16v16h-16V232.813z"/>
<g>
	
		<linearGradient id="SVGID_2_" gradientUnits="userSpaceOnUse" x1="-27.058" y1="627.1006" x2="-27.058" y2="565.4576" gradientTransform="matrix(8 0 0 -8 454.9911 5020.3135)">
		<stop  offset="0" style="stop-color:#FC5C7D"/>
		<stop  offset="0.129" style="stop-color:#F35E85"/>
		<stop  offset="0.343" style="stop-color:#D9659B"/>
		<stop  offset="0.616" style="stop-color:#B070BF"/>
		<stop  offset="0.934" style="stop-color:#777FF0"/>
		<stop  offset="1" style="stop-color:#6A82FB"/>
	</linearGradient>
	<path style="fill:url(#SVGID_2_);" d="M19.809,223.325c-20.439,13.628-25.96,41.245-12.333,61.683
		c8.249,12.372,22.135,19.803,37.005,19.805h335.624c12.272-0.028,24.426-2.401,35.808-6.992
		c-12.34,23.922-36.994,38.964-63.912,38.992h-240c-17.673,0-32,14.327-32,32s14.327,32,32,32h264v-16h-264c-8.837,0-16-7.163-16-16
		s7.163-16,16-16h240c40.423-0.075,75.607-27.653,85.336-66.888c43.075-31.335,52.592-91.657,21.257-134.732
		c-0.669-0.92-1.355-1.829-2.057-2.724c-33.317-42.851-83.612-69.106-137.816-71.944c-47.356-2.393-94.23,10.466-133.736,36.688
		l-32.184,21.456c-27.63-13.759-61.182-2.514-74.941,25.116c-3.871,7.774-5.877,16.343-5.859,25.028v0.056
		c0,1.192,0.088,2.4,0.168,3.552L19.809,223.325z M193.857,126.525c36.628-24.318,80.091-36.244,124-34.024
		c49.581,2.585,95.589,26.597,126.064,65.792c24.456,30.801,22.791,74.837-3.92,103.704v-45.184h-16v48
		c-0.028,3.842-0.362,7.675-1,11.464c-12.834,8.131-27.703,12.476-42.896,12.536H44.481c-15.725,0.008-28.479-12.732-28.487-28.457
		c-0.005-9.529,4.757-18.429,12.687-23.711l47.2-31.456v0.08c0.4,1.008,0.848,1.992,1.296,2.976c0.288,0.616,0.568,1.232,0.872,1.84
		c0.456,0.904,0.952,1.784,1.464,2.672c0.392,0.672,0.8,1.336,1.2,2s1.008,1.528,1.544,2.28s1.056,1.472,1.6,2.184
		s1.032,1.288,1.6,1.92c0.28,0.328,0.536,0.688,0.8,1.008l0.056-0.04c0.688,0.8,1.344,1.6,2.088,2.304l11.312-11.312
		c-1.233-1.311-2.377-2.704-3.424-4.168c-0.68-0.888-1.4-1.744-1.992-2.688c-0.711-1.169-1.357-2.376-1.936-3.616
		c-0.52-1.032-1.096-2.032-1.52-3.104c-0.496-1.354-0.915-2.735-1.256-4.136c-0.28-1.016-0.656-2-0.856-3.04
		c-0.477-2.465-0.721-4.969-0.728-7.48v-0.056c0-22.091,17.909-40,40-40s40,17.909,40,40c-0.025,2.314-0.25,4.621-0.672,6.896
		c-0.112,0.632-0.24,1.264-0.376,1.888c-0.456,2.115-1.085,4.188-1.88,6.2l-0.256,0.616c-2.006,4.735-4.904,9.04-8.536,12.68
		l11.312,11.312c3.449-3.462,6.431-7.359,8.872-11.592c0.096-0.16,0.16-0.336,0.248-0.496c2.237-3.947,3.978-8.155,5.184-12.528
		c0.12-0.424,0.216-0.856,0.328-1.288c0.44-1.768,0.8-3.552,1.064-5.368c0.08-0.536,0.176-1.072,0.24-1.6
		c0.291-2.229,0.448-4.473,0.472-6.72c-0.001-15.203-6.204-29.748-17.176-40.272L193.857,126.525z"/>
	
		<linearGradient id="SVGID_3_" gradientUnits="userSpaceOnUse" x1="-40.8737" y1="627.1006" x2="-40.8737" y2="565.4576" gradientTransform="matrix(8 0 0 -8 454.9911 5020.3135)">
		<stop  offset="0" style="stop-color:#FC5C7D"/>
		<stop  offset="0.129" style="stop-color:#F35E85"/>
		<stop  offset="0.343" style="stop-color:#D9659B"/>
		<stop  offset="0.616" style="stop-color:#B070BF"/>
		<stop  offset="0.934" style="stop-color:#777FF0"/>
		<stop  offset="1" style="stop-color:#6A82FB"/>
	</linearGradient>
	<path style="fill:url(#SVGID_3_);" d="M128.001,160.813c-13.255-0.002-24.001,10.742-24.003,23.997
		c-0.001,6.369,2.53,12.477,7.035,16.979l11.312-11.32c-3.125-3.124-3.125-8.189-0.002-11.314s8.189-3.125,11.314-0.002
		c3.125,3.124,3.125,8.189,0.002,11.314c-0.001,0.001-0.001,0.001-0.002,0.002l11.312,11.32c9.376-9.37,9.38-24.566,0.011-33.941
		C140.478,163.343,134.37,160.812,128.001,160.813L128.001,160.813z"/>
	
		<linearGradient id="SVGID_4_" gradientUnits="userSpaceOnUse" x1="-6.8737" y1="627.1006" x2="-6.8737" y2="565.4576" gradientTransform="matrix(8 0 0 -8 454.9911 5020.3135)">
		<stop  offset="0" style="stop-color:#FC5C7D"/>
		<stop  offset="0.129" style="stop-color:#F35E85"/>
		<stop  offset="0.343" style="stop-color:#D9659B"/>
		<stop  offset="0.616" style="stop-color:#B070BF"/>
		<stop  offset="0.934" style="stop-color:#777FF0"/>
		<stop  offset="1" style="stop-color:#6A82FB"/>
	</linearGradient>
	<path style="fill:url(#SVGID_4_);" d="M392.001,384.813h16v16h-16V384.813z"/>
</g>
<g>
</g>
<g>
</g>
<g>
</g>
<g>
</g>
<g>
</g>
<g>
</g>
<g>
</g>
<g>
</g>
<g>
</g>
<g>
</g>
<g>
</g>
<g>
</g>
<g>
</g>
<g>
</g>
<g>
</g>
</svg>
