<?xml version="1.0" encoding="iso-8859-1"?>
<!-- Generator: Adobe Illustrator 19.0.0, SVG Export Plug-In . SVG Version: 6.00 Build 0)  -->
<svg version="1.1" id="Capa_1" xmlns="http://www.w3.org/2000/svg" xmlns:xlink="http://www.w3.org/1999/xlink" x="0px" y="0px"
	 viewBox="0 0 456.911 456.911" style="enable-background:new 0 0 456.911 456.911;" xml:space="preserve">
<g>
	
		<linearGradient id="SVGID_1_" gradientUnits="userSpaceOnUse" x1="-46.464" y1="605.8565" x2="-46.464" y2="541.7305" gradientTransform="matrix(8 0 0 -8 560.6228 4837.0996)">
		<stop  offset="0" style="stop-color:#FC5C7D"/>
		<stop  offset="0.129" style="stop-color:#F35E85"/>
		<stop  offset="0.343" style="stop-color:#D9659B"/>
		<stop  offset="0.616" style="stop-color:#B070BF"/>
		<stop  offset="0.934" style="stop-color:#777FF0"/>
		<stop  offset="1" style="stop-color:#6A82FB"/>
	</linearGradient>
	<path style="fill:url(#SVGID_1_);" d="M88.911,132.455h200v16h-200V132.455z"/>
	
		<linearGradient id="SVGID_2_" gradientUnits="userSpaceOnUse" x1="-46.464" y1="605.8565" x2="-46.464" y2="541.7305" gradientTransform="matrix(8 0 0 -8 560.6228 4837.0996)">
		<stop  offset="0" style="stop-color:#FC5C7D"/>
		<stop  offset="0.129" style="stop-color:#F35E85"/>
		<stop  offset="0.343" style="stop-color:#D9659B"/>
		<stop  offset="0.616" style="stop-color:#B070BF"/>
		<stop  offset="0.934" style="stop-color:#777FF0"/>
		<stop  offset="1" style="stop-color:#6A82FB"/>
	</linearGradient>
	<path style="fill:url(#SVGID_2_);" d="M88.911,164.455h200v16h-200V164.455z"/>
</g>
<g>
	
		<linearGradient id="SVGID_3_" gradientUnits="userSpaceOnUse" x1="-48.464" y1="605.8565" x2="-48.464" y2="541.7305" gradientTransform="matrix(8 0 0 -8 560.6228 4837.0996)">
		<stop  offset="0" style="stop-color:#FC5C7D"/>
		<stop  offset="0.129" style="stop-color:#F35E85"/>
		<stop  offset="0.343" style="stop-color:#D9659B"/>
		<stop  offset="0.616" style="stop-color:#B070BF"/>
		<stop  offset="0.934" style="stop-color:#777FF0"/>
		<stop  offset="1" style="stop-color:#6A82FB"/>
	</linearGradient>
	<path style="fill:url(#SVGID_3_);" d="M88.911,196.455h168v16h-168V196.455z"/>
	
		<linearGradient id="SVGID_4_" gradientUnits="userSpaceOnUse" x1="-42.464" y1="605.8565" x2="-42.464" y2="541.7305" gradientTransform="matrix(8 0 0 -8 560.6228 4837.0996)">
		<stop  offset="0" style="stop-color:#FC5C7D"/>
		<stop  offset="0.129" style="stop-color:#F35E85"/>
		<stop  offset="0.343" style="stop-color:#D9659B"/>
		<stop  offset="0.616" style="stop-color:#B070BF"/>
		<stop  offset="0.934" style="stop-color:#777FF0"/>
		<stop  offset="1" style="stop-color:#6A82FB"/>
	</linearGradient>
	<path style="fill:url(#SVGID_4_);" d="M152.911,100.455h136v16h-136V100.455z"/>
	
		<linearGradient id="SVGID_5_" gradientUnits="userSpaceOnUse" x1="-41.5209" y1="605.8565" x2="-41.5209" y2="541.7305" gradientTransform="matrix(8 0 0 -8 560.6228 4837.0996)">
		<stop  offset="0" style="stop-color:#FC5C7D"/>
		<stop  offset="0.129" style="stop-color:#F35E85"/>
		<stop  offset="0.343" style="stop-color:#D9659B"/>
		<stop  offset="0.616" style="stop-color:#B070BF"/>
		<stop  offset="0.934" style="stop-color:#777FF0"/>
		<stop  offset="1" style="stop-color:#6A82FB"/>
	</linearGradient>
	<path style="fill:url(#SVGID_5_);" d="M65.415,447.264c1.171,3.125,4.159,5.194,7.496,5.192h376
		c0.957-0.018,1.902-0.208,2.792-0.56c0.176-0.072,0.352-0.12,0.52-0.2c0.808-0.368,1.548-0.868,2.192-1.48
		c0.128-0.12,0.224-0.256,0.336-0.376c0.265-0.248,0.511-0.515,0.736-0.8c0.246-0.384,0.46-0.788,0.64-1.208
		c0.056-0.12,0.128-0.224,0.176-0.344c0.346-0.869,0.533-1.793,0.552-2.728c0-0.096,0.056-0.184,0.056-0.28V132.455
		c0-17.673-14.327-32-32-32h-32c-17.673,0-32,14.327-32,32v16h-24v-112c0-17.673-14.327-32-32-32h-264c-17.673,0-32,14.327-32,32v16
		c0,4.418,3.582,8,8,8h24v184H23.999c-13.255,0.001-24,10.746-23.999,24.001c0,2.876,0.517,5.73,1.527,8.423L65.415,447.264z
		 M368.911,164.455c4.418,0,8-3.582,8-8v-24c0-8.837,7.163-16,16-16h32c8.837,0,16,7.163,16,16v267.88l-52.616-140.296
		c-3.534-9.352-12.474-15.552-22.472-15.584h-28.912v-80H368.911z M24.911,36.455c0-8.837,7.163-16,16-16h236.296
		c-2.822,4.859-4.305,10.381-4.296,16v8h-248L24.911,36.455z M56.911,60.455h224c4.418,0,8-3.582,8-8v-16c0-8.837,7.163-16,16-16
		s16,7.163,16,16v208h-264V60.455z M17.423,263.896c1.485-2.167,3.949-3.456,6.576-3.44h341.824c3.334,0.001,6.318,2.07,7.488,5.192
		l64.056,170.808H78.455L16.511,271.263C15.572,268.808,15.914,266.048,17.423,263.896L17.423,263.896z"/>
	
		<linearGradient id="SVGID_6_" gradientUnits="userSpaceOnUse" x1="-17.964" y1="605.8565" x2="-17.964" y2="541.7305" gradientTransform="matrix(8 0 0 -8 560.6228 4837.0996)">
		<stop  offset="0" style="stop-color:#FC5C7D"/>
		<stop  offset="0.129" style="stop-color:#F35E85"/>
		<stop  offset="0.343" style="stop-color:#D9659B"/>
		<stop  offset="0.616" style="stop-color:#B070BF"/>
		<stop  offset="0.934" style="stop-color:#777FF0"/>
		<stop  offset="1" style="stop-color:#6A82FB"/>
	</linearGradient>
	<path style="fill:url(#SVGID_6_);" d="M408.911,132.455h16v16h-16V132.455z"/>
	
		<linearGradient id="SVGID_7_" gradientUnits="userSpaceOnUse" x1="-53.964" y1="605.8565" x2="-53.964" y2="541.7305" gradientTransform="matrix(8 0 0 -8 560.6228 4837.0996)">
		<stop  offset="0" style="stop-color:#FC5C7D"/>
		<stop  offset="0.129" style="stop-color:#F35E85"/>
		<stop  offset="0.343" style="stop-color:#D9659B"/>
		<stop  offset="0.616" style="stop-color:#B070BF"/>
		<stop  offset="0.934" style="stop-color:#777FF0"/>
		<stop  offset="1" style="stop-color:#6A82FB"/>
	</linearGradient>
	<path style="fill:url(#SVGID_7_);" d="M120.911,100.455h16v16h-16V100.455z"/>
</g>
<g>
</g>
<g>
</g>
<g>
</g>
<g>
</g>
<g>
</g>
<g>
</g>
<g>
</g>
<g>
</g>
<g>
</g>
<g>
</g>
<g>
</g>
<g>
</g>
<g>
</g>
<g>
</g>
<g>
</g>
</svg>
