<?xml version="1.0" encoding="iso-8859-1"?>
<!-- Generator: Adobe Illustrator 19.0.0, SVG Export Plug-In . SVG Version: 6.00 Build 0)  -->
<svg version="1.1" id="Capa_1" xmlns="http://www.w3.org/2000/svg" xmlns:xlink="http://www.w3.org/1999/xlink" x="0px" y="0px"
	 viewBox="0 0 480 480" style="enable-background:new 0 0 480 480;" xml:space="preserve">
<g>
	
		<linearGradient id="SVGID_1_" gradientUnits="userSpaceOnUse" x1="-26.875" y1="615.392" x2="-26.875" y2="554.721" gradientTransform="matrix(8 0 0 -8 455 4941)">
		<stop  offset="0" style="stop-color:#FC5C7D"/>
		<stop  offset="0.129" style="stop-color:#F35E85"/>
		<stop  offset="0.343" style="stop-color:#D9659B"/>
		<stop  offset="0.616" style="stop-color:#B070BF"/>
		<stop  offset="0.934" style="stop-color:#777FF0"/>
		<stop  offset="1" style="stop-color:#6A82FB"/>
	</linearGradient>
	<path style="fill:url(#SVGID_1_);" d="M240,216v16c4.418,0,8,3.582,8,8s-3.582,8-8,8s-8-3.582-8-8h-16c0,13.255,10.745,24,24,24
		c13.255,0,24-10.745,24-24C264,226.745,253.255,216,240,216z"/>
	
		<linearGradient id="SVGID_2_" gradientUnits="userSpaceOnUse" x1="-26.875" y1="615.392" x2="-26.875" y2="554.721" gradientTransform="matrix(8 0 0 -8 455 4941)">
		<stop  offset="0" style="stop-color:#FC5C7D"/>
		<stop  offset="0.129" style="stop-color:#F35E85"/>
		<stop  offset="0.343" style="stop-color:#D9659B"/>
		<stop  offset="0.616" style="stop-color:#B070BF"/>
		<stop  offset="0.934" style="stop-color:#777FF0"/>
		<stop  offset="1" style="stop-color:#6A82FB"/>
	</linearGradient>
	<path style="fill:url(#SVGID_2_);" d="M240,0C107.452,0,0,107.452,0,240s107.452,240,240,240s240-107.452,240-240
		C479.85,107.514,372.486,0.15,240,0z M240,464C116.288,464,16,363.712,16,240S116.288,16,240,16s224,100.288,224,224
		C463.859,363.653,363.653,463.859,240,464z"/>
</g>
<g>
	
		<linearGradient id="SVGID_3_" gradientUnits="userSpaceOnUse" x1="-43.3275" y1="615.392" x2="-43.3275" y2="554.721" gradientTransform="matrix(8 0 0 -8 455 4941)">
		<stop  offset="0" style="stop-color:#FC5C7D"/>
		<stop  offset="0.129" style="stop-color:#F35E85"/>
		<stop  offset="0.343" style="stop-color:#D9659B"/>
		<stop  offset="0.616" style="stop-color:#B070BF"/>
		<stop  offset="0.934" style="stop-color:#777FF0"/>
		<stop  offset="1" style="stop-color:#6A82FB"/>
	</linearGradient>
	<path style="fill:url(#SVGID_3_);" d="M139.472,126l-10.6-12c-25.239,22.185-43.214,51.456-51.584,84l15.504,4
		C100.356,172.549,116.624,146.063,139.472,126L139.472,126z"/>
	
		<linearGradient id="SVGID_4_" gradientUnits="userSpaceOnUse" x1="-27.4105" y1="615.392" x2="-27.4105" y2="554.721" gradientTransform="matrix(8 0 0 -8 455 4941)">
		<stop  offset="0" style="stop-color:#FC5C7D"/>
		<stop  offset="0.129" style="stop-color:#F35E85"/>
		<stop  offset="0.343" style="stop-color:#D9659B"/>
		<stop  offset="0.616" style="stop-color:#B070BF"/>
		<stop  offset="0.934" style="stop-color:#777FF0"/>
		<stop  offset="1" style="stop-color:#6A82FB"/>
	</linearGradient>
	<path style="fill:url(#SVGID_4_);" d="M191.536,384.072l-5.088,15.2c31.832,10.767,66.17,11.693,98.536,2.656l-4.296-15.4
		C251.398,394.677,220.333,393.822,191.536,384.072L191.536,384.072z"/>
	
		<linearGradient id="SVGID_5_" gradientUnits="userSpaceOnUse" x1="-9.9245" y1="615.392" x2="-9.9245" y2="554.721" gradientTransform="matrix(8 0 0 -8 455 4941)">
		<stop  offset="0" style="stop-color:#FC5C7D"/>
		<stop  offset="0.129" style="stop-color:#F35E85"/>
		<stop  offset="0.343" style="stop-color:#D9659B"/>
		<stop  offset="0.616" style="stop-color:#B070BF"/>
		<stop  offset="0.934" style="stop-color:#777FF0"/>
		<stop  offset="1" style="stop-color:#6A82FB"/>
	</linearGradient>
	<path style="fill:url(#SVGID_5_);" d="M346.52,131.512c21.707,21.278,36.509,48.596,42.48,78.4l15.688-3.2
		c-6.599-32.949-22.962-63.15-46.96-86.672L346.52,131.512z"/>
</g>
<g>
	
		<linearGradient id="SVGID_6_" gradientUnits="userSpaceOnUse" x1="-26.875" y1="615.392" x2="-26.875" y2="554.721" gradientTransform="matrix(8 0 0 -8 455 4941)">
		<stop  offset="0" style="stop-color:#FC5C7D"/>
		<stop  offset="0.129" style="stop-color:#F35E85"/>
		<stop  offset="0.343" style="stop-color:#D9659B"/>
		<stop  offset="0.616" style="stop-color:#B070BF"/>
		<stop  offset="0.934" style="stop-color:#777FF0"/>
		<stop  offset="1" style="stop-color:#6A82FB"/>
	</linearGradient>
	<path style="fill:url(#SVGID_6_);" d="M240,184c-30.928,0-56,25.072-56,56s25.072,56,56,56s56-25.072,56-56
		C295.96,209.089,270.911,184.04,240,184z M240,280c-22.091,0-40-17.909-40-40s17.909-40,40-40s40,17.909,40,40
		C279.974,262.08,262.08,279.974,240,280z"/>
	
		<linearGradient id="SVGID_7_" gradientUnits="userSpaceOnUse" x1="-26.875" y1="615.392" x2="-26.875" y2="554.721" gradientTransform="matrix(8 0 0 -8 455 4941)">
		<stop  offset="0" style="stop-color:#FC5C7D"/>
		<stop  offset="0.129" style="stop-color:#F35E85"/>
		<stop  offset="0.343" style="stop-color:#D9659B"/>
		<stop  offset="0.616" style="stop-color:#B070BF"/>
		<stop  offset="0.934" style="stop-color:#777FF0"/>
		<stop  offset="1" style="stop-color:#6A82FB"/>
	</linearGradient>
	<path style="fill:url(#SVGID_7_);" d="M192.408,175.2c1.068,1.849,2.831,3.194,4.896,3.736c2.065,0.533,4.257,0.225,6.096-0.856
		c22.571-13.36,50.629-13.36,73.2,0c3.804,2.247,8.71,0.985,10.957-2.82c0.012-0.02,0.024-0.04,0.035-0.06l60.184-103.944
		c2.205-3.812,0.914-8.69-2.888-10.912c-64.808-37.831-144.968-37.831-209.776,0c-3.802,2.222-5.093,7.1-2.888,10.912L192.408,175.2
		z M329.848,70.28L277.6,160.52c-23.802-11.259-51.398-11.259-75.2,0l-52.24-90.232c56.202-29.749,123.486-29.749,179.688,0V70.28z"
		/>
</g>
<g>
	
		<linearGradient id="SVGID_8_" gradientUnits="userSpaceOnUse" x1="-41.8277" y1="615.392" x2="-41.8277" y2="554.721" gradientTransform="matrix(8 0 0 -8 455 4941)">
		<stop  offset="0" style="stop-color:#FC5C7D"/>
		<stop  offset="0.129" style="stop-color:#F35E85"/>
		<stop  offset="0.343" style="stop-color:#D9659B"/>
		<stop  offset="0.616" style="stop-color:#B070BF"/>
		<stop  offset="0.934" style="stop-color:#777FF0"/>
		<stop  offset="1" style="stop-color:#6A82FB"/>
	</linearGradient>
	<path style="fill:url(#SVGID_8_);" d="M208.48,307.504c-0.575-2.055-1.942-3.798-3.8-4.848
		c-22.856-12.87-36.882-37.172-36.592-63.4c0.049-4.418-3.494-8.039-7.912-8.088c-0.029,0-0.059,0-0.088,0L40,231.032
		c-4.4,0-7.974,3.552-8,7.952c-0.357,75.043,39.722,144.465,104.888,181.68c3.827,2.182,8.699,0.859,10.896-2.96L207.688,313.6
		C208.753,311.755,209.038,309.56,208.48,307.504z M137.952,402.704C84.08,368.889,50.438,310.602,48.104,247.04l104.264,0.128
		c2.135,26.253,15.936,50.163,37.6,65.144L137.952,402.704z"/>
	
		<linearGradient id="SVGID_9_" gradientUnits="userSpaceOnUse" x1="-11.9221" y1="615.392" x2="-11.9221" y2="554.721" gradientTransform="matrix(8 0 0 -8 455 4941)">
		<stop  offset="0" style="stop-color:#FC5C7D"/>
		<stop  offset="0.129" style="stop-color:#F35E85"/>
		<stop  offset="0.343" style="stop-color:#D9659B"/>
		<stop  offset="0.616" style="stop-color:#B070BF"/>
		<stop  offset="0.934" style="stop-color:#777FF0"/>
		<stop  offset="1" style="stop-color:#6A82FB"/>
	</linearGradient>
	<path style="fill:url(#SVGID_9_);" d="M314.224,233.544c-1.502,1.519-2.335,3.576-2.312,5.712
		c0.29,26.228-13.736,50.53-36.592,63.4c-3.85,2.168-5.213,7.047-3.044,10.896c0.012,0.021,0.024,0.042,0.036,0.064l59.928,104.088
		c2.197,3.819,7.069,5.142,10.896,2.96C408.293,383.443,448.362,314.022,448,238.984c-0.026-4.4-3.6-7.952-8-7.952L319.904,231.2
		C317.774,231.194,315.73,232.038,314.224,233.544L314.224,233.544z M431.896,247.04c-2.344,63.551-35.986,121.823-89.848,155.632
		l-52-90.4c21.664-14.981,35.465-38.891,37.6-65.144L431.896,247.04z"/>
</g>
<g>
</g>
<g>
</g>
<g>
</g>
<g>
</g>
<g>
</g>
<g>
</g>
<g>
</g>
<g>
</g>
<g>
</g>
<g>
</g>
<g>
</g>
<g>
</g>
<g>
</g>
<g>
</g>
<g>
</g>
</svg>
