<?xml version="1.0" encoding="iso-8859-1"?>
<!-- Generator: Adobe Illustrator 19.0.0, SVG Export Plug-In . SVG Version: 6.00 Build 0)  -->
<svg version="1.1" id="Capa_1" xmlns="http://www.w3.org/2000/svg" xmlns:xlink="http://www.w3.org/1999/xlink" x="0px" y="0px"
	 viewBox="0 0 480.001 480.001" style="enable-background:new 0 0 480.001 480.001;" xml:space="preserve">
<linearGradient id="SVGID_1_" gradientUnits="userSpaceOnUse" x1="-26.8737" y1="618.2887" x2="-26.8737" y2="556.6457" gradientTransform="matrix(8 0 0 -8 454.9906 4941.0059)">
	<stop  offset="0" style="stop-color:#FC5C7D"/>
	<stop  offset="0.129" style="stop-color:#F35E85"/>
	<stop  offset="0.343" style="stop-color:#D9659B"/>
	<stop  offset="0.616" style="stop-color:#B070BF"/>
	<stop  offset="0.934" style="stop-color:#777FF0"/>
	<stop  offset="1" style="stop-color:#6A82FB"/>
</linearGradient>
<path style="fill:url(#SVGID_1_);" d="M384.001,232.001c-0.028,26.51,21.44,48.023,47.95,48.05s48.023-21.44,48.05-47.95
	c0.025-24.098-17.821-44.48-41.712-47.637L402.401,48.001h29.6c13.255,0,24-10.745,24-24s-10.745-24-24-24h-400
	c-13.255,0-24,10.745-24,24s10.745,24,24,24h32v102.04c-14.347,1.612-28.005,7.019-39.568,15.664
	c-16.216,12.904-24.432,32.44-24.432,58.08c-0.176,42.279,16.892,82.803,47.264,112.216H8.001c-4.418,0-8,3.582-8,8v128
	c0,4.418,3.582,8,8,8h464c4.418,0,8-3.582,8-8v-64c0-4.418-3.582-8-8-8h-56v-56c0-4.418-3.582-8-8-8H176.737
	c16.984-16.665,30.037-36.909,38.208-59.256c20.944,8.183,44.757,0.56,57.056-18.264c14.591,22.133,44.361,28.248,66.494,13.657
	c22.133-14.591,28.248-44.361,13.657-66.494c-7.343-11.14-18.992-18.72-32.151-20.923V48.001h65.832l36.072,137.088
	C399.811,189.867,384.032,209.396,384.001,232.001L384.001,232.001z M24.001,24.001c0-4.418,3.582-8,8-8h400c4.418,0,8,3.582,8,8
	s-3.582,8-8,8h-400C27.583,32.001,24.001,28.419,24.001,24.001z M224.001,184.753c-2.625,0.449-5.207,1.118-7.72,2
	c-3.911-8.187-9.625-15.383-16.712-21.048c-11.562-8.648-25.22-14.057-39.568-15.672v-29.752c5.16-6.693,7.972-14.9,8-23.352v-9.144
	c0-4.418-3.582-8-8-8V48.001h64V184.753z M119.937,150.297c-0.074-4.854-0.43-9.699-1.064-14.512h10.272
	c5.1-0.004,10.15-1.018,14.856-2.984v16C135.954,148.693,127.91,149.193,119.937,150.297L119.937,150.297z M152.001,95.785v1.144
	c-0.018,12.616-10.24,22.838-22.856,22.856h-9.144v-1.144c0.018-12.616,10.24-22.838,22.856-22.856L152.001,95.785z M80.001,48.001
	h64v31.784h-1.144c-14.142,0.046-27.135,7.795-33.896,20.216c-3.885-8.873-8.77-17.274-14.56-25.04l-12.8,9.6
	c14.172,19.003,21.988,41.993,22.336,65.696c-7.931-1.088-15.932-1.575-23.936-1.456V48.001z M34.353,178.257
	c27-21.52,75.368-10.776,75.856-10.672c1.184,0.256,2.408,0.256,3.592,0c0.48-0.12,48.696-10.912,75.808,10.648
	c12.208,9.704,18.4,25.032,18.4,45.552c0.113,38.592-15.709,75.518-43.728,102.056c-11.204,10.741-27.967,13.239-41.816,6.232
	l-6.888-3.44c-2.251-1.125-4.901-1.125-7.152,0l-6.888,3.44c-5.094,2.556-10.709,3.9-16.408,3.928h-0.12
	c-9.432,0.044-18.508-3.602-25.288-10.16c-28.016-26.539-43.835-63.466-43.72-102.056C16.001,203.289,22.177,188.001,34.353,178.257
	L34.353,178.257z M64.001,352.001h48v16h-48V352.001z M16.001,352.001h32v24c0,4.418,3.582,8,8,8h64c4.418,0,8-3.582,8-8v-24h192v48
	h-304V352.001z M416.001,416.001v48h-16v-48H416.001z M384.001,464.001h-288v-48h288V464.001z M80.001,416.001v48h-16v-48H80.001z
	 M336.001,400.001v-48h16v48H336.001z M16.001,416.001h32v48h-32V416.001z M464.001,464.001h-32v-48h32V464.001z M400.001,400.001
	h-32v-48h32V400.001z M232.001,264.001c-4.274-0.013-8.502-0.887-12.432-2.568c2.976-12.327,4.464-24.967,4.432-37.648
	c0.027-7.392-0.794-14.763-2.448-21.968c16.67-5.868,34.942,2.889,40.81,19.559s-2.889,34.942-19.559,40.81
	C239.334,263.407,235.68,264.021,232.001,264.001z M344.001,232.001c0,17.673-14.327,32-32,32s-32-14.327-32-32s14.327-32,32-32
	S344.001,214.328,344.001,232.001z M304.001,184.721c-13.08,2.22-24.661,9.747-32,20.8c-7.339-11.053-18.92-18.58-32-20.8V48.001h64
	V184.721z M432.001,200.001c17.673,0,32,14.327,32,32s-14.327,32-32,32s-32-14.327-32-32S414.328,200.001,432.001,200.001z"/>
<g>
	
		<linearGradient id="SVGID_2_" gradientUnits="userSpaceOnUse" x1="-48.3737" y1="618.2887" x2="-48.3737" y2="556.6457" gradientTransform="matrix(8 0 0 -8 454.9906 4941.0059)">
		<stop  offset="0" style="stop-color:#FC5C7D"/>
		<stop  offset="0.129" style="stop-color:#F35E85"/>
		<stop  offset="0.343" style="stop-color:#D9659B"/>
		<stop  offset="0.616" style="stop-color:#B070BF"/>
		<stop  offset="0.934" style="stop-color:#777FF0"/>
		<stop  offset="1" style="stop-color:#6A82FB"/>
	</linearGradient>
	<path style="fill:url(#SVGID_2_);" d="M96.001,200.001v-16c-33.6,0-56,9.52-56,56h16C56.001,206.041,66.481,200.001,96.001,200.001
		z"/>
	
		<linearGradient id="SVGID_3_" gradientUnits="userSpaceOnUse" x1="-50.8737" y1="618.2887" x2="-50.8737" y2="556.6457" gradientTransform="matrix(8 0 0 -8 454.9906 4941.0059)">
		<stop  offset="0" style="stop-color:#FC5C7D"/>
		<stop  offset="0.129" style="stop-color:#F35E85"/>
		<stop  offset="0.343" style="stop-color:#D9659B"/>
		<stop  offset="0.616" style="stop-color:#B070BF"/>
		<stop  offset="0.934" style="stop-color:#777FF0"/>
		<stop  offset="1" style="stop-color:#6A82FB"/>
	</linearGradient>
	<path style="fill:url(#SVGID_3_);" d="M40.001,256.001h16v16h-16V256.001z"/>
	
		<linearGradient id="SVGID_4_" gradientUnits="userSpaceOnUse" x1="-28.8737" y1="618.2887" x2="-28.8737" y2="556.6457" gradientTransform="matrix(8 0 0 -8 454.9906 4941.0059)">
		<stop  offset="0" style="stop-color:#FC5C7D"/>
		<stop  offset="0.129" style="stop-color:#F35E85"/>
		<stop  offset="0.343" style="stop-color:#D9659B"/>
		<stop  offset="0.616" style="stop-color:#B070BF"/>
		<stop  offset="0.934" style="stop-color:#777FF0"/>
		<stop  offset="1" style="stop-color:#6A82FB"/>
	</linearGradient>
	<path style="fill:url(#SVGID_4_);" d="M112.001,432.001h224v16h-224V432.001z"/>
	
		<linearGradient id="SVGID_5_" gradientUnits="userSpaceOnUse" x1="-11.8737" y1="618.2887" x2="-11.8737" y2="556.6457" gradientTransform="matrix(8 0 0 -8 454.9906 4941.0059)">
		<stop  offset="0" style="stop-color:#FC5C7D"/>
		<stop  offset="0.129" style="stop-color:#F35E85"/>
		<stop  offset="0.343" style="stop-color:#D9659B"/>
		<stop  offset="0.616" style="stop-color:#B070BF"/>
		<stop  offset="0.934" style="stop-color:#777FF0"/>
		<stop  offset="1" style="stop-color:#6A82FB"/>
	</linearGradient>
	<path style="fill:url(#SVGID_5_);" d="M352.001,432.001h16v16h-16V432.001z"/>
	
		<linearGradient id="SVGID_6_" gradientUnits="userSpaceOnUse" x1="-30.8737" y1="618.2887" x2="-30.8737" y2="556.6457" gradientTransform="matrix(8 0 0 -8 454.9906 4941.0059)">
		<stop  offset="0" style="stop-color:#FC5C7D"/>
		<stop  offset="0.129" style="stop-color:#F35E85"/>
		<stop  offset="0.343" style="stop-color:#D9659B"/>
		<stop  offset="0.616" style="stop-color:#B070BF"/>
		<stop  offset="0.934" style="stop-color:#777FF0"/>
		<stop  offset="1" style="stop-color:#6A82FB"/>
	</linearGradient>
	<path style="fill:url(#SVGID_6_);" d="M144.001,368.001h128v16h-128V368.001z"/>
	
		<linearGradient id="SVGID_7_" gradientUnits="userSpaceOnUse" x1="-19.8737" y1="618.2887" x2="-19.8737" y2="556.6457" gradientTransform="matrix(8 0 0 -8 454.9906 4941.0059)">
		<stop  offset="0" style="stop-color:#FC5C7D"/>
		<stop  offset="0.129" style="stop-color:#F35E85"/>
		<stop  offset="0.343" style="stop-color:#D9659B"/>
		<stop  offset="0.616" style="stop-color:#B070BF"/>
		<stop  offset="0.934" style="stop-color:#777FF0"/>
		<stop  offset="1" style="stop-color:#6A82FB"/>
	</linearGradient>
	<path style="fill:url(#SVGID_7_);" d="M288.001,368.001h16v16h-16V368.001z"/>
</g>
<g>
</g>
<g>
</g>
<g>
</g>
<g>
</g>
<g>
</g>
<g>
</g>
<g>
</g>
<g>
</g>
<g>
</g>
<g>
</g>
<g>
</g>
<g>
</g>
<g>
</g>
<g>
</g>
<g>
</g>
</svg>
