<?xml version="1.0" encoding="iso-8859-1"?>
<!-- Generator: Adobe Illustrator 19.0.0, SVG Export Plug-In . SVG Version: 6.00 Build 0)  -->
<svg version="1.1" id="Capa_1" xmlns="http://www.w3.org/2000/svg" xmlns:xlink="http://www.w3.org/1999/xlink" x="0px" y="0px"
	 viewBox="0 0 480 480" style="enable-background:new 0 0 480 480;" xml:space="preserve">
<linearGradient id="SVGID_1_" gradientUnits="userSpaceOnUse" x1="-36.875" y1="617.289" x2="-36.875" y2="554.985" gradientTransform="matrix(8 0 0 -8 399 4941)">
	<stop  offset="0" style="stop-color:#FC5C7D"/>
	<stop  offset="0.129" style="stop-color:#F35E85"/>
	<stop  offset="0.343" style="stop-color:#D9659B"/>
	<stop  offset="0.616" style="stop-color:#B070BF"/>
	<stop  offset="0.934" style="stop-color:#777FF0"/>
	<stop  offset="1" style="stop-color:#6A82FB"/>
</linearGradient>
<path style="fill:url(#SVGID_1_);" d="M96,32h16v16H96V32z"/>
<g>
	
		<linearGradient id="SVGID_2_" gradientUnits="userSpaceOnUse" x1="-32.875" y1="617.289" x2="-32.875" y2="554.985" gradientTransform="matrix(8 0 0 -8 399 4941)">
		<stop  offset="0" style="stop-color:#FC5C7D"/>
		<stop  offset="0.129" style="stop-color:#F35E85"/>
		<stop  offset="0.343" style="stop-color:#D9659B"/>
		<stop  offset="0.616" style="stop-color:#B070BF"/>
		<stop  offset="0.934" style="stop-color:#777FF0"/>
		<stop  offset="1" style="stop-color:#6A82FB"/>
	</linearGradient>
	<path style="fill:url(#SVGID_2_);" d="M128,32h16v16h-16V32z"/>
	
		<linearGradient id="SVGID_3_" gradientUnits="userSpaceOnUse" x1="-28.875" y1="617.289" x2="-28.875" y2="554.985" gradientTransform="matrix(8 0 0 -8 399 4941)">
		<stop  offset="0" style="stop-color:#FC5C7D"/>
		<stop  offset="0.129" style="stop-color:#F35E85"/>
		<stop  offset="0.343" style="stop-color:#D9659B"/>
		<stop  offset="0.616" style="stop-color:#B070BF"/>
		<stop  offset="0.934" style="stop-color:#777FF0"/>
		<stop  offset="1" style="stop-color:#6A82FB"/>
	</linearGradient>
	<path style="fill:url(#SVGID_3_);" d="M160,32h16v16h-16V32z"/>
	
		<linearGradient id="SVGID_4_" gradientUnits="userSpaceOnUse" x1="-19.875" y1="617.289" x2="-19.875" y2="554.985" gradientTransform="matrix(8 0 0 -8 399 4941)">
		<stop  offset="0" style="stop-color:#FC5C7D"/>
		<stop  offset="0.129" style="stop-color:#F35E85"/>
		<stop  offset="0.343" style="stop-color:#D9659B"/>
		<stop  offset="0.616" style="stop-color:#B070BF"/>
		<stop  offset="0.934" style="stop-color:#777FF0"/>
		<stop  offset="1" style="stop-color:#6A82FB"/>
	</linearGradient>
	<path style="fill:url(#SVGID_4_);" d="M24,440h40v8c0,17.673,14.327,32,32,32h336c17.673,0,32-14.327,32-32V32
		c0-17.673-14.327-32-32-32H96C78.327,0,64,14.327,64,32v144H24c-4.418,0-8,3.582-8,8v144c0,4.418,3.582,8,8,8h40v24H24
		c-4.418,0-8,3.582-8,8v64C16,436.418,19.582,440,24,440z M80,376h16v48H80V376z M344,376v16H112v-16H344z M112,408h232v16H112V408z
		 M360,419.056v-38.112L398.112,400L360,419.056z M96,16h336c8.837,0,16,7.163,16,16v32H80V32C80,23.163,87.163,16,96,16z M32,192
		h208v128H32V192z M248,336c4.418,0,8-3.582,8-8V184c0-4.418-3.582-8-8-8H80V80h368v368c0,8.837-7.163,16-16,16H96
		c-8.837,0-16-7.163-16-16v-8h272c1.238,0.014,2.462-0.26,3.576-0.8l64-32c3.954-1.971,5.562-6.774,3.591-10.729
		c-0.775-1.556-2.036-2.816-3.591-3.591l-64-32c-1.035-0.505-2.168-0.778-3.32-0.8c-0.088,0-0.168-0.064-0.256-0.064H80V336L248,336
		z M32,376h32v48H32V376z"/>
	
		<linearGradient id="SVGID_5_" gradientUnits="userSpaceOnUse" x1="-39.075" y1="617.289" x2="-39.075" y2="554.985" gradientTransform="matrix(8 0 0 -8 399 4941)">
		<stop  offset="0" style="stop-color:#FC5C7D"/>
		<stop  offset="0.129" style="stop-color:#F35E85"/>
		<stop  offset="0.343" style="stop-color:#D9659B"/>
		<stop  offset="0.616" style="stop-color:#B070BF"/>
		<stop  offset="0.934" style="stop-color:#777FF0"/>
		<stop  offset="1" style="stop-color:#6A82FB"/>
	</linearGradient>
	<path style="fill:url(#SVGID_5_);" d="M99.2,225.6l-32,24c-3.535,2.651-4.251,7.665-1.6,11.2c0.455,0.606,0.994,1.145,1.6,1.6
		l32,24l9.6-12.8L85.336,256l23.464-17.6L99.2,225.6z"/>
	
		<linearGradient id="SVGID_6_" gradientUnits="userSpaceOnUse" x1="-26.675" y1="617.289" x2="-26.675" y2="554.985" gradientTransform="matrix(8 0 0 -8 399 4941)">
		<stop  offset="0" style="stop-color:#FC5C7D"/>
		<stop  offset="0.129" style="stop-color:#F35E85"/>
		<stop  offset="0.343" style="stop-color:#D9659B"/>
		<stop  offset="0.616" style="stop-color:#B070BF"/>
		<stop  offset="0.934" style="stop-color:#777FF0"/>
		<stop  offset="1" style="stop-color:#6A82FB"/>
	</linearGradient>
	<path style="fill:url(#SVGID_6_);" d="M172.8,225.6l-9.6,12.8l23.464,17.6L163.2,273.6l9.6,12.8l32-24
		c3.535-2.651,4.251-7.665,1.6-11.2c-0.455-0.606-0.994-1.145-1.6-1.6L172.8,225.6z"/>
</g>
<linearGradient id="SVGID_7_" gradientUnits="userSpaceOnUse" x1="-23.4563" y1="602.6186" x2="-81.3053" y2="579.4786" gradientTransform="matrix(2.9718 -7.4275 -7.4275 -2.9718 4681.6929 1619.3334)">
	<stop  offset="0" style="stop-color:#FC5C7D"/>
	<stop  offset="0.129" style="stop-color:#F35E85"/>
	<stop  offset="0.343" style="stop-color:#D9659B"/>
	<stop  offset="0.616" style="stop-color:#B070BF"/>
	<stop  offset="0.934" style="stop-color:#777FF0"/>
	<stop  offset="1" style="stop-color:#6A82FB"/>
</linearGradient>
<path style="fill:url(#SVGID_7_);" d="M112.566,293.013l32.007-79.994l14.862,5.947l-32.007,79.994L112.566,293.013z"/>
<g>
	
		<linearGradient id="SVGID_8_" gradientUnits="userSpaceOnUse" x1="-27.375" y1="617.289" x2="-27.375" y2="554.985" gradientTransform="matrix(8 0 0 -8 399 4941)">
		<stop  offset="0" style="stop-color:#FC5C7D"/>
		<stop  offset="0.129" style="stop-color:#F35E85"/>
		<stop  offset="0.343" style="stop-color:#D9659B"/>
		<stop  offset="0.616" style="stop-color:#B070BF"/>
		<stop  offset="0.934" style="stop-color:#777FF0"/>
		<stop  offset="1" style="stop-color:#6A82FB"/>
	</linearGradient>
	<path style="fill:url(#SVGID_8_);" d="M104,136h152v16H104V136z"/>
	
		<linearGradient id="SVGID_9_" gradientUnits="userSpaceOnUse" x1="-25.375" y1="617.289" x2="-25.375" y2="554.985" gradientTransform="matrix(8 0 0 -8 399 4941)">
		<stop  offset="0" style="stop-color:#FC5C7D"/>
		<stop  offset="0.129" style="stop-color:#F35E85"/>
		<stop  offset="0.343" style="stop-color:#D9659B"/>
		<stop  offset="0.616" style="stop-color:#B070BF"/>
		<stop  offset="0.934" style="stop-color:#777FF0"/>
		<stop  offset="1" style="stop-color:#6A82FB"/>
	</linearGradient>
	<path style="fill:url(#SVGID_9_);" d="M136,104h120v16H136V104z"/>
	
		<linearGradient id="SVGID_10_" gradientUnits="userSpaceOnUse" x1="-35.875" y1="617.289" x2="-35.875" y2="554.985" gradientTransform="matrix(8 0 0 -8 399 4941)">
		<stop  offset="0" style="stop-color:#FC5C7D"/>
		<stop  offset="0.129" style="stop-color:#F35E85"/>
		<stop  offset="0.343" style="stop-color:#D9659B"/>
		<stop  offset="0.616" style="stop-color:#B070BF"/>
		<stop  offset="0.934" style="stop-color:#777FF0"/>
		<stop  offset="1" style="stop-color:#6A82FB"/>
	</linearGradient>
	<path style="fill:url(#SVGID_10_);" d="M104,104h16v16h-16V104z"/>
	
		<linearGradient id="SVGID_11_" gradientUnits="userSpaceOnUse" x1="-4.375" y1="617.289" x2="-4.375" y2="554.985" gradientTransform="matrix(8 0 0 -8 399 4941)">
		<stop  offset="0" style="stop-color:#FC5C7D"/>
		<stop  offset="0.129" style="stop-color:#F35E85"/>
		<stop  offset="0.343" style="stop-color:#D9659B"/>
		<stop  offset="0.616" style="stop-color:#B070BF"/>
		<stop  offset="0.934" style="stop-color:#777FF0"/>
		<stop  offset="1" style="stop-color:#6A82FB"/>
	</linearGradient>
	<path style="fill:url(#SVGID_11_);" d="M304,320h120v16H304V320z"/>
	
		<linearGradient id="SVGID_12_" gradientUnits="userSpaceOnUse" x1="-14.875" y1="617.289" x2="-14.875" y2="554.985" gradientTransform="matrix(8 0 0 -8 399 4941)">
		<stop  offset="0" style="stop-color:#FC5C7D"/>
		<stop  offset="0.129" style="stop-color:#F35E85"/>
		<stop  offset="0.343" style="stop-color:#D9659B"/>
		<stop  offset="0.616" style="stop-color:#B070BF"/>
		<stop  offset="0.934" style="stop-color:#777FF0"/>
		<stop  offset="1" style="stop-color:#6A82FB"/>
	</linearGradient>
	<path style="fill:url(#SVGID_12_);" d="M272,320h16v16h-16V320z"/>
	
		<linearGradient id="SVGID_13_" gradientUnits="userSpaceOnUse" x1="-5.875" y1="617.289" x2="-5.875" y2="554.985" gradientTransform="matrix(8 0 0 -8 399 4941)">
		<stop  offset="0" style="stop-color:#FC5C7D"/>
		<stop  offset="0.129" style="stop-color:#F35E85"/>
		<stop  offset="0.343" style="stop-color:#D9659B"/>
		<stop  offset="0.616" style="stop-color:#B070BF"/>
		<stop  offset="0.934" style="stop-color:#777FF0"/>
		<stop  offset="1" style="stop-color:#6A82FB"/>
	</linearGradient>
	<path style="fill:url(#SVGID_13_);" d="M312,235.8V248h-16v16h16v24c0,4.418,3.582,8,8,8h64c4.418,0,8-3.582,8-8v-24h16v-16h-16
		v-12.2c33.063-22.091,41.958-66.803,19.867-99.867S345.063,93.976,312,116.067s-41.958,66.803-19.867,99.867
		C297.387,223.796,304.138,230.547,312,235.8z M376,280h-48v-16h48V280z M352,120c30.928,0.047,55.962,25.157,55.915,56.085
		c-0.03,19.941-10.663,38.362-27.915,48.363c-2.473,1.428-3.997,4.065-4,6.92V248h-16v-44.688l21.656-21.656l-11.312-11.312
		L352,188.688l-18.344-18.344l-11.312,11.312L344,203.312V248h-16v-16.632c-0.003-2.855-1.527-5.492-4-6.92
		c-26.757-15.511-35.874-49.776-20.363-76.533C313.638,130.663,332.059,120.03,352,120z"/>
</g>
<g>
</g>
<g>
</g>
<g>
</g>
<g>
</g>
<g>
</g>
<g>
</g>
<g>
</g>
<g>
</g>
<g>
</g>
<g>
</g>
<g>
</g>
<g>
</g>
<g>
</g>
<g>
</g>
<g>
</g>
</svg>
