<?xml version="1.0" encoding="iso-8859-1"?>
<!-- Generator: Adobe Illustrator 19.0.0, SVG Export Plug-In . SVG Version: 6.00 Build 0)  -->
<svg version="1.1" id="Capa_1" xmlns="http://www.w3.org/2000/svg" xmlns:xlink="http://www.w3.org/1999/xlink" x="0px" y="0px"
	 viewBox="0 0 480.001 480.001" style="enable-background:new 0 0 480.001 480.001;" xml:space="preserve">
<linearGradient id="SVGID_1_" gradientUnits="userSpaceOnUse" x1="-26.8864" y1="615.393" x2="-26.8864" y2="554.722" gradientTransform="matrix(8 0 0 -8 455.0913 4941.0088)">
	<stop  offset="0" style="stop-color:#FC5C7D"/>
	<stop  offset="0.129" style="stop-color:#F35E85"/>
	<stop  offset="0.343" style="stop-color:#D9659B"/>
	<stop  offset="0.616" style="stop-color:#B070BF"/>
	<stop  offset="0.934" style="stop-color:#777FF0"/>
	<stop  offset="1" style="stop-color:#6A82FB"/>
</linearGradient>
<path style="fill:url(#SVGID_1_);" d="M311.987,40.001c-1.184,0-2.32,0.128-3.504,0.144l0.376-0.488
	c-33.468-25.839-74.59-39.792-116.872-39.656C85.948,0.016-0.001,85.989,0.014,192.028
	c0.015,106.018,85.955,191.958,191.973,191.973c40.225,0.082,79.439-12.598,112-36.216v28.216h-16c-4.418,0-8,3.582-8,8v64
	c0,17.673,14.327,32,32,32s32-14.327,32-32v-64c0-4.418-3.582-8-8-8h-16v-32.328c93.152-3.44,160-66.072,160-151.672
	C479.987,103.921,409.331,40.001,311.987,40.001z M327.987,448.001c0,8.837-7.163,16-16,16s-16-7.163-16-16v-8h32V448.001z
	 M327.987,424.001h-32v-32h32V424.001z M15.987,192.001c0.11-97.156,78.844-175.89,176-176c32.476-0.068,64.325,8.943,91.952,26.016
	c-82.528,11.072-139.952,70.64-139.952,149.984s57.424,138.912,139.952,149.984c-27.627,17.073-59.476,26.084-91.952,26.016
	C94.831,367.891,16.097,289.157,15.987,192.001z M311.987,328.001c-89.496,0-152-55.92-152-136s62.504-136,152-136
	s152,55.92,152,136S401.483,328.001,311.987,328.001z"/>
<g>
	
		<linearGradient id="SVGID_2_" gradientUnits="userSpaceOnUse" x1="-17.888" y1="615.393" x2="-17.888" y2="554.722" gradientTransform="matrix(8 0 0 -8 455.0913 4941.0088)">
		<stop  offset="0" style="stop-color:#FC5C7D"/>
		<stop  offset="0.129" style="stop-color:#F35E85"/>
		<stop  offset="0.343" style="stop-color:#D9659B"/>
		<stop  offset="0.616" style="stop-color:#B070BF"/>
		<stop  offset="0.934" style="stop-color:#777FF0"/>
		<stop  offset="1" style="stop-color:#6A82FB"/>
	</linearGradient>
	<path style="fill:url(#SVGID_2_);" d="M311.987,72.001c-80.08,0-136,49.344-136,120s55.92,120,136,120s136-49.344,136-120
		S392.067,72.001,311.987,72.001z M311.987,296.001c-82.896,0-120-52.232-120-104s37.104-104,120-104s120,52.232,120,104
		S394.883,296.001,311.987,296.001z"/>
	
		<linearGradient id="SVGID_3_" gradientUnits="userSpaceOnUse" x1="-49.888" y1="615.393" x2="-49.888" y2="554.722" gradientTransform="matrix(8 0 0 -8 455.0913 4941.0088)">
		<stop  offset="0" style="stop-color:#FC5C7D"/>
		<stop  offset="0.129" style="stop-color:#F35E85"/>
		<stop  offset="0.343" style="stop-color:#D9659B"/>
		<stop  offset="0.616" style="stop-color:#B070BF"/>
		<stop  offset="0.934" style="stop-color:#777FF0"/>
		<stop  offset="1" style="stop-color:#6A82FB"/>
	</linearGradient>
	<path style="fill:url(#SVGID_3_);" d="M47.987,152.001h16v16h-16V152.001z"/>
	
		<linearGradient id="SVGID_4_" gradientUnits="userSpaceOnUse" x1="-40.888" y1="615.393" x2="-40.888" y2="554.722" gradientTransform="matrix(8 0 0 -8 455.0913 4941.0088)">
		<stop  offset="0" style="stop-color:#FC5C7D"/>
		<stop  offset="0.129" style="stop-color:#F35E85"/>
		<stop  offset="0.343" style="stop-color:#D9659B"/>
		<stop  offset="0.616" style="stop-color:#B070BF"/>
		<stop  offset="0.934" style="stop-color:#777FF0"/>
		<stop  offset="1" style="stop-color:#6A82FB"/>
	</linearGradient>
	<path style="fill:url(#SVGID_4_);" d="M119.987,120.001h16v16h-16V120.001z"/>
	
		<linearGradient id="SVGID_5_" gradientUnits="userSpaceOnUse" x1="-34.888" y1="615.393" x2="-34.888" y2="554.722" gradientTransform="matrix(8 0 0 -8 455.0913 4941.0088)">
		<stop  offset="0" style="stop-color:#FC5C7D"/>
		<stop  offset="0.129" style="stop-color:#F35E85"/>
		<stop  offset="0.343" style="stop-color:#D9659B"/>
		<stop  offset="0.616" style="stop-color:#B070BF"/>
		<stop  offset="0.934" style="stop-color:#777FF0"/>
		<stop  offset="1" style="stop-color:#6A82FB"/>
	</linearGradient>
	<path style="fill:url(#SVGID_5_);" d="M167.987,40.001h16v16h-16V40.001z"/>
	
		<linearGradient id="SVGID_6_" gradientUnits="userSpaceOnUse" x1="-45.888" y1="615.393" x2="-45.888" y2="554.722" gradientTransform="matrix(8 0 0 -8 455.0913 4941.0088)">
		<stop  offset="0" style="stop-color:#FC5C7D"/>
		<stop  offset="0.129" style="stop-color:#F35E85"/>
		<stop  offset="0.343" style="stop-color:#D9659B"/>
		<stop  offset="0.616" style="stop-color:#B070BF"/>
		<stop  offset="0.934" style="stop-color:#777FF0"/>
		<stop  offset="1" style="stop-color:#6A82FB"/>
	</linearGradient>
	<path style="fill:url(#SVGID_6_);" d="M79.987,72.001h16v16h-16V72.001z"/>
	
		<linearGradient id="SVGID_7_" gradientUnits="userSpaceOnUse" x1="-49.888" y1="615.393" x2="-49.888" y2="554.722" gradientTransform="matrix(8 0 0 -8 455.0913 4941.0088)">
		<stop  offset="0" style="stop-color:#FC5C7D"/>
		<stop  offset="0.129" style="stop-color:#F35E85"/>
		<stop  offset="0.343" style="stop-color:#D9659B"/>
		<stop  offset="0.616" style="stop-color:#B070BF"/>
		<stop  offset="0.934" style="stop-color:#777FF0"/>
		<stop  offset="1" style="stop-color:#6A82FB"/>
	</linearGradient>
	<path style="fill:url(#SVGID_7_);" d="M47.987,240.001h16v16h-16V240.001z"/>
	
		<linearGradient id="SVGID_8_" gradientUnits="userSpaceOnUse" x1="-42.888" y1="615.393" x2="-42.888" y2="554.722" gradientTransform="matrix(8 0 0 -8 455.0913 4941.0088)">
		<stop  offset="0" style="stop-color:#FC5C7D"/>
		<stop  offset="0.129" style="stop-color:#F35E85"/>
		<stop  offset="0.343" style="stop-color:#D9659B"/>
		<stop  offset="0.616" style="stop-color:#B070BF"/>
		<stop  offset="0.934" style="stop-color:#777FF0"/>
		<stop  offset="1" style="stop-color:#6A82FB"/>
	</linearGradient>
	<path style="fill:url(#SVGID_8_);" d="M103.987,200.001h16v16h-16V200.001z"/>
	
		<linearGradient id="SVGID_9_" gradientUnits="userSpaceOnUse" x1="-41.888" y1="615.393" x2="-41.888" y2="554.722" gradientTransform="matrix(8 0 0 -8 455.0913 4941.0088)">
		<stop  offset="0" style="stop-color:#FC5C7D"/>
		<stop  offset="0.129" style="stop-color:#F35E85"/>
		<stop  offset="0.343" style="stop-color:#D9659B"/>
		<stop  offset="0.616" style="stop-color:#B070BF"/>
		<stop  offset="0.934" style="stop-color:#777FF0"/>
		<stop  offset="1" style="stop-color:#6A82FB"/>
	</linearGradient>
	<path style="fill:url(#SVGID_9_);" d="M111.987,280.001h16v16h-16V280.001z"/>
	
		<linearGradient id="SVGID_10_" gradientUnits="userSpaceOnUse" x1="-32.888" y1="615.393" x2="-32.888" y2="554.722" gradientTransform="matrix(8 0 0 -8 455.0913 4941.0088)">
		<stop  offset="0" style="stop-color:#FC5C7D"/>
		<stop  offset="0.129" style="stop-color:#F35E85"/>
		<stop  offset="0.343" style="stop-color:#D9659B"/>
		<stop  offset="0.616" style="stop-color:#B070BF"/>
		<stop  offset="0.934" style="stop-color:#777FF0"/>
		<stop  offset="1" style="stop-color:#6A82FB"/>
	</linearGradient>
	<path style="fill:url(#SVGID_10_);" d="M183.987,336.001h16v16h-16V336.001z"/>
	
		<linearGradient id="SVGID_11_" gradientUnits="userSpaceOnUse" x1="-7.888" y1="615.393" x2="-7.888" y2="554.722" gradientTransform="matrix(8 0 0 -8 455.0913 4941.0088)">
		<stop  offset="0" style="stop-color:#FC5C7D"/>
		<stop  offset="0.129" style="stop-color:#F35E85"/>
		<stop  offset="0.343" style="stop-color:#D9659B"/>
		<stop  offset="0.616" style="stop-color:#B070BF"/>
		<stop  offset="0.934" style="stop-color:#777FF0"/>
		<stop  offset="1" style="stop-color:#6A82FB"/>
	</linearGradient>
	<path style="fill:url(#SVGID_11_);" d="M383.987,144.001h16v16h-16V144.001z"/>
	
		<linearGradient id="SVGID_12_" gradientUnits="userSpaceOnUse" x1="-7.888" y1="615.393" x2="-7.888" y2="554.722" gradientTransform="matrix(8 0 0 -8 455.0913 4941.0088)">
		<stop  offset="0" style="stop-color:#FC5C7D"/>
		<stop  offset="0.129" style="stop-color:#F35E85"/>
		<stop  offset="0.343" style="stop-color:#D9659B"/>
		<stop  offset="0.616" style="stop-color:#B070BF"/>
		<stop  offset="0.934" style="stop-color:#777FF0"/>
		<stop  offset="1" style="stop-color:#6A82FB"/>
	</linearGradient>
	<path style="fill:url(#SVGID_12_);" d="M383.987,232.001h16v16h-16V232.001z"/>
	
		<linearGradient id="SVGID_13_" gradientUnits="userSpaceOnUse" x1="-13.888" y1="615.393" x2="-13.888" y2="554.722" gradientTransform="matrix(8 0 0 -8 455.0913 4941.0088)">
		<stop  offset="0" style="stop-color:#FC5C7D"/>
		<stop  offset="0.129" style="stop-color:#F35E85"/>
		<stop  offset="0.343" style="stop-color:#D9659B"/>
		<stop  offset="0.616" style="stop-color:#B070BF"/>
		<stop  offset="0.934" style="stop-color:#777FF0"/>
		<stop  offset="1" style="stop-color:#6A82FB"/>
	</linearGradient>
	<path style="fill:url(#SVGID_13_);" d="M335.987,184.001h16v16h-16V184.001z"/>
	
		<linearGradient id="SVGID_14_" gradientUnits="userSpaceOnUse" x1="-27.888" y1="615.393" x2="-27.888" y2="554.722" gradientTransform="matrix(8 0 0 -8 455.0913 4941.0088)">
		<stop  offset="0" style="stop-color:#FC5C7D"/>
		<stop  offset="0.129" style="stop-color:#F35E85"/>
		<stop  offset="0.343" style="stop-color:#D9659B"/>
		<stop  offset="0.616" style="stop-color:#B070BF"/>
		<stop  offset="0.934" style="stop-color:#777FF0"/>
		<stop  offset="1" style="stop-color:#6A82FB"/>
	</linearGradient>
	<path style="fill:url(#SVGID_14_);" d="M223.987,232.001h16v16h-16V232.001z"/>
</g>
<linearGradient id="SVGID_15_" gradientUnits="userSpaceOnUse" x1="-22.6101" y1="611.3262" x2="-65.5151" y2="568.4272" gradientTransform="matrix(5.6569 -5.6569 -5.6569 -5.6569 3879.7559 3348.1479)">
	<stop  offset="0" style="stop-color:#FC5C7D"/>
	<stop  offset="0.129" style="stop-color:#F35E85"/>
	<stop  offset="0.343" style="stop-color:#D9659B"/>
	<stop  offset="0.616" style="stop-color:#B070BF"/>
	<stop  offset="0.934" style="stop-color:#777FF0"/>
	<stop  offset="1" style="stop-color:#6A82FB"/>
</linearGradient>
<path style="fill:url(#SVGID_15_);" d="M282.331,149.657l11.314-11.314l11.314,11.314l-11.314,11.314L282.331,149.657z"/>
<linearGradient id="SVGID_16_" gradientUnits="userSpaceOnUse" x1="-21.3877" y1="615.393" x2="-21.3877" y2="554.722" gradientTransform="matrix(8 0 0 -8 455.0913 4941.0088)">
	<stop  offset="0" style="stop-color:#FC5C7D"/>
	<stop  offset="0.129" style="stop-color:#F35E85"/>
	<stop  offset="0.343" style="stop-color:#D9659B"/>
	<stop  offset="0.616" style="stop-color:#B070BF"/>
	<stop  offset="0.934" style="stop-color:#777FF0"/>
	<stop  offset="1" style="stop-color:#6A82FB"/>
</linearGradient>
<path style="fill:url(#SVGID_16_);" d="M319.987,224.001h-20.416c-6.989-0.016-13.708-2.701-18.784-7.504
	c10.386-4.889,19.72-11.756,27.48-20.216c9.725-8.611,17.186-19.479,21.728-31.648c3.995-13.069-0.081-27.265-10.4-36.224
	c-21.87-21.87-57.33-21.87-79.2,0s-21.87,57.33,0,79.2c5.823,6.254,13.607,10.333,22.064,11.56
	c7.907,12.925,21.961,20.814,37.112,20.832h20.416c4.418,0,8,3.582,8,8s-3.582,8-8,8h-40v16h40c13.255,0,24-10.745,24-24
	C343.987,234.746,333.242,224.001,319.987,224.001z M251.707,196.281c-15.89-15.347-16.33-40.67-0.983-56.56
	s40.67-16.33,56.56-0.983c0.333,0.322,0.661,0.65,0.983,0.983c6.168,4.779,8.719,12.886,6.4,20.336
	c-3.875,9.575-9.941,18.107-17.712,24.912c-6.689,7.551-14.982,13.51-24.272,17.44c-0.452-1.966-0.685-3.975-0.696-5.992v-12.416
	h-16v12.416c0,1.2,0.088,2.4,0.184,3.568C254.571,198.892,253.077,197.652,251.707,196.281L251.707,196.281z"/>
<g>
</g>
<g>
</g>
<g>
</g>
<g>
</g>
<g>
</g>
<g>
</g>
<g>
</g>
<g>
</g>
<g>
</g>
<g>
</g>
<g>
</g>
<g>
</g>
<g>
</g>
<g>
</g>
<g>
</g>
</svg>
