<?xml version="1.0" encoding="iso-8859-1"?>
<!-- Generator: Adobe Illustrator 19.0.0, SVG Export Plug-In . SVG Version: 6.00 Build 0)  -->
<svg version="1.1" id="Capa_1" xmlns="http://www.w3.org/2000/svg" xmlns:xlink="http://www.w3.org/1999/xlink" x="0px" y="0px"
	 viewBox="0 0 480.2 480.2" style="enable-background:new 0 0 480.2 480.2;" xml:space="preserve">
<g>
	
		<linearGradient id="SVGID_1_" gradientUnits="userSpaceOnUse" x1="-26.7752" y1="620.0026" x2="-26.7752" y2="554.9386" gradientTransform="matrix(8 0 0 -8 454.3015 4942.7964)">
		<stop  offset="0" style="stop-color:#FC5C7D"/>
		<stop  offset="0.129" style="stop-color:#F35E85"/>
		<stop  offset="0.343" style="stop-color:#D9659B"/>
		<stop  offset="0.616" style="stop-color:#B070BF"/>
		<stop  offset="0.934" style="stop-color:#777FF0"/>
		<stop  offset="1" style="stop-color:#6A82FB"/>
	</linearGradient>
	<path style="fill:url(#SVGID_1_);" d="M263.82,389.48c11.863-13.1,10.86-33.337-2.241-45.199
		c-13.1-11.863-33.337-10.859-45.199,2.241c-11.04,12.192-11.04,30.767,0,42.959c-15.224,8.801-24.508,25.137-24.28,42.72v40
		c0,4.418,3.582,8,8,8h80c4.418,0,8-3.582,8-8v-40C288.328,414.616,279.044,398.281,263.82,389.48z M224.1,368.2
		c0-8.837,7.163-16,16-16c8.837,0,16,7.163,16,16s-7.163,16-16,16C231.263,384.2,224.1,377.036,224.1,368.2z M272.1,464.2h-64v-32
		c0-1.304,0.36-32,32-32c16.997-0.676,31.324,12.554,32,29.551c0.032,0.816,0.032,1.633,0,2.449V464.2z"/>
	
		<linearGradient id="SVGID_2_" gradientUnits="userSpaceOnUse" x1="-26.7752" y1="620.0026" x2="-26.7752" y2="554.9386" gradientTransform="matrix(8 0 0 -8 454.3015 4942.7964)">
		<stop  offset="0" style="stop-color:#FC5C7D"/>
		<stop  offset="0.129" style="stop-color:#F35E85"/>
		<stop  offset="0.343" style="stop-color:#D9659B"/>
		<stop  offset="0.616" style="stop-color:#B070BF"/>
		<stop  offset="0.934" style="stop-color:#777FF0"/>
		<stop  offset="1" style="stop-color:#6A82FB"/>
	</linearGradient>
	<path style="fill:url(#SVGID_2_);" d="M232.1,416.2h16v32h-16V416.2z"/>
</g>
<linearGradient id="SVGID_3_" gradientUnits="userSpaceOnUse" x1="-33.7752" y1="620.0026" x2="-33.7752" y2="554.9386" gradientTransform="matrix(8 0 0 -8 454.3015 4942.7964)">
	<stop  offset="0" style="stop-color:#FC5C7D"/>
	<stop  offset="0.129" style="stop-color:#F35E85"/>
	<stop  offset="0.343" style="stop-color:#D9659B"/>
	<stop  offset="0.616" style="stop-color:#B070BF"/>
	<stop  offset="0.934" style="stop-color:#777FF0"/>
	<stop  offset="1" style="stop-color:#6A82FB"/>
</linearGradient>
<path style="fill:url(#SVGID_3_);" d="M176.1,168.2h16v16h-16V168.2z"/>
<g>
	
		<linearGradient id="SVGID_4_" gradientUnits="userSpaceOnUse" x1="-26.7752" y1="620.0026" x2="-26.7752" y2="554.9386" gradientTransform="matrix(8 0 0 -8 454.3015 4942.7964)">
		<stop  offset="0" style="stop-color:#FC5C7D"/>
		<stop  offset="0.129" style="stop-color:#F35E85"/>
		<stop  offset="0.343" style="stop-color:#D9659B"/>
		<stop  offset="0.616" style="stop-color:#B070BF"/>
		<stop  offset="0.934" style="stop-color:#777FF0"/>
		<stop  offset="1" style="stop-color:#6A82FB"/>
	</linearGradient>
	<path style="fill:url(#SVGID_4_);" d="M192.1,96.2v40c0,4.418,3.582,8,8,8h80c4.418,0,8-3.582,8-8v-40
		c0.228-17.583-9.056-33.919-24.28-42.72c11.863-13.1,10.86-33.337-2.241-45.199c-13.1-11.863-33.337-10.86-45.199,2.241
		c-11.04,12.192-11.04,30.767,0,42.959C201.156,62.281,191.872,78.616,192.1,96.2z M224.1,32.2c0-8.837,7.163-16,16-16
		c8.837,0,16,7.163,16,16s-7.163,16-16,16C231.263,48.2,224.1,41.036,224.1,32.2z M208.1,96.2c0-1.304,0.36-32,32-32
		c16.997-0.676,31.324,12.554,32,29.551c0.032,0.816,0.032,1.633,0,2.449v32h-64V96.2z"/>
	
		<linearGradient id="SVGID_5_" gradientUnits="userSpaceOnUse" x1="-26.7752" y1="620.0026" x2="-26.7752" y2="554.9386" gradientTransform="matrix(8 0 0 -8 454.3015 4942.7964)">
		<stop  offset="0" style="stop-color:#FC5C7D"/>
		<stop  offset="0.129" style="stop-color:#F35E85"/>
		<stop  offset="0.343" style="stop-color:#D9659B"/>
		<stop  offset="0.616" style="stop-color:#B070BF"/>
		<stop  offset="0.934" style="stop-color:#777FF0"/>
		<stop  offset="1" style="stop-color:#6A82FB"/>
	</linearGradient>
	<path style="fill:url(#SVGID_5_);" d="M232.1,80.2h16v32h-16V80.2z"/>
</g>
<g>
	
		<linearGradient id="SVGID_6_" gradientUnits="userSpaceOnUse" x1="-2.7752" y1="620.0026" x2="-2.7752" y2="554.9386" gradientTransform="matrix(8 0 0 -8 454.3015 4942.7964)">
		<stop  offset="0" style="stop-color:#FC5C7D"/>
		<stop  offset="0.129" style="stop-color:#F35E85"/>
		<stop  offset="0.343" style="stop-color:#D9659B"/>
		<stop  offset="0.616" style="stop-color:#B070BF"/>
		<stop  offset="0.934" style="stop-color:#777FF0"/>
		<stop  offset="1" style="stop-color:#6A82FB"/>
	</linearGradient>
	<path style="fill:url(#SVGID_6_);" d="M455.82,389.48c11.863-13.1,10.86-33.337-2.241-45.199
		c-13.1-11.863-33.337-10.859-45.199,2.241c-11.04,12.192-11.04,30.767,0,42.959c-15.224,8.801-24.508,25.137-24.28,42.72v40
		c0,4.418,3.582,8,8,8h80c4.418,0,8-3.582,8-8v-40C480.328,414.616,471.044,398.281,455.82,389.48z M416.1,368.2
		c0-8.837,7.163-16,16-16s16,7.163,16,16s-7.163,16-16,16S416.1,377.036,416.1,368.2z M464.1,464.2h-64v-32c0-1.304,0.36-32,32-32
		c16.997-0.676,31.324,12.554,32,29.551c0.032,0.816,0.032,1.633,0,2.449V464.2z"/>
	
		<linearGradient id="SVGID_7_" gradientUnits="userSpaceOnUse" x1="-2.7752" y1="620.0026" x2="-2.7752" y2="554.9386" gradientTransform="matrix(8 0 0 -8 454.3015 4942.7964)">
		<stop  offset="0" style="stop-color:#FC5C7D"/>
		<stop  offset="0.129" style="stop-color:#F35E85"/>
		<stop  offset="0.343" style="stop-color:#D9659B"/>
		<stop  offset="0.616" style="stop-color:#B070BF"/>
		<stop  offset="0.934" style="stop-color:#777FF0"/>
		<stop  offset="1" style="stop-color:#6A82FB"/>
	</linearGradient>
	<path style="fill:url(#SVGID_7_);" d="M424.1,416.2h16v32h-16V416.2z"/>
	
		<linearGradient id="SVGID_8_" gradientUnits="userSpaceOnUse" x1="-50.7752" y1="620.0026" x2="-50.7752" y2="554.9386" gradientTransform="matrix(8 0 0 -8 454.3015 4942.7964)">
		<stop  offset="0" style="stop-color:#FC5C7D"/>
		<stop  offset="0.129" style="stop-color:#F35E85"/>
		<stop  offset="0.343" style="stop-color:#D9659B"/>
		<stop  offset="0.616" style="stop-color:#B070BF"/>
		<stop  offset="0.934" style="stop-color:#777FF0"/>
		<stop  offset="1" style="stop-color:#6A82FB"/>
	</linearGradient>
	<path style="fill:url(#SVGID_8_);" d="M71.82,389.48c11.863-13.1,10.86-33.337-2.241-45.199
		c-13.1-11.863-33.337-10.86-45.199,2.241c-11.04,12.192-11.04,30.767,0,42.959C9.156,398.281-0.128,414.616,0.1,432.2v40
		c0,4.418,3.582,8,8,8h80c4.418,0,8-3.582,8-8v-40C96.328,414.616,87.044,398.281,71.82,389.48z M32.1,368.2c0-8.837,7.163-16,16-16
		s16,7.163,16,16s-7.163,16-16,16S32.1,377.036,32.1,368.2z M80.1,464.2h-64v-32c0-1.304,0.36-32,32-32
		c16.997-0.676,31.324,12.554,32,29.551c0.032,0.816,0.032,1.633,0,2.449V464.2z"/>
	
		<linearGradient id="SVGID_9_" gradientUnits="userSpaceOnUse" x1="-50.7752" y1="620.0026" x2="-50.7752" y2="554.9386" gradientTransform="matrix(8 0 0 -8 454.3015 4942.7964)">
		<stop  offset="0" style="stop-color:#FC5C7D"/>
		<stop  offset="0.129" style="stop-color:#F35E85"/>
		<stop  offset="0.343" style="stop-color:#D9659B"/>
		<stop  offset="0.616" style="stop-color:#B070BF"/>
		<stop  offset="0.934" style="stop-color:#777FF0"/>
		<stop  offset="1" style="stop-color:#6A82FB"/>
	</linearGradient>
	<path style="fill:url(#SVGID_9_);" d="M40.1,416.2h16v32h-16V416.2z"/>
</g>
<linearGradient id="SVGID_10_" gradientUnits="userSpaceOnUse" x1="-26.7752" y1="620.0026" x2="-26.7752" y2="554.9386" gradientTransform="matrix(8 0 0 -8 454.3015 4942.7964)">
	<stop  offset="0" style="stop-color:#FC5C7D"/>
	<stop  offset="0.129" style="stop-color:#F35E85"/>
	<stop  offset="0.343" style="stop-color:#D9659B"/>
	<stop  offset="0.616" style="stop-color:#B070BF"/>
	<stop  offset="0.934" style="stop-color:#777FF0"/>
	<stop  offset="1" style="stop-color:#6A82FB"/>
</linearGradient>
<path style="fill:url(#SVGID_10_);" d="M40.1,280.2v40h16v-32h176v32h16v-32h176v32h16v-40c0-4.418-3.582-8-8-8h-184v-40h-16v40
	h-184C43.682,272.2,40.1,275.781,40.1,280.2z"/>
<g>
	
		<linearGradient id="SVGID_11_" gradientUnits="userSpaceOnUse" x1="-28.2752" y1="620.0026" x2="-28.2752" y2="554.9386" gradientTransform="matrix(8 0 0 -8 454.3015 4942.7964)">
		<stop  offset="0" style="stop-color:#FC5C7D"/>
		<stop  offset="0.129" style="stop-color:#F35E85"/>
		<stop  offset="0.343" style="stop-color:#D9659B"/>
		<stop  offset="0.616" style="stop-color:#B070BF"/>
		<stop  offset="0.934" style="stop-color:#777FF0"/>
		<stop  offset="1" style="stop-color:#6A82FB"/>
	</linearGradient>
	<path style="fill:url(#SVGID_11_);" d="M152.1,200.2h152v16h-152V200.2z"/>
	
		<linearGradient id="SVGID_12_" gradientUnits="userSpaceOnUse" x1="-23.2752" y1="620.0026" x2="-23.2752" y2="554.9386" gradientTransform="matrix(8 0 0 -8 454.3015 4942.7964)">
		<stop  offset="0" style="stop-color:#FC5C7D"/>
		<stop  offset="0.129" style="stop-color:#F35E85"/>
		<stop  offset="0.343" style="stop-color:#D9659B"/>
		<stop  offset="0.616" style="stop-color:#B070BF"/>
		<stop  offset="0.934" style="stop-color:#777FF0"/>
		<stop  offset="1" style="stop-color:#6A82FB"/>
	</linearGradient>
	<path style="fill:url(#SVGID_12_);" d="M208.1,168.2h120v16h-120V168.2z"/>
</g>
<g>
</g>
<g>
</g>
<g>
</g>
<g>
</g>
<g>
</g>
<g>
</g>
<g>
</g>
<g>
</g>
<g>
</g>
<g>
</g>
<g>
</g>
<g>
</g>
<g>
</g>
<g>
</g>
<g>
</g>
</svg>
