<?xml version="1.0" encoding="iso-8859-1"?>
<!-- Generator: Adobe Illustrator 19.0.0, SVG Export Plug-In . SVG Version: 6.00 Build 0)  -->
<svg version="1.1" id="Capa_1" xmlns="http://www.w3.org/2000/svg" xmlns:xlink="http://www.w3.org/1999/xlink" x="0px" y="0px"
	 viewBox="0 0 480.2 480.2" style="enable-background:new 0 0 480.2 480.2;" xml:space="preserve">
<g>
	
		<linearGradient id="SVGID_1_" gradientUnits="userSpaceOnUse" x1="-50.7752" y1="619.3296" x2="-50.7752" y2="554.8246" gradientTransform="matrix(8 0 0 -8 454.3015 4942.7964)">
		<stop  offset="0" style="stop-color:#FC5C7D"/>
		<stop  offset="0.129" style="stop-color:#F35E85"/>
		<stop  offset="0.343" style="stop-color:#D9659B"/>
		<stop  offset="0.616" style="stop-color:#B070BF"/>
		<stop  offset="0.934" style="stop-color:#777FF0"/>
		<stop  offset="1" style="stop-color:#6A82FB"/>
	</linearGradient>
	<path style="fill:url(#SVGID_1_);" d="M8.1,144.2h80c4.418,0,8-3.582,8-8v-40c0.228-17.583-9.056-33.919-24.28-42.72
		c11.863-13.1,10.86-33.337-2.241-45.199S36.242-2.579,24.38,10.521c-11.04,12.192-11.04,30.767,0,42.959
		C9.156,62.281-0.128,78.616,0.1,96.2v40C0.1,140.618,3.682,144.2,8.1,144.2z M32.1,32.2c0-8.837,7.163-16,16-16s16,7.163,16,16
		s-7.163,16-16,16S32.1,41.036,32.1,32.2z M16.1,96.2c0-1.304,0.368-32,32-32c16.997-0.676,31.324,12.554,32,29.551
		c0.032,0.816,0.032,1.633,0,2.449v32h-64V96.2z"/>
	
		<linearGradient id="SVGID_2_" gradientUnits="userSpaceOnUse" x1="-50.7752" y1="619.3296" x2="-50.7752" y2="554.8246" gradientTransform="matrix(8 0 0 -8 454.3015 4942.7964)">
		<stop  offset="0" style="stop-color:#FC5C7D"/>
		<stop  offset="0.129" style="stop-color:#F35E85"/>
		<stop  offset="0.343" style="stop-color:#D9659B"/>
		<stop  offset="0.616" style="stop-color:#B070BF"/>
		<stop  offset="0.934" style="stop-color:#777FF0"/>
		<stop  offset="1" style="stop-color:#6A82FB"/>
	</linearGradient>
	<path style="fill:url(#SVGID_2_);" d="M40.1,80.2h16v32h-16V80.2z"/>
</g>
<g>
	
		<linearGradient id="SVGID_3_" gradientUnits="userSpaceOnUse" x1="-2.7752" y1="619.3296" x2="-2.7752" y2="554.8246" gradientTransform="matrix(8 0 0 -8 454.3015 4942.7964)">
		<stop  offset="0" style="stop-color:#FC5C7D"/>
		<stop  offset="0.129" style="stop-color:#F35E85"/>
		<stop  offset="0.343" style="stop-color:#D9659B"/>
		<stop  offset="0.616" style="stop-color:#B070BF"/>
		<stop  offset="0.934" style="stop-color:#777FF0"/>
		<stop  offset="1" style="stop-color:#6A82FB"/>
	</linearGradient>
	<path style="fill:url(#SVGID_3_);" d="M455.82,389.48c11.863-13.1,10.86-33.337-2.241-45.199
		c-13.1-11.863-33.337-10.859-45.199,2.241c-11.04,12.192-11.04,30.767,0,42.959c-15.224,8.801-24.508,25.137-24.28,42.72v40
		c0,4.418,3.582,8,8,8h80c4.418,0,8-3.582,8-8v-40C480.328,414.616,471.044,398.281,455.82,389.48z M416.1,368.2
		c0-8.837,7.163-16,16-16s16,7.163,16,16s-7.163,16-16,16S416.1,377.036,416.1,368.2z M464.1,464.2h-64v-32c0-1.304,0.368-32,32-32
		c16.997-0.676,31.324,12.554,32,29.551c0.032,0.816,0.032,1.633,0,2.449V464.2z"/>
	
		<linearGradient id="SVGID_4_" gradientUnits="userSpaceOnUse" x1="-2.7752" y1="619.3296" x2="-2.7752" y2="554.8246" gradientTransform="matrix(8 0 0 -8 454.3015 4942.7964)">
		<stop  offset="0" style="stop-color:#FC5C7D"/>
		<stop  offset="0.129" style="stop-color:#F35E85"/>
		<stop  offset="0.343" style="stop-color:#D9659B"/>
		<stop  offset="0.616" style="stop-color:#B070BF"/>
		<stop  offset="0.934" style="stop-color:#777FF0"/>
		<stop  offset="1" style="stop-color:#6A82FB"/>
	</linearGradient>
	<path style="fill:url(#SVGID_4_);" d="M424.1,416.2h16v32h-16V416.2z"/>
	
		<linearGradient id="SVGID_5_" gradientUnits="userSpaceOnUse" x1="-26.7752" y1="619.3296" x2="-26.7752" y2="554.8246" gradientTransform="matrix(8 0 0 -8 454.3015 4942.7964)">
		<stop  offset="0" style="stop-color:#FC5C7D"/>
		<stop  offset="0.129" style="stop-color:#F35E85"/>
		<stop  offset="0.343" style="stop-color:#D9659B"/>
		<stop  offset="0.616" style="stop-color:#B070BF"/>
		<stop  offset="0.934" style="stop-color:#777FF0"/>
		<stop  offset="1" style="stop-color:#6A82FB"/>
	</linearGradient>
	<path style="fill:url(#SVGID_5_);" d="M263.82,197.48c11.863-13.1,10.86-33.337-2.241-45.199
		c-13.1-11.863-33.337-10.86-45.199,2.241c-11.04,12.192-11.04,30.767,0,42.959c-15.224,8.801-24.508,25.137-24.28,42.72v40
		c0,4.418,3.582,8,8,8h80c4.418,0,8-3.582,8-8v-40C288.328,222.616,279.044,206.281,263.82,197.48z M224.1,176.2
		c0-8.837,7.163-16,16-16c8.837,0,16,7.163,16,16s-7.163,16-16,16C231.263,192.2,224.1,185.036,224.1,176.2z M272.1,272.2h-64v-32
		c0-1.304,0.368-32,32-32c16.997-0.676,31.324,12.554,32,29.551c0.032,0.816,0.032,1.633,0,2.449V272.2z"/>
	
		<linearGradient id="SVGID_6_" gradientUnits="userSpaceOnUse" x1="-26.7752" y1="619.3296" x2="-26.7752" y2="554.8246" gradientTransform="matrix(8 0 0 -8 454.3015 4942.7964)">
		<stop  offset="0" style="stop-color:#FC5C7D"/>
		<stop  offset="0.129" style="stop-color:#F35E85"/>
		<stop  offset="0.343" style="stop-color:#D9659B"/>
		<stop  offset="0.616" style="stop-color:#B070BF"/>
		<stop  offset="0.934" style="stop-color:#777FF0"/>
		<stop  offset="1" style="stop-color:#6A82FB"/>
	</linearGradient>
	<path style="fill:url(#SVGID_6_);" d="M232.1,224.2h16v32h-16V224.2z"/>
	
		<linearGradient id="SVGID_7_" gradientUnits="userSpaceOnUse" x1="-9.7752" y1="619.3296" x2="-9.7752" y2="554.8246" gradientTransform="matrix(8 0 0 -8 454.3015 4942.7964)">
		<stop  offset="0" style="stop-color:#FC5C7D"/>
		<stop  offset="0.129" style="stop-color:#F35E85"/>
		<stop  offset="0.343" style="stop-color:#D9659B"/>
		<stop  offset="0.616" style="stop-color:#B070BF"/>
		<stop  offset="0.934" style="stop-color:#777FF0"/>
		<stop  offset="1" style="stop-color:#6A82FB"/>
	</linearGradient>
	<path style="fill:url(#SVGID_7_);" d="M320.1,64.2h112v16h-112V64.2z"/>
	
		<linearGradient id="SVGID_8_" gradientUnits="userSpaceOnUse" x1="-6.2752" y1="619.3296" x2="-6.2752" y2="554.8246" gradientTransform="matrix(8 0 0 -8 454.3015 4942.7964)">
		<stop  offset="0" style="stop-color:#FC5C7D"/>
		<stop  offset="0.129" style="stop-color:#F35E85"/>
		<stop  offset="0.343" style="stop-color:#D9659B"/>
		<stop  offset="0.616" style="stop-color:#B070BF"/>
		<stop  offset="0.934" style="stop-color:#777FF0"/>
		<stop  offset="1" style="stop-color:#6A82FB"/>
	</linearGradient>
	<path style="fill:url(#SVGID_8_);" d="M360.1,32.2h88v16h-88V32.2z"/>
	
		<linearGradient id="SVGID_9_" gradientUnits="userSpaceOnUse" x1="-8.7752" y1="619.3296" x2="-8.7752" y2="554.8246" gradientTransform="matrix(8 0 0 -8 454.3015 4942.7964)">
		<stop  offset="0" style="stop-color:#FC5C7D"/>
		<stop  offset="0.129" style="stop-color:#F35E85"/>
		<stop  offset="0.343" style="stop-color:#D9659B"/>
		<stop  offset="0.616" style="stop-color:#B070BF"/>
		<stop  offset="0.934" style="stop-color:#777FF0"/>
		<stop  offset="1" style="stop-color:#6A82FB"/>
	</linearGradient>
	<path style="fill:url(#SVGID_9_);" d="M472.1,0.2h-176c-4.418,0-8,3.582-8,8v96c0,4.418,3.582,8,8,8h108.688l21.656,21.656
		c3.124,3.123,8.188,3.123,11.312,0l21.656-21.656H472.1c4.418,0,8-3.582,8-8v-96C480.1,3.781,476.518,0.2,472.1,0.2z M464.1,96.2
		h-8c-2.122,0-4.156,0.844-5.656,2.344L432.1,116.888l-18.344-18.344c-1.5-1.5-3.534-2.344-5.656-2.344h-104v-80h160V96.2z"/>
	
		<linearGradient id="SVGID_10_" gradientUnits="userSpaceOnUse" x1="-45.7752" y1="619.3296" x2="-45.7752" y2="554.8246" gradientTransform="matrix(8 0 0 -8 454.3015 4942.7964)">
		<stop  offset="0" style="stop-color:#FC5C7D"/>
		<stop  offset="0.129" style="stop-color:#F35E85"/>
		<stop  offset="0.343" style="stop-color:#D9659B"/>
		<stop  offset="0.616" style="stop-color:#B070BF"/>
		<stop  offset="0.934" style="stop-color:#777FF0"/>
		<stop  offset="1" style="stop-color:#6A82FB"/>
	</linearGradient>
	<path style="fill:url(#SVGID_10_);" d="M32.1,432.2h112v16h-112V432.2z"/>
	
		<linearGradient id="SVGID_11_" gradientUnits="userSpaceOnUse" x1="-42.2752" y1="619.3296" x2="-42.2752" y2="554.8246" gradientTransform="matrix(8 0 0 -8 454.3015 4942.7964)">
		<stop  offset="0" style="stop-color:#FC5C7D"/>
		<stop  offset="0.129" style="stop-color:#F35E85"/>
		<stop  offset="0.343" style="stop-color:#D9659B"/>
		<stop  offset="0.616" style="stop-color:#B070BF"/>
		<stop  offset="0.934" style="stop-color:#777FF0"/>
		<stop  offset="1" style="stop-color:#6A82FB"/>
	</linearGradient>
	<path style="fill:url(#SVGID_11_);" d="M72.1,400.2h88v16h-88V400.2z"/>
	
		<linearGradient id="SVGID_12_" gradientUnits="userSpaceOnUse" x1="-44.7752" y1="619.3296" x2="-44.7752" y2="554.8246" gradientTransform="matrix(8 0 0 -8 454.3015 4942.7964)">
		<stop  offset="0" style="stop-color:#FC5C7D"/>
		<stop  offset="0.129" style="stop-color:#F35E85"/>
		<stop  offset="0.343" style="stop-color:#D9659B"/>
		<stop  offset="0.616" style="stop-color:#B070BF"/>
		<stop  offset="0.934" style="stop-color:#777FF0"/>
		<stop  offset="1" style="stop-color:#6A82FB"/>
	</linearGradient>
	<path style="fill:url(#SVGID_12_);" d="M8.1,480.2h176c4.418,0,8-3.582,8-8v-96c0-4.418-3.582-8-8-8H75.412l-21.656-21.656
		c-3.124-3.123-8.188-3.123-11.312,0L20.788,368.2H8.1c-4.418,0-8,3.582-8,8v96C0.1,476.618,3.682,480.2,8.1,480.2z M16.1,384.2h8
		c2.122,0,4.156-0.844,5.656-2.344L48.1,363.512l18.344,18.344c1.5,1.5,3.534,2.344,5.656,2.344h104v80h-160V384.2z"/>
	
		<linearGradient id="SVGID_13_" gradientUnits="userSpaceOnUse" x1="-14.7752" y1="619.3296" x2="-14.7752" y2="554.8246" gradientTransform="matrix(8 0 0 -8 454.3015 4942.7964)">
		<stop  offset="0" style="stop-color:#FC5C7D"/>
		<stop  offset="0.129" style="stop-color:#F35E85"/>
		<stop  offset="0.343" style="stop-color:#D9659B"/>
		<stop  offset="0.616" style="stop-color:#B070BF"/>
		<stop  offset="0.934" style="stop-color:#777FF0"/>
		<stop  offset="1" style="stop-color:#6A82FB"/>
	</linearGradient>
	<path style="fill:url(#SVGID_13_);" d="M328.1,32.2h16v16h-16V32.2z"/>
</g>
<linearGradient id="SVGID_14_" gradientUnits="userSpaceOnUse" x1="-50.7752" y1="619.3296" x2="-50.7752" y2="554.8246" gradientTransform="matrix(8 0 0 -8 454.3015 4942.7964)">
	<stop  offset="0" style="stop-color:#FC5C7D"/>
	<stop  offset="0.129" style="stop-color:#F35E85"/>
	<stop  offset="0.343" style="stop-color:#D9659B"/>
	<stop  offset="0.616" style="stop-color:#B070BF"/>
	<stop  offset="0.934" style="stop-color:#777FF0"/>
	<stop  offset="1" style="stop-color:#6A82FB"/>
</linearGradient>
<path style="fill:url(#SVGID_14_);" d="M40.1,400.2h16v16h-16V400.2z"/>
<g>
	
		<linearGradient id="SVGID_15_" gradientUnits="userSpaceOnUse" x1="-28.7752" y1="619.3296" x2="-28.7752" y2="554.8246" gradientTransform="matrix(8 0 0 -8 454.3015 4942.7964)">
		<stop  offset="0" style="stop-color:#FC5C7D"/>
		<stop  offset="0.129" style="stop-color:#F35E85"/>
		<stop  offset="0.343" style="stop-color:#D9659B"/>
		<stop  offset="0.616" style="stop-color:#B070BF"/>
		<stop  offset="0.934" style="stop-color:#777FF0"/>
		<stop  offset="1" style="stop-color:#6A82FB"/>
	</linearGradient>
	<path style="fill:url(#SVGID_15_);" d="M216.1,424.2h16v16h-16V424.2z"/>
	
		<linearGradient id="SVGID_16_" gradientUnits="userSpaceOnUse" x1="-24.7752" y1="619.3296" x2="-24.7752" y2="554.8246" gradientTransform="matrix(8 0 0 -8 454.3015 4942.7964)">
		<stop  offset="0" style="stop-color:#FC5C7D"/>
		<stop  offset="0.129" style="stop-color:#F35E85"/>
		<stop  offset="0.343" style="stop-color:#D9659B"/>
		<stop  offset="0.616" style="stop-color:#B070BF"/>
		<stop  offset="0.934" style="stop-color:#777FF0"/>
		<stop  offset="1" style="stop-color:#6A82FB"/>
	</linearGradient>
	<path style="fill:url(#SVGID_16_);" d="M248.1,424.2h16v16h-16V424.2z"/>
	
		<linearGradient id="SVGID_17_" gradientUnits="userSpaceOnUse" x1="-20.7752" y1="619.3296" x2="-20.7752" y2="554.8246" gradientTransform="matrix(8 0 0 -8 454.3015 4942.7964)">
		<stop  offset="0" style="stop-color:#FC5C7D"/>
		<stop  offset="0.129" style="stop-color:#F35E85"/>
		<stop  offset="0.343" style="stop-color:#D9659B"/>
		<stop  offset="0.616" style="stop-color:#B070BF"/>
		<stop  offset="0.934" style="stop-color:#777FF0"/>
		<stop  offset="1" style="stop-color:#6A82FB"/>
	</linearGradient>
	<path style="fill:url(#SVGID_17_);" d="M280.1,424.2h16v16h-16V424.2z"/>
	
		<linearGradient id="SVGID_18_" gradientUnits="userSpaceOnUse" x1="-16.7752" y1="619.3296" x2="-16.7752" y2="554.8246" gradientTransform="matrix(8 0 0 -8 454.3015 4942.7964)">
		<stop  offset="0" style="stop-color:#FC5C7D"/>
		<stop  offset="0.129" style="stop-color:#F35E85"/>
		<stop  offset="0.343" style="stop-color:#D9659B"/>
		<stop  offset="0.616" style="stop-color:#B070BF"/>
		<stop  offset="0.934" style="stop-color:#777FF0"/>
		<stop  offset="1" style="stop-color:#6A82FB"/>
	</linearGradient>
	<path style="fill:url(#SVGID_18_);" d="M312.1,424.2h16v16h-16V424.2z"/>
	
		<linearGradient id="SVGID_19_" gradientUnits="userSpaceOnUse" x1="-12.7752" y1="619.3296" x2="-12.7752" y2="554.8246" gradientTransform="matrix(8 0 0 -8 454.3015 4942.7964)">
		<stop  offset="0" style="stop-color:#FC5C7D"/>
		<stop  offset="0.129" style="stop-color:#F35E85"/>
		<stop  offset="0.343" style="stop-color:#D9659B"/>
		<stop  offset="0.616" style="stop-color:#B070BF"/>
		<stop  offset="0.934" style="stop-color:#777FF0"/>
		<stop  offset="1" style="stop-color:#6A82FB"/>
	</linearGradient>
	<path style="fill:url(#SVGID_19_);" d="M344.1,424.2h16v16h-16V424.2z"/>
	
		<linearGradient id="SVGID_20_" gradientUnits="userSpaceOnUse" x1="-2.7752" y1="619.3296" x2="-2.7752" y2="554.8246" gradientTransform="matrix(8 0 0 -8 454.3015 4942.7964)">
		<stop  offset="0" style="stop-color:#FC5C7D"/>
		<stop  offset="0.129" style="stop-color:#F35E85"/>
		<stop  offset="0.343" style="stop-color:#D9659B"/>
		<stop  offset="0.616" style="stop-color:#B070BF"/>
		<stop  offset="0.934" style="stop-color:#777FF0"/>
		<stop  offset="1" style="stop-color:#6A82FB"/>
	</linearGradient>
	<path style="fill:url(#SVGID_20_);" d="M424.1,296.2h16v16h-16V296.2z"/>
	
		<linearGradient id="SVGID_21_" gradientUnits="userSpaceOnUse" x1="-2.7752" y1="619.3296" x2="-2.7752" y2="554.8246" gradientTransform="matrix(8 0 0 -8 454.3015 4942.7964)">
		<stop  offset="0" style="stop-color:#FC5C7D"/>
		<stop  offset="0.129" style="stop-color:#F35E85"/>
		<stop  offset="0.343" style="stop-color:#D9659B"/>
		<stop  offset="0.616" style="stop-color:#B070BF"/>
		<stop  offset="0.934" style="stop-color:#777FF0"/>
		<stop  offset="1" style="stop-color:#6A82FB"/>
	</linearGradient>
	<path style="fill:url(#SVGID_21_);" d="M424.1,264.2h16v16h-16V264.2z"/>
	
		<linearGradient id="SVGID_22_" gradientUnits="userSpaceOnUse" x1="-2.7752" y1="619.3296" x2="-2.7752" y2="554.8246" gradientTransform="matrix(8 0 0 -8 454.3015 4942.7964)">
		<stop  offset="0" style="stop-color:#FC5C7D"/>
		<stop  offset="0.129" style="stop-color:#F35E85"/>
		<stop  offset="0.343" style="stop-color:#D9659B"/>
		<stop  offset="0.616" style="stop-color:#B070BF"/>
		<stop  offset="0.934" style="stop-color:#777FF0"/>
		<stop  offset="1" style="stop-color:#6A82FB"/>
	</linearGradient>
	<path style="fill:url(#SVGID_22_);" d="M424.1,232.2h16v16h-16V232.2z"/>
	
		<linearGradient id="SVGID_23_" gradientUnits="userSpaceOnUse" x1="-2.7752" y1="619.3296" x2="-2.7752" y2="554.8246" gradientTransform="matrix(8 0 0 -8 454.3015 4942.7964)">
		<stop  offset="0" style="stop-color:#FC5C7D"/>
		<stop  offset="0.129" style="stop-color:#F35E85"/>
		<stop  offset="0.343" style="stop-color:#D9659B"/>
		<stop  offset="0.616" style="stop-color:#B070BF"/>
		<stop  offset="0.934" style="stop-color:#777FF0"/>
		<stop  offset="1" style="stop-color:#6A82FB"/>
	</linearGradient>
	<path style="fill:url(#SVGID_23_);" d="M424.1,200.2h16v16h-16V200.2z"/>
	
		<linearGradient id="SVGID_24_" gradientUnits="userSpaceOnUse" x1="-2.7752" y1="619.3296" x2="-2.7752" y2="554.8246" gradientTransform="matrix(8 0 0 -8 454.3015 4942.7964)">
		<stop  offset="0" style="stop-color:#FC5C7D"/>
		<stop  offset="0.129" style="stop-color:#F35E85"/>
		<stop  offset="0.343" style="stop-color:#D9659B"/>
		<stop  offset="0.616" style="stop-color:#B070BF"/>
		<stop  offset="0.934" style="stop-color:#777FF0"/>
		<stop  offset="1" style="stop-color:#6A82FB"/>
	</linearGradient>
	<path style="fill:url(#SVGID_24_);" d="M424.1,168.2h16v16h-16V168.2z"/>
</g>
<g>
	
		<linearGradient id="SVGID_25_" gradientUnits="userSpaceOnUse" x1="-50.7752" y1="619.3296" x2="-50.7752" y2="554.8246" gradientTransform="matrix(8 0 0 -8 454.3015 4942.7964)">
		<stop  offset="0" style="stop-color:#FC5C7D"/>
		<stop  offset="0.129" style="stop-color:#F35E85"/>
		<stop  offset="0.343" style="stop-color:#D9659B"/>
		<stop  offset="0.616" style="stop-color:#B070BF"/>
		<stop  offset="0.934" style="stop-color:#777FF0"/>
		<stop  offset="1" style="stop-color:#6A82FB"/>
	</linearGradient>
	<path style="fill:url(#SVGID_25_);" d="M40.1,296.2h16v16h-16V296.2z"/>
	
		<linearGradient id="SVGID_26_" gradientUnits="userSpaceOnUse" x1="-50.7752" y1="619.3296" x2="-50.7752" y2="554.8246" gradientTransform="matrix(8 0 0 -8 454.3015 4942.7964)">
		<stop  offset="0" style="stop-color:#FC5C7D"/>
		<stop  offset="0.129" style="stop-color:#F35E85"/>
		<stop  offset="0.343" style="stop-color:#D9659B"/>
		<stop  offset="0.616" style="stop-color:#B070BF"/>
		<stop  offset="0.934" style="stop-color:#777FF0"/>
		<stop  offset="1" style="stop-color:#6A82FB"/>
	</linearGradient>
	<path style="fill:url(#SVGID_26_);" d="M40.1,264.2h16v16h-16V264.2z"/>
	
		<linearGradient id="SVGID_27_" gradientUnits="userSpaceOnUse" x1="-50.7752" y1="619.3296" x2="-50.7752" y2="554.8246" gradientTransform="matrix(8 0 0 -8 454.3015 4942.7964)">
		<stop  offset="0" style="stop-color:#FC5C7D"/>
		<stop  offset="0.129" style="stop-color:#F35E85"/>
		<stop  offset="0.343" style="stop-color:#D9659B"/>
		<stop  offset="0.616" style="stop-color:#B070BF"/>
		<stop  offset="0.934" style="stop-color:#777FF0"/>
		<stop  offset="1" style="stop-color:#6A82FB"/>
	</linearGradient>
	<path style="fill:url(#SVGID_27_);" d="M40.1,232.2h16v16h-16V232.2z"/>
</g>
<g>
	
		<linearGradient id="SVGID_28_" gradientUnits="userSpaceOnUse" x1="-45.7752" y1="619.3296" x2="-45.7752" y2="554.8246" gradientTransform="matrix(8 0 0 -8 454.3015 4942.7964)">
		<stop  offset="0" style="stop-color:#FC5C7D"/>
		<stop  offset="0.129" style="stop-color:#F35E85"/>
		<stop  offset="0.343" style="stop-color:#D9659B"/>
		<stop  offset="0.616" style="stop-color:#B070BF"/>
		<stop  offset="0.934" style="stop-color:#777FF0"/>
		<stop  offset="1" style="stop-color:#6A82FB"/>
	</linearGradient>
	<path style="fill:url(#SVGID_28_);" d="M80.1,232.2h16v16h-16V232.2z"/>
	
		<linearGradient id="SVGID_29_" gradientUnits="userSpaceOnUse" x1="-41.7752" y1="619.3296" x2="-41.7752" y2="554.8246" gradientTransform="matrix(8 0 0 -8 454.3015 4942.7964)">
		<stop  offset="0" style="stop-color:#FC5C7D"/>
		<stop  offset="0.129" style="stop-color:#F35E85"/>
		<stop  offset="0.343" style="stop-color:#D9659B"/>
		<stop  offset="0.616" style="stop-color:#B070BF"/>
		<stop  offset="0.934" style="stop-color:#777FF0"/>
		<stop  offset="1" style="stop-color:#6A82FB"/>
	</linearGradient>
	<path style="fill:url(#SVGID_29_);" d="M112.1,232.2h16v16h-16V232.2z"/>
	
		<linearGradient id="SVGID_30_" gradientUnits="userSpaceOnUse" x1="-37.7752" y1="619.3296" x2="-37.7752" y2="554.8246" gradientTransform="matrix(8 0 0 -8 454.3015 4942.7964)">
		<stop  offset="0" style="stop-color:#FC5C7D"/>
		<stop  offset="0.129" style="stop-color:#F35E85"/>
		<stop  offset="0.343" style="stop-color:#D9659B"/>
		<stop  offset="0.616" style="stop-color:#B070BF"/>
		<stop  offset="0.934" style="stop-color:#777FF0"/>
		<stop  offset="1" style="stop-color:#6A82FB"/>
	</linearGradient>
	<path style="fill:url(#SVGID_30_);" d="M144.1,232.2h16v16h-16V232.2z"/>
	
		<linearGradient id="SVGID_31_" gradientUnits="userSpaceOnUse" x1="-15.7752" y1="619.3296" x2="-15.7752" y2="554.8246" gradientTransform="matrix(8 0 0 -8 454.3015 4942.7964)">
		<stop  offset="0" style="stop-color:#FC5C7D"/>
		<stop  offset="0.129" style="stop-color:#F35E85"/>
		<stop  offset="0.343" style="stop-color:#D9659B"/>
		<stop  offset="0.616" style="stop-color:#B070BF"/>
		<stop  offset="0.934" style="stop-color:#777FF0"/>
		<stop  offset="1" style="stop-color:#6A82FB"/>
	</linearGradient>
	<path style="fill:url(#SVGID_31_);" d="M320.1,232.2h16v16h-16V232.2z"/>
	
		<linearGradient id="SVGID_32_" gradientUnits="userSpaceOnUse" x1="-11.7752" y1="619.3296" x2="-11.7752" y2="554.8246" gradientTransform="matrix(8 0 0 -8 454.3015 4942.7964)">
		<stop  offset="0" style="stop-color:#FC5C7D"/>
		<stop  offset="0.129" style="stop-color:#F35E85"/>
		<stop  offset="0.343" style="stop-color:#D9659B"/>
		<stop  offset="0.616" style="stop-color:#B070BF"/>
		<stop  offset="0.934" style="stop-color:#777FF0"/>
		<stop  offset="1" style="stop-color:#6A82FB"/>
	</linearGradient>
	<path style="fill:url(#SVGID_32_);" d="M352.1,232.2h16v16h-16V232.2z"/>
	
		<linearGradient id="SVGID_33_" gradientUnits="userSpaceOnUse" x1="-7.7752" y1="619.3296" x2="-7.7752" y2="554.8246" gradientTransform="matrix(8 0 0 -8 454.3015 4942.7964)">
		<stop  offset="0" style="stop-color:#FC5C7D"/>
		<stop  offset="0.129" style="stop-color:#F35E85"/>
		<stop  offset="0.343" style="stop-color:#D9659B"/>
		<stop  offset="0.616" style="stop-color:#B070BF"/>
		<stop  offset="0.934" style="stop-color:#777FF0"/>
		<stop  offset="1" style="stop-color:#6A82FB"/>
	</linearGradient>
	<path style="fill:url(#SVGID_33_);" d="M384.1,232.2h16v16h-16V232.2z"/>
</g>
<g>
	
		<linearGradient id="SVGID_34_" gradientUnits="userSpaceOnUse" x1="-50.7752" y1="619.3296" x2="-50.7752" y2="554.8246" gradientTransform="matrix(8 0 0 -8 454.3015 4942.7964)">
		<stop  offset="0" style="stop-color:#FC5C7D"/>
		<stop  offset="0.129" style="stop-color:#F35E85"/>
		<stop  offset="0.343" style="stop-color:#D9659B"/>
		<stop  offset="0.616" style="stop-color:#B070BF"/>
		<stop  offset="0.934" style="stop-color:#777FF0"/>
		<stop  offset="1" style="stop-color:#6A82FB"/>
	</linearGradient>
	<path style="fill:url(#SVGID_34_);" d="M40.1,200.2h16v16h-16V200.2z"/>
	
		<linearGradient id="SVGID_35_" gradientUnits="userSpaceOnUse" x1="-50.7752" y1="619.3296" x2="-50.7752" y2="554.8246" gradientTransform="matrix(8 0 0 -8 454.3015 4942.7964)">
		<stop  offset="0" style="stop-color:#FC5C7D"/>
		<stop  offset="0.129" style="stop-color:#F35E85"/>
		<stop  offset="0.343" style="stop-color:#D9659B"/>
		<stop  offset="0.616" style="stop-color:#B070BF"/>
		<stop  offset="0.934" style="stop-color:#777FF0"/>
		<stop  offset="1" style="stop-color:#6A82FB"/>
	</linearGradient>
	<path style="fill:url(#SVGID_35_);" d="M40.1,168.2h16v16h-16V168.2z"/>
</g>
<g>
	
		<linearGradient id="SVGID_36_" gradientUnits="userSpaceOnUse" x1="-41.7752" y1="619.3296" x2="-41.7752" y2="554.8246" gradientTransform="matrix(8 0 0 -8 454.3015 4942.7964)">
		<stop  offset="0" style="stop-color:#FC5C7D"/>
		<stop  offset="0.129" style="stop-color:#F35E85"/>
		<stop  offset="0.343" style="stop-color:#D9659B"/>
		<stop  offset="0.616" style="stop-color:#B070BF"/>
		<stop  offset="0.934" style="stop-color:#777FF0"/>
		<stop  offset="1" style="stop-color:#6A82FB"/>
	</linearGradient>
	<path style="fill:url(#SVGID_36_);" d="M112.1,40.2h16v16h-16V40.2z"/>
	
		<linearGradient id="SVGID_37_" gradientUnits="userSpaceOnUse" x1="-37.7752" y1="619.3296" x2="-37.7752" y2="554.8246" gradientTransform="matrix(8 0 0 -8 454.3015 4942.7964)">
		<stop  offset="0" style="stop-color:#FC5C7D"/>
		<stop  offset="0.129" style="stop-color:#F35E85"/>
		<stop  offset="0.343" style="stop-color:#D9659B"/>
		<stop  offset="0.616" style="stop-color:#B070BF"/>
		<stop  offset="0.934" style="stop-color:#777FF0"/>
		<stop  offset="1" style="stop-color:#6A82FB"/>
	</linearGradient>
	<path style="fill:url(#SVGID_37_);" d="M144.1,40.2h16v16h-16V40.2z"/>
	
		<linearGradient id="SVGID_38_" gradientUnits="userSpaceOnUse" x1="-33.7752" y1="619.3296" x2="-33.7752" y2="554.8246" gradientTransform="matrix(8 0 0 -8 454.3015 4942.7964)">
		<stop  offset="0" style="stop-color:#FC5C7D"/>
		<stop  offset="0.129" style="stop-color:#F35E85"/>
		<stop  offset="0.343" style="stop-color:#D9659B"/>
		<stop  offset="0.616" style="stop-color:#B070BF"/>
		<stop  offset="0.934" style="stop-color:#777FF0"/>
		<stop  offset="1" style="stop-color:#6A82FB"/>
	</linearGradient>
	<path style="fill:url(#SVGID_38_);" d="M176.1,40.2h16v16h-16V40.2z"/>
	
		<linearGradient id="SVGID_39_" gradientUnits="userSpaceOnUse" x1="-29.7752" y1="619.3296" x2="-29.7752" y2="554.8246" gradientTransform="matrix(8 0 0 -8 454.3015 4942.7964)">
		<stop  offset="0" style="stop-color:#FC5C7D"/>
		<stop  offset="0.129" style="stop-color:#F35E85"/>
		<stop  offset="0.343" style="stop-color:#D9659B"/>
		<stop  offset="0.616" style="stop-color:#B070BF"/>
		<stop  offset="0.934" style="stop-color:#777FF0"/>
		<stop  offset="1" style="stop-color:#6A82FB"/>
	</linearGradient>
	<path style="fill:url(#SVGID_39_);" d="M208.1,40.2h16v16h-16V40.2z"/>
	
		<linearGradient id="SVGID_40_" gradientUnits="userSpaceOnUse" x1="-25.7752" y1="619.3296" x2="-25.7752" y2="554.8246" gradientTransform="matrix(8 0 0 -8 454.3015 4942.7964)">
		<stop  offset="0" style="stop-color:#FC5C7D"/>
		<stop  offset="0.129" style="stop-color:#F35E85"/>
		<stop  offset="0.343" style="stop-color:#D9659B"/>
		<stop  offset="0.616" style="stop-color:#B070BF"/>
		<stop  offset="0.934" style="stop-color:#777FF0"/>
		<stop  offset="1" style="stop-color:#6A82FB"/>
	</linearGradient>
	<path style="fill:url(#SVGID_40_);" d="M240.1,40.2h16v16h-16V40.2z"/>
</g>
<g>
</g>
<g>
</g>
<g>
</g>
<g>
</g>
<g>
</g>
<g>
</g>
<g>
</g>
<g>
</g>
<g>
</g>
<g>
</g>
<g>
</g>
<g>
</g>
<g>
</g>
<g>
</g>
<g>
</g>
</svg>
