<?xml version="1.0" encoding="iso-8859-1"?>
<!-- Generator: Adobe Illustrator 19.0.0, SVG Export Plug-In . SVG Version: 6.00 Build 0)  -->
<svg version="1.1" id="Capa_1" xmlns="http://www.w3.org/2000/svg" xmlns:xlink="http://www.w3.org/1999/xlink" x="0px" y="0px"
	 viewBox="0 0 480 480" style="enable-background:new 0 0 480 480;" xml:space="preserve">
<linearGradient id="SVGID_1_" gradientUnits="userSpaceOnUse" x1="-26.875" y1="617.514" x2="-26.875" y2="551.605" gradientTransform="matrix(8 0 0 -8 455 4941)">
	<stop  offset="0" style="stop-color:#FC5C7D"/>
	<stop  offset="0.129" style="stop-color:#F35E85"/>
	<stop  offset="0.343" style="stop-color:#D9659B"/>
	<stop  offset="0.616" style="stop-color:#B070BF"/>
	<stop  offset="0.934" style="stop-color:#777FF0"/>
	<stop  offset="1" style="stop-color:#6A82FB"/>
</linearGradient>
<path style="fill:url(#SVGID_1_);" d="M448,0H32C14.327,0,0,14.327,0,32v416c0,17.673,14.327,32,32,32h416c17.673,0,32-14.327,32-32
	V32C480,14.327,465.673,0,448,0z M32,16h416c8.837,0,16,7.163,16,16v32H16V32C16,23.163,23.163,16,32,16z M448,464H32
	c-8.837,0-16-7.163-16-16V80h448v368C464,456.837,456.837,464,448,464z"/>
<g>
	
		<linearGradient id="SVGID_2_" gradientUnits="userSpaceOnUse" x1="-51.875" y1="617.514" x2="-51.875" y2="551.605" gradientTransform="matrix(8 0 0 -8 455 4941)">
		<stop  offset="0" style="stop-color:#FC5C7D"/>
		<stop  offset="0.129" style="stop-color:#F35E85"/>
		<stop  offset="0.343" style="stop-color:#D9659B"/>
		<stop  offset="0.616" style="stop-color:#B070BF"/>
		<stop  offset="0.934" style="stop-color:#777FF0"/>
		<stop  offset="1" style="stop-color:#6A82FB"/>
	</linearGradient>
	<path style="fill:url(#SVGID_2_);" d="M32,32h16v16H32V32z"/>
	
		<linearGradient id="SVGID_3_" gradientUnits="userSpaceOnUse" x1="-47.875" y1="617.514" x2="-47.875" y2="551.605" gradientTransform="matrix(8 0 0 -8 455 4941)">
		<stop  offset="0" style="stop-color:#FC5C7D"/>
		<stop  offset="0.129" style="stop-color:#F35E85"/>
		<stop  offset="0.343" style="stop-color:#D9659B"/>
		<stop  offset="0.616" style="stop-color:#B070BF"/>
		<stop  offset="0.934" style="stop-color:#777FF0"/>
		<stop  offset="1" style="stop-color:#6A82FB"/>
	</linearGradient>
	<path style="fill:url(#SVGID_3_);" d="M64,32h16v16H64V32z"/>
	
		<linearGradient id="SVGID_4_" gradientUnits="userSpaceOnUse" x1="-43.875" y1="617.514" x2="-43.875" y2="551.605" gradientTransform="matrix(8 0 0 -8 455 4941)">
		<stop  offset="0" style="stop-color:#FC5C7D"/>
		<stop  offset="0.129" style="stop-color:#F35E85"/>
		<stop  offset="0.343" style="stop-color:#D9659B"/>
		<stop  offset="0.616" style="stop-color:#B070BF"/>
		<stop  offset="0.934" style="stop-color:#777FF0"/>
		<stop  offset="1" style="stop-color:#6A82FB"/>
	</linearGradient>
	<path style="fill:url(#SVGID_4_);" d="M96,32h16v16H96V32z"/>
</g>
<g>
	
		<linearGradient id="SVGID_5_" gradientUnits="userSpaceOnUse" x1="-26.8775" y1="617.514" x2="-26.8775" y2="551.605" gradientTransform="matrix(8 0 0 -8 455 4941)">
		<stop  offset="0" style="stop-color:#FC5C7D"/>
		<stop  offset="0.129" style="stop-color:#F35E85"/>
		<stop  offset="0.343" style="stop-color:#D9659B"/>
		<stop  offset="0.616" style="stop-color:#B070BF"/>
		<stop  offset="0.934" style="stop-color:#777FF0"/>
		<stop  offset="1" style="stop-color:#6A82FB"/>
	</linearGradient>
	<path style="fill:url(#SVGID_5_);" d="M353.952,329.248l-9.12-22.4l8.256-19.904l22.232-9.36c2.965-1.252,4.89-4.158,4.888-7.376
		v-36.856c0.001-3.22-1.928-6.127-4.896-7.376l-22.224-9.36L344.8,196.72l9.12-22.4c1.213-2.98,0.523-6.397-1.752-8.672
		l-26.064-26.072c-2.275-2.275-5.692-2.965-8.672-1.752l-22.4,9.12l-19.832-8.24l-9.36-22.232c-1.249-2.968-4.156-4.897-7.376-4.896
		H221.6c-3.22-0.001-6.127,1.928-7.376,4.896l-9.424,22.232l-19.904,8.248l-22.4-9.12c-2.98-1.213-6.397-0.523-8.672,1.752
		l-26.064,26.072c-2.275,2.275-2.965,5.692-1.752,8.672l9.12,22.4l-8.256,19.896l-22.224,9.36c-2.968,1.249-4.897,4.156-4.896,7.376
		v36.864c-0.002,3.218,1.923,6.124,4.888,7.376l22.232,9.36l8.328,19.896l-9.12,22.4c-1.213,2.98-0.523,6.397,1.752,8.672
		L153.864,364c2.275,2.275,5.692,2.965,8.672,1.752l22.4-9.112l19.904,8.24l9.36,22.24c1.258,2.969,4.175,4.893,7.4,4.88h36.8
		c3.218,0.002,6.124-1.923,7.376-4.888l9.36-22.24l19.904-8.248l22.4,9.12c2.98,1.213,6.397,0.523,8.672-1.752l26.064-26.072
		C354.459,335.65,355.159,332.233,353.952,329.248z M339.552,277.8L328.8,303.776c-0.804,1.944-0.804,4.128,0,6.072l8.336,20.552
		l-18.56,18.552l-20.512-8.352c-1.949-0.792-4.131-0.792-6.08,0l-25.976,10.768c-1.944,0.804-3.493,2.342-4.312,4.28L253.12,376
		h-26.24l-8.576-20.368c-0.817-1.941-2.366-3.482-4.312-4.288L188,340.584c-1.945-0.798-4.127-0.798-6.072,0l-20.512,8.344
		L142.864,330.4l8.336-20.552c0.804-1.944,0.804-4.128,0-6.072L140.44,277.8c-0.804-1.944-2.342-3.493-4.28-4.312l-20.368-8.584
		v-26.24l20.36-8.568c1.941-0.817,3.482-2.366,4.288-4.312l10.76-25.976c0.8-1.948,0.8-4.132,0-6.08l-8.352-20.52l18.56-18.552
		l20.512,8.352c1.945,0.812,4.135,0.812,6.08,0l25.976-10.768c1.944-0.804,3.493-2.342,4.312-4.28l8.576-20.368h26.24l8.576,20.368
		c0.819,1.938,2.368,3.476,4.312,4.28L292,162.992c1.946,0.808,4.134,0.808,6.08,0l20.512-8.352l18.56,18.552l-8.352,20.536
		c-0.8,1.948-0.8,4.132,0,6.08l10.76,25.976c0.806,1.946,2.347,3.495,4.288,4.312l20.36,8.568v26.24l-20.368,8.584
		c-1.938,0.819-3.476,2.368-4.28,4.312L339.552,277.8z"/>
	
		<linearGradient id="SVGID_6_" gradientUnits="userSpaceOnUse" x1="-26.875" y1="617.514" x2="-26.875" y2="551.605" gradientTransform="matrix(8 0 0 -8 455 4941)">
		<stop  offset="0" style="stop-color:#FC5C7D"/>
		<stop  offset="0.129" style="stop-color:#F35E85"/>
		<stop  offset="0.343" style="stop-color:#D9659B"/>
		<stop  offset="0.616" style="stop-color:#B070BF"/>
		<stop  offset="0.934" style="stop-color:#777FF0"/>
		<stop  offset="1" style="stop-color:#6A82FB"/>
	</linearGradient>
	<path style="fill:url(#SVGID_6_);" d="M240,171.792c-44.183,0-80,35.817-80,80s35.817,80,80,80s80-35.817,80-80c0,0,0,0,0,0
		C319.952,207.629,284.163,171.84,240,171.792L240,171.792z M240,315.792c-35.346,0-64-28.654-64-64s28.654-64,64-64
		s64,28.654,64,64C303.96,287.122,275.33,315.752,240,315.792z"/>
	
		<linearGradient id="SVGID_7_" gradientUnits="userSpaceOnUse" x1="-26.875" y1="617.514" x2="-26.875" y2="551.605" gradientTransform="matrix(8 0 0 -8 455 4941)">
		<stop  offset="0" style="stop-color:#FC5C7D"/>
		<stop  offset="0.129" style="stop-color:#F35E85"/>
		<stop  offset="0.343" style="stop-color:#D9659B"/>
		<stop  offset="0.616" style="stop-color:#B070BF"/>
		<stop  offset="0.934" style="stop-color:#777FF0"/>
		<stop  offset="1" style="stop-color:#6A82FB"/>
	</linearGradient>
	<path style="fill:url(#SVGID_7_);" d="M232,243.792h16v16h-16V243.792z"/>
</g>
<g>
	
		<linearGradient id="SVGID_8_" gradientUnits="userSpaceOnUse" x1="-30.875" y1="617.514" x2="-30.875" y2="551.605" gradientTransform="matrix(8 0 0 -8 455 4941)">
		<stop  offset="0" style="stop-color:#FC5C7D"/>
		<stop  offset="0.129" style="stop-color:#F35E85"/>
		<stop  offset="0.343" style="stop-color:#D9659B"/>
		<stop  offset="0.616" style="stop-color:#B070BF"/>
		<stop  offset="0.934" style="stop-color:#777FF0"/>
		<stop  offset="1" style="stop-color:#6A82FB"/>
	</linearGradient>
	<path style="fill:url(#SVGID_8_);" d="M200,243.792h16v16h-16V243.792z"/>
	
		<linearGradient id="SVGID_9_" gradientUnits="userSpaceOnUse" x1="-22.875" y1="617.514" x2="-22.875" y2="551.605" gradientTransform="matrix(8 0 0 -8 455 4941)">
		<stop  offset="0" style="stop-color:#FC5C7D"/>
		<stop  offset="0.129" style="stop-color:#F35E85"/>
		<stop  offset="0.343" style="stop-color:#D9659B"/>
		<stop  offset="0.616" style="stop-color:#B070BF"/>
		<stop  offset="0.934" style="stop-color:#777FF0"/>
		<stop  offset="1" style="stop-color:#6A82FB"/>
	</linearGradient>
	<path style="fill:url(#SVGID_9_);" d="M264,243.792h16v16h-16V243.792z"/>
	
		<linearGradient id="SVGID_10_" gradientUnits="userSpaceOnUse" x1="-50.875" y1="617.514" x2="-50.875" y2="551.605" gradientTransform="matrix(8 0 0 -8 455 4941)">
		<stop  offset="0" style="stop-color:#FC5C7D"/>
		<stop  offset="0.129" style="stop-color:#F35E85"/>
		<stop  offset="0.343" style="stop-color:#D9659B"/>
		<stop  offset="0.616" style="stop-color:#B070BF"/>
		<stop  offset="0.934" style="stop-color:#777FF0"/>
		<stop  offset="1" style="stop-color:#6A82FB"/>
	</linearGradient>
	<path style="fill:url(#SVGID_10_);" d="M40,392h16v16H40V392z"/>
	
		<linearGradient id="SVGID_11_" gradientUnits="userSpaceOnUse" x1="-43.375" y1="617.514" x2="-43.375" y2="551.605" gradientTransform="matrix(8 0 0 -8 455 4941)">
		<stop  offset="0" style="stop-color:#FC5C7D"/>
		<stop  offset="0.129" style="stop-color:#F35E85"/>
		<stop  offset="0.343" style="stop-color:#D9659B"/>
		<stop  offset="0.616" style="stop-color:#B070BF"/>
		<stop  offset="0.934" style="stop-color:#777FF0"/>
		<stop  offset="1" style="stop-color:#6A82FB"/>
	</linearGradient>
	<path style="fill:url(#SVGID_11_);" d="M72,392h72v16H72V392z"/>
	
		<linearGradient id="SVGID_12_" gradientUnits="userSpaceOnUse" x1="-47.375" y1="617.514" x2="-47.375" y2="551.605" gradientTransform="matrix(8 0 0 -8 455 4941)">
		<stop  offset="0" style="stop-color:#FC5C7D"/>
		<stop  offset="0.129" style="stop-color:#F35E85"/>
		<stop  offset="0.343" style="stop-color:#D9659B"/>
		<stop  offset="0.616" style="stop-color:#B070BF"/>
		<stop  offset="0.934" style="stop-color:#777FF0"/>
		<stop  offset="1" style="stop-color:#6A82FB"/>
	</linearGradient>
	<path style="fill:url(#SVGID_12_);" d="M40,424h72v16H40V424z"/>
	
		<linearGradient id="SVGID_13_" gradientUnits="userSpaceOnUse" x1="-13.875" y1="617.514" x2="-13.875" y2="551.605" gradientTransform="matrix(8 0 0 -8 455 4941)">
		<stop  offset="0" style="stop-color:#FC5C7D"/>
		<stop  offset="0.129" style="stop-color:#F35E85"/>
		<stop  offset="0.343" style="stop-color:#D9659B"/>
		<stop  offset="0.616" style="stop-color:#B070BF"/>
		<stop  offset="0.934" style="stop-color:#777FF0"/>
		<stop  offset="1" style="stop-color:#6A82FB"/>
	</linearGradient>
	<path style="fill:url(#SVGID_13_);" d="M336,392h16v16h-16V392z"/>
	
		<linearGradient id="SVGID_14_" gradientUnits="userSpaceOnUse" x1="-6.375" y1="617.514" x2="-6.375" y2="551.605" gradientTransform="matrix(8 0 0 -8 455 4941)">
		<stop  offset="0" style="stop-color:#FC5C7D"/>
		<stop  offset="0.129" style="stop-color:#F35E85"/>
		<stop  offset="0.343" style="stop-color:#D9659B"/>
		<stop  offset="0.616" style="stop-color:#B070BF"/>
		<stop  offset="0.934" style="stop-color:#777FF0"/>
		<stop  offset="1" style="stop-color:#6A82FB"/>
	</linearGradient>
	<path style="fill:url(#SVGID_14_);" d="M368,392h72v16h-72V392z"/>
	
		<linearGradient id="SVGID_15_" gradientUnits="userSpaceOnUse" x1="-10.375" y1="617.514" x2="-10.375" y2="551.605" gradientTransform="matrix(8 0 0 -8 455 4941)">
		<stop  offset="0" style="stop-color:#FC5C7D"/>
		<stop  offset="0.129" style="stop-color:#F35E85"/>
		<stop  offset="0.343" style="stop-color:#D9659B"/>
		<stop  offset="0.616" style="stop-color:#B070BF"/>
		<stop  offset="0.934" style="stop-color:#777FF0"/>
		<stop  offset="1" style="stop-color:#6A82FB"/>
	</linearGradient>
	<path style="fill:url(#SVGID_15_);" d="M336,424h72v16h-72V424z"/>
</g>
<g>
</g>
<g>
</g>
<g>
</g>
<g>
</g>
<g>
</g>
<g>
</g>
<g>
</g>
<g>
</g>
<g>
</g>
<g>
</g>
<g>
</g>
<g>
</g>
<g>
</g>
<g>
</g>
<g>
</g>
</svg>
