<?xml version="1.0" encoding="iso-8859-1"?>
<!-- Generator: Adobe Illustrator 19.0.0, SVG Export Plug-In . SVG Version: 6.00 Build 0)  -->
<svg version="1.1" id="Capa_1" xmlns="http://www.w3.org/2000/svg" xmlns:xlink="http://www.w3.org/1999/xlink" x="0px" y="0px"
	 viewBox="0 0 477.656 477.656" style="enable-background:new 0 0 477.656 477.656;" xml:space="preserve">
<linearGradient id="SVGID_1_" gradientUnits="userSpaceOnUse" x1="-34.5136" y1="610.4808" x2="-80.9556" y2="564.0378" gradientTransform="matrix(5.6569 -5.6569 -5.6569 -5.6569 3878.6563 3240.0173)">
	<stop  offset="0" style="stop-color:#FC5C7D"/>
	<stop  offset="0.129" style="stop-color:#F35E85"/>
	<stop  offset="0.343" style="stop-color:#D9659B"/>
	<stop  offset="0.616" style="stop-color:#B070BF"/>
	<stop  offset="0.934" style="stop-color:#777FF0"/>
	<stop  offset="1" style="stop-color:#6A82FB"/>
</linearGradient>
<path style="fill:url(#SVGID_1_);" d="M198.347,207.996l51.998-51.998l11.314,11.314l-51.998,51.998L198.347,207.996z"/>
<linearGradient id="SVGID_2_" gradientUnits="userSpaceOnUse" x1="-32.8262" y1="612.1674" x2="-79.2742" y2="565.7204" gradientTransform="matrix(5.6569 -5.6569 -5.6569 -5.6569 3924.6724 3259.0732)">
	<stop  offset="0" style="stop-color:#FC5C7D"/>
	<stop  offset="0.129" style="stop-color:#F35E85"/>
	<stop  offset="0.343" style="stop-color:#D9659B"/>
	<stop  offset="0.616" style="stop-color:#B070BF"/>
	<stop  offset="0.934" style="stop-color:#777FF0"/>
	<stop  offset="1" style="stop-color:#6A82FB"/>
</linearGradient>
<path style="fill:url(#SVGID_2_);" d="M262.363,143.998L278.361,128l11.314,11.314l-15.998,15.998L262.363,143.998z"/>
<g>
	
		<linearGradient id="SVGID_3_" gradientUnits="userSpaceOnUse" x1="-7.4727" y1="607.3053" x2="-57.9127" y2="541.6263" gradientTransform="matrix(8 0 0 -8 538.9997 4919.9038)">
		<stop  offset="0" style="stop-color:#FC5C7D"/>
		<stop  offset="0.129" style="stop-color:#F35E85"/>
		<stop  offset="0.343" style="stop-color:#D9659B"/>
		<stop  offset="0.616" style="stop-color:#B070BF"/>
		<stop  offset="0.934" style="stop-color:#777FF0"/>
		<stop  offset="1" style="stop-color:#6A82FB"/>
	</linearGradient>
	<path style="fill:url(#SVGID_3_);" d="M438.344,43.312L449.656,32l-32-32l-11.312,11.312l10.344,10.344L404,34.344L385.656,16
		c-3.124-3.123-8.188-3.123-11.312,0L356,34.344L345.656,24l-11.312,11.312l10.344,10.344L332,58.344L321.656,48
		c-3.124-3.123-8.188-3.123-11.312,0l-152,152c-3.123,3.124-3.123,8.188,0,11.312l10.344,10.344L150.344,240
		c-3.123,3.124-3.123,8.188,0,11.312l2.344,2.344L134.344,272c-3.123,3.124-3.123,8.188,0,11.312l32,32
		c3.124,3.123,8.188,3.123,11.312,0L196,296.968l2.344,2.344c3.124,3.123,8.188,3.123,11.312,0L228,280.968l10.344,10.344
		c3.124,3.123,8.188,3.123,11.312,0l52.32-52.32c6.524,4.344,14.186,6.662,22.024,6.664c1.382-0.065,2.76-0.204,4.128-0.416
		c25.471,26.868,32.97,66.106,19.2,100.472l-20.744,51.944H132v-36.688l18.344,18.344L161.656,368l-88-88l-11.312,11.312L84,312.968
		v84.688H52c-13.255,0-24,10.745-24,24s10.745,24,24,24v24c0,4.418,3.582,8,8,8h32c2.518,0,4.889-1.186,6.4-3.2l21.6-28.8h216
		l21.6,28.8c1.511,2.014,3.882,3.2,6.4,3.2h32c4.418,0,8-3.582,8-8v-24c13.255,0,24-10.745,24-24s-10.745-24-24-24h-6.472
		l8.584-48.616c8.864-50.477-6.952-102.149-42.552-139.016c1.524-9.278-0.716-18.78-6.224-26.4l44.32-44.32
		c3.123-3.124,3.123-8.188,0-11.312l-10.344-10.336L404,104.968l10.344,10.344L425.656,104l-10.344-10.344l18.344-18.344
		c3.123-3.124,3.123-8.188,0-11.312l-18.344-18.344L428,32.968L438.344,43.312z M172,298.344l-20.688-20.688L164,264.968
		l20.688,20.688L172,298.344z M204,282.344l-36.688-36.688L180,232.968l36.688,36.688L204,282.344z M300,205.656
		c0-13.255,10.745-24,24-24s24,10.745,24,24s-10.745,24-24,24S300,218.911,300,205.656L300,205.656z M100,328.968l16,16v52.688h-16
		V328.968z M88,461.656H68v-16h32L88,461.656z M388,461.656h-20l-12-16h32V461.656z M412,421.656c0,4.418-3.582,8-8,8H52
		c-4.418,0-8-3.582-8-8s3.582-8,8-8h352C408.418,413.656,412,417.238,412,421.656z M390.4,346.256l-9.112,51.4h-37.472l18.4-46
		c15.098-37.709,8.344-80.657-17.6-111.912c5.223-3.144,9.662-7.433,12.984-12.544C385.828,259.962,397.867,303.66,390.4,346.256
		L390.4,346.256z M346.024,172.32c-18.375-12.199-43.161-7.193-55.36,11.182c-8.887,13.385-8.887,30.793,0,44.178L244,274.344
		l-68.688-68.688L316,64.968l68.688,68.688L346.024,172.32z M380,106.344l-36.688-36.688L356,56.968l36.688,36.688L380,106.344z
		 M404,82.344l-36.688-36.688L380,32.968l36.688,36.688L404,82.344z"/>
	
		<linearGradient id="SVGID_4_" gradientUnits="userSpaceOnUse" x1="-10.97" y1="609.9911" x2="-61.41" y2="544.3121" gradientTransform="matrix(8 0 0 -8 538.9997 4919.9038)">
		<stop  offset="0" style="stop-color:#FC5C7D"/>
		<stop  offset="0.129" style="stop-color:#F35E85"/>
		<stop  offset="0.343" style="stop-color:#D9659B"/>
		<stop  offset="0.616" style="stop-color:#B070BF"/>
		<stop  offset="0.934" style="stop-color:#777FF0"/>
		<stop  offset="1" style="stop-color:#6A82FB"/>
	</linearGradient>
	<path style="fill:url(#SVGID_4_);" d="M316,197.656h16v16h-16V197.656z"/>
</g>
<g>
</g>
<g>
</g>
<g>
</g>
<g>
</g>
<g>
</g>
<g>
</g>
<g>
</g>
<g>
</g>
<g>
</g>
<g>
</g>
<g>
</g>
<g>
</g>
<g>
</g>
<g>
</g>
<g>
</g>
</svg>
