<?xml version="1.0" encoding="iso-8859-1"?>
<!-- Generator: Adobe Illustrator 19.0.0, SVG Export Plug-In . SVG Version: 6.00 Build 0)  -->
<svg version="1.1" id="Capa_1" xmlns="http://www.w3.org/2000/svg" xmlns:xlink="http://www.w3.org/1999/xlink" x="0px" y="0px"
	 viewBox="0 0 480 480" style="enable-background:new 0 0 480 480;" xml:space="preserve">
<linearGradient id="SVGID_1_" gradientUnits="userSpaceOnUse" x1="-41.875" y1="607.567" x2="-41.875" y2="547.285" gradientTransform="matrix(8 0 0 -8 455 4869)">
	<stop  offset="0" style="stop-color:#FC5C7D"/>
	<stop  offset="0.129" style="stop-color:#F35E85"/>
	<stop  offset="0.343" style="stop-color:#D9659B"/>
	<stop  offset="0.616" style="stop-color:#B070BF"/>
	<stop  offset="0.934" style="stop-color:#777FF0"/>
	<stop  offset="1" style="stop-color:#6A82FB"/>
</linearGradient>
<path style="fill:url(#SVGID_1_);" d="M112,368h16v16h-16V368z"/>
<linearGradient id="SVGID_2_" gradientUnits="userSpaceOnUse" x1="-26.875" y1="607.625" x2="-26.875" y2="547.345" gradientTransform="matrix(8 0 0 -8 455 4869)">
	<stop  offset="0" style="stop-color:#FC5C7D"/>
	<stop  offset="0.129" style="stop-color:#F35E85"/>
	<stop  offset="0.343" style="stop-color:#D9659B"/>
	<stop  offset="0.616" style="stop-color:#B070BF"/>
	<stop  offset="0.934" style="stop-color:#777FF0"/>
	<stop  offset="1" style="stop-color:#6A82FB"/>
</linearGradient>
<path style="fill:url(#SVGID_2_);" d="M432,8H192c-26.499,0.026-47.974,21.501-48,48v72H8c-4.418,0-8,3.582-8,8v56
	c0,4.418,3.582,8,8,8h8v16H8c-4.418,0-8,3.582-8,8v240c0,4.418,3.582,8,8,8h424c26.499-0.026,47.974-21.501,48-48V56
	C479.974,29.501,458.499,8.026,432,8z M16,144h16v24h16v-24h16v24h16v-24h16v24h16v-24h16v24h16v-24h16v24h16v-24h16v40H16V144z
	 M32,200h144v16H32V200z M16,384h80v-16H16v-16h80v-16H16v-16h80v-16H16v-24h128v128H16V384z M192,456H16v-32h136
	c4.418,0,8-3.582,8-8V272c0-4.418-3.582-8-8-8H16v-32h176V456z M464,424c0,17.673-14.327,32-32,32H208v-24.264
	c4.828,3.038,10.432,4.616,16.136,4.544c1.673,0.002,3.344-0.119,5-0.36c19.779-3.522,35.262-19.005,38.784-38.784
	c3.108-15.148-6.653-29.948-21.801-33.056c-3.713-0.762-7.542-0.762-11.255,0c-9.702,1.585-18.637,6.247-25.488,13.296
	c-0.504,0.504-0.896,1.072-1.376,1.6v-27.2c4.828,3.038,10.432,4.616,16.136,4.544c1.673,0.002,3.344-0.119,5-0.36
	c19.779-3.522,35.262-19.005,38.784-38.784c3.108-15.148-6.653-29.948-21.801-33.056c-3.713-0.762-7.542-0.762-11.255,0
	c-9.702,1.585-18.637,6.247-25.488,13.296c-0.504,0.504-0.896,1.072-1.376,1.6v-27.2c4.828,3.038,10.432,4.616,16.136,4.544
	c1.673,0.002,3.344-0.119,5-0.36c19.779-3.522,35.262-19.005,38.784-38.784c3.108-15.148-6.653-29.948-21.801-33.056
	c-3.713-0.762-7.542-0.762-11.255,0c-9.702,1.585-18.637,6.247-25.488,13.296c-0.896,0.896-1.6,1.896-2.448,2.848
	c-1.335-2.606-4-4.262-6.928-4.304h-8v-16h8c4.418,0,8-3.582,8-8v-0.264c4.828,3.038,10.432,4.616,16.136,4.544
	c1.673,0.002,3.344-0.119,5-0.36c19.779-3.522,35.262-19.005,38.784-38.784c3.108-15.148-6.653-29.948-21.801-33.056
	c-3.713-0.762-7.542-0.762-11.255,0c-9.702,1.585-18.637,6.247-25.488,13.296c-0.504,0.504-0.896,1.072-1.376,1.6V136
	c0-4.418-3.582-8-8-8h-40V56c0-17.673,14.327-32,32-32h112v384h16V24h112c17.673,0,32,14.327,32,32V424z M211.92,405.136
	c2.509-12.744,12.472-22.707,25.216-25.216c0.922-0.129,1.853-0.196,2.784-0.2c3.337-0.147,6.595,1.045,9.048,3.312
	c2.805,3.254,3.953,7.619,3.112,11.832c-2.509,12.744-12.472,22.707-25.216,25.216c-6.457,1.796-13.148-1.983-14.944-8.44
	C211.328,409.512,211.328,407.263,211.92,405.136L211.92,405.136z M211.92,325.136c2.509-12.744,12.472-22.707,25.216-25.216
	c0.922-0.129,1.853-0.196,2.784-0.2c3.337-0.147,6.595,1.045,9.048,3.312c2.805,3.254,3.953,7.619,3.112,11.832
	c-2.509,12.744-12.472,22.707-25.216,25.216c-6.457,1.796-13.148-1.983-14.944-8.44C211.328,329.512,211.328,327.263,211.92,325.136
	L211.92,325.136z M211.92,245.136c2.509-12.744,12.472-22.707,25.216-25.216c0.922-0.129,1.853-0.196,2.784-0.2
	c3.337-0.147,6.595,1.045,9.048,3.312c2.805,3.254,3.953,7.619,3.112,11.832c-2.509,12.744-12.472,22.707-25.216,25.216
	c-6.457,1.796-13.148-1.983-14.944-8.44C211.328,249.512,211.328,247.263,211.92,245.136L211.92,245.136z M211.92,165.136
	c2.509-12.744,12.472-22.707,25.216-25.216c0.922-0.129,1.853-0.196,2.784-0.2c3.337-0.147,6.595,1.045,9.048,3.312
	c2.805,3.254,3.953,7.619,3.112,11.832c-2.509,12.744-12.472,22.707-25.216,25.216c-6.457,1.796-13.148-1.983-14.944-8.44
	C211.328,169.512,211.328,167.263,211.92,165.136L211.92,165.136z"/>
<g>
	
		<linearGradient id="SVGID_3_" gradientUnits="userSpaceOnUse" x1="-27.875" y1="607.567" x2="-27.875" y2="547.285" gradientTransform="matrix(8 0 0 -8 455 4869)">
		<stop  offset="0" style="stop-color:#FC5C7D"/>
		<stop  offset="0.129" style="stop-color:#F35E85"/>
		<stop  offset="0.343" style="stop-color:#D9659B"/>
		<stop  offset="0.616" style="stop-color:#B070BF"/>
		<stop  offset="0.934" style="stop-color:#777FF0"/>
		<stop  offset="1" style="stop-color:#6A82FB"/>
	</linearGradient>
	<path style="fill:url(#SVGID_3_);" d="M234.864,44.08c-19.779,3.522-35.262,19.005-38.784,38.784
		c-1.621,9.204,1.213,18.632,7.64,25.416c5.464,5.286,12.815,8.167,20.416,8c1.673,0.002,3.344-0.119,5-0.36
		c19.779-3.522,35.262-19.005,38.784-38.784c1.622-9.204-1.212-18.632-7.64-25.416C253.497,45.291,244.068,42.456,234.864,44.08z
		 M252.08,74.864c-2.509,12.744-12.472,22.707-25.216,25.216c-4.213,0.832-8.574-0.315-11.832-3.112
		c-2.805-3.254-3.953-7.619-3.112-11.832c2.509-12.744,12.472-22.707,25.216-25.216c0.922-0.129,1.853-0.196,2.784-0.2
		c3.337-0.147,6.595,1.045,9.048,3.312C251.773,66.286,252.921,70.651,252.08,74.864z"/>
	
		<linearGradient id="SVGID_4_" gradientUnits="userSpaceOnUse" x1="-7.6932" y1="607.567" x2="-7.6932" y2="547.285" gradientTransform="matrix(8 0 0 -8 455 4869)">
		<stop  offset="0" style="stop-color:#FC5C7D"/>
		<stop  offset="0.129" style="stop-color:#F35E85"/>
		<stop  offset="0.343" style="stop-color:#D9659B"/>
		<stop  offset="0.616" style="stop-color:#B070BF"/>
		<stop  offset="0.934" style="stop-color:#777FF0"/>
		<stop  offset="1" style="stop-color:#6A82FB"/>
	</linearGradient>
	<path style="fill:url(#SVGID_4_);" d="M370.744,377.376c-15.592,15.592-18.136,38.4-5.656,50.904
		c5.432,5.257,12.748,8.11,20.304,7.92c11.587-0.342,22.577-5.217,30.608-13.576c7.049-6.851,11.711-15.786,13.296-25.488
		c1.622-9.204-1.212-18.632-7.64-25.416C409.168,359.2,386.344,361.784,370.744,377.376L370.744,377.376z M413.456,394.864
		c-1.126,6.273-4.206,12.03-8.8,16.448c-9.192,9.2-22.152,11.792-28.288,5.656s-3.544-19.088,5.656-28.28
		c5.036-5.353,11.934-8.568,19.272-8.984c3.33-0.144,6.578,1.055,9.016,3.328C413.125,386.282,414.284,390.646,413.456,394.864
		L413.456,394.864z"/>
	
		<linearGradient id="SVGID_5_" gradientUnits="userSpaceOnUse" x1="-7.6932" y1="607.567" x2="-7.6932" y2="547.285" gradientTransform="matrix(8 0 0 -8 455 4869)">
		<stop  offset="0" style="stop-color:#FC5C7D"/>
		<stop  offset="0.129" style="stop-color:#F35E85"/>
		<stop  offset="0.343" style="stop-color:#D9659B"/>
		<stop  offset="0.616" style="stop-color:#B070BF"/>
		<stop  offset="0.934" style="stop-color:#777FF0"/>
		<stop  offset="1" style="stop-color:#6A82FB"/>
	</linearGradient>
	<path style="fill:url(#SVGID_5_);" d="M370.744,297.376c-15.592,15.592-18.136,38.4-5.656,50.904
		c5.432,5.257,12.748,8.11,20.304,7.92c11.587-0.342,22.577-5.217,30.608-13.576c7.049-6.851,11.711-15.786,13.296-25.488
		c1.622-9.204-1.212-18.632-7.64-25.416C409.168,279.2,386.344,281.776,370.744,297.376L370.744,297.376z M413.456,314.864
		c-1.126,6.273-4.206,12.03-8.8,16.448c-9.192,9.2-22.152,11.792-28.288,5.656s-3.544-19.088,5.656-28.28
		c5.036-5.353,11.934-8.568,19.272-8.984c3.33-0.144,6.578,1.055,9.016,3.328C413.125,306.282,414.284,310.646,413.456,314.864
		L413.456,314.864z"/>
	
		<linearGradient id="SVGID_6_" gradientUnits="userSpaceOnUse" x1="-7.6932" y1="607.567" x2="-7.6932" y2="547.285" gradientTransform="matrix(8 0 0 -8 455 4869)">
		<stop  offset="0" style="stop-color:#FC5C7D"/>
		<stop  offset="0.129" style="stop-color:#F35E85"/>
		<stop  offset="0.343" style="stop-color:#D9659B"/>
		<stop  offset="0.616" style="stop-color:#B070BF"/>
		<stop  offset="0.934" style="stop-color:#777FF0"/>
		<stop  offset="1" style="stop-color:#6A82FB"/>
	</linearGradient>
	<path style="fill:url(#SVGID_6_);" d="M370.744,217.376c-15.592,15.592-18.136,38.4-5.656,50.904
		c5.432,5.257,12.748,8.11,20.304,7.92c11.587-0.342,22.577-5.217,30.608-13.576c7.049-6.851,11.711-15.786,13.296-25.488
		c1.622-9.204-1.212-18.632-7.64-25.416C409.168,199.2,386.344,201.784,370.744,217.376L370.744,217.376z M413.456,234.864
		c-1.126,6.273-4.206,12.03-8.8,16.448c-9.192,9.2-22.152,11.792-28.288,5.656s-3.544-19.088,5.656-28.28
		c5.036-5.353,11.934-8.568,19.272-8.984c3.33-0.144,6.578,1.055,9.016,3.328C413.125,226.282,414.284,230.646,413.456,234.864
		L413.456,234.864z"/>
	
		<linearGradient id="SVGID_7_" gradientUnits="userSpaceOnUse" x1="-7.6932" y1="607.567" x2="-7.6932" y2="547.285" gradientTransform="matrix(8 0 0 -8 455 4869)">
		<stop  offset="0" style="stop-color:#FC5C7D"/>
		<stop  offset="0.129" style="stop-color:#F35E85"/>
		<stop  offset="0.343" style="stop-color:#D9659B"/>
		<stop  offset="0.616" style="stop-color:#B070BF"/>
		<stop  offset="0.934" style="stop-color:#777FF0"/>
		<stop  offset="1" style="stop-color:#6A82FB"/>
	</linearGradient>
	<path style="fill:url(#SVGID_7_);" d="M370.744,137.376c-15.592,15.592-18.136,38.4-5.656,50.904
		c5.432,5.257,12.748,8.11,20.304,7.92c11.587-0.342,22.577-5.217,30.608-13.576c7.049-6.851,11.711-15.786,13.296-25.488
		c1.622-9.204-1.212-18.632-7.64-25.416C409.168,119.2,386.344,121.776,370.744,137.376L370.744,137.376z M413.456,154.864
		c-1.126,6.273-4.206,12.03-8.8,16.448c-9.192,9.2-22.152,11.792-28.288,5.656s-3.544-19.088,5.656-28.28
		c5.036-5.353,11.934-8.568,19.272-8.984c3.33-0.144,6.578,1.055,9.016,3.328C413.125,146.282,414.284,150.646,413.456,154.864
		L413.456,154.864z"/>
	
		<linearGradient id="SVGID_8_" gradientUnits="userSpaceOnUse" x1="-7.6932" y1="607.567" x2="-7.6932" y2="547.285" gradientTransform="matrix(8 0 0 -8 455 4869)">
		<stop  offset="0" style="stop-color:#FC5C7D"/>
		<stop  offset="0.129" style="stop-color:#F35E85"/>
		<stop  offset="0.343" style="stop-color:#D9659B"/>
		<stop  offset="0.616" style="stop-color:#B070BF"/>
		<stop  offset="0.934" style="stop-color:#777FF0"/>
		<stop  offset="1" style="stop-color:#6A82FB"/>
	</linearGradient>
	<path style="fill:url(#SVGID_8_);" d="M370.744,57.376c-15.592,15.592-18.136,38.4-5.656,50.904
		c5.432,5.257,12.748,8.11,20.304,7.92c11.587-0.342,22.577-5.217,30.608-13.576c7.049-6.851,11.711-15.786,13.296-25.488
		c1.622-9.204-1.212-18.632-7.64-25.416C409.168,39.24,386.344,41.784,370.744,57.376L370.744,57.376z M413.456,74.864
		c-1.126,6.273-4.206,12.03-8.8,16.448c-9.192,9.2-22.152,11.8-28.288,5.656s-3.544-19.088,5.656-28.28
		c5.036-5.353,11.934-8.568,19.272-8.984c3.33-0.144,6.578,1.055,9.016,3.328C413.125,66.282,414.284,70.646,413.456,74.864
		L413.456,74.864z"/>
	
		<linearGradient id="SVGID_9_" gradientUnits="userSpaceOnUse" x1="-17.875" y1="607.567" x2="-17.875" y2="547.285" gradientTransform="matrix(8 0 0 -8 455 4869)">
		<stop  offset="0" style="stop-color:#FC5C7D"/>
		<stop  offset="0.129" style="stop-color:#F35E85"/>
		<stop  offset="0.343" style="stop-color:#D9659B"/>
		<stop  offset="0.616" style="stop-color:#B070BF"/>
		<stop  offset="0.934" style="stop-color:#777FF0"/>
		<stop  offset="1" style="stop-color:#6A82FB"/>
	</linearGradient>
	<path style="fill:url(#SVGID_9_);" d="M304,424h16v16h-16V424z"/>
</g>
<g>
</g>
<g>
</g>
<g>
</g>
<g>
</g>
<g>
</g>
<g>
</g>
<g>
</g>
<g>
</g>
<g>
</g>
<g>
</g>
<g>
</g>
<g>
</g>
<g>
</g>
<g>
</g>
<g>
</g>
</svg>
