<?xml version="1.0" encoding="iso-8859-1"?>
<!-- Generator: Adobe Illustrator 19.0.0, SVG Export Plug-In . SVG Version: 6.00 Build 0)  -->
<svg version="1.1" id="Capa_1" xmlns="http://www.w3.org/2000/svg" xmlns:xlink="http://www.w3.org/1999/xlink" x="0px" y="0px"
	 viewBox="0 0 480.016 480.016" style="enable-background:new 0 0 480.016 480.016;" xml:space="preserve">
<g>
	
		<linearGradient id="SVGID_1_" gradientUnits="userSpaceOnUse" x1="-17.082" y1="620.181" x2="-17.082" y2="556.355" gradientTransform="matrix(8 0 0 -8 473.7598 4941)">
		<stop  offset="0" style="stop-color:#FC5C7D"/>
		<stop  offset="0.129" style="stop-color:#F35E85"/>
		<stop  offset="0.343" style="stop-color:#D9659B"/>
		<stop  offset="0.616" style="stop-color:#B070BF"/>
		<stop  offset="0.934" style="stop-color:#777FF0"/>
		<stop  offset="1" style="stop-color:#6A82FB"/>
	</linearGradient>
	<path style="fill:url(#SVGID_1_);" d="M472.424,313.976l-22.232-9.36l-8.248-19.896l9.12-22.4c1.213-2.98,0.523-6.397-1.752-8.672
		l-26.072-26.064c-2.275-2.275-5.692-2.965-8.672-1.752l-22.4,9.12l-19.904-8.248l-9.344-22.232
		c-1.249-2.968-4.156-4.897-7.376-4.896h-36.872c-3.222,0-6.129,1.933-7.376,4.904l-9.36,22.224l-19.896,8.248l-22.4-9.12
		c-2.98-1.213-6.397-0.523-8.672,1.752l-26.072,26.072c-2.275,2.275-2.965,5.692-1.752,8.672l9.12,22.4l-8.248,19.896l-22.224,9.36
		c-2.971,1.247-4.904,4.154-4.904,7.376v36.864c-0.001,3.22,1.928,6.127,4.896,7.376l22.232,9.36l8.248,19.904l-9.12,22.4
		c-1.213,2.98-0.523,6.397,1.752,8.672L250.976,452c2.275,2.275,5.692,2.965,8.672,1.752l22.4-9.112l19.896,8.24l9.36,22.24
		c1.249,2.968,4.156,4.897,7.376,4.896h36.864c3.218,0.002,6.124-1.923,7.376-4.888l9.36-22.24l19.904-8.248l22.4,9.12
		c2.977,1.204,6.385,0.511,8.656-1.76l26.08-26.08c2.275-2.275,2.965-5.692,1.752-8.672l-9.112-22.4l8.24-19.904l22.24-9.36
		c2.959-1.253,4.881-4.155,4.88-7.368v-36.864C477.321,318.132,475.392,315.225,472.424,313.976L472.424,313.976z M461.32,352.904
		l-20.368,8.584c-1.941,0.817-3.482,2.366-4.288,4.312l-10.76,25.984c-0.796,1.943-0.796,4.121,0,6.064l8.328,20.552l-18.512,18.52
		l-20.52-8.352c-1.947-0.792-4.125-0.792-6.072,0l-25.976,10.768c-1.944,0.804-3.493,2.342-4.312,4.28L350.224,464h-26.24
		l-8.568-20.368c-0.817-1.941-2.366-3.482-4.312-4.288l-25.984-10.76c-1.945-0.798-4.127-0.798-6.072,0l-20.52,8.344L239.976,418.4
		l8.352-20.52c0.804-1.944,0.804-4.128,0-6.072l-10.768-25.976c-0.804-1.944-2.342-3.493-4.28-4.312l-20.368-8.584v-26.24
		l20.36-8.568c1.941-0.817,3.482-2.366,4.288-4.312l10.768-25.976c0.8-1.948,0.8-4.132,0-6.08l-8.352-20.52l18.552-18.552
		l20.52,8.352c1.945,0.812,4.135,0.812,6.08,0l25.976-10.768c1.946-0.806,3.495-2.347,4.312-4.288l8.568-20.36h26.24l8.584,20.368
		c0.819,1.938,2.368,3.476,4.312,4.28l25.976,10.768c1.943,0.808,4.129,0.808,6.072,0l20.552-8.384l18.552,18.552l-8.352,20.52
		c-0.8,1.948-0.8,4.132,0,6.08l10.768,25.976c0.806,1.946,2.347,3.495,4.288,4.312l20.344,8.568V352.904z"/>
	
		<linearGradient id="SVGID_2_" gradientUnits="userSpaceOnUse" x1="-17.081" y1="620.181" x2="-17.081" y2="556.355" gradientTransform="matrix(8 0 0 -8 473.7598 4941)">
		<stop  offset="0" style="stop-color:#FC5C7D"/>
		<stop  offset="0.129" style="stop-color:#F35E85"/>
		<stop  offset="0.343" style="stop-color:#D9659B"/>
		<stop  offset="0.616" style="stop-color:#B070BF"/>
		<stop  offset="0.934" style="stop-color:#777FF0"/>
		<stop  offset="1" style="stop-color:#6A82FB"/>
	</linearGradient>
	<path style="fill:url(#SVGID_2_);" d="M337.112,259.792c-44.183,0-80,35.817-80,80s35.817,80,80,80s80-35.817,80-80
		C417.064,295.629,381.275,259.84,337.112,259.792z M337.112,403.792c-35.346,0-64-28.654-64-64s28.654-64,64-64s64,28.654,64,64
		C401.072,375.122,372.442,403.752,337.112,403.792z"/>
	
		<linearGradient id="SVGID_3_" gradientUnits="userSpaceOnUse" x1="-17.081" y1="620.181" x2="-17.081" y2="556.355" gradientTransform="matrix(8 0 0 -8 473.7598 4941)">
		<stop  offset="0" style="stop-color:#FC5C7D"/>
		<stop  offset="0.129" style="stop-color:#F35E85"/>
		<stop  offset="0.343" style="stop-color:#D9659B"/>
		<stop  offset="0.616" style="stop-color:#B070BF"/>
		<stop  offset="0.934" style="stop-color:#777FF0"/>
		<stop  offset="1" style="stop-color:#6A82FB"/>
	</linearGradient>
	<path style="fill:url(#SVGID_3_);" d="M329.112,331.792h16v16h-16V331.792z"/>
</g>
<g>
	
		<linearGradient id="SVGID_4_" gradientUnits="userSpaceOnUse" x1="-21.081" y1="620.181" x2="-21.081" y2="556.355" gradientTransform="matrix(8 0 0 -8 473.7598 4941)">
		<stop  offset="0" style="stop-color:#FC5C7D"/>
		<stop  offset="0.129" style="stop-color:#F35E85"/>
		<stop  offset="0.343" style="stop-color:#D9659B"/>
		<stop  offset="0.616" style="stop-color:#B070BF"/>
		<stop  offset="0.934" style="stop-color:#777FF0"/>
		<stop  offset="1" style="stop-color:#6A82FB"/>
	</linearGradient>
	<path style="fill:url(#SVGID_4_);" d="M297.112,331.792h16v16h-16V331.792z"/>
	
		<linearGradient id="SVGID_5_" gradientUnits="userSpaceOnUse" x1="-13.081" y1="620.181" x2="-13.081" y2="556.355" gradientTransform="matrix(8 0 0 -8 473.7598 4941)">
		<stop  offset="0" style="stop-color:#FC5C7D"/>
		<stop  offset="0.129" style="stop-color:#F35E85"/>
		<stop  offset="0.343" style="stop-color:#D9659B"/>
		<stop  offset="0.616" style="stop-color:#B070BF"/>
		<stop  offset="0.934" style="stop-color:#777FF0"/>
		<stop  offset="1" style="stop-color:#6A82FB"/>
	</linearGradient>
	<path style="fill:url(#SVGID_5_);" d="M361.112,331.792h16v16h-16V331.792z"/>
	
		<linearGradient id="SVGID_6_" gradientUnits="userSpaceOnUse" x1="-29.9685" y1="620.181" x2="-29.9685" y2="556.355" gradientTransform="matrix(8 0 0 -8 473.7598 4941)">
		<stop  offset="0" style="stop-color:#FC5C7D"/>
		<stop  offset="0.129" style="stop-color:#F35E85"/>
		<stop  offset="0.343" style="stop-color:#D9659B"/>
		<stop  offset="0.616" style="stop-color:#B070BF"/>
		<stop  offset="0.934" style="stop-color:#777FF0"/>
		<stop  offset="1" style="stop-color:#6A82FB"/>
	</linearGradient>
	<path style="fill:url(#SVGID_6_);" d="M317.44,38.96l-15.08-15.08c-2.117-2.115-5.238-2.871-8.088-1.96l-22.68,7.248l-8.912-3.696
		L251.792,4.336C250.42,1.673,247.676,0,244.68,0h-21.336c-2.995,0-5.74,1.673-7.112,4.336L205.32,25.472l-8.904,3.696
		l-22.648-7.248c-2.853-0.914-5.977-0.158-8.096,1.96l-15.088,15.08c-2.115,2.117-2.871,5.238-1.96,8.088l7.24,22.68l-3.696,8.912
		L131.04,89.528c-2.663,1.372-4.336,4.117-4.336,7.112v21.336c0,2.995,1.673,5.74,4.336,7.112L152.168,136l3.696,8.904l-7.24,22.672
		c-0.914,2.853-0.158,5.977,1.96,8.096l15.08,15.088c2.117,2.115,5.238,2.871,8.088,1.96l22.68-7.24l8.888,3.672l10.888,21.128
		c1.372,2.663,4.117,4.336,7.112,4.336h21.36c2.995,0,5.74-1.673,7.112-4.336l10.888-21.128l8.912-3.696l22.68,7.24
		c2.85,0.911,5.971,0.155,8.088-1.96l15.08-15.08c2.115-2.117,2.871-5.238,1.96-8.088l-7.248-22.68l3.696-8.888l21.136-10.888
		c2.671-1.376,4.345-4.132,4.336-7.136V96.64c0-2.995-1.673-5.74-4.336-7.112L315.848,78.64l-3.696-8.912l7.248-22.68
		C320.311,44.198,319.555,41.077,317.44,38.96L317.44,38.96z M325.32,101.512v11.592l-19.408,10c-1.682,0.866-3.003,2.3-3.728,4.048
		l-5.928,14.32c-0.724,1.745-0.804,3.69-0.224,5.488l6.648,20.8l-8.192,8.24l-20.8-6.648c-1.801-0.577-3.748-0.498-5.496,0.224
		l-14.32,5.936c-1.743,0.724-3.174,2.042-4.04,3.72l-10,19.408h-11.616l-10-19.44c-0.864-1.682-2.299-3.001-4.048-3.72l-14.32-5.936
		c-1.745-0.724-3.69-0.804-5.488-0.224l-20.8,6.648l-8.24-8.184l6.648-20.8c0.577-1.801,0.498-3.748-0.224-5.496l-5.936-14.32
		c-0.719-1.749-2.038-3.184-3.72-4.048l-19.408-10v-11.608l19.408-10c1.678-0.866,2.996-2.297,3.72-4.04l5.936-14.32
		c0.722-1.748,0.801-3.695,0.224-5.496l-6.648-20.824l8.216-8.192l20.8,6.648c1.8,0.584,3.749,0.504,5.496-0.224l14.32-5.928
		c1.748-0.725,3.182-2.046,4.048-3.728L228.216,16h11.592l10,19.408c0.864,1.681,2.295,3.002,4.04,3.728l14.32,5.928
		c1.747,0.728,3.696,0.808,5.496,0.224l20.8-6.648l8.216,8.192l-6.648,20.8c-0.577,1.801-0.498,3.748,0.224,5.496l5.928,14.32
		c0.726,1.745,2.047,3.176,3.728,4.04L325.32,101.512z"/>
	
		<linearGradient id="SVGID_7_" gradientUnits="userSpaceOnUse" x1="-46.719" y1="620.181" x2="-46.719" y2="556.355" gradientTransform="matrix(8 0 0 -8 473.7598 4941)">
		<stop  offset="0" style="stop-color:#FC5C7D"/>
		<stop  offset="0.129" style="stop-color:#F35E85"/>
		<stop  offset="0.343" style="stop-color:#D9659B"/>
		<stop  offset="0.616" style="stop-color:#B070BF"/>
		<stop  offset="0.934" style="stop-color:#777FF0"/>
		<stop  offset="1" style="stop-color:#6A82FB"/>
	</linearGradient>
	<path style="fill:url(#SVGID_7_);" d="M197.32,278.192c-0.003-2.993-1.676-5.733-4.336-7.104l-20.856-10.752l-2.488-5.984
		l7.152-22.4c0.912-2.854,0.152-5.979-1.968-8.096l-12-12c-2.119-2.118-5.243-2.874-8.096-1.96l-22.4,7.152l-5.992-2.48
		l-10.752-20.864c-1.372-2.663-4.117-4.336-7.112-4.336h-16.96c-2.993,0.003-5.733,1.676-7.104,4.336l-10.76,20.864l-5.984,2.48
		l-22.344-7.144c-2.855-0.917-5.984-0.161-8.104,1.96l-12,12c-2.144,2.12-2.914,5.265-1.992,8.136l7.152,22.4l-2.48,5.984
		L7.032,271.088c-2.66,1.371-4.333,4.111-4.336,7.104V295.2c0,2.995,1.673,5.74,4.336,7.112l20.864,10.728l2.48,5.992l-7.152,22.4
		c-0.914,2.853-0.158,5.977,1.96,8.096l12,12c2.13,2.127,5.274,2.878,8.136,1.944l22.4-7.152l5.984,2.488l10.752,20.856
		c1.371,2.66,4.111,4.333,7.104,4.336h16.96c2.995,0,5.74-1.673,7.112-4.336l10.752-20.856l5.992-2.488l22.4,7.152
		c2.853,0.914,5.977,0.158,8.096-1.96l12-12c2.12-2.117,2.88-5.242,1.968-8.096l-7.152-22.4l2.488-5.992l20.856-10.752
		c2.631-1.378,4.283-4.101,4.288-7.072V278.192z M181.32,290.304l-19.136,9.864c-1.684,0.861-3.004,2.297-3.72,4.048l-4.72,11.392
		c-0.727,1.749-0.809,3.7-0.232,5.504l6.56,20.52l-5.12,5.12l-20.52-6.56c-1.803-0.585-3.757-0.503-5.504,0.232l-11.392,4.72
		c-1.751,0.716-3.187,2.036-4.048,3.72L103.624,368h-7.2l-9.864-19.136c-0.861-1.684-2.297-3.004-4.048-3.72l-11.4-4.72
		c-1.745-0.735-3.696-0.817-5.496-0.232l-20.52,6.56l-5.12-5.12l6.56-20.52c0.581-1.806,0.502-3.759-0.224-5.512l-4.728-11.392
		c-0.726-1.745-2.047-3.176-3.728-4.04l-19.16-9.864v-7.2l19.128-9.864c1.681-0.864,3.002-2.295,3.728-4.04l4.728-11.4
		c0.729-1.749,0.808-3.701,0.224-5.504l-6.56-20.52l5.12-5.12l20.52,6.56c1.803,0.583,3.755,0.504,5.504-0.224l11.4-4.728
		c1.73-0.734,3.146-2.054,4-3.728l9.864-19.128h7.2l9.864,19.128c0.854,1.674,2.27,2.994,4,3.728l11.392,4.728
		c1.753,0.726,3.706,0.805,5.512,0.224l20.52-6.56l5.12,5.12l-6.56,20.52c-0.575,1.802-0.493,3.749,0.232,5.496l4.72,11.4
		c0.716,1.751,2.036,3.187,3.72,4.048l19.248,9.832V290.304z"/>
	
		<linearGradient id="SVGID_8_" gradientUnits="userSpaceOnUse" x1="-29.968" y1="620.181" x2="-29.968" y2="556.355" gradientTransform="matrix(8 0 0 -8 473.7598 4941)">
		<stop  offset="0" style="stop-color:#FC5C7D"/>
		<stop  offset="0.129" style="stop-color:#F35E85"/>
		<stop  offset="0.343" style="stop-color:#D9659B"/>
		<stop  offset="0.616" style="stop-color:#B070BF"/>
		<stop  offset="0.934" style="stop-color:#777FF0"/>
		<stop  offset="1" style="stop-color:#6A82FB"/>
	</linearGradient>
	<path style="fill:url(#SVGID_8_);" d="M234.016,51.304c-30.928,0-56,25.072-56,56s25.072,56,56,56s56-25.072,56-56c0,0,0,0,0,0
		C289.976,76.393,264.928,51.344,234.016,51.304L234.016,51.304z M234.016,147.304c-22.091,0-40-17.909-40-40s17.909-40,40-40
		s40,17.909,40,40c0,0,0,0,0,0C273.99,129.384,256.096,147.278,234.016,147.304L234.016,147.304z"/>
	
		<linearGradient id="SVGID_9_" gradientUnits="userSpaceOnUse" x1="-31.968" y1="620.181" x2="-31.968" y2="556.355" gradientTransform="matrix(8 0 0 -8 473.7598 4941)">
		<stop  offset="0" style="stop-color:#FC5C7D"/>
		<stop  offset="0.129" style="stop-color:#F35E85"/>
		<stop  offset="0.343" style="stop-color:#D9659B"/>
		<stop  offset="0.616" style="stop-color:#B070BF"/>
		<stop  offset="0.934" style="stop-color:#777FF0"/>
		<stop  offset="1" style="stop-color:#6A82FB"/>
	</linearGradient>
	<path style="fill:url(#SVGID_9_);" d="M210.016,99.304h16v16h-16V99.304z"/>
	
		<linearGradient id="SVGID_10_" gradientUnits="userSpaceOnUse" x1="-27.968" y1="620.181" x2="-27.968" y2="556.355" gradientTransform="matrix(8 0 0 -8 473.7598 4941)">
		<stop  offset="0" style="stop-color:#FC5C7D"/>
		<stop  offset="0.129" style="stop-color:#F35E85"/>
		<stop  offset="0.343" style="stop-color:#D9659B"/>
		<stop  offset="0.616" style="stop-color:#B070BF"/>
		<stop  offset="0.934" style="stop-color:#777FF0"/>
		<stop  offset="1" style="stop-color:#6A82FB"/>
	</linearGradient>
	<path style="fill:url(#SVGID_10_);" d="M242.016,99.304h16v16h-16V99.304z"/>
	
		<linearGradient id="SVGID_11_" gradientUnits="userSpaceOnUse" x1="-46.719" y1="620.181" x2="-46.719" y2="556.355" gradientTransform="matrix(8 0 0 -8 473.7598 4941)">
		<stop  offset="0" style="stop-color:#FC5C7D"/>
		<stop  offset="0.129" style="stop-color:#F35E85"/>
		<stop  offset="0.343" style="stop-color:#D9659B"/>
		<stop  offset="0.616" style="stop-color:#B070BF"/>
		<stop  offset="0.934" style="stop-color:#777FF0"/>
		<stop  offset="1" style="stop-color:#6A82FB"/>
	</linearGradient>
	<path style="fill:url(#SVGID_11_);" d="M100.008,246.688c-22.091,0-40,17.909-40,40s17.909,40,40,40s40-17.909,40-40
		C139.982,264.608,122.088,246.714,100.008,246.688z M100.008,310.688c-13.255,0-24-10.745-24-24s10.745-24,24-24s24,10.745,24,24
		S113.263,310.688,100.008,310.688z"/>
	
		<linearGradient id="SVGID_12_" gradientUnits="userSpaceOnUse" x1="-46.719" y1="620.181" x2="-46.719" y2="556.355" gradientTransform="matrix(8 0 0 -8 473.7598 4941)">
		<stop  offset="0" style="stop-color:#FC5C7D"/>
		<stop  offset="0.129" style="stop-color:#F35E85"/>
		<stop  offset="0.343" style="stop-color:#D9659B"/>
		<stop  offset="0.616" style="stop-color:#B070BF"/>
		<stop  offset="0.934" style="stop-color:#777FF0"/>
		<stop  offset="1" style="stop-color:#6A82FB"/>
	</linearGradient>
	<path style="fill:url(#SVGID_12_);" d="M92.008,278.688h16v16h-16V278.688z"/>
	
		<linearGradient id="SVGID_13_" gradientUnits="userSpaceOnUse" x1="-9.5615" y1="620.181" x2="-9.5615" y2="556.355" gradientTransform="matrix(8 0 0 -8 473.7598 4941)">
		<stop  offset="0" style="stop-color:#FC5C7D"/>
		<stop  offset="0.129" style="stop-color:#F35E85"/>
		<stop  offset="0.343" style="stop-color:#D9659B"/>
		<stop  offset="0.616" style="stop-color:#B070BF"/>
		<stop  offset="0.934" style="stop-color:#777FF0"/>
		<stop  offset="1" style="stop-color:#6A82FB"/>
	</linearGradient>
	<path style="fill:url(#SVGID_13_);" d="M418.776,209.32l15.776-2.64c-7.594-44.7-30.119-85.505-63.896-115.752l-10.672,11.92
		C391.056,130.67,411.781,168.203,418.776,209.32z"/>
	
		<linearGradient id="SVGID_14_" gradientUnits="userSpaceOnUse" x1="-49.1405" y1="620.181" x2="-49.1405" y2="556.355" gradientTransform="matrix(8 0 0 -8 473.7598 4941)">
		<stop  offset="0" style="stop-color:#FC5C7D"/>
		<stop  offset="0.129" style="stop-color:#F35E85"/>
		<stop  offset="0.343" style="stop-color:#D9659B"/>
		<stop  offset="0.616" style="stop-color:#B070BF"/>
		<stop  offset="0.934" style="stop-color:#777FF0"/>
		<stop  offset="1" style="stop-color:#6A82FB"/>
	</linearGradient>
	<path style="fill:url(#SVGID_14_);" d="M45.656,182.696l15.328,4.576c9.865-32.98,28.794-62.526,54.632-85.272l-10.592-12
		C76.946,114.731,56.376,146.848,45.656,182.696z"/>
	
		<linearGradient id="SVGID_15_" gradientUnits="userSpaceOnUse" x1="-38.8635" y1="620.181" x2="-38.8635" y2="556.355" gradientTransform="matrix(8 0 0 -8 473.7598 4941)">
		<stop  offset="0" style="stop-color:#FC5C7D"/>
		<stop  offset="0.129" style="stop-color:#F35E85"/>
		<stop  offset="0.343" style="stop-color:#D9659B"/>
		<stop  offset="0.616" style="stop-color:#B070BF"/>
		<stop  offset="0.934" style="stop-color:#777FF0"/>
		<stop  offset="1" style="stop-color:#6A82FB"/>
	</linearGradient>
	<path style="fill:url(#SVGID_15_);" d="M126.728,406.664c20.931,13.951,44.326,23.79,68.936,28.992L198.976,420
		c-22.631-4.787-44.144-13.836-63.392-26.664L126.728,406.664z"/>
</g>
<g>
</g>
<g>
</g>
<g>
</g>
<g>
</g>
<g>
</g>
<g>
</g>
<g>
</g>
<g>
</g>
<g>
</g>
<g>
</g>
<g>
</g>
<g>
</g>
<g>
</g>
<g>
</g>
<g>
</g>
</svg>
