<?xml version="1.0" encoding="iso-8859-1"?>
<!-- Generator: Adobe Illustrator 19.0.0, SVG Export Plug-In . SVG Version: 6.00 Build 0)  -->
<svg version="1.1" id="Capa_1" xmlns="http://www.w3.org/2000/svg" xmlns:xlink="http://www.w3.org/1999/xlink" x="0px" y="0px"
	 viewBox="0 0 480 480" style="enable-background:new 0 0 480 480;" xml:space="preserve">
<linearGradient id="SVGID_1_" gradientUnits="userSpaceOnUse" x1="-28.875" y1="616.099" x2="-28.875" y2="557.405" gradientTransform="matrix(8 0 0 -8 455 4941)">
	<stop  offset="0" style="stop-color:#FC5C7D"/>
	<stop  offset="0.129" style="stop-color:#F35E85"/>
	<stop  offset="0.343" style="stop-color:#D9659B"/>
	<stop  offset="0.616" style="stop-color:#B070BF"/>
	<stop  offset="0.934" style="stop-color:#777FF0"/>
	<stop  offset="1" style="stop-color:#6A82FB"/>
</linearGradient>
<path style="fill:url(#SVGID_1_);" d="M216,32h16v16h-16V32z"/>
<g>
	
		<linearGradient id="SVGID_2_" gradientUnits="userSpaceOnUse" x1="-24.875" y1="616.099" x2="-24.875" y2="557.405" gradientTransform="matrix(8 0 0 -8 455 4941)">
		<stop  offset="0" style="stop-color:#FC5C7D"/>
		<stop  offset="0.129" style="stop-color:#F35E85"/>
		<stop  offset="0.343" style="stop-color:#D9659B"/>
		<stop  offset="0.616" style="stop-color:#B070BF"/>
		<stop  offset="0.934" style="stop-color:#777FF0"/>
		<stop  offset="1" style="stop-color:#6A82FB"/>
	</linearGradient>
	<path style="fill:url(#SVGID_2_);" d="M248,32h16v16h-16V32z"/>
	
		<linearGradient id="SVGID_3_" gradientUnits="userSpaceOnUse" x1="-26.875" y1="616.099" x2="-26.875" y2="557.405" gradientTransform="matrix(8 0 0 -8 455 4941)">
		<stop  offset="0" style="stop-color:#FC5C7D"/>
		<stop  offset="0.129" style="stop-color:#F35E85"/>
		<stop  offset="0.343" style="stop-color:#D9659B"/>
		<stop  offset="0.616" style="stop-color:#B070BF"/>
		<stop  offset="0.934" style="stop-color:#777FF0"/>
		<stop  offset="1" style="stop-color:#6A82FB"/>
	</linearGradient>
	<path style="fill:url(#SVGID_3_);" d="M120,480h240c17.673,0,32-14.327,32-32V32c0-17.673-14.327-32-32-32H120
		c-17.673,0-32,14.327-32,32v416C88,465.673,102.327,480,120,480z M360,464H120c-8.837,0-16-7.163-16-16v-32h272v32
		C376,456.837,368.837,464,360,464z M104,400V80h272v320H104z M120,16h240c8.837,0,16,7.163,16,16v32H104V32
		C104,23.163,111.163,16,120,16z"/>
	
		<linearGradient id="SVGID_4_" gradientUnits="userSpaceOnUse" x1="-26.878" y1="616.099" x2="-26.878" y2="557.405" gradientTransform="matrix(8 0 0 -8 455 4941)">
		<stop  offset="0" style="stop-color:#FC5C7D"/>
		<stop  offset="0.129" style="stop-color:#F35E85"/>
		<stop  offset="0.343" style="stop-color:#D9659B"/>
		<stop  offset="0.616" style="stop-color:#B070BF"/>
		<stop  offset="0.934" style="stop-color:#777FF0"/>
		<stop  offset="1" style="stop-color:#6A82FB"/>
	</linearGradient>
	<path style="fill:url(#SVGID_4_);" d="M349.112,121.84c-1.838-1.514-4.251-2.138-6.592-1.704L215.256,144H176
		c-8.837,0-16,7.163-16,16v0.8c-21.65,4.396-35.636,25.51-31.24,47.16c3.196,15.741,15.499,28.044,31.24,31.24v0.8
		c0,8.837,7.163,16,16,16v80c0,13.255,10.745,24,24,24s24-10.745,24-24v-48h24c4.418,0,8-3.582,8-8v-16.36l86.52,16.224
		c0.488,0.089,0.984,0.134,1.48,0.136c4.418,0,8-3.582,8-8V128C352.002,125.619,350.943,123.361,349.112,121.84z M176,160h32v80h-32
		V160z M144,200c0.012-10.168,6.418-19.229,16-22.632v45.264C150.418,219.229,144.012,210.168,144,200L144,200z M208,256v48h-16v-48
		H208z M200,344c-4.418,0-8-3.582-8-8v-16h16v16C208,340.418,204.418,344,200,344z M240,272h-16v-14.4l16,3V272z M336,262.4
		l-112-21.04v-82.72l112-21.04V262.4z"/>
	
		<linearGradient id="SVGID_5_" gradientUnits="userSpaceOnUse" x1="-26.875" y1="616.099" x2="-26.875" y2="557.405" gradientTransform="matrix(8 0 0 -8 455 4941)">
		<stop  offset="0" style="stop-color:#FC5C7D"/>
		<stop  offset="0.129" style="stop-color:#F35E85"/>
		<stop  offset="0.343" style="stop-color:#D9659B"/>
		<stop  offset="0.616" style="stop-color:#B070BF"/>
		<stop  offset="0.934" style="stop-color:#777FF0"/>
		<stop  offset="1" style="stop-color:#6A82FB"/>
	</linearGradient>
	<path style="fill:url(#SVGID_5_);" d="M232,432h16v16h-16V432z"/>
</g>
<g>
</g>
<g>
</g>
<g>
</g>
<g>
</g>
<g>
</g>
<g>
</g>
<g>
</g>
<g>
</g>
<g>
</g>
<g>
</g>
<g>
</g>
<g>
</g>
<g>
</g>
<g>
</g>
<g>
</g>
</svg>
