<?xml version="1.0" encoding="iso-8859-1"?>
<!-- Generator: Adobe Illustrator 19.0.0, SVG Export Plug-In . SVG Version: 6.00 Build 0)  -->
<svg version="1.1" id="Capa_1" xmlns="http://www.w3.org/2000/svg" xmlns:xlink="http://www.w3.org/1999/xlink" x="0px" y="0px"
	 viewBox="0 0 480 480" style="enable-background:new 0 0 480 480;" xml:space="preserve">
<linearGradient id="SVGID_1_" gradientUnits="userSpaceOnUse" x1="-23.3497" y1="620.181" x2="-23.3497" y2="556.355" gradientTransform="matrix(8 0 0 -8 426.7979 4941)">
	<stop  offset="0" style="stop-color:#FC5C7D"/>
	<stop  offset="0.129" style="stop-color:#F35E85"/>
	<stop  offset="0.343" style="stop-color:#D9659B"/>
	<stop  offset="0.616" style="stop-color:#B070BF"/>
	<stop  offset="0.934" style="stop-color:#777FF0"/>
	<stop  offset="1" style="stop-color:#6A82FB"/>
</linearGradient>
<path style="fill:url(#SVGID_1_);" d="M36.029,480h320c17.673,0,32-14.327,32-32V280.496l85.6-85.6
	c3.123-3.124,3.123-8.188,0-11.312l-45.248-45.256c-3.122-3.126-8.188-3.129-11.314-0.006c-0.002,0.002-0.004,0.004-0.006,0.006
	l-29.032,29.032V88c0-0.176-0.088-0.328-0.104-0.504c-0.04-0.701-0.177-1.393-0.408-2.056c-0.088-0.256-0.152-0.504-0.264-0.752
	c-0.387-0.872-0.929-1.666-1.6-2.344l-80-80c-0.693-0.678-1.507-1.221-2.4-1.6c-0.232-0.104-0.456-0.168-0.688-0.248
	c-0.698-0.247-1.428-0.393-2.168-0.432C300.317,0.08,300.181,0,300.029,0h-256c-4.418,0-8,3.582-8,8v400h-24c-4.418,0-8,3.582-8,8
	v32C4.029,465.673,18.356,480,36.029,480L36.029,480z M303.909,341.992l-11.312-11.312l96.168-96.176l11.32,11.32L303.909,341.992z
	 M366.133,211.88l11.32,11.32l-96.168,96.16l-11.312-11.312L366.133,211.88z M388.765,189.248l33.936,33.952l-11.312,11.304
	l-33.936-33.936l5.656-5.656L388.765,189.248z M262.157,322.848l26.944,26.952l-40.424,13.48L262.157,322.848z M422.701,155.312
	l33.944,33.944l-22.624,22.632l-33.944-33.952L422.701,155.312z M360.717,80h-52.688V27.312L360.717,80z M52.029,16h240v72
	c0,4.418,3.582,8,8,8h72v87.36l-0.232,0.24L253.005,302.4c-0.064,0.056-0.072,0.144-0.128,0.2c-0.807,0.831-1.424,1.827-1.808,2.92
	l-22.632,67.888c-1.392,4.193,0.879,8.721,5.073,10.113c0.813,0.27,1.663,0.407,2.519,0.407c0.86,0.004,1.715-0.137,2.528-0.416
	l67.872-22.624c1.092-0.378,2.086-0.992,2.912-1.8c0.064-0.056,0.152-0.072,0.208-0.128l62.48-62.464V448c0,8.837-7.163,16-16,16
	s-16-7.163-16-16v-32c0-4.418-3.582-8-8-8h-280V16z M20.029,424h304v24c-0.009,5.619,1.474,11.141,4.296,16H36.029
	c-8.837,0-16-7.163-16-16V424z"/>
<g>
	
		<linearGradient id="SVGID_2_" gradientUnits="userSpaceOnUse" x1="-32.8461" y1="620.181" x2="-32.8461" y2="556.355" gradientTransform="matrix(8 0 0 -8 426.7979 4941)">
		<stop  offset="0" style="stop-color:#FC5C7D"/>
		<stop  offset="0.129" style="stop-color:#F35E85"/>
		<stop  offset="0.343" style="stop-color:#D9659B"/>
		<stop  offset="0.616" style="stop-color:#B070BF"/>
		<stop  offset="0.934" style="stop-color:#777FF0"/>
		<stop  offset="1" style="stop-color:#6A82FB"/>
	</linearGradient>
	<path style="fill:url(#SVGID_2_);" d="M252.029,112h-16V64h-16v48h-16V48h-16v64h-16V40h-16v72h-16V64h-16v48h-16V80h-16v32h-16v16
		h176V112z"/>
	
		<linearGradient id="SVGID_3_" gradientUnits="userSpaceOnUse" x1="-42.8461" y1="620.181" x2="-42.8461" y2="556.355" gradientTransform="matrix(8 0 0 -8 426.7979 4941)">
		<stop  offset="0" style="stop-color:#FC5C7D"/>
		<stop  offset="0.129" style="stop-color:#F35E85"/>
		<stop  offset="0.343" style="stop-color:#D9659B"/>
		<stop  offset="0.616" style="stop-color:#B070BF"/>
		<stop  offset="0.934" style="stop-color:#777FF0"/>
		<stop  offset="1" style="stop-color:#6A82FB"/>
	</linearGradient>
	<path style="fill:url(#SVGID_3_);" d="M76.029,152h16v16h-16V152z"/>
	
		<linearGradient id="SVGID_4_" gradientUnits="userSpaceOnUse" x1="-24.8461" y1="620.181" x2="-24.8461" y2="556.355" gradientTransform="matrix(8 0 0 -8 426.7979 4941)">
		<stop  offset="0" style="stop-color:#FC5C7D"/>
		<stop  offset="0.129" style="stop-color:#F35E85"/>
		<stop  offset="0.343" style="stop-color:#D9659B"/>
		<stop  offset="0.616" style="stop-color:#B070BF"/>
		<stop  offset="0.934" style="stop-color:#777FF0"/>
		<stop  offset="1" style="stop-color:#6A82FB"/>
	</linearGradient>
	<path style="fill:url(#SVGID_4_);" d="M108.029,152h240v16h-240V152z"/>
	
		<linearGradient id="SVGID_5_" gradientUnits="userSpaceOnUse" x1="-27.8461" y1="620.181" x2="-27.8461" y2="556.355" gradientTransform="matrix(8 0 0 -8 426.7979 4941)">
		<stop  offset="0" style="stop-color:#FC5C7D"/>
		<stop  offset="0.129" style="stop-color:#F35E85"/>
		<stop  offset="0.343" style="stop-color:#D9659B"/>
		<stop  offset="0.616" style="stop-color:#B070BF"/>
		<stop  offset="0.934" style="stop-color:#777FF0"/>
		<stop  offset="1" style="stop-color:#6A82FB"/>
	</linearGradient>
	<path style="fill:url(#SVGID_5_);" d="M76.029,184h256v16h-256V184z"/>
	
		<linearGradient id="SVGID_6_" gradientUnits="userSpaceOnUse" x1="-29.8461" y1="620.181" x2="-29.8461" y2="556.355" gradientTransform="matrix(8 0 0 -8 426.7979 4941)">
		<stop  offset="0" style="stop-color:#FC5C7D"/>
		<stop  offset="0.129" style="stop-color:#F35E85"/>
		<stop  offset="0.343" style="stop-color:#D9659B"/>
		<stop  offset="0.616" style="stop-color:#B070BF"/>
		<stop  offset="0.934" style="stop-color:#777FF0"/>
		<stop  offset="1" style="stop-color:#6A82FB"/>
	</linearGradient>
	<path style="fill:url(#SVGID_6_);" d="M76.029,216h224v16h-224V216z"/>
	
		<linearGradient id="SVGID_7_" gradientUnits="userSpaceOnUse" x1="-31.8461" y1="620.181" x2="-31.8461" y2="556.355" gradientTransform="matrix(8 0 0 -8 426.7979 4941)">
		<stop  offset="0" style="stop-color:#FC5C7D"/>
		<stop  offset="0.129" style="stop-color:#F35E85"/>
		<stop  offset="0.343" style="stop-color:#D9659B"/>
		<stop  offset="0.616" style="stop-color:#B070BF"/>
		<stop  offset="0.934" style="stop-color:#777FF0"/>
		<stop  offset="1" style="stop-color:#6A82FB"/>
	</linearGradient>
	<path style="fill:url(#SVGID_7_);" d="M76.029,248h192v16h-192V248z"/>
	
		<linearGradient id="SVGID_8_" gradientUnits="userSpaceOnUse" x1="-35.3461" y1="620.181" x2="-35.3461" y2="556.355" gradientTransform="matrix(8 0 0 -8 426.7979 4941)">
		<stop  offset="0" style="stop-color:#FC5C7D"/>
		<stop  offset="0.129" style="stop-color:#F35E85"/>
		<stop  offset="0.343" style="stop-color:#D9659B"/>
		<stop  offset="0.616" style="stop-color:#B070BF"/>
		<stop  offset="0.934" style="stop-color:#777FF0"/>
		<stop  offset="1" style="stop-color:#6A82FB"/>
	</linearGradient>
	<path style="fill:url(#SVGID_8_);" d="M92.029,288h-16v88c0,4.418,3.582,8,8,8h128v-16h-120V288z"/>
	
		<linearGradient id="SVGID_9_" gradientUnits="userSpaceOnUse" x1="-34.3461" y1="620.181" x2="-34.3461" y2="556.355" gradientTransform="matrix(8 0 0 -8 426.7979 4941)">
		<stop  offset="0" style="stop-color:#FC5C7D"/>
		<stop  offset="0.129" style="stop-color:#F35E85"/>
		<stop  offset="0.343" style="stop-color:#D9659B"/>
		<stop  offset="0.616" style="stop-color:#B070BF"/>
		<stop  offset="0.934" style="stop-color:#777FF0"/>
		<stop  offset="1" style="stop-color:#6A82FB"/>
	</linearGradient>
	<path style="fill:url(#SVGID_9_);" d="M145.685,314.344c-3.124-3.123-8.188-3.123-11.312,0l-32,32l11.312,11.312l26.344-26.344
		l18.344,18.344c3.124,3.123,8.188,3.123,11.312,0l32-32l-11.312-11.312l-26.344,26.344L145.685,314.344z"/>
</g>
<g>
</g>
<g>
</g>
<g>
</g>
<g>
</g>
<g>
</g>
<g>
</g>
<g>
</g>
<g>
</g>
<g>
</g>
<g>
</g>
<g>
</g>
<g>
</g>
<g>
</g>
<g>
</g>
<g>
</g>
</svg>
