<?xml version="1.0" encoding="iso-8859-1"?>
<!-- Generator: Adobe Illustrator 19.0.0, SVG Export Plug-In . SVG Version: 6.00 Build 0)  -->
<svg version="1.1" id="Capa_1" xmlns="http://www.w3.org/2000/svg" xmlns:xlink="http://www.w3.org/1999/xlink" x="0px" y="0px"
	 viewBox="0 0 439.4 439.4" style="enable-background:new 0 0 439.4 439.4;" xml:space="preserve">
<g>
	
		<linearGradient id="SVGID_1_" gradientUnits="userSpaceOnUse" x1="-42.2267" y1="592.328" x2="-42.2267" y2="530.775" gradientTransform="matrix(8 0 0 -8 594.6616 4719.6001)">
		<stop  offset="0" style="stop-color:#FC5C7D"/>
		<stop  offset="0.129" style="stop-color:#F35E85"/>
		<stop  offset="0.343" style="stop-color:#D9659B"/>
		<stop  offset="0.616" style="stop-color:#B070BF"/>
		<stop  offset="0.934" style="stop-color:#777FF0"/>
		<stop  offset="1" style="stop-color:#6A82FB"/>
	</linearGradient>
	<path style="fill:url(#SVGID_1_);" d="M245.648,193l11.2-11.2l11.2,11.2l-11.2,11.2L245.648,193z"/>
	
		<linearGradient id="SVGID_2_" gradientUnits="userSpaceOnUse" x1="-47.8267" y1="592.328" x2="-47.8267" y2="530.775" gradientTransform="matrix(8 0 0 -8 594.6616 4719.6001)">
		<stop  offset="0" style="stop-color:#FC5C7D"/>
		<stop  offset="0.129" style="stop-color:#F35E85"/>
		<stop  offset="0.343" style="stop-color:#D9659B"/>
		<stop  offset="0.616" style="stop-color:#B070BF"/>
		<stop  offset="0.934" style="stop-color:#777FF0"/>
		<stop  offset="1" style="stop-color:#6A82FB"/>
	</linearGradient>
	<path style="fill:url(#SVGID_2_);" d="M200.848,238.6l11.2-11.2l11.2,11.2l-11.2,11.2L200.848,238.6z"/>
	
		<linearGradient id="SVGID_3_" gradientUnits="userSpaceOnUse" x1="-46.8702" y1="592.328" x2="-46.8702" y2="530.775" gradientTransform="matrix(8 0 0 -8 594.6616 4719.6001)">
		<stop  offset="0" style="stop-color:#FC5C7D"/>
		<stop  offset="0.129" style="stop-color:#F35E85"/>
		<stop  offset="0.343" style="stop-color:#D9659B"/>
		<stop  offset="0.616" style="stop-color:#B070BF"/>
		<stop  offset="0.934" style="stop-color:#777FF0"/>
		<stop  offset="1" style="stop-color:#6A82FB"/>
	</linearGradient>
	<path style="fill:url(#SVGID_3_);" d="M387.248,97c9.6,9.6,24.8,9.6,33.6,0.8c9.6-9.6,9.6-24.8,0.8-33.6c0,0,0,0-0.8-0.8
		l-56.8-56.8c-9.6-8.8-24.8-8.8-33.6,0c-9.6,9.6-9.6,24.8,0,33.6l-56.8,56.8l-16.8-16.8c-9.6-9.6-24.8-9.6-34.4-0.8
		c-9.6,9.6-9.6,24.8-0.8,34.4c0,0,0,0,0.8,0.8l5.6,5.6l-157.6,157.6c-1.6,1.6-2.4,4-2.4,5.6V325l-54.4,54.4c-1.6,2.4-2.4,4-2.4,6.4
		v45.6c0,4.8,3.2,8,8,8c2.4,0,4-0.8,5.6-2.4l76.8-76.8h41.6c2.4,0,4-0.8,5.6-2.4l159.2-159.2l5.6,5.6c9.6,9.6,24.8,9.6,33.6,0
		s9.6-24.8,0-33.6l-16.8-16.8L387.248,97z M341.648,17.8c3.2-3.2,8-3.2,11.2,0l56.8,56.8c3.2,3.2,3.2,8,0,11.2s-8,3.2-11.2,0
		l-5.6-5.6l-45.6-45.6l-5.6-5.6C338.448,25.8,338.448,21,341.648,17.8L341.648,17.8z M140.848,343.4h-41.6c-2.4,0-4,0.8-5.6,2.4
		l-65.6,65.6V389l54.4-54.4c1.6-1.6,2.4-3.2,2.4-5.6v-41.6l11.2-11.2h0.8h112L140.848,343.4z M224.848,259.4h-112.8l32-32l11.2,11.2
		l11.2-11.2l-11.2-11.2l11.2-11.2l22.4,22.4l11.2-11.2l-22.4-22.4l11.2-11.2l11.2,11.2l11.2-11.2l-11.2-11.2l12-12l22.4,22.4
		l11.2-11.2l-22.4-22.4l16.8-16.8l28,28l28,28L224.848,259.4z M336.048,193c-3.2,3.2-8,3.2-11.2,0l-11.2-11.2l-33.6-33.6l-44.8-44.8
		c-3.2-3.2-3.2-8,0-11.2s8-3.2,11.2,0l22.4,22.4l45.6,45.6l22.4,22.4C339.248,185,339.248,189.8,336.048,193z M319.248,141.8
		l-11.2-11.2l22.4-22.4l-11.2-11.2l-22.4,22.4l-11.2-11.2l56.8-56.8l33.6,33.6L319.248,141.8z"/>
	
		<linearGradient id="SVGID_4_" gradientUnits="userSpaceOnUse" x1="-31.6267" y1="592.328" x2="-31.6267" y2="530.775" gradientTransform="matrix(8 0 0 -8 594.6616 4719.6001)">
		<stop  offset="0" style="stop-color:#FC5C7D"/>
		<stop  offset="0.129" style="stop-color:#F35E85"/>
		<stop  offset="0.343" style="stop-color:#D9659B"/>
		<stop  offset="0.616" style="stop-color:#B070BF"/>
		<stop  offset="0.934" style="stop-color:#777FF0"/>
		<stop  offset="1" style="stop-color:#6A82FB"/>
	</linearGradient>
	<path style="fill:url(#SVGID_4_);" d="M330.448,85.8l11.2-11.2l11.2,11.2l-11.2,11.2L330.448,85.8z"/>
</g>
<g>
</g>
<g>
</g>
<g>
</g>
<g>
</g>
<g>
</g>
<g>
</g>
<g>
</g>
<g>
</g>
<g>
</g>
<g>
</g>
<g>
</g>
<g>
</g>
<g>
</g>
<g>
</g>
<g>
</g>
</svg>
