<?xml version="1.0" encoding="iso-8859-1"?>
<!-- Generator: Adobe Illustrator 19.0.0, SVG Export Plug-In . SVG Version: 6.00 Build 0)  -->
<svg version="1.1" id="Capa_1" xmlns="http://www.w3.org/2000/svg" xmlns:xlink="http://www.w3.org/1999/xlink" x="0px" y="0px"
	 viewBox="0 0 592 592" style="enable-background:new 0 0 592 592;" xml:space="preserve">
<linearGradient id="SVGID_1_" gradientUnits="userSpaceOnUse" x1="-6.875" y1="676.021" x2="-6.875" y2="612.649" gradientTransform="matrix(8 0 0 -8 455 5445)">
	<stop  offset="0" style="stop-color:#FC5C7D"/>
	<stop  offset="0.129" style="stop-color:#F35E85"/>
	<stop  offset="0.343" style="stop-color:#D9659B"/>
	<stop  offset="0.616" style="stop-color:#B070BF"/>
	<stop  offset="0.934" style="stop-color:#777FF0"/>
	<stop  offset="1" style="stop-color:#6A82FB"/>
</linearGradient>
<path style="fill:url(#SVGID_1_);" d="M392,456h16v16h-16V456z"/>
<linearGradient id="SVGID_2_" gradientUnits="userSpaceOnUse" x1="-19.875" y1="676.021" x2="-19.875" y2="612.649" gradientTransform="matrix(8 0 0 -8 455 5445)">
	<stop  offset="0" style="stop-color:#FC5C7D"/>
	<stop  offset="0.129" style="stop-color:#F35E85"/>
	<stop  offset="0.343" style="stop-color:#D9659B"/>
	<stop  offset="0.616" style="stop-color:#B070BF"/>
	<stop  offset="0.934" style="stop-color:#777FF0"/>
	<stop  offset="1" style="stop-color:#6A82FB"/>
</linearGradient>
<path style="fill:url(#SVGID_2_);" d="M584,472h-8V256c0-17.673-14.327-32-32-32h-64V120c-0.04-35.33-28.67-63.96-64-64H64
	C28.67,56.04,0.04,84.67,0,120v256c0.04,35.33,28.67,63.96,64,64h77.752l-12,48H56c-13.255,0-24,10.745-24,24s10.745,24,24,24h504
	c17.673,0,32-14.327,32-32v-24C592,475.582,588.418,472,584,472z M560,256v216h-88c-2.122,0-4.156,0.844-5.656,2.344L452.688,488
	H347.312l-13.656-13.656c-1.5-1.5-3.534-2.344-5.656-2.344h-88V256c0-8.837,7.163-16,16-16h288C552.837,240,560,247.163,560,256z
	 M423.656,224H256c-17.673,0-32,14.327-32,32v104H72c-8.837,0-16-7.163-16-16V128c0-8.837,7.163-16,16-16h335.656
	c8.837,0,16,7.163,16,16V224z M16,376V120c0.026-26.499,21.501-47.974,48-48h352c26.499,0.026,47.974,21.501,48,48v104h-24.344v-96
	c0-17.673-14.327-32-32-32H72c-17.673,0-32,14.327-32,32v216c0,17.673,14.327,32,32,32h152v48H64
	C37.501,423.974,16.026,402.499,16,376z M158.248,440H224v32h-8c-4.418,0-8,3.582-8,8v8h-61.752L158.248,440z M48,512
	c0-4.418,3.582-8,8-8h152c0.033,5.634,1.569,11.157,4.448,16H56C51.582,520,48,516.418,48,512z M576,504c0,8.837-7.163,16-16,16H240
	c-8.837,0-16-7.163-16-16v-16h100.688l13.656,13.656c1.5,1.5,3.534,2.344,5.656,2.344h112c2.122,0,4.156-0.844,5.656-2.344
	L475.312,488H576V504z"/>
<linearGradient id="SVGID_3_" gradientUnits="userSpaceOnUse" x1="-6.875" y1="676.021" x2="-6.875" y2="612.649" gradientTransform="matrix(8 0 0 -8 455 5445)">
	<stop  offset="0" style="stop-color:#FC5C7D"/>
	<stop  offset="0.129" style="stop-color:#F35E85"/>
	<stop  offset="0.343" style="stop-color:#D9659B"/>
	<stop  offset="0.616" style="stop-color:#B070BF"/>
	<stop  offset="0.934" style="stop-color:#777FF0"/>
	<stop  offset="1" style="stop-color:#6A82FB"/>
</linearGradient>
<path style="fill:url(#SVGID_3_);" d="M256,432c0,4.418,3.582,8,8,8h272c4.418,0,8-3.582,8-8V264c0-4.418-3.582-8-8-8H264
	c-4.418,0-8,3.582-8,8V432z M272,272h256v152H272V272z"/>
<g>
	
		<linearGradient id="SVGID_4_" gradientUnits="userSpaceOnUse" x1="-38.375" y1="676.021" x2="-38.375" y2="612.649" gradientTransform="matrix(8 0 0 -8 455 5445)">
		<stop  offset="0" style="stop-color:#FC5C7D"/>
		<stop  offset="0.129" style="stop-color:#F35E85"/>
		<stop  offset="0.343" style="stop-color:#D9659B"/>
		<stop  offset="0.616" style="stop-color:#B070BF"/>
		<stop  offset="0.934" style="stop-color:#777FF0"/>
		<stop  offset="1" style="stop-color:#6A82FB"/>
	</linearGradient>
	<path style="fill:url(#SVGID_4_);" d="M80,152.144V200h16l0.144-48H216v-16H96.144C87.232,136.009,80.009,143.232,80,152.144z"/>
	
		<linearGradient id="SVGID_5_" gradientUnits="userSpaceOnUse" x1="-26.875" y1="676.021" x2="-26.875" y2="612.649" gradientTransform="matrix(8 0 0 -8 455 5445)">
		<stop  offset="0" style="stop-color:#FC5C7D"/>
		<stop  offset="0.129" style="stop-color:#F35E85"/>
		<stop  offset="0.343" style="stop-color:#D9659B"/>
		<stop  offset="0.616" style="stop-color:#B070BF"/>
		<stop  offset="0.934" style="stop-color:#777FF0"/>
		<stop  offset="1" style="stop-color:#6A82FB"/>
	</linearGradient>
	<path style="fill:url(#SVGID_5_);" d="M232,136h16v16h-16V136z"/>
	
		<linearGradient id="SVGID_6_" gradientUnits="userSpaceOnUse" x1="-16.375" y1="676.021" x2="-16.375" y2="612.649" gradientTransform="matrix(8 0 0 -8 455 5445)">
		<stop  offset="0" style="stop-color:#FC5C7D"/>
		<stop  offset="0.129" style="stop-color:#F35E85"/>
		<stop  offset="0.343" style="stop-color:#D9659B"/>
		<stop  offset="0.616" style="stop-color:#B070BF"/>
		<stop  offset="0.934" style="stop-color:#777FF0"/>
		<stop  offset="1" style="stop-color:#6A82FB"/>
	</linearGradient>
	<path style="fill:url(#SVGID_6_);" d="M288,304.144V344h16l0.144-40H360v-16h-55.856C295.232,288.009,288.009,295.232,288,304.144z
		"/>
	
		<linearGradient id="SVGID_7_" gradientUnits="userSpaceOnUse" x1="-8.875" y1="676.021" x2="-8.875" y2="612.649" gradientTransform="matrix(8 0 0 -8 455 5445)">
		<stop  offset="0" style="stop-color:#FC5C7D"/>
		<stop  offset="0.129" style="stop-color:#F35E85"/>
		<stop  offset="0.343" style="stop-color:#D9659B"/>
		<stop  offset="0.616" style="stop-color:#B070BF"/>
		<stop  offset="0.934" style="stop-color:#777FF0"/>
		<stop  offset="1" style="stop-color:#6A82FB"/>
	</linearGradient>
	<path style="fill:url(#SVGID_7_);" d="M376,288h16v16h-16V288z"/>
</g>
<g>
</g>
<g>
</g>
<g>
</g>
<g>
</g>
<g>
</g>
<g>
</g>
<g>
</g>
<g>
</g>
<g>
</g>
<g>
</g>
<g>
</g>
<g>
</g>
<g>
</g>
<g>
</g>
<g>
</g>
</svg>
