<?xml version="1.0" encoding="iso-8859-1"?>
<!-- Generator: Adobe Illustrator 19.0.0, SVG Export Plug-In . SVG Version: 6.00 Build 0)  -->
<svg version="1.1" id="Capa_1" xmlns="http://www.w3.org/2000/svg" xmlns:xlink="http://www.w3.org/1999/xlink" x="0px" y="0px"
	 viewBox="0 0 472.222 472.222" style="enable-background:new 0 0 472.222 472.222;" xml:space="preserve">
<linearGradient id="SVGID_1_" gradientUnits="userSpaceOnUse" x1="-30.7639" y1="607.5903" x2="-30.7639" y2="546.9193" gradientTransform="matrix(8 0 0 -8 482.222 4870.7847)">
	<stop  offset="0" style="stop-color:#FC5C7D"/>
	<stop  offset="0.129" style="stop-color:#F35E85"/>
	<stop  offset="0.343" style="stop-color:#D9659B"/>
	<stop  offset="0.616" style="stop-color:#B070BF"/>
	<stop  offset="0.934" style="stop-color:#777FF0"/>
	<stop  offset="1" style="stop-color:#6A82FB"/>
</linearGradient>
<path style="fill:url(#SVGID_1_);" d="M108.111,344.198c0.032,14.75,2.63,29.382,7.68,43.24c0,0.08,0,0.152,0.048,0.232
	c0.112,0.304,0.248,0.592,0.368,0.896c1.032,2.8,2.128,5.552,3.352,8.256c0.104,0.216,0.216,0.432,0.312,0.648
	c3.759,8.148,8.363,15.878,13.736,23.064c0.592,0.8,1.168,1.6,1.784,2.4c1.52,1.944,3.096,3.824,4.728,5.672
	c0.72,0.8,1.464,1.6,2.208,2.4c1.704,1.84,3.432,3.656,5.24,5.4c0.432,0.416,0.896,0.8,1.336,1.208
	c6.285,5.87,13.143,11.093,20.472,15.592c0.8,0.488,1.6,0.976,2.4,1.448c2.192,1.28,4.4,2.496,6.664,3.64
	c0.912,0.464,1.84,0.888,2.76,1.328c6.888,3.308,14.061,5.985,21.432,8c1.84,0.504,3.672,1.008,5.536,1.424
	c1.688,0.384,3.392,0.704,5.104,1.016c2.32,0.424,4.656,0.8,7.008,1.072c1.4,0.176,2.792,0.368,4.208,0.496
	c3.856,0.36,7.728,0.592,11.648,0.592c70.658-0.097,127.906-57.366,127.976-128.024c0-2.704-0.136-5.52-0.36-8.472
	c-0.16-2.352-0.408-4.672-0.696-6.992c0-0.176,0-0.312-0.048-0.488v-0.104c-6.664-51.956-44.217-94.657-94.896-107.904v-12.04h36
	c33.122-0.035,59.965-26.878,60-60v-12c0-4.418-3.582-8-8-8h-28c-16.727,0.008-32.686,7.024-44,19.344v-11.344
	c-0.023-2.943-1.678-5.631-4.296-6.976c31.601-24.137,37.652-69.322,13.515-100.923C269.193-3.301,224.008-9.352,192.407,14.785
	s-37.652,69.322-13.515,100.923c3.884,5.085,8.429,9.63,13.515,13.515c-2.618,1.345-4.273,4.033-4.296,6.976v11.344
	c-11.314-12.32-27.273-19.336-44-19.344h-28c-4.418,0-8,3.582-8,8v12c0.035,33.122,26.878,59.965,60,60h36v12
	C147.659,234.925,108.228,285.857,108.111,344.198L108.111,344.198z M225.999,455.686c-1.168-0.104-2.328-0.256-3.496-0.4
	c-2.128-0.256-4.224-0.592-6.312-0.968c-1.376-0.248-2.76-0.48-4.12-0.8c-1.896-0.416-3.752-0.936-5.6-1.448
	c-2.816-0.784-5.595-1.669-8.336-2.656c-1.072-0.392-2.16-0.8-3.2-1.184c-1.928-0.8-3.832-1.6-5.712-2.48
	c-0.8-0.392-1.664-0.8-2.488-1.2c-6.551-3.24-12.773-7.109-18.576-11.552c-0.36-0.272-0.728-0.536-1.08-0.8
	c-1.768-1.392-3.48-2.848-5.16-4.344c-0.597-0.533-1.189-1.067-1.776-1.6c-1.64-1.52-3.264-3.072-4.8-4.696
	c-0.256-0.264-0.496-0.552-0.752-0.8c-3.417-3.634-6.59-7.49-9.496-11.544c-0.12-0.168-0.248-0.32-0.368-0.488
	c-1.352-1.92-2.624-3.896-3.864-5.904c-0.352-0.576-0.704-1.152-1.048-1.728c-1.224-2.08-2.4-4.184-3.512-6.352
	c-0.104-0.208-0.192-0.416-0.296-0.624c-1.168-2.344-2.28-4.736-3.288-7.2l25.064-25.072c21.191-21.143,55.497-21.143,76.688,0
	c27.444,27.376,71.868,27.376,99.312,0l14.168-14.16c-0.04,1.352-0.112,2.696-0.208,4c-0.12,1.816-0.224,3.64-0.432,5.432
	c-0.224,1.928-0.552,3.816-0.872,5.712c-0.296,1.752-0.568,3.512-0.944,5.24c-0.408,1.88-0.928,3.72-1.432,5.6
	c-0.456,1.68-0.888,3.36-1.424,5c-0.592,1.824-1.288,3.6-1.968,5.384c-0.608,1.6-1.192,3.2-1.864,4.752
	c-0.8,1.752-1.6,3.44-2.488,5.144c-0.752,1.512-1.464,3.032-2.28,4.496c-0.928,1.672-1.96,3.264-2.968,4.88
	c-0.88,1.416-1.728,2.848-2.672,4.216c-1.08,1.6-2.264,3.056-3.416,4.568c-1.008,1.312-1.984,2.664-3.048,3.928
	c-1.216,1.456-2.536,2.824-3.832,4.224c-1.12,1.208-2.208,2.456-3.384,3.616c-1.36,1.336-2.816,2.576-4.24,3.848
	c-1.224,1.096-2.4,2.232-3.688,3.272c-1.496,1.216-3.08,2.32-4.632,3.464c-1.312,0.96-2.592,1.976-3.944,2.88
	c-1.6,1.088-3.336,2.048-5.016,3.048c-1.384,0.8-2.744,1.712-4.168,2.48c-1.752,0.944-3.584,1.752-5.384,2.6
	c-1.448,0.68-2.856,1.424-4.336,2.048c-1.896,0.8-3.872,1.44-5.824,2.136c-1.464,0.52-2.888,1.112-4.376,1.6
	c-2.064,0.632-4.2,1.104-6.312,1.6c-1.448,0.36-2.864,0.8-4.328,1.096c-2.4,0.48-4.8,0.8-7.2,1.104
	c-1.28,0.168-2.52,0.44-3.816,0.568c-3.769,0.383-7.555,0.575-11.344,0.576C232.695,456.198,229.335,455.99,225.999,455.686
	L225.999,455.686z M204.111,192.198v-16h64v16H204.111z M252.111,144.198h16v16h-64v-16H252.111z M328.111,144.198h20v4
	c-0.026,24.29-19.71,43.974-44,44h-20v-4C284.138,163.909,303.822,144.225,328.111,144.198z M180.111,72.198
	c-0.014-30.928,25.047-56.011,55.975-56.025c30.928-0.014,56.011,25.047,56.025,55.975c0.01,22.828-13.837,43.378-35,51.939
	c-1.876,0.781-3.379,2.253-4.2,4.112h-8.8V91.51l21.656-21.656l-11.312-11.312l-18.344,18.344l-18.344-18.344l-11.312,11.312
	l21.656,21.656v36.688h-8.8c-0.819-1.857-2.319-3.329-4.192-4.112C193.93,115.585,180.061,95.029,180.111,72.198L180.111,72.198z
	 M124.111,148.198v-4h20c24.29,0.026,43.974,19.71,44,44v4h-20C143.822,192.172,124.138,172.488,124.111,148.198z M252.111,208.198
	v18.4c-0.001,3.802,2.675,7.08,6.4,7.84c45.585,9.427,80.629,45.998,88.104,91.944l-24.16,24.16
	c-21.191,21.143-55.497,21.143-76.688,0c-27.444-27.376-71.868-27.376-99.312,0l-19.272,19.256
	c-14.35-59.914,22.588-120.117,82.502-134.466c1.336-0.32,2.679-0.615,4.026-0.886c3.725-0.76,6.401-4.038,6.4-7.84v-18.408
	L252.111,208.198z"/>
<g>
	
		<linearGradient id="SVGID_2_" gradientUnits="userSpaceOnUse" x1="-36.7639" y1="607.5903" x2="-36.7639" y2="546.9193" gradientTransform="matrix(8 0 0 -8 482.222 4870.7847)">
		<stop  offset="0" style="stop-color:#FC5C7D"/>
		<stop  offset="0.129" style="stop-color:#F35E85"/>
		<stop  offset="0.343" style="stop-color:#D9659B"/>
		<stop  offset="0.616" style="stop-color:#B070BF"/>
		<stop  offset="0.934" style="stop-color:#777FF0"/>
		<stop  offset="1" style="stop-color:#6A82FB"/>
	</linearGradient>
	<path style="fill:url(#SVGID_2_);" d="M180.111,368.198h16v16h-16V368.198z"/>
	
		<linearGradient id="SVGID_3_" gradientUnits="userSpaceOnUse" x1="-23.7639" y1="607.5903" x2="-23.7639" y2="546.9193" gradientTransform="matrix(8 0 0 -8 482.222 4870.7847)">
		<stop  offset="0" style="stop-color:#FC5C7D"/>
		<stop  offset="0.129" style="stop-color:#F35E85"/>
		<stop  offset="0.343" style="stop-color:#D9659B"/>
		<stop  offset="0.616" style="stop-color:#B070BF"/>
		<stop  offset="0.934" style="stop-color:#777FF0"/>
		<stop  offset="1" style="stop-color:#6A82FB"/>
	</linearGradient>
	<path style="fill:url(#SVGID_3_);" d="M284.111,400.198h16v16h-16V400.198z"/>
	
		<linearGradient id="SVGID_4_" gradientUnits="userSpaceOnUse" x1="-32.7639" y1="607.5903" x2="-32.7639" y2="546.9193" gradientTransform="matrix(8 0 0 -8 482.222 4870.7847)">
		<stop  offset="0" style="stop-color:#FC5C7D"/>
		<stop  offset="0.129" style="stop-color:#F35E85"/>
		<stop  offset="0.343" style="stop-color:#D9659B"/>
		<stop  offset="0.616" style="stop-color:#B070BF"/>
		<stop  offset="0.934" style="stop-color:#777FF0"/>
		<stop  offset="1" style="stop-color:#6A82FB"/>
	</linearGradient>
	<path style="fill:url(#SVGID_4_);" d="M212.111,416.198h16v16h-16V416.198z"/>
	
		<linearGradient id="SVGID_5_" gradientUnits="userSpaceOnUse" x1="-38.3559" y1="607.5903" x2="-38.3559" y2="546.9193" gradientTransform="matrix(8 0 0 -8 482.222 4870.7847)">
		<stop  offset="0" style="stop-color:#FC5C7D"/>
		<stop  offset="0.129" style="stop-color:#F35E85"/>
		<stop  offset="0.343" style="stop-color:#D9659B"/>
		<stop  offset="0.616" style="stop-color:#B070BF"/>
		<stop  offset="0.934" style="stop-color:#777FF0"/>
		<stop  offset="1" style="stop-color:#6A82FB"/>
	</linearGradient>
	<path style="fill:url(#SVGID_5_);" d="M143.727,318.022l15.392,4.352c6.885-24.075,24.596-43.567,47.904-52.72l-5.824-14.912
		C173.237,265.741,151.991,289.134,143.727,318.022L143.727,318.022z"/>
	
		<linearGradient id="SVGID_6_" gradientUnits="userSpaceOnUse" x1="-31.8544" y1="607.5903" x2="-31.8544" y2="546.9193" gradientTransform="matrix(8 0 0 -8 482.222 4870.7847)">
		<stop  offset="0" style="stop-color:#FC5C7D"/>
		<stop  offset="0.129" style="stop-color:#F35E85"/>
		<stop  offset="0.343" style="stop-color:#D9659B"/>
		<stop  offset="0.616" style="stop-color:#B070BF"/>
		<stop  offset="0.934" style="stop-color:#777FF0"/>
		<stop  offset="1" style="stop-color:#6A82FB"/>
	</linearGradient>
	<path style="fill:url(#SVGID_6_);" d="M221.559,265.518c4.801-0.877,9.671-1.319,14.552-1.32v-16
		c-5.852,0.003-11.693,0.539-17.448,1.6L221.559,265.518z"/>
</g>
<g>
</g>
<g>
</g>
<g>
</g>
<g>
</g>
<g>
</g>
<g>
</g>
<g>
</g>
<g>
</g>
<g>
</g>
<g>
</g>
<g>
</g>
<g>
</g>
<g>
</g>
<g>
</g>
<g>
</g>
</svg>
