<?xml version="1.0" encoding="iso-8859-1"?>
<!-- Generator: Adobe Illustrator 19.0.0, SVG Export Plug-In . SVG Version: 6.00 Build 0)  -->
<svg version="1.1" id="Capa_1" xmlns="http://www.w3.org/2000/svg" xmlns:xlink="http://www.w3.org/1999/xlink" x="0px" y="0px"
	 viewBox="0 0 480 480" style="enable-background:new 0 0 480 480;" xml:space="preserve">
<linearGradient id="SVGID_1_" gradientUnits="userSpaceOnUse" x1="-43.875" y1="619.604" x2="-43.875" y2="553.925" gradientTransform="matrix(8 0 0 -8 455 4941)">
	<stop  offset="0" style="stop-color:#FC5C7D"/>
	<stop  offset="0.129" style="stop-color:#F35E85"/>
	<stop  offset="0.343" style="stop-color:#D9659B"/>
	<stop  offset="0.616" style="stop-color:#B070BF"/>
	<stop  offset="0.934" style="stop-color:#777FF0"/>
	<stop  offset="1" style="stop-color:#6A82FB"/>
</linearGradient>
<path style="fill:url(#SVGID_1_);" d="M64,248h80v24h16v-28.544c0.068-24.838-9.805-48.67-27.416-66.184L115.312,160l17.272-17.272
	c17.611-17.514,27.484-41.346,27.416-66.184V48h-16v24H64V48H48v28.544c-0.068,24.838,9.805,48.67,27.416,66.184L92.688,160
	l-17.272,17.272C57.805,194.786,47.932,218.618,48,243.456V272h16V248z M143.072,232H64.928c1.212-8.367,3.799-16.477,7.656-24
	h62.832C139.273,215.523,141.86,223.633,143.072,232z M64.928,88h78.144c-1.212,8.367-3.799,16.477-7.656,24H72.584
	C68.727,104.477,66.14,96.367,64.928,88z M86.728,131.416c-1.096-1.096-2.08-2.272-3.096-3.416h40.736
	c-1.016,1.144-2,2.32-3.096,3.416L104,148.688L86.728,131.416z M104,171.312l17.272,17.272c1.096,1.096,2.08,2.272,3.096,3.416
	H83.632c1.016-1.144,2-2.32,3.096-3.416L104,171.312z"/>
<g>
	
		<linearGradient id="SVGID_2_" gradientUnits="userSpaceOnUse" x1="-26.875" y1="619.604" x2="-26.875" y2="553.925" gradientTransform="matrix(8 0 0 -8 455 4941)">
		<stop  offset="0" style="stop-color:#FC5C7D"/>
		<stop  offset="0.129" style="stop-color:#F35E85"/>
		<stop  offset="0.343" style="stop-color:#D9659B"/>
		<stop  offset="0.616" style="stop-color:#B070BF"/>
		<stop  offset="0.934" style="stop-color:#777FF0"/>
		<stop  offset="1" style="stop-color:#6A82FB"/>
	</linearGradient>
	<path style="fill:url(#SVGID_2_);" d="M448,0H32C14.327,0,0,14.327,0,32v320c0,17.673,14.327,32,32,32h140.456l-18,48H112
		c-13.255,0-24,10.745-24,24s10.745,24,24,24h256c13.255,0,24-10.745,24-24s-10.745-24-24-24h-42.456l-18-48H448
		c17.673,0,32-14.327,32-32V32C480,14.327,465.673,0,448,0z M32,16h416c8.837,0,16,7.163,16,16v272H16V32C16,23.163,23.163,16,32,16
		z M376,456c0,4.418-3.582,8-8,8H112c-4.418,0-8-3.582-8-8s3.582-8,8-8h256C372.418,448,376,451.582,376,456z M308.456,432H171.544
		l18-48h100.912L308.456,432z M448,368H32c-8.837,0-16-7.163-16-16v-32h448v32C464,360.837,456.837,368,448,368z"/>
	
		<linearGradient id="SVGID_3_" gradientUnits="userSpaceOnUse" x1="-26.875" y1="619.604" x2="-26.875" y2="553.925" gradientTransform="matrix(8 0 0 -8 455 4941)">
		<stop  offset="0" style="stop-color:#FC5C7D"/>
		<stop  offset="0.129" style="stop-color:#F35E85"/>
		<stop  offset="0.343" style="stop-color:#D9659B"/>
		<stop  offset="0.616" style="stop-color:#B070BF"/>
		<stop  offset="0.934" style="stop-color:#777FF0"/>
		<stop  offset="1" style="stop-color:#6A82FB"/>
	</linearGradient>
	<path style="fill:url(#SVGID_3_);" d="M232,336h16v16h-16V336z"/>
	
		<linearGradient id="SVGID_4_" gradientUnits="userSpaceOnUse" x1="-21.875" y1="619.604" x2="-21.875" y2="553.925" gradientTransform="matrix(8 0 0 -8 455 4941)">
		<stop  offset="0" style="stop-color:#FC5C7D"/>
		<stop  offset="0.129" style="stop-color:#F35E85"/>
		<stop  offset="0.343" style="stop-color:#D9659B"/>
		<stop  offset="0.616" style="stop-color:#B070BF"/>
		<stop  offset="0.934" style="stop-color:#777FF0"/>
		<stop  offset="1" style="stop-color:#6A82FB"/>
	</linearGradient>
	<path style="fill:url(#SVGID_4_);" d="M240,148.944V168h16v-19.056l24-12l24,12V168h16v-19.056l27.576-13.744
		c2.725-1.362,4.441-4.153,4.424-7.2V96h16V80h-22.112L320,67.056V48h-16v19.056l-24,12l-24-12V48h-16v19.056L212.424,80.84
		c-2.712,1.355-4.425,4.128-4.424,7.16v32h-16v16h22.112L240,148.944z M336,123.056l-24,12l-24-12V92.944l24-12l24,12V123.056z
		 M224,92.944l24-12l24,12v30.112l-24,12l-24-12V92.944z"/>
	
		<linearGradient id="SVGID_5_" gradientUnits="userSpaceOnUse" x1="-7.875" y1="619.604" x2="-7.875" y2="553.925" gradientTransform="matrix(8 0 0 -8 455 4941)">
		<stop  offset="0" style="stop-color:#FC5C7D"/>
		<stop  offset="0.129" style="stop-color:#F35E85"/>
		<stop  offset="0.343" style="stop-color:#D9659B"/>
		<stop  offset="0.616" style="stop-color:#B070BF"/>
		<stop  offset="0.934" style="stop-color:#777FF0"/>
		<stop  offset="1" style="stop-color:#6A82FB"/>
	</linearGradient>
	<path style="fill:url(#SVGID_5_);" d="M384,64h16v16h-16V64z"/>
	
		<linearGradient id="SVGID_6_" gradientUnits="userSpaceOnUse" x1="-3.875" y1="619.604" x2="-3.875" y2="553.925" gradientTransform="matrix(8 0 0 -8 455 4941)">
		<stop  offset="0" style="stop-color:#FC5C7D"/>
		<stop  offset="0.129" style="stop-color:#F35E85"/>
		<stop  offset="0.343" style="stop-color:#D9659B"/>
		<stop  offset="0.616" style="stop-color:#B070BF"/>
		<stop  offset="0.934" style="stop-color:#777FF0"/>
		<stop  offset="1" style="stop-color:#6A82FB"/>
	</linearGradient>
	<path style="fill:url(#SVGID_6_);" d="M416,64h16v16h-16V64z"/>
	
		<linearGradient id="SVGID_7_" gradientUnits="userSpaceOnUse" x1="-17.375" y1="619.604" x2="-17.375" y2="553.925" gradientTransform="matrix(8 0 0 -8 455 4941)">
		<stop  offset="0" style="stop-color:#FC5C7D"/>
		<stop  offset="0.129" style="stop-color:#F35E85"/>
		<stop  offset="0.343" style="stop-color:#D9659B"/>
		<stop  offset="0.616" style="stop-color:#B070BF"/>
		<stop  offset="0.934" style="stop-color:#777FF0"/>
		<stop  offset="1" style="stop-color:#6A82FB"/>
	</linearGradient>
	<path style="fill:url(#SVGID_7_);" d="M200,224h232v16H200V224z"/>
	
		<linearGradient id="SVGID_8_" gradientUnits="userSpaceOnUse" x1="-18.875" y1="619.604" x2="-18.875" y2="553.925" gradientTransform="matrix(8 0 0 -8 455 4941)">
		<stop  offset="0" style="stop-color:#FC5C7D"/>
		<stop  offset="0.129" style="stop-color:#F35E85"/>
		<stop  offset="0.343" style="stop-color:#D9659B"/>
		<stop  offset="0.616" style="stop-color:#B070BF"/>
		<stop  offset="0.934" style="stop-color:#777FF0"/>
		<stop  offset="1" style="stop-color:#6A82FB"/>
	</linearGradient>
	<path style="fill:url(#SVGID_8_);" d="M200,256h208v16H200V256z"/>
	
		<linearGradient id="SVGID_9_" gradientUnits="userSpaceOnUse" x1="-14.375" y1="619.604" x2="-14.375" y2="553.925" gradientTransform="matrix(8 0 0 -8 455 4941)">
		<stop  offset="0" style="stop-color:#FC5C7D"/>
		<stop  offset="0.129" style="stop-color:#F35E85"/>
		<stop  offset="0.343" style="stop-color:#D9659B"/>
		<stop  offset="0.616" style="stop-color:#B070BF"/>
		<stop  offset="0.934" style="stop-color:#777FF0"/>
		<stop  offset="1" style="stop-color:#6A82FB"/>
	</linearGradient>
	<path style="fill:url(#SVGID_9_);" d="M248,192h184v16H248V192z"/>
	
		<linearGradient id="SVGID_10_" gradientUnits="userSpaceOnUse" x1="-28.875" y1="619.604" x2="-28.875" y2="553.925" gradientTransform="matrix(8 0 0 -8 455 4941)">
		<stop  offset="0" style="stop-color:#FC5C7D"/>
		<stop  offset="0.129" style="stop-color:#F35E85"/>
		<stop  offset="0.343" style="stop-color:#D9659B"/>
		<stop  offset="0.616" style="stop-color:#B070BF"/>
		<stop  offset="0.934" style="stop-color:#777FF0"/>
		<stop  offset="1" style="stop-color:#6A82FB"/>
	</linearGradient>
	<path style="fill:url(#SVGID_10_);" d="M216,192h16v16h-16V192z"/>
</g>
<g>
</g>
<g>
</g>
<g>
</g>
<g>
</g>
<g>
</g>
<g>
</g>
<g>
</g>
<g>
</g>
<g>
</g>
<g>
</g>
<g>
</g>
<g>
</g>
<g>
</g>
<g>
</g>
<g>
</g>
</svg>
