<?xml version="1.0" encoding="iso-8859-1"?>
<!-- Generator: Adobe Illustrator 19.0.0, SVG Export Plug-In . SVG Version: 6.00 Build 0)  -->
<svg version="1.1" id="Capa_1" xmlns="http://www.w3.org/2000/svg" xmlns:xlink="http://www.w3.org/1999/xlink" x="0px" y="0px"
	 viewBox="0 0 480.027 480.027" style="enable-background:new 0 0 480.027 480.027;" xml:space="preserve">
<linearGradient id="SVGID_1_" gradientUnits="userSpaceOnUse" x1="-26.8613" y1="618.542" x2="-26.8613" y2="554.145" gradientTransform="matrix(8 0 0 -8 454.9041 4941)">
	<stop  offset="0" style="stop-color:#FC5C7D"/>
	<stop  offset="0.129" style="stop-color:#F35E85"/>
	<stop  offset="0.343" style="stop-color:#D9659B"/>
	<stop  offset="0.616" style="stop-color:#B070BF"/>
	<stop  offset="0.934" style="stop-color:#777FF0"/>
	<stop  offset="1" style="stop-color:#6A82FB"/>
</linearGradient>
<path style="fill:url(#SVGID_1_);" d="M456.014,290.488V72c-0.055-14.547-9.915-27.227-24-30.864V32c0-17.673-14.327-32-32-32h-368
	c-17.673,0-32,14.327-32,32v344c0,17.673,14.327,32,32,32h8c0,17.673,14.327,32,32,32h271.6
	c17.631,35.603,60.786,50.171,96.389,32.54c24.53-12.148,40.04-37.166,40.011-64.54v-64
	C480,323.559,471.269,304.093,456.014,290.488z M440.014,72v32h-384V72c0-8.837,7.163-16,16-16h352
	C432.85,56,440.014,63.163,440.014,72z M32.014,392c-8.837,0-16-7.163-16-16V32c0-8.837,7.163-16,16-16h368c8.837,0,16,7.163,16,16
	v8h-344c-17.673,0-32,14.327-32,32v320H32.014z M72.014,424c-8.837,0-16-7.163-16-16V120h384v159.6c-9.929-4.99-20.887-7.593-32-7.6
	c-39.746,0.044-71.956,32.254-72,72v64c0.016,5.386,0.639,10.753,1.856,16H72.014z M464.014,408c0,30.928-25.072,56-56,56
	s-56-25.072-56-56v-13.056c7.046,3.563,12.061,10.168,13.6,17.912c2.031,10.123,7.729,19.14,16,25.32l1.264,0.952
	c14.939,11.113,35.397,11.113,50.336,0l1.264-0.944c8.249-6.193,13.923-15.211,15.936-25.328c1.539-7.744,6.554-14.349,13.6-17.912
	L464.014,408z M464.014,377.848c-14.957,4.305-26.26,16.599-29.296,31.864c-1.259,6.265-4.786,11.846-9.904,15.672l-1.256,0.944
	c-9.239,6.868-21.889,6.868-31.128,0l-1.264-0.952c-5.108-3.829-8.625-9.405-9.88-15.664c-3.031-15.259-14.324-27.552-29.272-31.864
	V344c0-30.928,25.072-56,56-56s56,25.072,56,56l0,0V377.848z"/>
<g>
	
		<linearGradient id="SVGID_2_" gradientUnits="userSpaceOnUse" x1="-5.8613" y1="618.542" x2="-5.8613" y2="554.145" gradientTransform="matrix(8 0 0 -8 454.9041 4941)">
		<stop  offset="0" style="stop-color:#FC5C7D"/>
		<stop  offset="0.129" style="stop-color:#F35E85"/>
		<stop  offset="0.343" style="stop-color:#D9659B"/>
		<stop  offset="0.616" style="stop-color:#B070BF"/>
		<stop  offset="0.934" style="stop-color:#777FF0"/>
		<stop  offset="1" style="stop-color:#6A82FB"/>
	</linearGradient>
	<path style="fill:url(#SVGID_2_);" d="M408.014,312c-13.255,0-24,10.745-24,24v24c0,13.255,10.745,24,24,24s24-10.745,24-24v-24
		C432.014,322.745,421.269,312,408.014,312z M416.014,360c0,4.418-3.582,8-8,8s-8-3.582-8-8v-24c0-4.418,3.582-8,8-8s8,3.582,8,8
		V360z"/>
	
		<linearGradient id="SVGID_3_" gradientUnits="userSpaceOnUse" x1="-35.8613" y1="618.542" x2="-35.8613" y2="554.145" gradientTransform="matrix(8 0 0 -8 454.9041 4941)">
		<stop  offset="0" style="stop-color:#FC5C7D"/>
		<stop  offset="0.129" style="stop-color:#F35E85"/>
		<stop  offset="0.343" style="stop-color:#D9659B"/>
		<stop  offset="0.616" style="stop-color:#B070BF"/>
		<stop  offset="0.934" style="stop-color:#777FF0"/>
		<stop  offset="1" style="stop-color:#6A82FB"/>
	</linearGradient>
	<path style="fill:url(#SVGID_3_);" d="M88.014,288h160c4.418,0,8-3.582,8-8V152c0-4.418-3.582-8-8-8h-160c-4.418,0-8,3.582-8,8v128
		C80.014,284.418,83.595,288,88.014,288z M96.014,160h144v112h-144V160z"/>
	
		<linearGradient id="SVGID_4_" gradientUnits="userSpaceOnUse" x1="-34.8607" y1="618.542" x2="-34.8607" y2="554.145" gradientTransform="matrix(8 0 0 -8 454.9041 4941)">
		<stop  offset="0" style="stop-color:#FC5C7D"/>
		<stop  offset="0.129" style="stop-color:#F35E85"/>
		<stop  offset="0.343" style="stop-color:#D9659B"/>
		<stop  offset="0.616" style="stop-color:#B070BF"/>
		<stop  offset="0.934" style="stop-color:#777FF0"/>
		<stop  offset="1" style="stop-color:#6A82FB"/>
	</linearGradient>
	<path style="fill:url(#SVGID_4_);" d="M218.982,208.568l-80-32c-4.103-1.639-8.758,0.358-10.397,4.461
		c-0.378,0.945-0.571,1.953-0.571,2.971v64c0,4.418,3.582,8,8,8c1.017,0.003,2.024-0.19,2.968-0.568l80-32
		c4.105-1.635,6.106-6.288,4.471-10.393C222.64,210.998,221.023,209.381,218.982,208.568L218.982,208.568z M144.014,236.184v-40.368
		L194.478,216L144.014,236.184z"/>
	
		<linearGradient id="SVGID_5_" gradientUnits="userSpaceOnUse" x1="-13.3613" y1="618.542" x2="-13.3613" y2="554.145" gradientTransform="matrix(8 0 0 -8 454.9041 4941)">
		<stop  offset="0" style="stop-color:#FC5C7D"/>
		<stop  offset="0.129" style="stop-color:#F35E85"/>
		<stop  offset="0.343" style="stop-color:#D9659B"/>
		<stop  offset="0.616" style="stop-color:#B070BF"/>
		<stop  offset="0.934" style="stop-color:#777FF0"/>
		<stop  offset="1" style="stop-color:#6A82FB"/>
	</linearGradient>
	<path style="fill:url(#SVGID_5_);" d="M280.014,176h136v16h-136V176z"/>
	
		<linearGradient id="SVGID_6_" gradientUnits="userSpaceOnUse" x1="-13.3613" y1="618.542" x2="-13.3613" y2="554.145" gradientTransform="matrix(8 0 0 -8 454.9041 4941)">
		<stop  offset="0" style="stop-color:#FC5C7D"/>
		<stop  offset="0.129" style="stop-color:#F35E85"/>
		<stop  offset="0.343" style="stop-color:#D9659B"/>
		<stop  offset="0.616" style="stop-color:#B070BF"/>
		<stop  offset="0.934" style="stop-color:#777FF0"/>
		<stop  offset="1" style="stop-color:#6A82FB"/>
	</linearGradient>
	<path style="fill:url(#SVGID_6_);" d="M280.014,208h136v16h-136V208z"/>
	
		<linearGradient id="SVGID_7_" gradientUnits="userSpaceOnUse" x1="-15.8613" y1="618.542" x2="-15.8613" y2="554.145" gradientTransform="matrix(8 0 0 -8 454.9041 4941)">
		<stop  offset="0" style="stop-color:#FC5C7D"/>
		<stop  offset="0.129" style="stop-color:#F35E85"/>
		<stop  offset="0.343" style="stop-color:#D9659B"/>
		<stop  offset="0.616" style="stop-color:#B070BF"/>
		<stop  offset="0.934" style="stop-color:#777FF0"/>
		<stop  offset="1" style="stop-color:#6A82FB"/>
	</linearGradient>
	<path style="fill:url(#SVGID_7_);" d="M280.014,240h96v16h-96V240z"/>
	
		<linearGradient id="SVGID_8_" gradientUnits="userSpaceOnUse" x1="-9.8613" y1="618.542" x2="-9.8613" y2="554.145" gradientTransform="matrix(8 0 0 -8 454.9041 4941)">
		<stop  offset="0" style="stop-color:#FC5C7D"/>
		<stop  offset="0.129" style="stop-color:#F35E85"/>
		<stop  offset="0.343" style="stop-color:#D9659B"/>
		<stop  offset="0.616" style="stop-color:#B070BF"/>
		<stop  offset="0.934" style="stop-color:#777FF0"/>
		<stop  offset="1" style="stop-color:#6A82FB"/>
	</linearGradient>
	<path style="fill:url(#SVGID_8_);" d="M336.014,144h80v16h-80V144z"/>
	
		<linearGradient id="SVGID_9_" gradientUnits="userSpaceOnUse" x1="-17.8613" y1="618.542" x2="-17.8613" y2="554.145" gradientTransform="matrix(8 0 0 -8 454.9041 4941)">
		<stop  offset="0" style="stop-color:#FC5C7D"/>
		<stop  offset="0.129" style="stop-color:#F35E85"/>
		<stop  offset="0.343" style="stop-color:#D9659B"/>
		<stop  offset="0.616" style="stop-color:#B070BF"/>
		<stop  offset="0.934" style="stop-color:#777FF0"/>
		<stop  offset="1" style="stop-color:#6A82FB"/>
	</linearGradient>
	<path style="fill:url(#SVGID_9_);" d="M304.014,144h16v16h-16V144z"/>
	
		<linearGradient id="SVGID_10_" gradientUnits="userSpaceOnUse" x1="-32.3613" y1="618.542" x2="-32.3613" y2="554.145" gradientTransform="matrix(8 0 0 -8 454.9041 4941)">
		<stop  offset="0" style="stop-color:#FC5C7D"/>
		<stop  offset="0.129" style="stop-color:#F35E85"/>
		<stop  offset="0.343" style="stop-color:#D9659B"/>
		<stop  offset="0.616" style="stop-color:#B070BF"/>
		<stop  offset="0.934" style="stop-color:#777FF0"/>
		<stop  offset="1" style="stop-color:#6A82FB"/>
	</linearGradient>
	<path style="fill:url(#SVGID_10_);" d="M80.014,352h232v16h-232V352z"/>
	
		<linearGradient id="SVGID_11_" gradientUnits="userSpaceOnUse" x1="-32.3613" y1="618.542" x2="-32.3613" y2="554.145" gradientTransform="matrix(8 0 0 -8 454.9041 4941)">
		<stop  offset="0" style="stop-color:#FC5C7D"/>
		<stop  offset="0.129" style="stop-color:#F35E85"/>
		<stop  offset="0.343" style="stop-color:#D9659B"/>
		<stop  offset="0.616" style="stop-color:#B070BF"/>
		<stop  offset="0.934" style="stop-color:#777FF0"/>
		<stop  offset="1" style="stop-color:#6A82FB"/>
	</linearGradient>
	<path style="fill:url(#SVGID_11_);" d="M80.014,384h232v16h-232V384z"/>
	
		<linearGradient id="SVGID_12_" gradientUnits="userSpaceOnUse" x1="-28.8613" y1="618.542" x2="-28.8613" y2="554.145" gradientTransform="matrix(8 0 0 -8 454.9041 4941)">
		<stop  offset="0" style="stop-color:#FC5C7D"/>
		<stop  offset="0.129" style="stop-color:#F35E85"/>
		<stop  offset="0.343" style="stop-color:#D9659B"/>
		<stop  offset="0.616" style="stop-color:#B070BF"/>
		<stop  offset="0.934" style="stop-color:#777FF0"/>
		<stop  offset="1" style="stop-color:#6A82FB"/>
	</linearGradient>
	<path style="fill:url(#SVGID_12_);" d="M136.014,320h176v16h-176V320z"/>
	
		<linearGradient id="SVGID_13_" gradientUnits="userSpaceOnUse" x1="-42.8613" y1="618.542" x2="-42.8613" y2="554.145" gradientTransform="matrix(8 0 0 -8 454.9041 4941)">
		<stop  offset="0" style="stop-color:#FC5C7D"/>
		<stop  offset="0.129" style="stop-color:#F35E85"/>
		<stop  offset="0.343" style="stop-color:#D9659B"/>
		<stop  offset="0.616" style="stop-color:#B070BF"/>
		<stop  offset="0.934" style="stop-color:#777FF0"/>
		<stop  offset="1" style="stop-color:#6A82FB"/>
	</linearGradient>
	<path style="fill:url(#SVGID_13_);" d="M104.014,320h16v16h-16V320z"/>
	
		<linearGradient id="SVGID_14_" gradientUnits="userSpaceOnUse" x1="-46.8613" y1="618.542" x2="-46.8613" y2="554.145" gradientTransform="matrix(8 0 0 -8 454.9041 4941)">
		<stop  offset="0" style="stop-color:#FC5C7D"/>
		<stop  offset="0.129" style="stop-color:#F35E85"/>
		<stop  offset="0.343" style="stop-color:#D9659B"/>
		<stop  offset="0.616" style="stop-color:#B070BF"/>
		<stop  offset="0.934" style="stop-color:#777FF0"/>
		<stop  offset="1" style="stop-color:#6A82FB"/>
	</linearGradient>
	<path style="fill:url(#SVGID_14_);" d="M72.014,72h16v16h-16V72z"/>
	
		<linearGradient id="SVGID_15_" gradientUnits="userSpaceOnUse" x1="-42.8613" y1="618.542" x2="-42.8613" y2="554.145" gradientTransform="matrix(8 0 0 -8 454.9041 4941)">
		<stop  offset="0" style="stop-color:#FC5C7D"/>
		<stop  offset="0.129" style="stop-color:#F35E85"/>
		<stop  offset="0.343" style="stop-color:#D9659B"/>
		<stop  offset="0.616" style="stop-color:#B070BF"/>
		<stop  offset="0.934" style="stop-color:#777FF0"/>
		<stop  offset="1" style="stop-color:#6A82FB"/>
	</linearGradient>
	<path style="fill:url(#SVGID_15_);" d="M104.014,72h16v16h-16V72z"/>
	
		<linearGradient id="SVGID_16_" gradientUnits="userSpaceOnUse" x1="-38.8613" y1="618.542" x2="-38.8613" y2="554.145" gradientTransform="matrix(8 0 0 -8 454.9041 4941)">
		<stop  offset="0" style="stop-color:#FC5C7D"/>
		<stop  offset="0.129" style="stop-color:#F35E85"/>
		<stop  offset="0.343" style="stop-color:#D9659B"/>
		<stop  offset="0.616" style="stop-color:#B070BF"/>
		<stop  offset="0.934" style="stop-color:#777FF0"/>
		<stop  offset="1" style="stop-color:#6A82FB"/>
	</linearGradient>
	<path style="fill:url(#SVGID_16_);" d="M136.014,72h16v16h-16V72z"/>
</g>
<g>
</g>
<g>
</g>
<g>
</g>
<g>
</g>
<g>
</g>
<g>
</g>
<g>
</g>
<g>
</g>
<g>
</g>
<g>
</g>
<g>
</g>
<g>
</g>
<g>
</g>
<g>
</g>
<g>
</g>
</svg>
