<?xml version="1.0" encoding="iso-8859-1"?>
<!-- Generator: Adobe Illustrator 19.0.0, SVG Export Plug-In . SVG Version: 6.00 Build 0)  -->
<svg version="1.1" id="Capa_1" xmlns="http://www.w3.org/2000/svg" xmlns:xlink="http://www.w3.org/1999/xlink" x="0px" y="0px"
	 viewBox="0 0 480 480" style="enable-background:new 0 0 480 480;" xml:space="preserve">
<g>
	
		<linearGradient id="SVGID_1_" gradientUnits="userSpaceOnUse" x1="-26.875" y1="609.514" x2="-26.875" y2="543.605" gradientTransform="matrix(8 0 0 -8 455 4869)">
		<stop  offset="0" style="stop-color:#FC5C7D"/>
		<stop  offset="0.129" style="stop-color:#F35E85"/>
		<stop  offset="0.343" style="stop-color:#D9659B"/>
		<stop  offset="0.616" style="stop-color:#B070BF"/>
		<stop  offset="0.934" style="stop-color:#777FF0"/>
		<stop  offset="1" style="stop-color:#6A82FB"/>
	</linearGradient>
	<path style="fill:url(#SVGID_1_);" d="M232,392h16v16h-16V392z"/>
	
		<linearGradient id="SVGID_2_" gradientUnits="userSpaceOnUse" x1="-26.875" y1="609.514" x2="-26.875" y2="543.605" gradientTransform="matrix(8 0 0 -8 455 4869)">
		<stop  offset="0" style="stop-color:#FC5C7D"/>
		<stop  offset="0.129" style="stop-color:#F35E85"/>
		<stop  offset="0.343" style="stop-color:#D9659B"/>
		<stop  offset="0.616" style="stop-color:#B070BF"/>
		<stop  offset="0.934" style="stop-color:#777FF0"/>
		<stop  offset="1" style="stop-color:#6A82FB"/>
	</linearGradient>
	<path style="fill:url(#SVGID_2_);" d="M472,408h-8V120c0-17.673-14.327-32-32-32h-32V40c0-17.673-14.327-32-32-32H176
		c-17.673,0-32,14.327-32,32v8h-16c-17.673,0-32,14.327-32,32v8H48c-17.673,0-32,14.327-32,32v288H8c-4.418,0-8,3.582-8,8v24
		c0,17.673,14.327,32,32,32h416c17.673,0,32-14.327,32-32v-24C480,411.582,476.418,408,472,408z M160,40c0-8.837,7.163-16,16-16h192
		c8.837,0,16,7.163,16,16v128c0,8.837-7.163,16-16,16h-16c-2.518,0-4.889,1.186-6.4,3.2L328,210.664L310.4,187.2
		c-1.511-2.014-3.882-3.2-6.4-3.2H176c-8.837,0-16-7.163-16-16V40z M112,80c0-8.837,7.163-16,16-16h16v104c0,17.673,14.327,32,32,32
		h104v8c0,8.837-7.163,16-16,16h-56c-2.518,0-4.889,1.186-6.4,3.2L184,250.664L166.4,227.2c-1.511-2.014-3.882-3.2-6.4-3.2h-32
		c-8.837,0-16-7.163-16-16V80z M128,240h28l21.6,28.8c2.651,3.535,7.665,4.251,11.2,1.6c0.606-0.455,1.145-0.994,1.6-1.6L212,240h52
		c17.673,0,32-14.327,32-32v-8h4l21.6,28.8c2.651,3.535,7.665,4.251,11.2,1.6c0.606-0.455,1.145-0.994,1.6-1.6L356,200h12
		c17.673,0,32-14.327,32-32v-32h16v224h-32v-8c-0.004-13.3-6.618-25.728-17.648-33.16c12.647-12.345,12.892-32.604,0.548-45.252
		s-32.604-12.892-45.252-0.548s-12.892,32.604-0.548,45.252c0.18,0.185,0.363,0.367,0.548,0.548
		C310.618,326.272,304.004,338.7,304,352v8H176v-8c-0.004-13.3-6.618-25.728-17.648-33.16c12.647-12.345,12.892-32.604,0.548-45.252
		s-32.604-12.892-45.252-0.548s-12.892,32.604-0.548,45.252c0.18,0.185,0.363,0.367,0.548,0.548
		C102.618,326.272,96.004,338.7,96,352v8H64V136h32v72C96,225.673,110.327,240,128,240L128,240z M344,328c13.255,0,24,10.745,24,24
		v8h-48v-8C320,338.745,330.745,328,344,328z M328,296c0-8.837,7.163-16,16-16s16,7.163,16,16s-7.163,16-16,16S328,304.837,328,296z
		 M136,328c13.255,0,24,10.745,24,24v8h-48v-8C112,338.745,122.745,328,136,328z M120,296c0-8.837,7.163-16,16-16s16,7.163,16,16
		s-7.163,16-16,16S120,304.837,120,296z M32,120c0-8.837,7.163-16,16-16h48v16H56c-4.418,0-8,3.582-8,8v240c0,4.418,3.582,8,8,8h368
		c4.418,0,8-3.582,8-8V128c0-4.418-3.582-8-8-8h-24v-16h32c8.837,0,16,7.163,16,16v288H312c-2.122,0-4.156,0.844-5.656,2.344
		L292.688,424H187.312l-13.656-13.656c-1.5-1.5-3.534-2.344-5.656-2.344H32L32,120z M464,440c0,8.837-7.163,16-16,16H32
		c-8.837,0-16-7.163-16-16v-16h148.688l13.656,13.656c1.5,1.5,3.534,2.344,5.656,2.344h112c2.122,0,4.156-0.844,5.656-2.344
		L315.312,424H464V440z"/>
</g>
<g>
	
		<linearGradient id="SVGID_3_" gradientUnits="userSpaceOnUse" x1="-19.875" y1="609.514" x2="-19.875" y2="543.605" gradientTransform="matrix(8 0 0 -8 455 4869)">
		<stop  offset="0" style="stop-color:#FC5C7D"/>
		<stop  offset="0.129" style="stop-color:#F35E85"/>
		<stop  offset="0.343" style="stop-color:#D9659B"/>
		<stop  offset="0.616" style="stop-color:#B070BF"/>
		<stop  offset="0.934" style="stop-color:#777FF0"/>
		<stop  offset="1" style="stop-color:#6A82FB"/>
	</linearGradient>
	<path style="fill:url(#SVGID_3_);" d="M232,48h128v16H232V48z"/>
	
		<linearGradient id="SVGID_4_" gradientUnits="userSpaceOnUse" x1="-22.875" y1="609.514" x2="-22.875" y2="543.605" gradientTransform="matrix(8 0 0 -8 455 4869)">
		<stop  offset="0" style="stop-color:#FC5C7D"/>
		<stop  offset="0.129" style="stop-color:#F35E85"/>
		<stop  offset="0.343" style="stop-color:#D9659B"/>
		<stop  offset="0.616" style="stop-color:#B070BF"/>
		<stop  offset="0.934" style="stop-color:#777FF0"/>
		<stop  offset="1" style="stop-color:#6A82FB"/>
	</linearGradient>
	<path style="fill:url(#SVGID_4_);" d="M184,80h176v16H184V80z"/>
	
		<linearGradient id="SVGID_5_" gradientUnits="userSpaceOnUse" x1="-22.875" y1="609.514" x2="-22.875" y2="543.605" gradientTransform="matrix(8 0 0 -8 455 4869)">
		<stop  offset="0" style="stop-color:#FC5C7D"/>
		<stop  offset="0.129" style="stop-color:#F35E85"/>
		<stop  offset="0.343" style="stop-color:#D9659B"/>
		<stop  offset="0.616" style="stop-color:#B070BF"/>
		<stop  offset="0.934" style="stop-color:#777FF0"/>
		<stop  offset="1" style="stop-color:#6A82FB"/>
	</linearGradient>
	<path style="fill:url(#SVGID_5_);" d="M184,112h176v16H184V112z"/>
	
		<linearGradient id="SVGID_6_" gradientUnits="userSpaceOnUse" x1="-24.875" y1="609.514" x2="-24.875" y2="543.605" gradientTransform="matrix(8 0 0 -8 455 4869)">
		<stop  offset="0" style="stop-color:#FC5C7D"/>
		<stop  offset="0.129" style="stop-color:#F35E85"/>
		<stop  offset="0.343" style="stop-color:#D9659B"/>
		<stop  offset="0.616" style="stop-color:#B070BF"/>
		<stop  offset="0.934" style="stop-color:#777FF0"/>
		<stop  offset="1" style="stop-color:#6A82FB"/>
	</linearGradient>
	<path style="fill:url(#SVGID_6_);" d="M184,144h144v16H184V144z"/>
	
		<linearGradient id="SVGID_7_" gradientUnits="userSpaceOnUse" x1="-30.875" y1="609.514" x2="-30.875" y2="543.605" gradientTransform="matrix(8 0 0 -8 455 4869)">
		<stop  offset="0" style="stop-color:#FC5C7D"/>
		<stop  offset="0.129" style="stop-color:#F35E85"/>
		<stop  offset="0.343" style="stop-color:#D9659B"/>
		<stop  offset="0.616" style="stop-color:#B070BF"/>
		<stop  offset="0.934" style="stop-color:#777FF0"/>
		<stop  offset="1" style="stop-color:#6A82FB"/>
	</linearGradient>
	<path style="fill:url(#SVGID_7_);" d="M200,48h16v16h-16V48z"/>
</g>
<g>
</g>
<g>
</g>
<g>
</g>
<g>
</g>
<g>
</g>
<g>
</g>
<g>
</g>
<g>
</g>
<g>
</g>
<g>
</g>
<g>
</g>
<g>
</g>
<g>
</g>
<g>
</g>
<g>
</g>
</svg>
