<?xml version="1.0" encoding="iso-8859-1"?>
<!-- Generator: Adobe Illustrator 19.0.0, SVG Export Plug-In . SVG Version: 6.00 Build 0)  -->
<svg version="1.1" id="Capa_1" xmlns="http://www.w3.org/2000/svg" xmlns:xlink="http://www.w3.org/1999/xlink" x="0px" y="0px"
	 viewBox="0 0 480 480" style="enable-background:new 0 0 480 480;" xml:space="preserve">
<linearGradient id="SVGID_1_" gradientUnits="userSpaceOnUse" x1="-26.875" y1="616.38" x2="-26.875" y2="556.025" gradientTransform="matrix(8 0 0 -8 455 4941)">
	<stop  offset="0" style="stop-color:#FC5C7D"/>
	<stop  offset="0.129" style="stop-color:#F35E85"/>
	<stop  offset="0.343" style="stop-color:#D9659B"/>
	<stop  offset="0.616" style="stop-color:#B070BF"/>
	<stop  offset="0.934" style="stop-color:#777FF0"/>
	<stop  offset="1" style="stop-color:#6A82FB"/>
</linearGradient>
<path style="fill:url(#SVGID_1_);" d="M96,104v16c-17.673,0-32,14.327-32,32s14.327,32,32,32v16
	c-0.029,21.374,6.08,42.308,17.6,60.312l13.48-8.624c-9.872-15.43-15.107-33.37-15.08-51.688v-40h24v37.2
	c0.044,41.293,33.507,74.756,74.8,74.8h58.4c41.293-0.044,74.756-33.507,74.8-74.8V160h24v40c-0.057,52.996-43.004,95.943-96,96h-64
	c-18.121,0.026-35.877-5.095-51.2-14.768l-8.536,13.536C166.144,306.05,186.858,312.026,208,312h8v120h-56
	c-13.255,0-24,10.745-24,24s10.745,24,24,24h160c13.255,0,24-10.745,24-24s-10.745-24-24-24h-56V312h8
	c61.828-0.066,111.934-50.172,112-112v-16c17.673,0,32-14.327,32-32s-14.327-32-32-32v-16h-16v40h-24V74.8
	C343.956,33.507,310.493,0.044,269.2,0h-58.4c-41.293,0.044-74.756,33.507-74.8,74.8V144h-24v-40H96z M328,456c0,4.418-3.582,8-8,8
	H160c-4.418,0-8-3.582-8-8s3.582-8,8-8h160C324.418,448,328,451.582,328,456z M248,432h-16V312h16V432z M400,152
	c0,8.837-7.163,16-16,16v-32C392.837,136,400,143.163,400,152z M152,128h48v-16h-48V96h48V80h-48v-5.2
	c0.045-28.285,20.201-52.54,48-57.76V56h16V16h16v40h16V16h16v40h16V17.04c27.799,5.22,47.955,29.475,48,57.76V80h-48v16h48v16h-48
	v16h48v16h-48v16h48v16h-48v16h48v5.2c-0.045,28.285-20.201,52.54-48,57.76V216h-16v40h-16v-40h-16v40h-16v-40h-16v38.96
	c-27.799-5.22-47.955-29.475-48-57.76V192h48v-16h-48v-16h48v-16h-48V128z M80,152c0-8.837,7.163-16,16-16v32
	C87.163,168,80,160.837,80,152z"/>
<g>
</g>
<g>
</g>
<g>
</g>
<g>
</g>
<g>
</g>
<g>
</g>
<g>
</g>
<g>
</g>
<g>
</g>
<g>
</g>
<g>
</g>
<g>
</g>
<g>
</g>
<g>
</g>
<g>
</g>
</svg>
