<?xml version="1.0" encoding="iso-8859-1"?>
<!-- Generator: Adobe Illustrator 19.0.0, SVG Export Plug-In . SVG Version: 6.00 Build 0)  -->
<svg version="1.1" id="Capa_1" xmlns="http://www.w3.org/2000/svg" xmlns:xlink="http://www.w3.org/1999/xlink" x="0px" y="0px"
	 viewBox="0 0 480.021 480.021" style="enable-background:new 0 0 480.021 480.021;" xml:space="preserve">
<linearGradient id="SVGID_1_" gradientUnits="userSpaceOnUse" x1="-47.0841" y1="626.2978" x2="-47.0841" y2="564.6548" gradientTransform="matrix(8 0 0 -8 454.8503 5013.0884)">
	<stop  offset="0" style="stop-color:#FC5C7D"/>
	<stop  offset="0.129" style="stop-color:#F35E85"/>
	<stop  offset="0.343" style="stop-color:#D9659B"/>
	<stop  offset="0.616" style="stop-color:#B070BF"/>
	<stop  offset="0.934" style="stop-color:#777FF0"/>
	<stop  offset="1" style="stop-color:#6A82FB"/>
</linearGradient>
<path style="fill:url(#SVGID_1_);" d="M107.717,234.818l-7.392-14.184c-23.263,12.135-41.548,32.025-51.688,56.224l14.768,6.168
	C72.097,262.277,87.773,245.223,107.717,234.818L107.717,234.818z"/>
<g>
	
		<linearGradient id="SVGID_2_" gradientUnits="userSpaceOnUse" x1="-37.8536" y1="626.2978" x2="-37.8536" y2="564.6548" gradientTransform="matrix(8 0 0 -8 454.8503 5013.0884)">
		<stop  offset="0" style="stop-color:#FC5C7D"/>
		<stop  offset="0.129" style="stop-color:#F35E85"/>
		<stop  offset="0.343" style="stop-color:#D9659B"/>
		<stop  offset="0.616" style="stop-color:#B070BF"/>
		<stop  offset="0.934" style="stop-color:#777FF0"/>
		<stop  offset="1" style="stop-color:#6A82FB"/>
	</linearGradient>
	<path style="fill:url(#SVGID_2_);" d="M45.621,305.226c-2.972,1.237-4.991,4.045-5.216,7.256c-0.208,2.496-0.384,4.992-0.384,7.528
		c0,61.856,50.144,112,112,112s112-50.144,112-112c0-3.544-0.2-7.04-0.528-10.496c-0.286-3.064-2.305-5.693-5.192-6.76
		c-16.114-5.93-34.203-1.997-46.4,10.088c-10.966,10.951-28.73,10.951-39.696,0l-4.984-4.984c-17.225-17.186-45.111-17.186-62.336,0
		l-4.984,4.984c-10.966,10.951-28.73,10.951-39.696,0l-6.104-6.104C51.819,304.608,48.499,304.016,45.621,305.226L45.621,305.226z
		 M111.221,324.162l4.984-4.984c10.966-10.951,28.73-10.951,39.696,0l4.984,4.984c17.225,17.186,45.111,17.186,62.336,0
		c6.503-6.447,15.739-9.322,24.752-7.704c0.056,1.176,0.08,2.4,0.08,3.552c0.187,53.019-42.641,96.151-95.66,96.339
		c-49.288,0.174-90.7-37.005-95.82-86.027C74,341.249,96.664,338.694,111.221,324.162L111.221,324.162z"/>
	
		<linearGradient id="SVGID_3_" gradientUnits="userSpaceOnUse" x1="-40.9306" y1="626.2978" x2="-40.9306" y2="564.6548" gradientTransform="matrix(8 0 0 -8 454.8503 5013.0884)">
		<stop  offset="0" style="stop-color:#FC5C7D"/>
		<stop  offset="0.129" style="stop-color:#F35E85"/>
		<stop  offset="0.343" style="stop-color:#D9659B"/>
		<stop  offset="0.616" style="stop-color:#B070BF"/>
		<stop  offset="0.934" style="stop-color:#777FF0"/>
		<stop  offset="1" style="stop-color:#6A82FB"/>
	</linearGradient>
	<path style="fill:url(#SVGID_3_);" d="M134.797,209.33c-5.843,0.902-11.605,2.266-17.232,4.08l4.912,15.2
		c4.822-1.558,9.76-2.73,14.768-3.504L134.797,209.33z"/>
	
		<linearGradient id="SVGID_4_" gradientUnits="userSpaceOnUse" x1="-36.8536" y1="626.2978" x2="-36.8536" y2="564.6548" gradientTransform="matrix(8 0 0 -8 454.8503 5013.0884)">
		<stop  offset="0" style="stop-color:#FC5C7D"/>
		<stop  offset="0.129" style="stop-color:#F35E85"/>
		<stop  offset="0.343" style="stop-color:#D9659B"/>
		<stop  offset="0.616" style="stop-color:#B070BF"/>
		<stop  offset="0.934" style="stop-color:#777FF0"/>
		<stop  offset="1" style="stop-color:#6A82FB"/>
	</linearGradient>
	<path style="fill:url(#SVGID_4_);" d="M152.021,376.01h16v16h-16V376.01z"/>
	
		<linearGradient id="SVGID_5_" gradientUnits="userSpaceOnUse" x1="-39.8536" y1="626.2978" x2="-39.8536" y2="564.6548" gradientTransform="matrix(8 0 0 -8 454.8503 5013.0884)">
		<stop  offset="0" style="stop-color:#FC5C7D"/>
		<stop  offset="0.129" style="stop-color:#F35E85"/>
		<stop  offset="0.343" style="stop-color:#D9659B"/>
		<stop  offset="0.616" style="stop-color:#B070BF"/>
		<stop  offset="0.934" style="stop-color:#777FF0"/>
		<stop  offset="1" style="stop-color:#6A82FB"/>
	</linearGradient>
	<path style="fill:url(#SVGID_5_);" d="M128.021,328.01h16v16h-16V328.01z"/>
	
		<linearGradient id="SVGID_6_" gradientUnits="userSpaceOnUse" x1="-44.8536" y1="626.2978" x2="-44.8536" y2="564.6548" gradientTransform="matrix(8 0 0 -8 454.8503 5013.0884)">
		<stop  offset="0" style="stop-color:#FC5C7D"/>
		<stop  offset="0.129" style="stop-color:#F35E85"/>
		<stop  offset="0.343" style="stop-color:#D9659B"/>
		<stop  offset="0.616" style="stop-color:#B070BF"/>
		<stop  offset="0.934" style="stop-color:#777FF0"/>
		<stop  offset="1" style="stop-color:#6A82FB"/>
	</linearGradient>
	<path style="fill:url(#SVGID_6_);" d="M88.021,352.01h16v16h-16V352.01z"/>
	
		<linearGradient id="SVGID_7_" gradientUnits="userSpaceOnUse" x1="-30.8536" y1="626.2978" x2="-30.8536" y2="564.6548" gradientTransform="matrix(8 0 0 -8 454.8503 5013.0884)">
		<stop  offset="0" style="stop-color:#FC5C7D"/>
		<stop  offset="0.129" style="stop-color:#F35E85"/>
		<stop  offset="0.343" style="stop-color:#D9659B"/>
		<stop  offset="0.616" style="stop-color:#B070BF"/>
		<stop  offset="0.934" style="stop-color:#777FF0"/>
		<stop  offset="1" style="stop-color:#6A82FB"/>
	</linearGradient>
	<path style="fill:url(#SVGID_7_);" d="M200.021,352.01h16v16h-16V352.01z"/>
	
		<linearGradient id="SVGID_8_" gradientUnits="userSpaceOnUse" x1="-26.855" y1="626.2978" x2="-26.855" y2="564.6548" gradientTransform="matrix(8 0 0 -8 454.8503 5013.0884)">
		<stop  offset="0" style="stop-color:#FC5C7D"/>
		<stop  offset="0.129" style="stop-color:#F35E85"/>
		<stop  offset="0.343" style="stop-color:#D9659B"/>
		<stop  offset="0.616" style="stop-color:#B070BF"/>
		<stop  offset="0.934" style="stop-color:#777FF0"/>
		<stop  offset="1" style="stop-color:#6A82FB"/>
	</linearGradient>
	<path style="fill:url(#SVGID_8_);" d="M360.021,141.866V120.01c13.255,0,24-10.745,24-24s-10.745-24-24-24h-32v-40
		c0-13.255-10.745-24-24-24h-136c-13.255,0-24,10.745-24,24v40h-32c-13.255,0-24,10.745-24,24s10.745,24,24,24v53.44
		C31.036,195.55-16.7,279.119,5.4,360.104c3.427,12.56,8.454,24.627,14.957,35.905l13.856-8
		c-37.524-65.035-15.221-148.176,49.815-185.7c11.779-6.796,24.51-11.786,37.769-14.804c3.644-0.83,6.228-4.071,6.224-7.808V120.01
		h48v59.688c-0.004,3.737,2.58,6.978,6.224,7.808c73.202,16.708,118.999,89.594,102.29,162.796
		c-16.708,73.202-89.594,118.999-162.796,102.29c-25.927-5.918-49.55-19.31-67.942-38.518l-11.552,11.072
		c57.927,60.569,153.988,62.71,214.556,4.783c9.31-8.904,17.449-18.958,24.22-29.919h159.448
		c21.84,0.004,39.547-17.697,39.552-39.536c0.001-6.942-1.825-13.763-5.296-19.776L360.021,141.866z M368.021,96.01
		c0,4.418-3.582,8-8,8h-80c-4.418,0-8-3.582-8-8s3.582-8,8-8h80C364.44,88.01,368.021,91.592,368.021,96.01z M104.021,96.01
		c0-4.418,3.582-8,8-8h80c4.418,0,8,3.582,8,8s-3.582,8-8,8h-80C107.603,104.01,104.021,100.428,104.021,96.01z M192.021,120.01
		c13.255,0,24-10.745,24-24s-10.745-24-24-24h-32v-40c0-4.418,3.582-8,8-8h136c4.418,0,8,3.582,8,8v40h-32
		c-13.255,0-24,10.745-24,24s10.745,24,24,24v21.856l-33.864,58.696c-16.045-12.576-34.455-21.796-54.136-27.112L192.021,120.01z
		 M300.021,285.378l0.168-0.168c11.106-10.608,28.59-10.608,39.696,0l4.984,4.984c11.285,11.226,27.753,15.481,43.064,11.128
		l22.752,42.688H301.933c1.333-7.932,2.031-15.957,2.088-24C304.007,308.351,302.665,296.733,300.021,285.378L300.021,285.378z
		 M440.469,384.01H289.701c3.608-7.736,6.552-15.765,8.8-24h125.52c4.418-0.001,8-3.583,7.999-8.001
		c0-1.314-0.324-2.608-0.943-3.767l-32.344-60.64c-2.02-3.792-6.676-5.311-10.544-3.44c-10.704,5.226-23.542,3.107-32-5.28
		l-4.984-4.984c-14.98-14.991-38.519-17.174-56-5.192c-3.585-10.027-8.222-19.646-13.832-28.696l15.12-28.328l-14.12-7.536
		l-11.312,21.176c-3.915-4.925-8.137-9.599-12.64-13.992l36.528-63.32c0.702-1.216,1.072-2.596,1.072-4v-24h48v24
		c0,1.404,0.37,2.784,1.072,4l115.776,200.68c6.499,11.267,2.634,25.67-8.633,32.169C448.658,382.923,444.6,384.01,440.469,384.01
		L440.469,384.01z"/>
</g>
<linearGradient id="SVGID_9_" gradientUnits="userSpaceOnUse" x1="-17.4117" y1="618.1413" x2="-71.6207" y2="588.7943" gradientTransform="matrix(3.8086 -7.0352 -7.0352 -3.8086 4719.0825 2234.4824)">
	<stop  offset="0" style="stop-color:#FC5C7D"/>
	<stop  offset="0.129" style="stop-color:#F35E85"/>
	<stop  offset="0.343" style="stop-color:#D9659B"/>
	<stop  offset="0.616" style="stop-color:#B070BF"/>
	<stop  offset="0.934" style="stop-color:#777FF0"/>
	<stop  offset="1" style="stop-color:#6A82FB"/>
</linearGradient>
<path style="fill:url(#SVGID_9_);" d="M293.176,187.236l7.617-14.07l14.07,7.617l-7.617,14.07L293.176,187.236z"/>
<g>
	
		<linearGradient id="SVGID_10_" gradientUnits="userSpaceOnUse" x1="-15.8536" y1="626.2978" x2="-15.8536" y2="564.6548" gradientTransform="matrix(8 0 0 -8 454.8503 5013.0884)">
		<stop  offset="0" style="stop-color:#FC5C7D"/>
		<stop  offset="0.129" style="stop-color:#F35E85"/>
		<stop  offset="0.343" style="stop-color:#D9659B"/>
		<stop  offset="0.616" style="stop-color:#B070BF"/>
		<stop  offset="0.934" style="stop-color:#777FF0"/>
		<stop  offset="1" style="stop-color:#6A82FB"/>
	</linearGradient>
	<path style="fill:url(#SVGID_10_);" d="M320.021,304.01h16v16h-16V304.01z"/>
	
		<linearGradient id="SVGID_11_" gradientUnits="userSpaceOnUse" x1="-10.8536" y1="626.2978" x2="-10.8536" y2="564.6548" gradientTransform="matrix(8 0 0 -8 454.8503 5013.0884)">
		<stop  offset="0" style="stop-color:#FC5C7D"/>
		<stop  offset="0.129" style="stop-color:#F35E85"/>
		<stop  offset="0.343" style="stop-color:#D9659B"/>
		<stop  offset="0.616" style="stop-color:#B070BF"/>
		<stop  offset="0.934" style="stop-color:#777FF0"/>
		<stop  offset="1" style="stop-color:#6A82FB"/>
	</linearGradient>
	<path style="fill:url(#SVGID_11_);" d="M360.021,320.01h16v16h-16V320.01z"/>
</g>
<g>
</g>
<g>
</g>
<g>
</g>
<g>
</g>
<g>
</g>
<g>
</g>
<g>
</g>
<g>
</g>
<g>
</g>
<g>
</g>
<g>
</g>
<g>
</g>
<g>
</g>
<g>
</g>
<g>
</g>
</svg>
