<?xml version="1.0" encoding="iso-8859-1"?>
<!-- Generator: Adobe Illustrator 19.0.0, SVG Export Plug-In . SVG Version: 6.00 Build 0)  -->
<svg version="1.1" id="Capa_1" xmlns="http://www.w3.org/2000/svg" xmlns:xlink="http://www.w3.org/1999/xlink" x="0px" y="0px"
	 viewBox="0 0 464 464" style="enable-background:new 0 0 464 464;" xml:space="preserve">
<linearGradient id="SVGID_1_" gradientUnits="userSpaceOnUse" x1="-23.4369" y1="600.402" x2="-23.4369" y2="539.155" gradientTransform="matrix(8 0 0 -8 419.4955 4797)">
	<stop  offset="0" style="stop-color:#FC5C7D"/>
	<stop  offset="0.129" style="stop-color:#F35E85"/>
	<stop  offset="0.343" style="stop-color:#D9659B"/>
	<stop  offset="0.616" style="stop-color:#B070BF"/>
	<stop  offset="0.934" style="stop-color:#777FF0"/>
	<stop  offset="1" style="stop-color:#6A82FB"/>
</linearGradient>
<path style="fill:url(#SVGID_1_);" d="M109.304,319.768c30.133,30.121,69.477,49.293,111.768,54.464V416h-88
	c-13.255,0-24,10.745-24,24s10.745,24,24,24h224c13.255,0,24-10.745,24-24s-10.745-24-24-24h-88v-41.768
	c39.536-4.913,76.542-22.081,105.824-49.096l24.52,24.52l11.312-11.312l-52.8-52.8c56.191-62.219,51.304-158.209-10.914-214.4
	c-57.789-52.19-145.697-52.19-203.486,0l-36.8-36.8l-0.208,0.208c1.656-3.272,2.53-6.885,2.552-10.552c0-13.255-10.745-24-24-24
	s-24,10.745-24,24s10.745,24,24,24c3.667-0.022,7.28-0.896,10.552-2.552l-0.208,0.208l8.52,8.52
	C34.359,129.877,36.725,246.941,109.304,319.768L109.304,319.768z M85.072,32c-4.418,0-8-3.582-8-8s3.582-8,8-8s8,3.582,8,8
	S89.49,32,85.072,32z M365.072,440c0,4.418-3.582,8-8,8h-224c-4.418,0-8-3.582-8-8s3.582-8,8-8h224
	C361.49,432,365.072,435.582,365.072,440z M253.072,416h-16v-40.472c2.664,0.112,5.328,0.384,8,0.384s5.336-0.272,8-0.384V416z
	 M150.976,143.712c0.311,18.911,2.786,37.724,7.376,56.072l-46.072,12.8c-4.187-19.162-4.152-39.005,0.104-58.152L150.976,143.712z
	 M377.872,155.416c4.187,19.162,4.152,39.005-0.104,58.152l-38.592,10.72c-0.311-18.911-2.786-37.724-7.376-56.072L377.872,155.416z
	 M258.768,263.2l14.736,53.032c-15.744,0.904-33.184-7.56-49.984-24.624c-4.593-4.732-8.869-9.761-12.8-15.056L258.768,263.2z
	 M201.168,262.6c-9.807-16.213-17.565-33.58-23.096-51.704l61.4-17.048l14.984,53.96L201.168,262.6z M288.928,312l-14.736-53.04
	l48.072-13.36c-0.636,6.567-1.705,13.086-3.2,19.512C313.44,288.392,302.872,304.64,288.928,312z M323.256,228.728l-53.384,14.792
	L254.92,189.6l61.456-17.072c4.604,18.369,6.915,37.238,6.88,56.176V228.728z M250.672,174.152l-14.984-53.96l53.336-14.816
	c9.813,16.211,17.574,33.579,23.104,51.704L250.672,174.152z M231.376,104.8L216.64,51.76c0.752-0.04,1.496-0.152,2.264-0.152
	c15.128,0,31.712,8.536,47.72,24.8c4.593,4.732,8.869,9.761,12.8,15.056L231.376,104.8z M201.216,56l14.736,53.04L167.88,122.4
	c0.636-6.567,1.705-13.086,3.2-19.512C176.704,79.608,187.272,63.36,201.216,56L201.216,56z M220.272,124.48l14.952,53.92
	l-61.456,17.072c-4.607-18.38-6.918-37.26-6.88-56.208L220.272,124.48z M162.672,215.2c5.531,18.087,13.117,35.48,22.608,51.84
	l-38.608,10.72c-13.525-14.202-23.791-31.184-30.08-49.76L162.672,215.2z M194.288,281.144c5.348,7.721,11.326,14.986,17.872,21.72
	c5.974,6.118,12.573,11.593,19.688,16.336c-25.964-2.607-50.637-12.602-71.096-28.8L194.288,281.144z M334.6,268.8
	c2.135-9.146,3.513-18.452,4.12-27.824l33.504-9.312c-9.185,24.428-25.179,45.711-46.088,61.328
	C329.796,285.246,332.633,277.138,334.6,268.8L334.6,268.8z M373.656,140l-46.144,12.8c-5.533-18.089-13.118-35.485-22.608-51.848
	l38.704-10.744C357.142,104.41,367.399,121.406,373.656,140L373.656,140z M329.52,77.528l-33.6,9.344
	c-5.348-7.721-11.326-14.986-17.872-21.72c-6.084-6.217-12.812-11.768-20.072-16.56c24.916,2.359,48.692,11.568,68.696,26.608
	c0.968,0.72,1.88,1.552,2.848,2.312L329.52,77.528z M164.008,74.984c-3.662,7.753-6.499,15.87-8.464,24.216
	c-2.135,9.146-3.513,18.452-4.12,27.824l-33.504,9.312c9.178-24.442,25.173-45.74,46.088-61.368V74.984z M132.208,82.464
	c-56.191,62.219-51.305,158.209,10.914,214.4c57.789,52.191,145.697,52.191,203.486,0l16.968,16.96
	c-71.601,65.549-182.783,60.642-248.332-10.959c-61.499-67.177-61.497-170.203,0.004-237.377L132.208,82.464z"/>
<g>
</g>
<g>
</g>
<g>
</g>
<g>
</g>
<g>
</g>
<g>
</g>
<g>
</g>
<g>
</g>
<g>
</g>
<g>
</g>
<g>
</g>
<g>
</g>
<g>
</g>
<g>
</g>
<g>
</g>
</svg>
