<?xml version="1.0" encoding="iso-8859-1"?>
<!-- Generator: Adobe Illustrator 19.0.0, SVG Export Plug-In . SVG Version: 6.00 Build 0)  -->
<svg version="1.1" id="Capa_1" xmlns="http://www.w3.org/2000/svg" xmlns:xlink="http://www.w3.org/1999/xlink" x="0px" y="0px"
	 viewBox="0 0 480.098 480.098" style="enable-background:new 0 0 480.098 480.098;" xml:space="preserve">
<linearGradient id="SVGID_1_" gradientUnits="userSpaceOnUse" x1="-26.783" y1="625.3253" x2="-26.783" y2="563.0213" gradientTransform="matrix(8 0 0 -8 454.3129 5013.3271)">
	<stop  offset="0" style="stop-color:#FC5C7D"/>
	<stop  offset="0.129" style="stop-color:#F35E85"/>
	<stop  offset="0.343" style="stop-color:#D9659B"/>
	<stop  offset="0.616" style="stop-color:#B070BF"/>
	<stop  offset="0.934" style="stop-color:#777FF0"/>
	<stop  offset="1" style="stop-color:#6A82FB"/>
</linearGradient>
<path style="fill:url(#SVGID_1_);" d="M472.098,8.036h-208c-4.418,0-8,3.582-8,8V26.34C133.661,8.629,20.048,93.526,2.337,215.964
	s67.186,236.05,189.623,253.762s236.05-67.186,253.762-189.623c1.245-8.609,1.988-17.283,2.225-25.978l27.944-15.048
	c2.59-1.394,4.206-4.098,4.208-7.04v-216C480.098,11.618,476.516,8.036,472.098,8.036L472.098,8.036z M16.298,256.036h87.904
	c0.397,29.656,4.119,59.174,11.096,88H39.666C25.428,316.806,17.445,286.743,16.298,256.036z M97.234,152.036
	c2.067,7.965,7.128,14.825,14.128,19.152c-4.328,22.704-6.691,45.738-7.064,68.848h-88c1.147-30.706,9.13-60.77,23.368-88H97.234z
	 M216.098,40.756v95.28h-57.136c-2.166-8.288-7.57-15.359-15-19.624C162.098,72.652,188.346,45.22,216.098,40.756z M128.098,176.036
	c14.547-0.055,27.227-9.915,30.864-24h57.136v88h-95.8c0.366-21.521,2.528-42.974,6.464-64.136
	C127.218,175.916,127.642,176.036,128.098,176.036z M128.098,128.036c8.837,0,16,7.163,16,16s-7.163,16-16,16s-16-7.163-16-16
	S119.262,128.036,128.098,128.036z M120.202,256.036h95.896v65.136c-11.195,2.927-19.937,11.669-22.864,22.864h-61.352
	C124.554,315.262,120.633,285.726,120.202,256.036z M224.098,368.036c-8.837,0-16-7.163-16-16s7.163-16,16-16s16,7.163,16,16
	S232.935,368.036,224.098,368.036z M193.234,360.036c2.927,11.195,11.669,19.937,22.864,22.864v72.456
	c-33.4-5.104-62.4-41.88-79.568-95.32H193.234z M232.098,455.348V382.9c11.195-2.927,19.937-11.669,22.864-22.864h56.432
	C294.01,413.38,264.794,450.132,232.098,455.348L232.098,455.348z M254.962,344.036c-2.927-11.195-11.669-19.937-22.864-22.864
	v-65.136h59.704l35.376,19.048c-1.463,23.287-5.174,46.379-11.08,68.952H254.962z M232.098,240.036v-88h24v80
	c0.002,2.942,1.618,5.646,4.208,7.04l1.784,0.96H232.098z M256.098,136.036h-24V40.412c8.038,0.3,16.051,1.067,24,2.296V136.036z
	 M170.41,47.1c-18.545,18.343-32.855,40.52-41.928,64.976c-0.136,0-0.256-0.04-0.384-0.04c-14.547,0.055-27.227,9.915-30.864,24
	H48.962C76.974,92.317,120.275,60.608,170.41,47.1z M48.962,360.036h70.752c11.64,38.4,29.176,69.32,50.472,88.872
	C120.144,435.365,76.932,403.686,48.962,360.036z M277.266,449.124c21.344-19.544,39.128-50.56,50.976-89.088h70.992
	C371.126,403.918,327.619,435.697,277.266,449.124L277.266,449.124z M408.53,344.036h-75.848c4.957-19.906,8.28-40.185,9.936-60.632
	l21.688,11.672c2.367,1.274,5.217,1.274,7.584,0l59.616-32.096C429.499,291.291,421.678,318.884,408.53,344.036z M464.098,227.236
	l-96,51.712l-96-51.712v-203.2h192V227.236z"/>
<linearGradient id="SVGID_2_" gradientUnits="userSpaceOnUse" x1="-10.7768" y1="625.3253" x2="-10.7768" y2="563.0213" gradientTransform="matrix(8 0 0 -8 454.3129 5013.3271)">
	<stop  offset="0" style="stop-color:#FC5C7D"/>
	<stop  offset="0.129" style="stop-color:#F35E85"/>
	<stop  offset="0.343" style="stop-color:#D9659B"/>
	<stop  offset="0.616" style="stop-color:#B070BF"/>
	<stop  offset="0.934" style="stop-color:#777FF0"/>
	<stop  offset="1" style="stop-color:#6A82FB"/>
</linearGradient>
<path style="fill:url(#SVGID_2_);" d="M292.218,215.028l72,40c2.414,1.339,5.346,1.339,7.76,0l72-40
	c2.541-1.409,4.118-4.086,4.12-6.992v-160c0-4.418-3.582-8-8-8h-144c-4.418,0-8,3.582-8,8v160
	C288.1,210.942,289.677,213.619,292.218,215.028z M304.098,152.036h56v82.4l-56-31.104V152.036z M376.098,234.436v-82.4h56v51.296
	L376.098,234.436z M432.098,136.036h-56v-80h56V136.036z M360.098,56.036v80h-56v-80H360.098z"/>
<g>
</g>
<g>
</g>
<g>
</g>
<g>
</g>
<g>
</g>
<g>
</g>
<g>
</g>
<g>
</g>
<g>
</g>
<g>
</g>
<g>
</g>
<g>
</g>
<g>
</g>
<g>
</g>
<g>
</g>
</svg>
