<?xml version="1.0" encoding="iso-8859-1"?>
<!-- Generator: Adobe Illustrator 19.0.0, SVG Export Plug-In . SVG Version: 6.00 Build 0)  -->
<svg version="1.1" id="Capa_1" xmlns="http://www.w3.org/2000/svg" xmlns:xlink="http://www.w3.org/1999/xlink" x="0px" y="0px"
	 viewBox="0 0 390.223 390.223" style="enable-background:new 0 0 390.223 390.223;" xml:space="preserve">
<linearGradient id="SVGID_1_" gradientUnits="userSpaceOnUse" x1="-72.1408" y1="573.8245" x2="-72.1408" y2="512.1815" gradientTransform="matrix(8 0 0 -8 772.2382 4540.8281)">
	<stop  offset="0" style="stop-color:#FC5C7D"/>
	<stop  offset="0.129" style="stop-color:#F35E85"/>
	<stop  offset="0.343" style="stop-color:#D9659B"/>
	<stop  offset="0.616" style="stop-color:#B070BF"/>
	<stop  offset="0.934" style="stop-color:#777FF0"/>
	<stop  offset="1" style="stop-color:#6A82FB"/>
</linearGradient>
<path style="fill:url(#SVGID_1_);" d="M307.824,14.52l-50.912,50.912l-11.32-11.32L234.28,65.424l11.312,11.32L234.28,88.056
	l-11.32-11.312c-3.174-3.001-8.138-3.001-11.312,0l-28.28,28.288c-3.123,3.124-3.123,8.188,0,11.312l5.656,5.656L51.48,259.536h-0.8
	v0.8l-20.048,20.04c-1.5,1.5-2.344,3.534-2.344,5.656v41.952L2.344,353.936c-3.123,3.124-3.123,8.188,0,11.312l22.632,22.632
	c3.124,3.123,8.188,3.123,11.312,0l25.936-25.944h41.952c2.122,0,4.156-0.844,5.656-2.344l158.4-158.4l5.656,5.656
	c3.124,3.123,8.188,3.123,11.312,0l28.296-28.288c3.123-3.124,3.123-8.188,0-11.312l-11.336-11.312l11.312-11.312l11.32,11.312
	l11.312-11.312l-11.32-11.312L375.696,82.4c18.999-18.488,19.413-48.877,0.925-67.876S327.744-4.888,308.745,13.6
	C308.434,13.902,308.127,14.209,307.824,14.52L307.824,14.52z M100.856,345.936H58.912c-2.122,0-4.156,0.844-5.656,2.344
	l-22.624,22.616l-11.32-11.312l22.632-22.624c1.5-1.5,2.344-3.534,2.344-5.656V289.36l13.824-13.824h113.136L100.856,345.936z
	 M186.68,260.104v-0.568H74.112l30.056-30.064l11.312,11.32l11.312-11.312l-11.312-11.32l11.32-11.312l22.624,22.632l11.312-11.312
	l-22.624-22.632l11.312-11.312l11.32,11.312l11.312-11.312l-11.32-11.312l11.32-11.32l22.624,22.632l11.312-11.312l-22.624-22.632
	l16.968-16.968l56.568,56.568L186.68,260.104z M279.528,189.88l-5.656-5.656l-67.88-67.888l-5.656-5.656l16.968-16.976l39.6,39.6
	l28.28,28.28l11.304,11.296L279.528,189.88z M290.848,144.624L268.216,122l-22.624-22.632l11.32-11.312l45.248,45.256
	L290.848,144.624z M373.76,48.456c0.024,8.494-3.352,16.644-9.376,22.632L313.472,122l-45.248-45.256l50.912-50.912
	c12.668-12.069,32.58-12.069,45.248,0C370.408,31.818,373.784,39.965,373.76,48.456L373.76,48.456z"/>
<linearGradient id="SVGID_2_" gradientUnits="userSpaceOnUse" x1="-61.7647" y1="565.6015" x2="-105.3527" y2="522.0135" gradientTransform="matrix(5.6569 -5.6569 -5.6569 -5.6569 3766.2454 2800.3784)">
	<stop  offset="0" style="stop-color:#FC5C7D"/>
	<stop  offset="0.129" style="stop-color:#F35E85"/>
	<stop  offset="0.343" style="stop-color:#D9659B"/>
	<stop  offset="0.616" style="stop-color:#B070BF"/>
	<stop  offset="0.934" style="stop-color:#777FF0"/>
	<stop  offset="1" style="stop-color:#6A82FB"/>
</linearGradient>
<path style="fill:url(#SVGID_2_);" d="M205.996,195.539l11.314-11.314l11.314,11.314l-11.314,11.314L205.996,195.539z"/>
<linearGradient id="SVGID_3_" gradientUnits="userSpaceOnUse" x1="-63.4198" y1="563.9436" x2="-107.0078" y2="520.3586" gradientTransform="matrix(5.6569 -5.6569 -5.6569 -5.6569 3721.0132 2781.6345)">
	<stop  offset="0" style="stop-color:#FC5C7D"/>
	<stop  offset="0.129" style="stop-color:#F35E85"/>
	<stop  offset="0.343" style="stop-color:#D9659B"/>
	<stop  offset="0.616" style="stop-color:#B070BF"/>
	<stop  offset="0.934" style="stop-color:#777FF0"/>
	<stop  offset="1" style="stop-color:#6A82FB"/>
</linearGradient>
<path style="fill:url(#SVGID_3_);" d="M160.77,240.791l11.314-11.314l11.314,11.314l-11.314,11.314L160.77,240.791z"/>
<g>
</g>
<g>
</g>
<g>
</g>
<g>
</g>
<g>
</g>
<g>
</g>
<g>
</g>
<g>
</g>
<g>
</g>
<g>
</g>
<g>
</g>
<g>
</g>
<g>
</g>
<g>
</g>
<g>
</g>
</svg>
