<?xml version="1.0" encoding="iso-8859-1"?>
<!-- Generator: Adobe Illustrator 19.0.0, SVG Export Plug-In . SVG Version: 6.00 Build 0)  -->
<svg version="1.1" id="Capa_1" xmlns="http://www.w3.org/2000/svg" xmlns:xlink="http://www.w3.org/1999/xlink" x="0px" y="0px"
	 viewBox="0 0 480 480" style="enable-background:new 0 0 480 480;" xml:space="preserve">
<linearGradient id="SVGID_1_" gradientUnits="userSpaceOnUse" x1="-26.875" y1="615.392" x2="-26.875" y2="554.721" gradientTransform="matrix(8 0 0 -8 455 4941)">
	<stop  offset="0" style="stop-color:#FC5C7D"/>
	<stop  offset="0.129" style="stop-color:#F35E85"/>
	<stop  offset="0.343" style="stop-color:#D9659B"/>
	<stop  offset="0.616" style="stop-color:#B070BF"/>
	<stop  offset="0.934" style="stop-color:#777FF0"/>
	<stop  offset="1" style="stop-color:#6A82FB"/>
</linearGradient>
<path style="fill:url(#SVGID_1_);" d="M88,456v16c0,4.418,3.582,8,8,8h32c4.418,0,8-3.582,8-8c0.004-10.707,0.766-21.4,2.28-32
	h203.44c1.514,10.6,2.276,21.293,2.28,32c0,4.418,3.582,8,8,8h32c4.418,0,8-3.582,8-8v-16
	c0.171-63.622-25.115-124.669-70.224-169.536L275.312,240l46.464-46.464C366.887,148.671,392.174,87.623,392,24V8
	c0-4.418-3.582-8-8-8h-32c-4.418,0-8,3.582-8,8c-0.004,10.707-0.766,21.4-2.28,32h-22.856
	c-4.338-17.046-21.674-27.347-38.719-23.009C268.84,19.869,260.013,28.696,257.136,40H138.28c-1.514-10.6-2.276-21.293-2.28-32
	c0-4.418-3.582-8-8-8H96c-4.418,0-8,3.582-8,8v16c-0.171,63.622,25.115,124.669,70.224,169.536L204.688,240l-46.464,46.464
	C113.113,331.329,87.826,392.377,88,456L88,456z M141.192,424c3.585-16.573,9.064-32.679,16.328-48h35.616
	c4.338,17.046,21.674,27.347,38.719,23.009c11.304-2.877,20.131-11.704,23.009-23.009h67.616c7.261,15.323,12.74,31.428,16.328,48
	H141.192z M260.688,296h-41.376L240,275.312L260.688,296z M201.536,313.776l1.776-1.776h73.376l1.776,1.776
	c13.8,13.802,25.745,29.34,35.536,46.224h-59.136c-4.338-17.046-21.674-27.347-38.719-23.008
	c-11.304,2.877-20.131,11.704-23.009,23.008H166C175.791,343.116,187.736,327.578,201.536,313.776L201.536,313.776z M240,368
	c0,8.837-7.163,16-16,16s-16-7.163-16-16s7.163-16,16-16S240,359.163,240,368z M359.872,16H376v8
	c0.162,59.377-23.437,116.352-65.536,158.224L264,228.688L251.312,216l38.464-38.464C332.928,134.628,358.01,76.825,359.872,16z
	 M219.312,184h41.376L240,204.688L219.312,184z M278.464,166.224L276.688,168h-73.376l-1.776-1.776
	c-13.8-13.802-25.745-29.34-35.536-46.224h148C304.209,136.884,292.264,152.422,278.464,166.224z M288,32c8.837,0,16,7.163,16,16
	s-7.163,16-16,16s-16-7.163-16-16S279.163,32,288,32z M257.136,56c4.338,17.046,21.674,27.347,38.719,23.009
	C307.16,76.131,315.987,67.304,318.864,56h19.944c-3.585,16.573-9.064,32.679-16.328,48H157.52
	c-7.261-15.323-12.74-31.428-16.328-48H257.136z M104,24v-8h16.128c1.865,60.824,26.947,118.626,70.096,161.536l44.12,44.12l24,24
	l52.12,52.12C352.561,339.65,376.159,396.623,376,456v8h-16.128c-1.865-60.824-26.947-118.626-70.096-161.536l-44.12-44.12l-24-24
	l-52.12-52.12C127.439,140.35,103.841,83.377,104,24L104,24z M216,251.312L228.688,264l-38.464,38.464
	C147.072,345.372,121.99,403.175,120.128,464H104v-8c-0.162-59.377,23.437-116.352,65.536-158.224L216,251.312z"/>
<g>
</g>
<g>
</g>
<g>
</g>
<g>
</g>
<g>
</g>
<g>
</g>
<g>
</g>
<g>
</g>
<g>
</g>
<g>
</g>
<g>
</g>
<g>
</g>
<g>
</g>
<g>
</g>
<g>
</g>
</svg>
