<?xml version="1.0" encoding="iso-8859-1"?>
<!-- Generator: Adobe Illustrator 19.0.0, SVG Export Plug-In . SVG Version: 6.00 Build 0)  -->
<svg version="1.1" id="Capa_1" xmlns="http://www.w3.org/2000/svg" xmlns:xlink="http://www.w3.org/1999/xlink" x="0px" y="0px"
	 viewBox="0 0 479.975 479.975" style="enable-background:new 0 0 479.975 479.975;" xml:space="preserve">
<linearGradient id="SVGID_1_" gradientUnits="userSpaceOnUse" x1="-26.8961" y1="619.604" x2="-26.8961" y2="553.925" gradientTransform="matrix(8 0 0 -8 455.1478 4941)">
	<stop  offset="0" style="stop-color:#FC5C7D"/>
	<stop  offset="0.129" style="stop-color:#F35E85"/>
	<stop  offset="0.343" style="stop-color:#D9659B"/>
	<stop  offset="0.616" style="stop-color:#B070BF"/>
	<stop  offset="0.934" style="stop-color:#777FF0"/>
	<stop  offset="1" style="stop-color:#6A82FB"/>
</linearGradient>
<path style="fill:url(#SVGID_1_);" d="M111.979,352c0.014,70.692,57.332,127.989,128.025,127.975s127.989-57.332,127.975-128.025
	c-0.011-58.359-39.494-109.321-96-123.911V192h8c4.418,0,8-3.582,8-8v-32c0-4.418-3.582-8-8-8h-32v-16h20
	c33.122-0.035,59.965-26.878,60-60V56c0-4.418-3.582-8-8-8h-28c-16.727,0.008-32.686,7.024-44,19.344V32h-16v19.344
	c-11.314-12.32-27.273-19.336-44-19.344h-28c-4.418,0-8,3.582-8,8v12c0.035,33.122,26.878,59.965,60,60h20v32h-32
	c-4.418,0-8,3.582-8,8v32c0,4.418,3.582,8,8,8h8v36C151.523,242.722,112.09,293.656,111.979,352z M291.979,64h20v4
	c-0.026,24.29-19.71,43.974-44,44h-20v-4C248.005,83.71,267.689,64.026,291.979,64z M167.979,52v-4h20
	c24.29,0.026,43.974,19.71,44,44v4h-20C187.689,95.974,168.005,76.29,167.979,52z M207.979,160h64v16h-64V160z M255.979,192v42.4
	c-0.001,3.802,2.675,7.08,6.4,7.84c60.606,12.371,99.708,71.531,87.337,132.137c-12.371,60.606-71.531,99.708-132.137,87.337
	s-99.708-71.531-87.337-132.137c8.978-43.985,43.352-78.359,87.337-87.337c3.725-0.76,6.401-4.038,6.4-7.84V192H255.979z"/>
<g>
	
		<linearGradient id="SVGID_2_" gradientUnits="userSpaceOnUse" x1="-26.7894" y1="619.604" x2="-26.7894" y2="553.925" gradientTransform="matrix(8 0 0 -8 455.1478 4941)">
		<stop  offset="0" style="stop-color:#FC5C7D"/>
		<stop  offset="0.129" style="stop-color:#F35E85"/>
		<stop  offset="0.343" style="stop-color:#D9659B"/>
		<stop  offset="0.616" style="stop-color:#B070BF"/>
		<stop  offset="0.934" style="stop-color:#777FF0"/>
		<stop  offset="1" style="stop-color:#6A82FB"/>
	</linearGradient>
	<path style="fill:url(#SVGID_2_);" d="M150.331,361.248l-2.296,2.296c-1.887,1.883-2.712,4.583-2.2,7.2
		c10.366,51.996,60.921,85.744,112.917,75.377c44.613-8.894,76.858-47.88,77.227-93.369c0.055-4.418-3.482-8.044-7.9-8.099
		c-0.454-0.006-0.908,0.027-1.356,0.099c-12.264,1.917-23.6,7.686-32.368,16.472c-16.771,16.728-43.917,16.728-60.688,0
		C210.637,338.245,173.348,338.256,150.331,361.248L150.331,361.248z M222.331,372.568c23.021,22.97,60.291,22.97,83.312,0
		c3.871-3.875,8.453-6.967,13.496-9.104c-6.372,43.721-46.98,73.998-90.701,67.626c-31.942-4.655-57.957-28.051-65.963-59.322
		c16.884-15.961,43.397-15.606,59.848,0.8L222.331,372.568z"/>
	
		<linearGradient id="SVGID_3_" gradientUnits="userSpaceOnUse" x1="-32.8961" y1="619.604" x2="-32.8961" y2="553.925" gradientTransform="matrix(8 0 0 -8 455.1478 4941)">
		<stop  offset="0" style="stop-color:#FC5C7D"/>
		<stop  offset="0.129" style="stop-color:#F35E85"/>
		<stop  offset="0.343" style="stop-color:#D9659B"/>
		<stop  offset="0.616" style="stop-color:#B070BF"/>
		<stop  offset="0.934" style="stop-color:#777FF0"/>
		<stop  offset="1" style="stop-color:#6A82FB"/>
	</linearGradient>
	<path style="fill:url(#SVGID_3_);" d="M183.979,376h16v16h-16V376z"/>
</g>
<linearGradient id="SVGID_4_" gradientUnits="userSpaceOnUse" x1="-26.8961" y1="619.604" x2="-26.8961" y2="553.925" gradientTransform="matrix(8 0 0 -8 455.1478 4941)">
	<stop  offset="0" style="stop-color:#FC5C7D"/>
	<stop  offset="0.129" style="stop-color:#F35E85"/>
	<stop  offset="0.343" style="stop-color:#D9659B"/>
	<stop  offset="0.616" style="stop-color:#B070BF"/>
	<stop  offset="0.934" style="stop-color:#777FF0"/>
	<stop  offset="1" style="stop-color:#6A82FB"/>
</linearGradient>
<path style="fill:url(#SVGID_4_);" d="M231.979,400h16v16h-16V400z"/>
<linearGradient id="SVGID_5_" gradientUnits="userSpaceOnUse" x1="-34.4886" y1="619.604" x2="-34.4886" y2="553.925" gradientTransform="matrix(8 0 0 -8 455.1478 4941)">
	<stop  offset="0" style="stop-color:#FC5C7D"/>
	<stop  offset="0.129" style="stop-color:#F35E85"/>
	<stop  offset="0.343" style="stop-color:#D9659B"/>
	<stop  offset="0.616" style="stop-color:#B070BF"/>
	<stop  offset="0.934" style="stop-color:#777FF0"/>
	<stop  offset="1" style="stop-color:#6A82FB"/>
</linearGradient>
<path style="fill:url(#SVGID_5_);" d="M210.883,277.456l-5.808-14.912c-27.967,10.993-49.217,34.388-57.48,63.28l15.392,4.352
	C169.876,306.105,187.582,286.616,210.883,277.456z"/>
<linearGradient id="SVGID_6_" gradientUnits="userSpaceOnUse" x1="-26.8961" y1="619.604" x2="-26.8961" y2="553.925" gradientTransform="matrix(8 0 0 -8 455.1478 4941)">
	<stop  offset="0" style="stop-color:#FC5C7D"/>
	<stop  offset="0.129" style="stop-color:#F35E85"/>
	<stop  offset="0.343" style="stop-color:#D9659B"/>
	<stop  offset="0.616" style="stop-color:#B070BF"/>
	<stop  offset="0.934" style="stop-color:#777FF0"/>
	<stop  offset="1" style="stop-color:#6A82FB"/>
</linearGradient>
<path style="fill:url(#SVGID_6_);" d="M231.979,0h16v16h-16V0z"/>
<g>
	
		<linearGradient id="SVGID_7_" gradientUnits="userSpaceOnUse" x1="-7.1755" y1="619.604" x2="-7.1755" y2="553.925" gradientTransform="matrix(8 0 0 -8 455.1478 4941)">
		<stop  offset="0" style="stop-color:#FC5C7D"/>
		<stop  offset="0.129" style="stop-color:#F35E85"/>
		<stop  offset="0.343" style="stop-color:#D9659B"/>
		<stop  offset="0.616" style="stop-color:#B070BF"/>
		<stop  offset="0.934" style="stop-color:#777FF0"/>
		<stop  offset="1" style="stop-color:#6A82FB"/>
	</linearGradient>
	<path style="fill:url(#SVGID_7_);" d="M356.467,67.656l-8.976,13.248c87.862,59.367,110.962,178.72,51.596,266.582
		c-4.065,6.016-8.468,11.797-13.188,17.314l12.16,10.4c74.669-87.298,64.432-218.597-22.866-293.266
		c-5.97-5.107-12.225-9.871-18.734-14.27L356.467,67.656z"/>
	
		<linearGradient id="SVGID_8_" gradientUnits="userSpaceOnUse" x1="-46.6161" y1="619.604" x2="-46.6161" y2="553.925" gradientTransform="matrix(8 0 0 -8 455.1478 4941)">
		<stop  offset="0" style="stop-color:#FC5C7D"/>
		<stop  offset="0.129" style="stop-color:#F35E85"/>
		<stop  offset="0.343" style="stop-color:#D9659B"/>
		<stop  offset="0.616" style="stop-color:#B070BF"/>
		<stop  offset="0.934" style="stop-color:#777FF0"/>
		<stop  offset="1" style="stop-color:#6A82FB"/>
	</linearGradient>
	<path style="fill:url(#SVGID_8_);" d="M31.979,240c-0.004,49.576,17.7,97.523,49.92,135.2l12.16-10.4
		c-68.925-80.582-59.476-201.782,21.106-270.707c5.511-4.714,11.285-9.112,17.294-13.173l-8.976-13.248
		C66.25,106.349,31.962,170.924,31.979,240L31.979,240z"/>
</g>
<g>
</g>
<g>
</g>
<g>
</g>
<g>
</g>
<g>
</g>
<g>
</g>
<g>
</g>
<g>
</g>
<g>
</g>
<g>
</g>
<g>
</g>
<g>
</g>
<g>
</g>
<g>
</g>
<g>
</g>
</svg>
