<?xml version="1.0" encoding="iso-8859-1"?>
<!-- Generator: Adobe Illustrator 19.0.0, SVG Export Plug-In . SVG Version: 6.00 Build 0)  -->
<svg version="1.1" id="Capa_1" xmlns="http://www.w3.org/2000/svg" xmlns:xlink="http://www.w3.org/1999/xlink" x="0px" y="0px"
	 viewBox="0 0 480.043 480.043" style="enable-background:new 0 0 480.043 480.043;" xml:space="preserve">
<linearGradient id="SVGID_1_" gradientUnits="userSpaceOnUse" x1="-26.8851" y1="616.1261" x2="-26.8851" y2="557.4321" gradientTransform="matrix(8 0 0 -8 455.0709 4941.2437)">
	<stop  offset="0" style="stop-color:#FC5C7D"/>
	<stop  offset="0.129" style="stop-color:#F35E85"/>
	<stop  offset="0.343" style="stop-color:#D9659B"/>
	<stop  offset="0.616" style="stop-color:#B070BF"/>
	<stop  offset="0.934" style="stop-color:#777FF0"/>
	<stop  offset="1" style="stop-color:#6A82FB"/>
</linearGradient>
<path style="fill:url(#SVGID_1_);" d="M191.99,213.219v2.808c-13.197-0.058-23.943,10.593-24.002,23.79
	c-0.027,5.995,2.201,11.781,6.242,16.21c-8.866,9.681-8.205,24.715,1.476,33.581c2.577,2.36,5.644,4.123,8.98,5.163l7.352,66.136
	c0.449,4.053,3.874,7.12,7.952,7.12v14.112l-15.16,30.312c-1.445,2.884-1.016,6.354,1.088,8.8l48,56
	c2.877,3.353,7.927,3.74,11.281,0.863c0.309-0.265,0.598-0.554,0.863-0.863l48-56c2.104-2.446,2.533-5.916,1.088-8.8l-15.16-30.312
	v-14.112c4.078,0,7.503-3.067,7.952-7.12l7.352-66.136c12.532-3.906,19.525-17.231,15.619-29.764
	c-1.04-3.337-2.803-6.403-5.163-8.98c8.894-9.75,8.2-24.864-1.55-33.758c-4.429-4.04-10.215-6.268-16.21-6.242v-2.808
	c55.887-26.51,79.703-93.306,53.193-149.193c-26.51-55.887-93.306-79.703-149.193-53.193s-79.703,93.306-53.193,149.193
	C149.865,183.36,168.656,202.151,191.99,213.219L191.99,213.219z M272.79,352.027h-65.6l-1.784-16h42.584v-16h-44.392l-2.672-24
	h78.128L272.79,352.027z M264.79,387.603l13.6,27.256l-38.4,44.872l-38.472-44.872l13.6-27.256c0.565-1.108,0.863-2.332,0.872-3.576
	v-16h16v32h16v-32h16v16C263.976,385.265,264.25,386.489,264.79,387.603z M287.99,280.027h-96c-4.418,0-8-3.582-8-8s3.582-8,8-8h96
	c4.418,0,8,3.582,8,8S292.408,280.027,287.99,280.027z M295.99,240.027c0,4.418-3.582,8-8,8h-96c-4.418,0-8-3.582-8-8s3.582-8,8-8
	h96C292.408,232.027,295.99,235.609,295.99,240.027z M239.99,16.027c53.019-0.01,96.008,42.963,96.018,95.982
	c0.007,38.77-23.307,73.738-59.098,88.642c-2.977,1.242-4.917,4.15-4.92,7.376v8h-24v-44.688l29.656-29.656l-11.312-11.312
	l-26.344,26.344l-26.344-26.344l-11.312,11.312l29.656,29.656v44.688h-24v-8c-0.003-3.226-1.943-6.134-4.92-7.376
	c-48.946-20.381-72.102-76.581-51.722-125.526C166.251,39.334,201.22,16.02,239.99,16.027L239.99,16.027z"/>
<g>
	
		<linearGradient id="SVGID_2_" gradientUnits="userSpaceOnUse" x1="-33.2186" y1="616.1261" x2="-33.2186" y2="557.4321" gradientTransform="matrix(8 0 0 -8 455.0709 4941.2437)">
		<stop  offset="0" style="stop-color:#FC5C7D"/>
		<stop  offset="0.129" style="stop-color:#F35E85"/>
		<stop  offset="0.343" style="stop-color:#D9659B"/>
		<stop  offset="0.616" style="stop-color:#B070BF"/>
		<stop  offset="0.934" style="stop-color:#777FF0"/>
		<stop  offset="1" style="stop-color:#6A82FB"/>
	</linearGradient>
	<path style="fill:url(#SVGID_2_);" d="M218.654,51.667l-5.328-15.088c-31.944,11.341-53.3,41.551-53.336,75.448h16
		C176.014,84.909,193.098,60.739,218.654,51.667z"/>
	
		<linearGradient id="SVGID_3_" gradientUnits="userSpaceOnUse" x1="-45.1994" y1="616.1261" x2="-45.1994" y2="557.4321" gradientTransform="matrix(8 0 0 -8 455.0709 4941.2437)">
		<stop  offset="0" style="stop-color:#FC5C7D"/>
		<stop  offset="0.129" style="stop-color:#F35E85"/>
		<stop  offset="0.343" style="stop-color:#D9659B"/>
		<stop  offset="0.616" style="stop-color:#B070BF"/>
		<stop  offset="0.934" style="stop-color:#777FF0"/>
		<stop  offset="1" style="stop-color:#6A82FB"/>
	</linearGradient>
	<path style="fill:url(#SVGID_3_);" d="M156.79,439.411l6.168-14.76C61.006,382.066,12.88,264.897,55.465,162.945
		c12.444-29.793,31.915-56.132,56.749-76.766l-10.248-12.312C10.192,150.136-2.378,286.361,73.891,378.135
		C96.175,404.95,124.618,425.974,156.79,439.411L156.79,439.411z"/>
	
		<linearGradient id="SVGID_4_" gradientUnits="userSpaceOnUse" x1="-8.5739" y1="616.1261" x2="-8.5739" y2="557.4321" gradientTransform="matrix(8 0 0 -8 455.0709 4941.2437)">
		<stop  offset="0" style="stop-color:#FC5C7D"/>
		<stop  offset="0.129" style="stop-color:#F35E85"/>
		<stop  offset="0.343" style="stop-color:#D9659B"/>
		<stop  offset="0.616" style="stop-color:#B070BF"/>
		<stop  offset="0.934" style="stop-color:#777FF0"/>
		<stop  offset="1" style="stop-color:#6A82FB"/>
	</linearGradient>
	<path style="fill:url(#SVGID_4_);" d="M439.99,240.027c0.139,80.797-48.453,153.705-123.08,184.672l6.16,14.768
		c110.138-45.913,162.202-172.417,116.29-282.555c-13.437-32.233-34.486-60.728-61.346-83.045l-10.232,12.312
		C413.578,124.136,440.054,180.545,439.99,240.027z"/>
</g>
<g>
	
		<linearGradient id="SVGID_5_" gradientUnits="userSpaceOnUse" x1="-26.8851" y1="616.1261" x2="-26.8851" y2="557.4321" gradientTransform="matrix(8 0 0 -8 455.0709 4941.2437)">
		<stop  offset="0" style="stop-color:#FC5C7D"/>
		<stop  offset="0.129" style="stop-color:#F35E85"/>
		<stop  offset="0.343" style="stop-color:#D9659B"/>
		<stop  offset="0.616" style="stop-color:#B070BF"/>
		<stop  offset="0.934" style="stop-color:#777FF0"/>
		<stop  offset="1" style="stop-color:#6A82FB"/>
	</linearGradient>
	<path style="fill:url(#SVGID_5_);" d="M247.102,48.419l1.776-15.896c-5.907-0.664-11.869-0.664-17.776,0l1.776,15.896
		C237.605,47.899,242.375,47.899,247.102,48.419z"/>
	
		<linearGradient id="SVGID_6_" gradientUnits="userSpaceOnUse" x1="-26.8851" y1="616.1261" x2="-26.8851" y2="557.4321" gradientTransform="matrix(8 0 0 -8 455.0709 4941.2437)">
		<stop  offset="0" style="stop-color:#FC5C7D"/>
		<stop  offset="0.129" style="stop-color:#F35E85"/>
		<stop  offset="0.343" style="stop-color:#D9659B"/>
		<stop  offset="0.616" style="stop-color:#B070BF"/>
		<stop  offset="0.934" style="stop-color:#777FF0"/>
		<stop  offset="1" style="stop-color:#6A82FB"/>
	</linearGradient>
	<path style="fill:url(#SVGID_6_);" d="M231.99,416.027h16v16h-16V416.027z"/>
</g>
<g>
</g>
<g>
</g>
<g>
</g>
<g>
</g>
<g>
</g>
<g>
</g>
<g>
</g>
<g>
</g>
<g>
</g>
<g>
</g>
<g>
</g>
<g>
</g>
<g>
</g>
<g>
</g>
<g>
</g>
</svg>
