<?xml version="1.0" encoding="iso-8859-1"?>
<!-- Generator: Adobe Illustrator 19.0.0, SVG Export Plug-In . SVG Version: 6.00 Build 0)  -->
<svg version="1.1" id="Capa_1" xmlns="http://www.w3.org/2000/svg" xmlns:xlink="http://www.w3.org/1999/xlink" x="0px" y="0px"
	 viewBox="0 0 480 480" style="enable-background:new 0 0 480 480;" xml:space="preserve">
<linearGradient id="SVGID_1_" gradientUnits="userSpaceOnUse" x1="-26.865" y1="619.803" x2="-26.865" y2="554.739" gradientTransform="matrix(8 0 0 -8 454.9203 4941)">
	<stop  offset="0" style="stop-color:#FC5C7D"/>
	<stop  offset="0.129" style="stop-color:#F35E85"/>
	<stop  offset="0.343" style="stop-color:#D9659B"/>
	<stop  offset="0.616" style="stop-color:#B070BF"/>
	<stop  offset="0.934" style="stop-color:#777FF0"/>
	<stop  offset="1" style="stop-color:#6A82FB"/>
</linearGradient>
<path style="fill:url(#SVGID_1_);" d="M475.587,336.84l-64-32v0.072c-1.104-0.581-2.329-0.894-3.576-0.912h-32V136h40
	c4.418,0,8-3.582,8-8V32c0-17.673-14.327-32-32-32h-288c-17.673,0-32,14.327-32,32v144h-32c-4.418,0-8,3.582-8,8v64
	c0,4.418,3.582,8,8,8h32v48h-64c-4.418,0-8,3.582-8,8v64c0,4.418,3.582,8,8,8h64v40h-40c-4.418,0-8,3.582-8,8v16
	c0,17.673,14.327,32,32,32h288c17.673,0,32-14.327,32-32v-64h32c1.236-0.023,2.45-0.336,3.544-0.912v0.072l64-32
	c3.954-1.971,5.562-6.774,3.591-10.729c-0.775-1.556-2.036-2.816-3.591-3.591H475.587z M400.011,336h-296v-16h296V336z M72.011,368
	v-48h16v48H72.011z M408.011,32v88h-32V32c0-8.837,7.163-16,16-16S408.011,23.163,408.011,32z M48.011,192h56v48h-56V192z
	 M144.011,192v48h-24v-48H144.011z M88.011,256h64c4.418,0,8-3.582,8-8v-64c0-4.418-3.582-8-8-8h-64V32c0-8.837,7.163-16,16-16
	h260.448c-2.879,4.843-4.415,10.366-4.448,16v272h-272V256z M16.011,320h40v48h-40V320z M56.011,464c-8.837,0-16-7.163-16-16v-8h272
	v8c-0.009,5.619,1.474,11.141,4.296,16H56.011z M360.011,448c0,8.837-7.163,16-16,16s-16-7.163-16-16v-16c0-4.418-3.582-8-8-8h-232
	v-40h272V448z M104.011,368v-16h296v16H104.011z M416.011,363.056v-38.112L454.123,344L416.011,363.056z"/>
<g>
	
		<linearGradient id="SVGID_2_" gradientUnits="userSpaceOnUse" x1="-24.3636" y1="619.803" x2="-24.3636" y2="554.739" gradientTransform="matrix(8 0 0 -8 454.9203 4941)">
		<stop  offset="0" style="stop-color:#FC5C7D"/>
		<stop  offset="0.129" style="stop-color:#F35E85"/>
		<stop  offset="0.343" style="stop-color:#D9659B"/>
		<stop  offset="0.616" style="stop-color:#B070BF"/>
		<stop  offset="0.934" style="stop-color:#777FF0"/>
		<stop  offset="1" style="stop-color:#6A82FB"/>
	</linearGradient>
	<path style="fill:url(#SVGID_2_);" d="M192.011,192h136v16h-136V192z"/>
	
		<linearGradient id="SVGID_3_" gradientUnits="userSpaceOnUse" x1="-24.3636" y1="619.803" x2="-24.3636" y2="554.739" gradientTransform="matrix(8 0 0 -8 454.9203 4941)">
		<stop  offset="0" style="stop-color:#FC5C7D"/>
		<stop  offset="0.129" style="stop-color:#F35E85"/>
		<stop  offset="0.343" style="stop-color:#D9659B"/>
		<stop  offset="0.616" style="stop-color:#B070BF"/>
		<stop  offset="0.934" style="stop-color:#777FF0"/>
		<stop  offset="1" style="stop-color:#6A82FB"/>
	</linearGradient>
	<path style="fill:url(#SVGID_3_);" d="M192.011,224h136v16h-136V224z"/>
	
		<linearGradient id="SVGID_4_" gradientUnits="userSpaceOnUse" x1="-26.3636" y1="619.803" x2="-26.3636" y2="554.739" gradientTransform="matrix(8 0 0 -8 454.9203 4941)">
		<stop  offset="0" style="stop-color:#FC5C7D"/>
		<stop  offset="0.129" style="stop-color:#F35E85"/>
		<stop  offset="0.343" style="stop-color:#D9659B"/>
		<stop  offset="0.616" style="stop-color:#B070BF"/>
		<stop  offset="0.934" style="stop-color:#777FF0"/>
		<stop  offset="1" style="stop-color:#6A82FB"/>
	</linearGradient>
	<path style="fill:url(#SVGID_4_);" d="M192.011,256h104v16h-104V256z"/>
	
		<linearGradient id="SVGID_5_" gradientUnits="userSpaceOnUse" x1="-21.3636" y1="619.803" x2="-21.3636" y2="554.739" gradientTransform="matrix(8 0 0 -8 454.9203 4941)">
		<stop  offset="0" style="stop-color:#FC5C7D"/>
		<stop  offset="0.129" style="stop-color:#F35E85"/>
		<stop  offset="0.343" style="stop-color:#D9659B"/>
		<stop  offset="0.616" style="stop-color:#B070BF"/>
		<stop  offset="0.934" style="stop-color:#777FF0"/>
		<stop  offset="1" style="stop-color:#6A82FB"/>
	</linearGradient>
	<path style="fill:url(#SVGID_5_);" d="M240.011,160h88v16h-88V160z"/>
	
		<linearGradient id="SVGID_6_" gradientUnits="userSpaceOnUse" x1="-28.8636" y1="619.803" x2="-28.8636" y2="554.739" gradientTransform="matrix(8 0 0 -8 454.9203 4941)">
		<stop  offset="0" style="stop-color:#FC5C7D"/>
		<stop  offset="0.129" style="stop-color:#F35E85"/>
		<stop  offset="0.343" style="stop-color:#D9659B"/>
		<stop  offset="0.616" style="stop-color:#B070BF"/>
		<stop  offset="0.934" style="stop-color:#777FF0"/>
		<stop  offset="1" style="stop-color:#6A82FB"/>
	</linearGradient>
	<path style="fill:url(#SVGID_6_);" d="M320.011,48h-192c-4.418,0-8,3.582-8,8v72c0,4.418,3.582,8,8,8h192c4.418,0,8-3.582,8-8V56
		C328.011,51.582,324.43,48,320.011,48z M312.011,120h-176V64h176V120z"/>
	
		<linearGradient id="SVGID_7_" gradientUnits="userSpaceOnUse" x1="-47.3636" y1="619.803" x2="-47.3636" y2="554.739" gradientTransform="matrix(8 0 0 -8 454.9203 4941)">
		<stop  offset="0" style="stop-color:#FC5C7D"/>
		<stop  offset="0.129" style="stop-color:#F35E85"/>
		<stop  offset="0.343" style="stop-color:#D9659B"/>
		<stop  offset="0.616" style="stop-color:#B070BF"/>
		<stop  offset="0.934" style="stop-color:#777FF0"/>
		<stop  offset="1" style="stop-color:#6A82FB"/>
	</linearGradient>
	<path style="fill:url(#SVGID_7_);" d="M64.011,208h24v16h-24V208z"/>
	
		<linearGradient id="SVGID_8_" gradientUnits="userSpaceOnUse" x1="-29.8636" y1="619.803" x2="-29.8636" y2="554.739" gradientTransform="matrix(8 0 0 -8 454.9203 4941)">
		<stop  offset="0" style="stop-color:#FC5C7D"/>
		<stop  offset="0.129" style="stop-color:#F35E85"/>
		<stop  offset="0.343" style="stop-color:#D9659B"/>
		<stop  offset="0.616" style="stop-color:#B070BF"/>
		<stop  offset="0.934" style="stop-color:#777FF0"/>
		<stop  offset="1" style="stop-color:#6A82FB"/>
	</linearGradient>
	<path style="fill:url(#SVGID_8_);" d="M208.011,160h16v16h-16V160z"/>
</g>
<g>
</g>
<g>
</g>
<g>
</g>
<g>
</g>
<g>
</g>
<g>
</g>
<g>
</g>
<g>
</g>
<g>
</g>
<g>
</g>
<g>
</g>
<g>
</g>
<g>
</g>
<g>
</g>
<g>
</g>
</svg>
