<?xml version="1.0" encoding="iso-8859-1"?>
<!-- Generator: Adobe Illustrator 19.0.0, SVG Export Plug-In . SVG Version: 6.00 Build 0)  -->
<svg version="1.1" id="Capa_1" xmlns="http://www.w3.org/2000/svg" xmlns:xlink="http://www.w3.org/1999/xlink" x="0px" y="0px"
	 viewBox="0 0 480 480" style="enable-background:new 0 0 480 480;" xml:space="preserve">
<g>
	
		<linearGradient id="SVGID_1_" gradientUnits="userSpaceOnUse" x1="-26.875" y1="593.514" x2="-26.875" y2="527.605" gradientTransform="matrix(8 0 0 -8 455 4725)">
		<stop  offset="0" style="stop-color:#FC5C7D"/>
		<stop  offset="0.129" style="stop-color:#F35E85"/>
		<stop  offset="0.343" style="stop-color:#D9659B"/>
		<stop  offset="0.616" style="stop-color:#B070BF"/>
		<stop  offset="0.934" style="stop-color:#777FF0"/>
		<stop  offset="1" style="stop-color:#6A82FB"/>
	</linearGradient>
	<path style="fill:url(#SVGID_1_);" d="M232,376h16v16h-16V376z"/>
	
		<linearGradient id="SVGID_2_" gradientUnits="userSpaceOnUse" x1="-26.875" y1="593.514" x2="-26.875" y2="527.605" gradientTransform="matrix(8 0 0 -8 455 4725)">
		<stop  offset="0" style="stop-color:#FC5C7D"/>
		<stop  offset="0.129" style="stop-color:#F35E85"/>
		<stop  offset="0.343" style="stop-color:#D9659B"/>
		<stop  offset="0.616" style="stop-color:#B070BF"/>
		<stop  offset="0.934" style="stop-color:#777FF0"/>
		<stop  offset="1" style="stop-color:#6A82FB"/>
	</linearGradient>
	<path style="fill:url(#SVGID_2_);" d="M32,456h416c17.673,0,32-14.327,32-32v-24c0-4.418-3.582-8-8-8h-8V56
		c0-17.673-14.327-32-32-32H48c-17.673,0-32,14.327-32,32v336H8c-4.418,0-8,3.582-8,8v24C0,441.673,14.327,456,32,456z M32,56
		c0-8.837,7.163-16,16-16h384c8.837,0,16,7.163,16,16v336H312c-2.122,0-4.156,0.844-5.656,2.344L292.688,408H187.312l-13.656-13.656
		c-1.5-1.5-3.534-2.344-5.656-2.344H32L32,56z M16,408h148.688l13.656,13.656c1.5,1.5,3.534,2.344,5.656,2.344h112
		c2.122,0,4.156-0.844,5.656-2.344L315.312,408H464v16c0,8.837-7.163,16-16,16H32c-8.837,0-16-7.163-16-16V408z"/>
</g>
<g>
	
		<linearGradient id="SVGID_3_" gradientUnits="userSpaceOnUse" x1="-45.875" y1="593.514" x2="-45.875" y2="527.605" gradientTransform="matrix(8 0 0 -8 455 4725)">
		<stop  offset="0" style="stop-color:#FC5C7D"/>
		<stop  offset="0.129" style="stop-color:#F35E85"/>
		<stop  offset="0.343" style="stop-color:#D9659B"/>
		<stop  offset="0.616" style="stop-color:#B070BF"/>
		<stop  offset="0.934" style="stop-color:#777FF0"/>
		<stop  offset="1" style="stop-color:#6A82FB"/>
	</linearGradient>
	<path style="fill:url(#SVGID_3_);" d="M80,88h16v16H80V88z"/>
	
		<linearGradient id="SVGID_4_" gradientUnits="userSpaceOnUse" x1="-41.875" y1="593.514" x2="-41.875" y2="527.605" gradientTransform="matrix(8 0 0 -8 455 4725)">
		<stop  offset="0" style="stop-color:#FC5C7D"/>
		<stop  offset="0.129" style="stop-color:#F35E85"/>
		<stop  offset="0.343" style="stop-color:#D9659B"/>
		<stop  offset="0.616" style="stop-color:#B070BF"/>
		<stop  offset="0.934" style="stop-color:#777FF0"/>
		<stop  offset="1" style="stop-color:#6A82FB"/>
	</linearGradient>
	<path style="fill:url(#SVGID_4_);" d="M112,88h16v16h-16V88z"/>
	
		<linearGradient id="SVGID_5_" gradientUnits="userSpaceOnUse" x1="-37.875" y1="593.514" x2="-37.875" y2="527.605" gradientTransform="matrix(8 0 0 -8 455 4725)">
		<stop  offset="0" style="stop-color:#FC5C7D"/>
		<stop  offset="0.129" style="stop-color:#F35E85"/>
		<stop  offset="0.343" style="stop-color:#D9659B"/>
		<stop  offset="0.616" style="stop-color:#B070BF"/>
		<stop  offset="0.934" style="stop-color:#777FF0"/>
		<stop  offset="1" style="stop-color:#6A82FB"/>
	</linearGradient>
	<path style="fill:url(#SVGID_5_);" d="M144,88h16v16h-16V88z"/>
	
		<linearGradient id="SVGID_6_" gradientUnits="userSpaceOnUse" x1="-35.375" y1="593.514" x2="-35.375" y2="527.605" gradientTransform="matrix(8 0 0 -8 455 4725)">
		<stop  offset="0" style="stop-color:#FC5C7D"/>
		<stop  offset="0.129" style="stop-color:#F35E85"/>
		<stop  offset="0.343" style="stop-color:#D9659B"/>
		<stop  offset="0.616" style="stop-color:#B070BF"/>
		<stop  offset="0.934" style="stop-color:#777FF0"/>
		<stop  offset="1" style="stop-color:#6A82FB"/>
	</linearGradient>
	<path style="fill:url(#SVGID_6_);" d="M139.6,254.68c1.306,0.861,2.836,1.32,4.4,1.32c1.084,0.003,2.157-0.218,3.152-0.648l56-24
		c4.06-1.742,5.94-6.446,4.198-10.506c-0.809-1.886-2.312-3.389-4.198-4.198l-56-24c-4.061-1.741-8.764,0.14-10.505,4.201
		C136.22,197.845,136,198.917,136,200v48C136,250.69,137.353,253.2,139.6,254.68z M152,212.136L179.688,224L152,235.864V212.136z"/>
</g>
<linearGradient id="SVGID_7_" gradientUnits="userSpaceOnUse" x1="-26.875" y1="593.514" x2="-26.875" y2="527.605" gradientTransform="matrix(8 0 0 -8 455 4725)">
	<stop  offset="0" style="stop-color:#FC5C7D"/>
	<stop  offset="0.129" style="stop-color:#F35E85"/>
	<stop  offset="0.343" style="stop-color:#D9659B"/>
	<stop  offset="0.616" style="stop-color:#B070BF"/>
	<stop  offset="0.934" style="stop-color:#777FF0"/>
	<stop  offset="1" style="stop-color:#6A82FB"/>
</linearGradient>
<path style="fill:url(#SVGID_7_);" d="M384,360h16c17.673,0,32-14.327,32-32V88c0-17.673-14.327-32-32-32H80
	c-17.673,0-32,14.327-32,32v240c0,17.673,14.327,32,32,32H384z M311.2,252.424l-13.6-27.256l38.4-44.88l38.472,44.88l-13.6,27.256
	c-0.565,1.108-0.863,2.332-0.872,3.576v16h-16v-32h-16v32h-16v-16C312.014,254.762,311.74,253.538,311.2,252.424L311.2,252.424z
	 M296.936,344l6.224-56h65.68l1.776,16H320v16h52.392l2.672,24H296.936z M80,72h320c8.837,0,16,7.163,16,16v32H64V88
	C64,79.163,71.163,72,80,72z M64,328V136h352v192c0,8.837-7.163,16-16,16h-8.8l-7.2-64.88c-0.451-4.071-3.904-7.145-8-7.12v-14.112
	l15.2-30.312c1.445-2.884,1.016-6.354-1.088-8.8l-48-56c-3.083-3.353-8.301-3.573-11.654-0.49c-0.17,0.156-0.333,0.32-0.49,0.49
	l-48,56c-2.104,2.446-2.533,5.916-1.088,8.8L296,257.888V272c-4.078,0-7.503,3.067-7.952,7.12L280.8,344H80
	C71.163,344,64,336.837,64,328L64,328z"/>
<g>
	
		<linearGradient id="SVGID_8_" gradientUnits="userSpaceOnUse" x1="-14.875" y1="593.514" x2="-14.875" y2="527.605" gradientTransform="matrix(8 0 0 -8 455 4725)">
		<stop  offset="0" style="stop-color:#FC5C7D"/>
		<stop  offset="0.129" style="stop-color:#F35E85"/>
		<stop  offset="0.343" style="stop-color:#D9659B"/>
		<stop  offset="0.616" style="stop-color:#B070BF"/>
		<stop  offset="0.934" style="stop-color:#777FF0"/>
		<stop  offset="1" style="stop-color:#6A82FB"/>
	</linearGradient>
	<path style="fill:url(#SVGID_8_);" d="M328,208h16v16h-16V208z"/>
	
		<linearGradient id="SVGID_9_" gradientUnits="userSpaceOnUse" x1="-35.375" y1="593.514" x2="-35.375" y2="527.605" gradientTransform="matrix(8 0 0 -8 455 4725)">
		<stop  offset="0" style="stop-color:#FC5C7D"/>
		<stop  offset="0.129" style="stop-color:#F35E85"/>
		<stop  offset="0.343" style="stop-color:#D9659B"/>
		<stop  offset="0.616" style="stop-color:#B070BF"/>
		<stop  offset="0.934" style="stop-color:#777FF0"/>
		<stop  offset="1" style="stop-color:#6A82FB"/>
	</linearGradient>
	<path style="fill:url(#SVGID_9_);" d="M248,160H96c-4.418,0-8,3.582-8,8v112c0,4.418,3.582,8,8,8h152c4.418,0,8-3.582,8-8V168
		C256,163.582,252.418,160,248,160z M240,272H104v-96h136V272z"/>
	
		<linearGradient id="SVGID_10_" gradientUnits="userSpaceOnUse" x1="-44.875" y1="593.514" x2="-44.875" y2="527.605" gradientTransform="matrix(8 0 0 -8 455 4725)">
		<stop  offset="0" style="stop-color:#FC5C7D"/>
		<stop  offset="0.129" style="stop-color:#F35E85"/>
		<stop  offset="0.343" style="stop-color:#D9659B"/>
		<stop  offset="0.616" style="stop-color:#B070BF"/>
		<stop  offset="0.934" style="stop-color:#777FF0"/>
		<stop  offset="1" style="stop-color:#6A82FB"/>
	</linearGradient>
	<path style="fill:url(#SVGID_10_);" d="M88,304h16v16H88V304z"/>
	
		<linearGradient id="SVGID_11_" gradientUnits="userSpaceOnUse" x1="-33.375" y1="593.514" x2="-33.375" y2="527.605" gradientTransform="matrix(8 0 0 -8 455 4725)">
		<stop  offset="0" style="stop-color:#FC5C7D"/>
		<stop  offset="0.129" style="stop-color:#F35E85"/>
		<stop  offset="0.343" style="stop-color:#D9659B"/>
		<stop  offset="0.616" style="stop-color:#B070BF"/>
		<stop  offset="0.934" style="stop-color:#777FF0"/>
		<stop  offset="1" style="stop-color:#6A82FB"/>
	</linearGradient>
	<path style="fill:url(#SVGID_11_);" d="M120,304h136v16H120V304z"/>
</g>
<g>
</g>
<g>
</g>
<g>
</g>
<g>
</g>
<g>
</g>
<g>
</g>
<g>
</g>
<g>
</g>
<g>
</g>
<g>
</g>
<g>
</g>
<g>
</g>
<g>
</g>
<g>
</g>
<g>
</g>
</svg>
