<?xml version="1.0" encoding="iso-8859-1"?>
<!-- Generator: Adobe Illustrator 19.0.0, SVG Export Plug-In . SVG Version: 6.00 Build 0)  -->
<svg version="1.1" id="Capa_1" xmlns="http://www.w3.org/2000/svg" xmlns:xlink="http://www.w3.org/1999/xlink" x="0px" y="0px"
	 viewBox="0 0 432 432" style="enable-background:new 0 0 432 432;" xml:space="preserve">
<linearGradient id="SVGID_1_" gradientUnits="userSpaceOnUse" x1="-52.875" y1="568.021" x2="-52.875" y2="504.649" gradientTransform="matrix(8 0 0 -8 623 4473)">
	<stop  offset="0" style="stop-color:#FC5C7D"/>
	<stop  offset="0.129" style="stop-color:#F35E85"/>
	<stop  offset="0.343" style="stop-color:#D9659B"/>
	<stop  offset="0.616" style="stop-color:#B070BF"/>
	<stop  offset="0.934" style="stop-color:#777FF0"/>
	<stop  offset="1" style="stop-color:#6A82FB"/>
</linearGradient>
<path style="fill:url(#SVGID_1_);" d="M192,292h16v16h-16V292z"/>
<g>
	
		<linearGradient id="SVGID_2_" gradientUnits="userSpaceOnUse" x1="-35.875" y1="568.021" x2="-35.875" y2="504.649" gradientTransform="matrix(8 0 0 -8 623 4473)">
		<stop  offset="0" style="stop-color:#FC5C7D"/>
		<stop  offset="0.129" style="stop-color:#F35E85"/>
		<stop  offset="0.343" style="stop-color:#D9659B"/>
		<stop  offset="0.616" style="stop-color:#B070BF"/>
		<stop  offset="0.934" style="stop-color:#777FF0"/>
		<stop  offset="1" style="stop-color:#6A82FB"/>
	</linearGradient>
	<path style="fill:url(#SVGID_2_);" d="M336,196c-35.346,0-64,28.654-64,64s28.654,64,64,64s64-28.654,64-64
		C399.96,224.67,371.33,196.04,336,196z M336,308c-26.51,0-48-21.49-48-48s21.49-48,48-48s48,21.49,48,48
		C383.974,286.499,362.499,307.974,336,308z"/>
	
		<linearGradient id="SVGID_3_" gradientUnits="userSpaceOnUse" x1="-35.875" y1="568.021" x2="-35.875" y2="504.649" gradientTransform="matrix(8 0 0 -8 623 4473)">
		<stop  offset="0" style="stop-color:#FC5C7D"/>
		<stop  offset="0.129" style="stop-color:#F35E85"/>
		<stop  offset="0.343" style="stop-color:#D9659B"/>
		<stop  offset="0.616" style="stop-color:#B070BF"/>
		<stop  offset="0.934" style="stop-color:#777FF0"/>
		<stop  offset="1" style="stop-color:#6A82FB"/>
	</linearGradient>
	<path style="fill:url(#SVGID_3_);" d="M354.344,230.344L336,248.688l-18.344-18.344l-11.312,11.312L324.688,260l-18.344,18.344
		l11.312,11.312L336,271.312l18.344,18.344l11.312-11.312L347.312,260l18.344-18.344L354.344,230.344z"/>
	
		<linearGradient id="SVGID_4_" gradientUnits="userSpaceOnUse" x1="-50.875" y1="568.021" x2="-50.875" y2="504.649" gradientTransform="matrix(8 0 0 -8 623 4473)">
		<stop  offset="0" style="stop-color:#FC5C7D"/>
		<stop  offset="0.129" style="stop-color:#F35E85"/>
		<stop  offset="0.343" style="stop-color:#D9659B"/>
		<stop  offset="0.616" style="stop-color:#B070BF"/>
		<stop  offset="0.934" style="stop-color:#777FF0"/>
		<stop  offset="1" style="stop-color:#6A82FB"/>
	</linearGradient>
	<path style="fill:url(#SVGID_4_);" d="M400,148V36c0-17.673-14.327-32-32-32H32C14.327,4,0,18.327,0,36v272
		c0,17.673,14.327,32,32,32h80.456L83.88,380H40c-13.255,0-24,10.745-24,24s10.745,24,24,24h360c17.673,0,32-14.327,32-32V180
		C432,162.327,417.673,148,400,148z M416,180v168H256V180c0-8.837,7.163-16,16-16h128C408.837,164,416,171.163,416,180z M32,20h336
		c8.837,0,16,7.163,16,16v112H272c-17.673,0-32,14.327-32,32v80H16V36C16,27.163,23.163,20,32,20z M16,308v-32h224v48H32
		C23.163,324,16,316.837,16,308z M132.12,340H240v40H103.544L132.12,340z M32,404c0-4.418,3.582-8,8-8h200
		c0.033,5.634,1.569,11.157,4.448,16H40C35.582,412,32,408.418,32,404z M400,412H272c-8.837,0-16-7.163-16-16v-32h160v32
		C416,404.837,408.837,412,400,412z"/>
	
		<linearGradient id="SVGID_5_" gradientUnits="userSpaceOnUse" x1="-35.875" y1="568.021" x2="-35.875" y2="504.649" gradientTransform="matrix(8 0 0 -8 623 4473)">
		<stop  offset="0" style="stop-color:#FC5C7D"/>
		<stop  offset="0.129" style="stop-color:#F35E85"/>
		<stop  offset="0.343" style="stop-color:#D9659B"/>
		<stop  offset="0.616" style="stop-color:#B070BF"/>
		<stop  offset="0.934" style="stop-color:#777FF0"/>
		<stop  offset="1" style="stop-color:#6A82FB"/>
	</linearGradient>
	<path style="fill:url(#SVGID_5_);" d="M328,380h16v16h-16V380z"/>
	
		<linearGradient id="SVGID_6_" gradientUnits="userSpaceOnUse" x1="-64.875" y1="568.021" x2="-64.875" y2="504.649" gradientTransform="matrix(8 0 0 -8 623 4473)">
		<stop  offset="0" style="stop-color:#FC5C7D"/>
		<stop  offset="0.129" style="stop-color:#F35E85"/>
		<stop  offset="0.343" style="stop-color:#D9659B"/>
		<stop  offset="0.616" style="stop-color:#B070BF"/>
		<stop  offset="0.934" style="stop-color:#777FF0"/>
		<stop  offset="1" style="stop-color:#6A82FB"/>
	</linearGradient>
	<path style="fill:url(#SVGID_6_);" d="M104,172c35.346,0,64-28.654,64-64s-28.654-64-64-64s-64,28.654-64,64
		C40.04,143.33,68.67,171.96,104,172z M104,60c26.51,0,48,21.49,48,48s-21.49,48-48,48s-48-21.49-48-48
		C56.026,81.501,77.501,60.026,104,60z"/>
	
		<linearGradient id="SVGID_7_" gradientUnits="userSpaceOnUse" x1="-64.875" y1="568.021" x2="-64.875" y2="504.649" gradientTransform="matrix(8 0 0 -8 623 4473)">
		<stop  offset="0" style="stop-color:#FC5C7D"/>
		<stop  offset="0.129" style="stop-color:#F35E85"/>
		<stop  offset="0.343" style="stop-color:#D9659B"/>
		<stop  offset="0.616" style="stop-color:#B070BF"/>
		<stop  offset="0.934" style="stop-color:#777FF0"/>
		<stop  offset="1" style="stop-color:#6A82FB"/>
	</linearGradient>
	<path style="fill:url(#SVGID_7_);" d="M85.656,137.656L104,119.312l18.344,18.344l11.312-11.312L115.312,108l18.344-18.344
		l-11.312-11.312L104,96.688L85.656,78.344L74.344,89.656L92.688,108l-18.344,18.344L85.656,137.656z"/>
	
		<linearGradient id="SVGID_8_" gradientUnits="userSpaceOnUse" x1="-61.875" y1="568.021" x2="-61.875" y2="504.649" gradientTransform="matrix(8 0 0 -8 623 4473)">
		<stop  offset="0" style="stop-color:#FC5C7D"/>
		<stop  offset="0.129" style="stop-color:#F35E85"/>
		<stop  offset="0.343" style="stop-color:#D9659B"/>
		<stop  offset="0.616" style="stop-color:#B070BF"/>
		<stop  offset="0.934" style="stop-color:#777FF0"/>
		<stop  offset="1" style="stop-color:#6A82FB"/>
	</linearGradient>
	<path style="fill:url(#SVGID_8_);" d="M40,220h176v16H40V220z"/>
	
		<linearGradient id="SVGID_9_" gradientUnits="userSpaceOnUse" x1="-69.875" y1="568.021" x2="-69.875" y2="504.649" gradientTransform="matrix(8 0 0 -8 623 4473)">
		<stop  offset="0" style="stop-color:#FC5C7D"/>
		<stop  offset="0.129" style="stop-color:#F35E85"/>
		<stop  offset="0.343" style="stop-color:#D9659B"/>
		<stop  offset="0.616" style="stop-color:#B070BF"/>
		<stop  offset="0.934" style="stop-color:#777FF0"/>
		<stop  offset="1" style="stop-color:#6A82FB"/>
	</linearGradient>
	<path style="fill:url(#SVGID_9_);" d="M56,188h16v16H56V188z"/>
	
		<linearGradient id="SVGID_10_" gradientUnits="userSpaceOnUse" x1="-58.875" y1="568.021" x2="-58.875" y2="504.649" gradientTransform="matrix(8 0 0 -8 623 4473)">
		<stop  offset="0" style="stop-color:#FC5C7D"/>
		<stop  offset="0.129" style="stop-color:#F35E85"/>
		<stop  offset="0.343" style="stop-color:#D9659B"/>
		<stop  offset="0.616" style="stop-color:#B070BF"/>
		<stop  offset="0.934" style="stop-color:#777FF0"/>
		<stop  offset="1" style="stop-color:#6A82FB"/>
	</linearGradient>
	<path style="fill:url(#SVGID_10_);" d="M88,188h128v16H88V188z"/>
	
		<linearGradient id="SVGID_11_" gradientUnits="userSpaceOnUse" x1="-43.875" y1="568.021" x2="-43.875" y2="504.649" gradientTransform="matrix(8 0 0 -8 623 4473)">
		<stop  offset="0" style="stop-color:#FC5C7D"/>
		<stop  offset="0.129" style="stop-color:#F35E85"/>
		<stop  offset="0.343" style="stop-color:#D9659B"/>
		<stop  offset="0.616" style="stop-color:#B070BF"/>
		<stop  offset="0.934" style="stop-color:#777FF0"/>
		<stop  offset="1" style="stop-color:#6A82FB"/>
	</linearGradient>
	<path style="fill:url(#SVGID_11_);" d="M184,76h176v16H184V76z"/>
	
		<linearGradient id="SVGID_12_" gradientUnits="userSpaceOnUse" x1="-43.875" y1="568.021" x2="-43.875" y2="504.649" gradientTransform="matrix(8 0 0 -8 623 4473)">
		<stop  offset="0" style="stop-color:#FC5C7D"/>
		<stop  offset="0.129" style="stop-color:#F35E85"/>
		<stop  offset="0.343" style="stop-color:#D9659B"/>
		<stop  offset="0.616" style="stop-color:#B070BF"/>
		<stop  offset="0.934" style="stop-color:#777FF0"/>
		<stop  offset="1" style="stop-color:#6A82FB"/>
	</linearGradient>
	<path style="fill:url(#SVGID_12_);" d="M184,108h176v16H184V108z"/>
	
		<linearGradient id="SVGID_13_" gradientUnits="userSpaceOnUse" x1="-51.875" y1="568.021" x2="-51.875" y2="504.649" gradientTransform="matrix(8 0 0 -8 623 4473)">
		<stop  offset="0" style="stop-color:#FC5C7D"/>
		<stop  offset="0.129" style="stop-color:#F35E85"/>
		<stop  offset="0.343" style="stop-color:#D9659B"/>
		<stop  offset="0.616" style="stop-color:#B070BF"/>
		<stop  offset="0.934" style="stop-color:#777FF0"/>
		<stop  offset="1" style="stop-color:#6A82FB"/>
	</linearGradient>
	<path style="fill:url(#SVGID_13_);" d="M200,44h16v16h-16V44z"/>
	
		<linearGradient id="SVGID_14_" gradientUnits="userSpaceOnUse" x1="-40.875" y1="568.021" x2="-40.875" y2="504.649" gradientTransform="matrix(8 0 0 -8 623 4473)">
		<stop  offset="0" style="stop-color:#FC5C7D"/>
		<stop  offset="0.129" style="stop-color:#F35E85"/>
		<stop  offset="0.343" style="stop-color:#D9659B"/>
		<stop  offset="0.616" style="stop-color:#B070BF"/>
		<stop  offset="0.934" style="stop-color:#777FF0"/>
		<stop  offset="1" style="stop-color:#6A82FB"/>
	</linearGradient>
	<path style="fill:url(#SVGID_14_);" d="M232,44h128v16H232V44z"/>
</g>
<g>
</g>
<g>
</g>
<g>
</g>
<g>
</g>
<g>
</g>
<g>
</g>
<g>
</g>
<g>
</g>
<g>
</g>
<g>
</g>
<g>
</g>
<g>
</g>
<g>
</g>
<g>
</g>
<g>
</g>
</svg>
