<?xml version="1.0" encoding="iso-8859-1"?>
<!-- Generator: Adobe Illustrator 19.0.0, SVG Export Plug-In . SVG Version: 6.00 Build 0)  -->
<svg version="1.1" id="Capa_1" xmlns="http://www.w3.org/2000/svg" xmlns:xlink="http://www.w3.org/1999/xlink" x="0px" y="0px"
	 viewBox="0 0 480 480" style="enable-background:new 0 0 480 480;" xml:space="preserve">
<linearGradient id="SVGID_1_" gradientUnits="userSpaceOnUse" x1="-12.8914" y1="618.288" x2="-12.8914" y2="556.645" gradientTransform="matrix(8 0 0 -8 343.1311 4941)">
	<stop  offset="0" style="stop-color:#FC5C7D"/>
	<stop  offset="0.129" style="stop-color:#F35E85"/>
	<stop  offset="0.343" style="stop-color:#D9659B"/>
	<stop  offset="0.616" style="stop-color:#B070BF"/>
	<stop  offset="0.934" style="stop-color:#777FF0"/>
	<stop  offset="1" style="stop-color:#6A82FB"/>
</linearGradient>
<path style="fill:url(#SVGID_1_);" d="M22.029,437.92c-9.102,10.819-7.709,26.968,3.11,36.07c4.604,3.873,10.425,6.001,16.442,6.01
	h414.4c4.418,0,8-3.582,8-8V32c0-4.418-3.582-8-8-8h-96V8c0-4.418-3.582-8-8-8h-144c-4.418,0-8,3.582-8,8v16h-80
	c-4.418,0-8,3.582-8,8v136h-16c-4.418,0-8,3.582-8,8v32c0,4.418,3.582,8,8,8h8v125.072L22.029,437.92z M41.581,464
	c-5.302-0.04-9.567-4.37-9.528-9.672c0.017-2.22,0.802-4.366,2.224-6.072L47.981,432h96v-16h-82.4l13.536-16h121.768l40.8,48.264
	c3.411,4.03,2.909,10.062-1.121,13.473c-1.728,1.462-3.919,2.264-6.183,2.263H41.581z M343.981,464v-96h-16v96h-73.896
	c3.599-8.786,1.998-18.846-4.152-26.08l-9.952-11.76V312h155.056l-10.216,20.424c-0.554,1.111-0.841,2.335-0.84,3.576h-24v16h24v16
	h-24v16h24v16h-24v16h24v16h-24v16h24v16H343.981z M215.981,16h128v32h-128V16z M127.981,40h72v16c0,4.418,3.582,8,8,8h144
	c4.418,0,8-3.582,8-8V40h88v424h-48V337.888l15.2-30.312c1.975-3.952,0.372-8.757-3.58-10.732c-1.124-0.562-2.364-0.851-3.62-0.844
	h-176c-4.418,0-8,3.582-8,8v103.256l-56-66.184V216h8c4.418,0,8-3.582,8-8v-32c0-4.418-3.582-8-8-8h-48V40z M103.981,184h64v16h-64
	V184z M151.981,216v128c0.001,1.893,0.673,3.724,1.896,5.168L183.349,384H88.613l29.472-34.832c1.223-1.444,1.895-3.275,1.896-5.168
	v-32h16v-16h-16v-16h16v-16h-16v-16h16v-16h-16v-16H151.981z"/>
<g>
	
		<linearGradient id="SVGID_2_" gradientUnits="userSpaceOnUse" x1="-21.8937" y1="618.288" x2="-21.8937" y2="556.645" gradientTransform="matrix(8 0 0 -8 343.1311 4941)">
		<stop  offset="0" style="stop-color:#FC5C7D"/>
		<stop  offset="0.129" style="stop-color:#F35E85"/>
		<stop  offset="0.343" style="stop-color:#D9659B"/>
		<stop  offset="0.616" style="stop-color:#B070BF"/>
		<stop  offset="0.934" style="stop-color:#777FF0"/>
		<stop  offset="1" style="stop-color:#6A82FB"/>
	</linearGradient>
	<path style="fill:url(#SVGID_2_);" d="M159.981,416h16v16h-16V416z"/>
	
		<linearGradient id="SVGID_3_" gradientUnits="userSpaceOnUse" x1="-0.8937" y1="618.288" x2="-0.8937" y2="556.645" gradientTransform="matrix(8 0 0 -8 343.1311 4941)">
		<stop  offset="0" style="stop-color:#FC5C7D"/>
		<stop  offset="0.129" style="stop-color:#F35E85"/>
		<stop  offset="0.343" style="stop-color:#D9659B"/>
		<stop  offset="0.616" style="stop-color:#B070BF"/>
		<stop  offset="0.934" style="stop-color:#777FF0"/>
		<stop  offset="1" style="stop-color:#6A82FB"/>
	</linearGradient>
	<path style="fill:url(#SVGID_3_);" d="M327.981,336h16v16h-16V336z"/>
	
		<linearGradient id="SVGID_4_" gradientUnits="userSpaceOnUse" x1="-5.8937" y1="618.288" x2="-5.8937" y2="556.645" gradientTransform="matrix(8 0 0 -8 343.1311 4941)">
		<stop  offset="0" style="stop-color:#FC5C7D"/>
		<stop  offset="0.129" style="stop-color:#F35E85"/>
		<stop  offset="0.343" style="stop-color:#D9659B"/>
		<stop  offset="0.616" style="stop-color:#B070BF"/>
		<stop  offset="0.934" style="stop-color:#777FF0"/>
		<stop  offset="1" style="stop-color:#6A82FB"/>
	</linearGradient>
	<path style="fill:url(#SVGID_4_);" d="M207.981,176h22.112l25.888,12.944V208h16v-19.056l24-12l24,12V208h16v-19.056l27.576-13.744
		c2.725-1.362,4.441-4.153,4.424-7.2v-32h16v-16h-22.112l-25.888-12.944V88h-16v19.056l-24,12l-24-12V88h-16v19.056l-27.576,13.784
		c-2.712,1.355-4.425,4.128-4.424,7.16v32h-16V176z M351.981,163.056l-24,12l-24-12v-30.112l24-12l24,12V163.056z M239.981,132.944
		l24-12l24,12v30.112l-24,12l-24-12V132.944z"/>
	
		<linearGradient id="SVGID_5_" gradientUnits="userSpaceOnUse" x1="-6.3937" y1="618.288" x2="-6.3937" y2="556.645" gradientTransform="matrix(8 0 0 -8 343.1311 4941)">
		<stop  offset="0" style="stop-color:#FC5C7D"/>
		<stop  offset="0.129" style="stop-color:#F35E85"/>
		<stop  offset="0.343" style="stop-color:#D9659B"/>
		<stop  offset="0.616" style="stop-color:#B070BF"/>
		<stop  offset="0.934" style="stop-color:#777FF0"/>
		<stop  offset="1" style="stop-color:#6A82FB"/>
	</linearGradient>
	<path style="fill:url(#SVGID_5_);" d="M191.981,256h200v16h-200V256z"/>
	
		<linearGradient id="SVGID_6_" gradientUnits="userSpaceOnUse" x1="-1.3937" y1="618.288" x2="-1.3937" y2="556.645" gradientTransform="matrix(8 0 0 -8 343.1311 4941)">
		<stop  offset="0" style="stop-color:#FC5C7D"/>
		<stop  offset="0.129" style="stop-color:#F35E85"/>
		<stop  offset="0.343" style="stop-color:#D9659B"/>
		<stop  offset="0.616" style="stop-color:#B070BF"/>
		<stop  offset="0.934" style="stop-color:#777FF0"/>
		<stop  offset="1" style="stop-color:#6A82FB"/>
	</linearGradient>
	<path style="fill:url(#SVGID_6_);" d="M239.981,224h184v16h-184V224z"/>
	
		<linearGradient id="SVGID_7_" gradientUnits="userSpaceOnUse" x1="-15.8937" y1="618.288" x2="-15.8937" y2="556.645" gradientTransform="matrix(8 0 0 -8 343.1311 4941)">
		<stop  offset="0" style="stop-color:#FC5C7D"/>
		<stop  offset="0.129" style="stop-color:#F35E85"/>
		<stop  offset="0.343" style="stop-color:#D9659B"/>
		<stop  offset="0.616" style="stop-color:#B070BF"/>
		<stop  offset="0.934" style="stop-color:#777FF0"/>
		<stop  offset="1" style="stop-color:#6A82FB"/>
	</linearGradient>
	<path style="fill:url(#SVGID_7_);" d="M207.981,224h16v16h-16V224z"/>
	
		<linearGradient id="SVGID_8_" gradientUnits="userSpaceOnUse" x1="-21.8937" y1="618.288" x2="-21.8937" y2="556.645" gradientTransform="matrix(8 0 0 -8 343.1311 4941)">
		<stop  offset="0" style="stop-color:#FC5C7D"/>
		<stop  offset="0.129" style="stop-color:#F35E85"/>
		<stop  offset="0.343" style="stop-color:#D9659B"/>
		<stop  offset="0.616" style="stop-color:#B070BF"/>
		<stop  offset="0.934" style="stop-color:#777FF0"/>
		<stop  offset="1" style="stop-color:#6A82FB"/>
	</linearGradient>
	<path style="fill:url(#SVGID_8_);" d="M159.981,96h16v16h-16V96z"/>
	
		<linearGradient id="SVGID_9_" gradientUnits="userSpaceOnUse" x1="-17.8937" y1="618.288" x2="-17.8937" y2="556.645" gradientTransform="matrix(8 0 0 -8 343.1311 4941)">
		<stop  offset="0" style="stop-color:#FC5C7D"/>
		<stop  offset="0.129" style="stop-color:#F35E85"/>
		<stop  offset="0.343" style="stop-color:#D9659B"/>
		<stop  offset="0.616" style="stop-color:#B070BF"/>
		<stop  offset="0.934" style="stop-color:#777FF0"/>
		<stop  offset="1" style="stop-color:#6A82FB"/>
	</linearGradient>
	<path style="fill:url(#SVGID_9_);" d="M191.981,96h16v16h-16V96z"/>
	
		<linearGradient id="SVGID_10_" gradientUnits="userSpaceOnUse" x1="5.1063" y1="618.288" x2="5.1063" y2="556.645" gradientTransform="matrix(8 0 0 -8 343.1311 4941)">
		<stop  offset="0" style="stop-color:#FC5C7D"/>
		<stop  offset="0.129" style="stop-color:#F35E85"/>
		<stop  offset="0.343" style="stop-color:#D9659B"/>
		<stop  offset="0.616" style="stop-color:#B070BF"/>
		<stop  offset="0.934" style="stop-color:#777FF0"/>
		<stop  offset="1" style="stop-color:#6A82FB"/>
	</linearGradient>
	<path style="fill:url(#SVGID_10_);" d="M375.981,80h16v16h-16V80z"/>
	
		<linearGradient id="SVGID_11_" gradientUnits="userSpaceOnUse" x1="9.1063" y1="618.288" x2="9.1063" y2="556.645" gradientTransform="matrix(8 0 0 -8 343.1311 4941)">
		<stop  offset="0" style="stop-color:#FC5C7D"/>
		<stop  offset="0.129" style="stop-color:#F35E85"/>
		<stop  offset="0.343" style="stop-color:#D9659B"/>
		<stop  offset="0.616" style="stop-color:#B070BF"/>
		<stop  offset="0.934" style="stop-color:#777FF0"/>
		<stop  offset="1" style="stop-color:#6A82FB"/>
	</linearGradient>
	<path style="fill:url(#SVGID_11_);" d="M407.981,80h16v16h-16V80z"/>
</g>
<g>
</g>
<g>
</g>
<g>
</g>
<g>
</g>
<g>
</g>
<g>
</g>
<g>
</g>
<g>
</g>
<g>
</g>
<g>
</g>
<g>
</g>
<g>
</g>
<g>
</g>
<g>
</g>
<g>
</g>
</svg>
