<?xml version="1.0" encoding="iso-8859-1"?>
<!-- Generator: Adobe Illustrator 19.0.0, SVG Export Plug-In . SVG Version: 6.00 Build 0)  -->
<svg version="1.1" id="Capa_1" xmlns="http://www.w3.org/2000/svg" xmlns:xlink="http://www.w3.org/1999/xlink" x="0px" y="0px"
	 viewBox="0 0 416 416" style="enable-background:new 0 0 416 416;" xml:space="preserve">
<linearGradient id="SVGID_1_" gradientUnits="userSpaceOnUse" x1="-41.375" y1="584.402" x2="-41.375" y2="523.155" gradientTransform="matrix(8 0 0 -8 539 4653)">
	<stop  offset="0" style="stop-color:#FC5C7D"/>
	<stop  offset="0.129" style="stop-color:#F35E85"/>
	<stop  offset="0.343" style="stop-color:#D9659B"/>
	<stop  offset="0.616" style="stop-color:#B070BF"/>
	<stop  offset="0.934" style="stop-color:#777FF0"/>
	<stop  offset="1" style="stop-color:#6A82FB"/>
</linearGradient>
<path style="fill:url(#SVGID_1_);" d="M44,416h280c17.673,0,32-14.327,32-32V136h40c4.418,0,8-3.582,8-8V32
	c0-17.673-14.327-32-32-32H76C58.327,0,44,14.327,44,32v328H20c-4.418,0-8,3.582-8,8v16C12,401.673,26.327,416,44,416z M388,32v88
	h-32V32c0-8.837,7.163-16,16-16S388,23.163,388,32z M60,32c0-8.837,7.163-16,16-16h268.448c-2.879,4.843-4.415,10.366-4.448,16v352
	c0,8.837-7.163,16-16,16s-16-7.163-16-16v-16c0-4.418-3.582-8-8-8H60V32z M28,376h264v8c-0.009,5.619,1.474,11.141,4.296,16H44
	c-8.837,0-16-7.163-16-16L28,376z"/>
<g>
	
		<linearGradient id="SVGID_2_" gradientUnits="userSpaceOnUse" x1="-42.375" y1="584.402" x2="-42.375" y2="523.155" gradientTransform="matrix(8 0 0 -8 539 4653)">
		<stop  offset="0" style="stop-color:#FC5C7D"/>
		<stop  offset="0.129" style="stop-color:#F35E85"/>
		<stop  offset="0.343" style="stop-color:#D9659B"/>
		<stop  offset="0.616" style="stop-color:#B070BF"/>
		<stop  offset="0.934" style="stop-color:#777FF0"/>
		<stop  offset="1" style="stop-color:#6A82FB"/>
	</linearGradient>
	<path style="fill:url(#SVGID_2_);" d="M84,248h232v16H84V248z"/>
	
		<linearGradient id="SVGID_3_" gradientUnits="userSpaceOnUse" x1="-44.375" y1="584.402" x2="-44.375" y2="523.155" gradientTransform="matrix(8 0 0 -8 539 4653)">
		<stop  offset="0" style="stop-color:#FC5C7D"/>
		<stop  offset="0.129" style="stop-color:#F35E85"/>
		<stop  offset="0.343" style="stop-color:#D9659B"/>
		<stop  offset="0.616" style="stop-color:#B070BF"/>
		<stop  offset="0.934" style="stop-color:#777FF0"/>
		<stop  offset="1" style="stop-color:#6A82FB"/>
	</linearGradient>
	<path style="fill:url(#SVGID_3_);" d="M84,280h200v16H84V280z"/>
	
		<linearGradient id="SVGID_4_" gradientUnits="userSpaceOnUse" x1="-53.875" y1="584.402" x2="-53.875" y2="523.155" gradientTransform="matrix(8 0 0 -8 539 4653)">
		<stop  offset="0" style="stop-color:#FC5C7D"/>
		<stop  offset="0.129" style="stop-color:#F35E85"/>
		<stop  offset="0.343" style="stop-color:#D9659B"/>
		<stop  offset="0.616" style="stop-color:#B070BF"/>
		<stop  offset="0.934" style="stop-color:#777FF0"/>
		<stop  offset="1" style="stop-color:#6A82FB"/>
	</linearGradient>
	<path style="fill:url(#SVGID_4_);" d="M84,320h48v16H84V320z"/>
	
		<linearGradient id="SVGID_5_" gradientUnits="userSpaceOnUse" x1="-30.875" y1="584.402" x2="-30.875" y2="523.155" gradientTransform="matrix(8 0 0 -8 539 4653)">
		<stop  offset="0" style="stop-color:#FC5C7D"/>
		<stop  offset="0.129" style="stop-color:#F35E85"/>
		<stop  offset="0.343" style="stop-color:#D9659B"/>
		<stop  offset="0.616" style="stop-color:#B070BF"/>
		<stop  offset="0.934" style="stop-color:#777FF0"/>
		<stop  offset="1" style="stop-color:#6A82FB"/>
	</linearGradient>
	<path style="fill:url(#SVGID_5_);" d="M268,320h48v16h-48V320z"/>
	
		<linearGradient id="SVGID_6_" gradientUnits="userSpaceOnUse" x1="-39.375" y1="584.402" x2="-39.375" y2="523.155" gradientTransform="matrix(8 0 0 -8 539 4653)">
		<stop  offset="0" style="stop-color:#FC5C7D"/>
		<stop  offset="0.129" style="stop-color:#F35E85"/>
		<stop  offset="0.343" style="stop-color:#D9659B"/>
		<stop  offset="0.616" style="stop-color:#B070BF"/>
		<stop  offset="0.934" style="stop-color:#777FF0"/>
		<stop  offset="1" style="stop-color:#6A82FB"/>
	</linearGradient>
	<path style="fill:url(#SVGID_6_);" d="M132,216h184v16H132V216z"/>
	
		<linearGradient id="SVGID_7_" gradientUnits="userSpaceOnUse" x1="-53.875" y1="584.402" x2="-53.875" y2="523.155" gradientTransform="matrix(8 0 0 -8 539 4653)">
		<stop  offset="0" style="stop-color:#FC5C7D"/>
		<stop  offset="0.129" style="stop-color:#F35E85"/>
		<stop  offset="0.343" style="stop-color:#D9659B"/>
		<stop  offset="0.616" style="stop-color:#B070BF"/>
		<stop  offset="0.934" style="stop-color:#777FF0"/>
		<stop  offset="1" style="stop-color:#6A82FB"/>
	</linearGradient>
	<path style="fill:url(#SVGID_7_);" d="M100,216h16v16h-16V216z"/>
	
		<linearGradient id="SVGID_8_" gradientUnits="userSpaceOnUse" x1="-42.875" y1="584.402" x2="-42.875" y2="523.155" gradientTransform="matrix(8 0 0 -8 539 4653)">
		<stop  offset="0" style="stop-color:#FC5C7D"/>
		<stop  offset="0.129" style="stop-color:#F35E85"/>
		<stop  offset="0.343" style="stop-color:#D9659B"/>
		<stop  offset="0.616" style="stop-color:#B070BF"/>
		<stop  offset="0.934" style="stop-color:#777FF0"/>
		<stop  offset="1" style="stop-color:#6A82FB"/>
	</linearGradient>
	<path style="fill:url(#SVGID_8_);" d="M188,80h16v16h-16V80z"/>
	
		<linearGradient id="SVGID_9_" gradientUnits="userSpaceOnUse" x1="-55.875" y1="584.402" x2="-55.875" y2="523.155" gradientTransform="matrix(8 0 0 -8 539 4653)">
		<stop  offset="0" style="stop-color:#FC5C7D"/>
		<stop  offset="0.129" style="stop-color:#F35E85"/>
		<stop  offset="0.343" style="stop-color:#D9659B"/>
		<stop  offset="0.616" style="stop-color:#B070BF"/>
		<stop  offset="0.934" style="stop-color:#777FF0"/>
		<stop  offset="1" style="stop-color:#6A82FB"/>
	</linearGradient>
	<path style="fill:url(#SVGID_9_);" d="M84,40h16v16H84V40z"/>
	
		<linearGradient id="SVGID_10_" gradientUnits="userSpaceOnUse" x1="-51.875" y1="584.402" x2="-51.875" y2="523.155" gradientTransform="matrix(8 0 0 -8 539 4653)">
		<stop  offset="0" style="stop-color:#FC5C7D"/>
		<stop  offset="0.129" style="stop-color:#F35E85"/>
		<stop  offset="0.343" style="stop-color:#D9659B"/>
		<stop  offset="0.616" style="stop-color:#B070BF"/>
		<stop  offset="0.934" style="stop-color:#777FF0"/>
		<stop  offset="1" style="stop-color:#6A82FB"/>
	</linearGradient>
	<path style="fill:url(#SVGID_10_);" d="M116,40h16v16h-16V40z"/>
	
		<linearGradient id="SVGID_11_" gradientUnits="userSpaceOnUse" x1="-42.875" y1="584.402" x2="-42.875" y2="523.155" gradientTransform="matrix(8 0 0 -8 539 4653)">
		<stop  offset="0" style="stop-color:#FC5C7D"/>
		<stop  offset="0.129" style="stop-color:#F35E85"/>
		<stop  offset="0.343" style="stop-color:#D9659B"/>
		<stop  offset="0.616" style="stop-color:#B070BF"/>
		<stop  offset="0.934" style="stop-color:#777FF0"/>
		<stop  offset="1" style="stop-color:#6A82FB"/>
	</linearGradient>
	<path style="fill:url(#SVGID_11_);" d="M118.344,138.344c-2.436,2.433-3.041,6.152-1.504,9.232l16,32
		c1.151,2.302,3.339,3.91,5.88,4.32c0.423,0.07,0.851,0.105,1.28,0.104c2.122,0,4.156-0.844,5.656-2.344l45.88-45.88
		c1.472,0.136,2.96,0.224,4.464,0.224s2.992-0.088,4.464-0.224l45.88,45.88c1.5,1.5,3.534,2.344,5.656,2.344
		c0.429,0.001,0.857-0.034,1.28-0.104c2.541-0.41,4.729-2.018,5.88-4.32l16-32c1.537-3.08,0.932-6.799-1.504-9.232l-32.96-32.96
		c9.665-24.685-2.511-52.531-27.195-62.197s-52.531,2.511-62.197,27.195c-4.405,11.251-4.405,23.75,0,35.001L118.344,138.344z
		 M142.192,162.496l-8.456-16.896l26.104-26.104c3.989,4.594,8.809,8.394,14.208,11.2L142.192,162.496z M258.264,145.6l-8.456,16.92
		l-31.856-31.88c5.399-2.806,10.219-6.606,14.208-11.2L258.264,145.6z M196,56c17.673,0,32,14.327,32,32c0,17.673-14.327,32-32,32
		s-32-14.327-32-32l0,0C164,70.327,178.327,56,196,56z"/>
</g>
<g>
</g>
<g>
</g>
<g>
</g>
<g>
</g>
<g>
</g>
<g>
</g>
<g>
</g>
<g>
</g>
<g>
</g>
<g>
</g>
<g>
</g>
<g>
</g>
<g>
</g>
<g>
</g>
<g>
</g>
</svg>
