<?xml version="1.0" encoding="iso-8859-1"?>
<!-- Generator: Adobe Illustrator 19.0.0, SVG Export Plug-In . SVG Version: 6.00 Build 0)  -->
<svg version="1.1" id="Capa_1" xmlns="http://www.w3.org/2000/svg" xmlns:xlink="http://www.w3.org/1999/xlink" x="0px" y="0px"
	 viewBox="0 0 480 480" style="enable-background:new 0 0 480 480;" xml:space="preserve">
<g>
	
		<linearGradient id="SVGID_1_" gradientUnits="userSpaceOnUse" x1="-26.875" y1="618.288" x2="-26.875" y2="556.645" gradientTransform="matrix(8 0 0 -8 455 4941)">
		<stop  offset="0" style="stop-color:#FC5C7D"/>
		<stop  offset="0.129" style="stop-color:#F35E85"/>
		<stop  offset="0.343" style="stop-color:#D9659B"/>
		<stop  offset="0.616" style="stop-color:#B070BF"/>
		<stop  offset="0.934" style="stop-color:#777FF0"/>
		<stop  offset="1" style="stop-color:#6A82FB"/>
	</linearGradient>
	<path style="fill:url(#SVGID_1_);" d="M240,72c-92.784,0-168,75.216-168,168s75.216,168,168,168s168-75.216,168-168
		C407.894,147.26,332.74,72.106,240,72z M240,392c-83.947,0-152-68.053-152-152S156.053,88,240,88s152,68.053,152,152
		C391.907,323.909,323.909,391.907,240,392z"/>
	
		<linearGradient id="SVGID_2_" gradientUnits="userSpaceOnUse" x1="-26.875" y1="618.288" x2="-26.875" y2="556.645" gradientTransform="matrix(8 0 0 -8 455 4941)">
		<stop  offset="0" style="stop-color:#FC5C7D"/>
		<stop  offset="0.129" style="stop-color:#F35E85"/>
		<stop  offset="0.343" style="stop-color:#D9659B"/>
		<stop  offset="0.616" style="stop-color:#B070BF"/>
		<stop  offset="0.934" style="stop-color:#777FF0"/>
		<stop  offset="1" style="stop-color:#6A82FB"/>
	</linearGradient>
	<path style="fill:url(#SVGID_2_);" d="M428.088,172l37.192-15.152l-6.032-14.824l-37.256,15.2
		c-8.832-19.349-20.684-37.172-35.112-52.8l28.48-28.48L404.048,64.64l-28.48,28.48c-15.045-13.898-32.128-25.413-50.656-34.144
		L340.52,21.92l-14.744-6.216l-15.6,37.04C290.257,45.259,269.264,41.023,248,40.2V0h-16v40.2c-20.484,0.787-40.723,4.738-60,11.712
		l-15.16-37.2l-14.808,6.04L157.232,58c-19.349,8.837-37.171,20.691-52.8,35.12l-28.48-28.48L64.64,75.952l28.48,28.48
		c-13.898,15.045-25.413,32.128-34.144,50.656L21.92,139.48l-6.216,14.744l37.04,15.6C45.259,189.743,41.023,210.736,40.2,232H0v16
		h40.2c0.787,20.484,4.738,40.724,11.712,60L14.72,323.128l6.032,14.824l37.256-15.2c8.832,19.349,20.684,37.172,35.112,52.8
		l-28.48,28.48l11.312,11.312l28.48-28.48c15.045,13.898,32.128,25.413,50.656,34.144L139.48,458.08l14.744,6.216l15.6-37.04
		c19.919,7.485,40.912,11.721,62.176,12.544V480h16v-40.2c20.484-0.787,40.724-4.738,60-11.712l15.2,37.2l14.808-6.04L322.808,422
		c19.349-8.837,37.171-20.691,52.8-35.12l28.48,28.48l11.312-11.312l-28.48-28.48c13.898-15.045,25.413-32.128,34.144-50.656
		l37.056,15.608l6.216-14.744l-37.04-15.6c7.472-19.922,11.693-40.915,12.504-62.176H480v-16h-40.2
		C439.013,211.516,435.062,191.277,428.088,172z M240,424c-101.62,0-184-82.38-184-184S138.38,56,240,56s184,82.38,184,184
		C423.885,341.573,341.573,423.885,240,424z"/>
</g>
<g>
	
		<linearGradient id="SVGID_3_" gradientUnits="userSpaceOnUse" x1="-33.4703" y1="618.288" x2="-33.4703" y2="556.645" gradientTransform="matrix(8 0 0 -8 455 4941)">
		<stop  offset="0" style="stop-color:#FC5C7D"/>
		<stop  offset="0.129" style="stop-color:#F35E85"/>
		<stop  offset="0.343" style="stop-color:#D9659B"/>
		<stop  offset="0.616" style="stop-color:#B070BF"/>
		<stop  offset="0.934" style="stop-color:#777FF0"/>
		<stop  offset="1" style="stop-color:#6A82FB"/>
	</linearGradient>
	<path style="fill:url(#SVGID_3_);" d="M185.912,247.768c14.52-4.488,27.545-12.843,37.68-24.168
		c37.408-37.4,26.808-63.712,11.32-79.2c-24.843-25.144-65.364-25.388-90.508-0.545s-25.388,65.364-0.545,90.508
		c0.182,0.184,0.365,0.367,0.549,0.549c8.084,8.767,19.389,13.866,31.312,14.12C179.156,249.025,182.578,248.6,185.912,247.768
		L185.912,247.768z M155.72,223.6c-18.747-18.745-18.749-49.137-0.004-67.884s49.137-18.749,67.884-0.004l0,0
		c9.712,9.72,19.112,26.152-11.32,56.576c-8.138,9.184-18.551,16.062-30.192,19.944C172.371,234.636,162.134,231.285,155.72,223.6z"
		/>
	
		<linearGradient id="SVGID_4_" gradientUnits="userSpaceOnUse" x1="-30.875" y1="618.288" x2="-30.875" y2="556.645" gradientTransform="matrix(8 0 0 -8 455 4941)">
		<stop  offset="0" style="stop-color:#FC5C7D"/>
		<stop  offset="0.129" style="stop-color:#F35E85"/>
		<stop  offset="0.343" style="stop-color:#D9659B"/>
		<stop  offset="0.616" style="stop-color:#B070BF"/>
		<stop  offset="0.934" style="stop-color:#777FF0"/>
		<stop  offset="1" style="stop-color:#6A82FB"/>
	</linearGradient>
	<path style="fill:url(#SVGID_4_);" d="M200,168h16v16h-16V168z"/>
	
		<linearGradient id="SVGID_5_" gradientUnits="userSpaceOnUse" x1="-16.875" y1="618.288" x2="-16.875" y2="556.645" gradientTransform="matrix(8 0 0 -8 455 4941)">
		<stop  offset="0" style="stop-color:#FC5C7D"/>
		<stop  offset="0.129" style="stop-color:#F35E85"/>
		<stop  offset="0.343" style="stop-color:#D9659B"/>
		<stop  offset="0.616" style="stop-color:#B070BF"/>
		<stop  offset="0.934" style="stop-color:#777FF0"/>
		<stop  offset="1" style="stop-color:#6A82FB"/>
	</linearGradient>
	<path style="fill:url(#SVGID_5_);" d="M312,216h16v16h-16V216z"/>
	
		<linearGradient id="SVGID_6_" gradientUnits="userSpaceOnUse" x1="-29.875" y1="618.288" x2="-29.875" y2="556.645" gradientTransform="matrix(8 0 0 -8 455 4941)">
		<stop  offset="0" style="stop-color:#FC5C7D"/>
		<stop  offset="0.129" style="stop-color:#F35E85"/>
		<stop  offset="0.343" style="stop-color:#D9659B"/>
		<stop  offset="0.616" style="stop-color:#B070BF"/>
		<stop  offset="0.934" style="stop-color:#777FF0"/>
		<stop  offset="1" style="stop-color:#6A82FB"/>
	</linearGradient>
	<path style="fill:url(#SVGID_6_);" d="M208,312h16v16h-16V312z"/>
	
		<linearGradient id="SVGID_7_" gradientUnits="userSpaceOnUse" x1="-17.875" y1="618.288" x2="-17.875" y2="556.645" gradientTransform="matrix(8 0 0 -8 455 4941)">
		<stop  offset="0" style="stop-color:#FC5C7D"/>
		<stop  offset="0.129" style="stop-color:#F35E85"/>
		<stop  offset="0.343" style="stop-color:#D9659B"/>
		<stop  offset="0.616" style="stop-color:#B070BF"/>
		<stop  offset="0.934" style="stop-color:#777FF0"/>
		<stop  offset="1" style="stop-color:#6A82FB"/>
	</linearGradient>
	<path style="fill:url(#SVGID_7_);" d="M304,328h16v16h-16V328z"/>
</g>
<linearGradient id="SVGID_8_" gradientUnits="userSpaceOnUse" x1="-26.875" y1="618.288" x2="-26.875" y2="556.645" gradientTransform="matrix(8 0 0 -8 455 4941)">
	<stop  offset="0" style="stop-color:#FC5C7D"/>
	<stop  offset="0.129" style="stop-color:#F35E85"/>
	<stop  offset="0.343" style="stop-color:#D9659B"/>
	<stop  offset="0.616" style="stop-color:#B070BF"/>
	<stop  offset="0.934" style="stop-color:#777FF0"/>
	<stop  offset="1" style="stop-color:#6A82FB"/>
</linearGradient>
<path style="fill:url(#SVGID_8_);" d="M232,240h16v16h-16V240z"/>
<g>
	
		<linearGradient id="SVGID_9_" gradientUnits="userSpaceOnUse" x1="-40.875" y1="618.288" x2="-40.875" y2="556.645" gradientTransform="matrix(8 0 0 -8 455 4941)">
		<stop  offset="0" style="stop-color:#FC5C7D"/>
		<stop  offset="0.129" style="stop-color:#F35E85"/>
		<stop  offset="0.343" style="stop-color:#D9659B"/>
		<stop  offset="0.616" style="stop-color:#B070BF"/>
		<stop  offset="0.934" style="stop-color:#777FF0"/>
		<stop  offset="1" style="stop-color:#6A82FB"/>
	</linearGradient>
	<path style="fill:url(#SVGID_9_);" d="M120,264h16v16h-16V264z"/>
	
		<linearGradient id="SVGID_10_" gradientUnits="userSpaceOnUse" x1="-21.875" y1="618.288" x2="-21.875" y2="556.645" gradientTransform="matrix(8 0 0 -8 455 4941)">
		<stop  offset="0" style="stop-color:#FC5C7D"/>
		<stop  offset="0.129" style="stop-color:#F35E85"/>
		<stop  offset="0.343" style="stop-color:#D9659B"/>
		<stop  offset="0.616" style="stop-color:#B070BF"/>
		<stop  offset="0.934" style="stop-color:#777FF0"/>
		<stop  offset="1" style="stop-color:#6A82FB"/>
	</linearGradient>
	<path style="fill:url(#SVGID_10_);" d="M272,128h16v16h-16V128z"/>
	
		<linearGradient id="SVGID_11_" gradientUnits="userSpaceOnUse" x1="-16.875" y1="618.288" x2="-16.875" y2="556.645" gradientTransform="matrix(8 0 0 -8 455 4941)">
		<stop  offset="0" style="stop-color:#FC5C7D"/>
		<stop  offset="0.129" style="stop-color:#F35E85"/>
		<stop  offset="0.343" style="stop-color:#D9659B"/>
		<stop  offset="0.616" style="stop-color:#B070BF"/>
		<stop  offset="0.934" style="stop-color:#777FF0"/>
		<stop  offset="1" style="stop-color:#6A82FB"/>
	</linearGradient>
	<path style="fill:url(#SVGID_11_);" d="M312,184c-40,0-40,42.152-40,56s0,56,40,56c30.928,0,56-25.072,56-56S342.928,184,312,184z
		 M312,280c-14.4,0-24-6.8-24-40s9.6-40,24-40c22.091,0,40,17.909,40,40C352,262.091,334.091,280,312,280z"/>
	
		<linearGradient id="SVGID_12_" gradientUnits="userSpaceOnUse" x1="-30.6742" y1="618.288" x2="-30.6742" y2="556.645" gradientTransform="matrix(8 0 0 -8 455 4941)">
		<stop  offset="0" style="stop-color:#FC5C7D"/>
		<stop  offset="0.129" style="stop-color:#F35E85"/>
		<stop  offset="0.343" style="stop-color:#D9659B"/>
		<stop  offset="0.616" style="stop-color:#B070BF"/>
		<stop  offset="0.934" style="stop-color:#777FF0"/>
		<stop  offset="1" style="stop-color:#6A82FB"/>
	</linearGradient>
	<path style="fill:url(#SVGID_12_);" d="M239.112,284.888c-7.942-8.591-18.383-14.468-29.848-16.8
		c-11.971-1.938-24.119,2.231-32.376,11.112c-18.753,18.753-18.753,49.159,0,67.912s49.159,18.753,67.912,0
		c8.882-8.257,13.057-20.403,11.128-32.376C253.587,303.271,247.705,292.831,239.112,284.888L239.112,284.888z M233.456,335.8
		c-12.67,12.074-32.586,12.074-45.256,0c-12.497-12.496-12.498-32.758-0.001-45.255c0,0,0.001-0.001,0.001-0.001
		c3.872-4.296,9.346-6.8,15.128-6.92c1.141,0.001,2.281,0.092,3.408,0.272c8.122,1.831,15.48,6.129,21.064,12.304
		c6.177,5.583,10.475,12.941,12.304,21.064C241.203,324.173,238.696,331.165,233.456,335.8L233.456,335.8z"/>
</g>
<g>
</g>
<g>
</g>
<g>
</g>
<g>
</g>
<g>
</g>
<g>
</g>
<g>
</g>
<g>
</g>
<g>
</g>
<g>
</g>
<g>
</g>
<g>
</g>
<g>
</g>
<g>
</g>
<g>
</g>
</svg>
