<?xml version="1.0" encoding="iso-8859-1"?>
<!-- Generator: Adobe Illustrator 19.0.0, SVG Export Plug-In . SVG Version: 6.00 Build 0)  -->
<svg version="1.1" id="Capa_1" xmlns="http://www.w3.org/2000/svg" xmlns:xlink="http://www.w3.org/1999/xlink" x="0px" y="0px"
	 viewBox="0 0 480.129 480.129" style="enable-background:new 0 0 480.129 480.129;" xml:space="preserve">
<linearGradient id="SVGID_1_" gradientUnits="userSpaceOnUse" x1="-45.7523" y1="616.9736" x2="-45.7523" y2="555.4205" gradientTransform="matrix(8 0 0 -8 454.1409 4941.4102)">
	<stop  offset="0" style="stop-color:#FC5C7D"/>
	<stop  offset="0.129" style="stop-color:#F35E85"/>
	<stop  offset="0.343" style="stop-color:#D9659B"/>
	<stop  offset="0.616" style="stop-color:#B070BF"/>
	<stop  offset="0.934" style="stop-color:#777FF0"/>
	<stop  offset="1" style="stop-color:#6A82FB"/>
</linearGradient>
<path style="fill:url(#SVGID_1_);" d="M48.123,100.99v35.056c-0.001,3.032,1.712,5.805,4.424,7.16l27.576,13.784v19.056h16V156.99
	l27.576-13.744c2.725-1.362,4.441-4.153,4.424-7.2V100.99l27.576-13.744c2.725-1.362,4.441-4.153,4.424-7.2v-32h16v-16h-22.112
	l-25.888-12.944V0.046h-16v19.056l-24,12l-24-12V0.046h-16v19.056L20.547,32.886c-2.712,1.355-4.425,4.128-4.424,7.16v32h-16v16
	h22.112L48.123,100.99z M112.123,131.102l-24,12l-24-12V100.99l24-12l24,12V131.102z M144.123,75.102l-24,12l-24-12V44.99l24-12
	l24,12V75.102z M32.123,44.99l24-12l24,12v30.112l-24,12l-24-12V44.99z"/>
<g>
	
		<linearGradient id="SVGID_2_" gradientUnits="userSpaceOnUse" x1="-31.7523" y1="616.9736" x2="-31.7523" y2="555.4205" gradientTransform="matrix(8 0 0 -8 454.1409 4941.4102)">
		<stop  offset="0" style="stop-color:#FC5C7D"/>
		<stop  offset="0.129" style="stop-color:#F35E85"/>
		<stop  offset="0.343" style="stop-color:#D9659B"/>
		<stop  offset="0.616" style="stop-color:#B070BF"/>
		<stop  offset="0.934" style="stop-color:#777FF0"/>
		<stop  offset="1" style="stop-color:#6A82FB"/>
	</linearGradient>
	<path style="fill:url(#SVGID_2_);" d="M192.123,0.046h16v24h-16V0.046z"/>
	
		<linearGradient id="SVGID_3_" gradientUnits="userSpaceOnUse" x1="-27.7523" y1="616.9736" x2="-27.7523" y2="555.4205" gradientTransform="matrix(8 0 0 -8 454.1409 4941.4102)">
		<stop  offset="0" style="stop-color:#FC5C7D"/>
		<stop  offset="0.129" style="stop-color:#F35E85"/>
		<stop  offset="0.343" style="stop-color:#D9659B"/>
		<stop  offset="0.616" style="stop-color:#B070BF"/>
		<stop  offset="0.934" style="stop-color:#777FF0"/>
		<stop  offset="1" style="stop-color:#6A82FB"/>
	</linearGradient>
	<path style="fill:url(#SVGID_3_);" d="M224.123,0.046h16v24h-16V0.046z"/>
	
		<linearGradient id="SVGID_4_" gradientUnits="userSpaceOnUse" x1="-41.7523" y1="616.9736" x2="-41.7523" y2="555.4205" gradientTransform="matrix(8 0 0 -8 454.1409 4941.4102)">
		<stop  offset="0" style="stop-color:#FC5C7D"/>
		<stop  offset="0.129" style="stop-color:#F35E85"/>
		<stop  offset="0.343" style="stop-color:#D9659B"/>
		<stop  offset="0.616" style="stop-color:#B070BF"/>
		<stop  offset="0.934" style="stop-color:#777FF0"/>
		<stop  offset="1" style="stop-color:#6A82FB"/>
	</linearGradient>
	<path style="fill:url(#SVGID_4_);" d="M112.123,168.046h16v24h-16V168.046z"/>
	
		<linearGradient id="SVGID_5_" gradientUnits="userSpaceOnUse" x1="-37.7523" y1="616.9736" x2="-37.7523" y2="555.4205" gradientTransform="matrix(8 0 0 -8 454.1409 4941.4102)">
		<stop  offset="0" style="stop-color:#FC5C7D"/>
		<stop  offset="0.129" style="stop-color:#F35E85"/>
		<stop  offset="0.343" style="stop-color:#D9659B"/>
		<stop  offset="0.616" style="stop-color:#B070BF"/>
		<stop  offset="0.934" style="stop-color:#777FF0"/>
		<stop  offset="1" style="stop-color:#6A82FB"/>
	</linearGradient>
	<path style="fill:url(#SVGID_5_);" d="M144.123,168.046h16v24h-16V168.046z"/>
	
		<linearGradient id="SVGID_6_" gradientUnits="userSpaceOnUse" x1="-26.782" y1="616.9736" x2="-26.782" y2="555.4205" gradientTransform="matrix(8 0 0 -8 454.1409 4941.4102)">
		<stop  offset="0" style="stop-color:#FC5C7D"/>
		<stop  offset="0.129" style="stop-color:#F35E85"/>
		<stop  offset="0.343" style="stop-color:#D9659B"/>
		<stop  offset="0.616" style="stop-color:#B070BF"/>
		<stop  offset="0.934" style="stop-color:#777FF0"/>
		<stop  offset="1" style="stop-color:#6A82FB"/>
	</linearGradient>
	<path style="fill:url(#SVGID_6_);" d="M48.763,181.718C16.686,287.271,76.25,398.843,181.804,430.92
		s217.125-27.488,249.202-133.041S403.519,80.753,297.965,48.676c-35.051-10.652-72.355-11.459-107.834-2.335l4,15.504
		c98.313-25.294,198.516,33.899,223.81,132.212c25.294,98.313-33.899,198.516-132.212,223.81
		c-98.313,25.294-198.516-33.899-223.81-132.212c-8.404-32.665-7.658-67.012,2.156-99.282L48.763,181.718z"/>
	
		<linearGradient id="SVGID_7_" gradientUnits="userSpaceOnUse" x1="-26.7596" y1="616.9736" x2="-26.7596" y2="555.4205" gradientTransform="matrix(8 0 0 -8 454.1409 4941.4102)">
		<stop  offset="0" style="stop-color:#FC5C7D"/>
		<stop  offset="0.129" style="stop-color:#F35E85"/>
		<stop  offset="0.343" style="stop-color:#D9659B"/>
		<stop  offset="0.616" style="stop-color:#B070BF"/>
		<stop  offset="0.934" style="stop-color:#777FF0"/>
		<stop  offset="1" style="stop-color:#6A82FB"/>
	</linearGradient>
	<path style="fill:url(#SVGID_7_);" d="M264.923,1.31l-1.6,15.92C386.281,30.122,475.507,140.25,462.615,263.209
		c-12.892,122.958-123.021,212.184-245.979,199.292C93.677,449.608,4.451,339.48,17.344,216.522
		c2.098-20.008,6.883-39.642,14.227-58.372l-14.896-5.864C-31.779,275.66,28.956,414.955,152.331,463.408
		S415,451.127,463.454,327.752S451.172,65.083,327.797,16.629C307.627,8.707,286.476,3.554,264.923,1.31z"/>
	
		<linearGradient id="SVGID_8_" gradientUnits="userSpaceOnUse" x1="-26.4602" y1="616.9736" x2="-26.4602" y2="555.4205" gradientTransform="matrix(8 0 0 -8 454.1409 4941.4102)">
		<stop  offset="0" style="stop-color:#FC5C7D"/>
		<stop  offset="0.129" style="stop-color:#F35E85"/>
		<stop  offset="0.343" style="stop-color:#D9659B"/>
		<stop  offset="0.616" style="stop-color:#B070BF"/>
		<stop  offset="0.934" style="stop-color:#777FF0"/>
		<stop  offset="1" style="stop-color:#6A82FB"/>
	</linearGradient>
	<path style="fill:url(#SVGID_8_);" d="M199.475,98.79c-24.951,25.012-24.951,65.5,0,90.512c8.03,8.734,19.252,13.848,31.112,14.176
		c13.232,0,29.256-6.664,48.08-25.496c37.4-37.4,26.8-63.712,11.312-79.2C264.965,73.838,224.484,73.842,199.475,98.79
		L199.475,98.79z M267.323,166.67c-30.4,30.44-46.864,21.024-56.568,11.32c-18.747-18.745-18.749-49.137-0.004-67.884
		s49.137-18.749,67.884-0.004C288.379,119.822,297.779,136.246,267.323,166.67z"/>
	
		<linearGradient id="SVGID_9_" gradientUnits="userSpaceOnUse" x1="-23.8843" y1="616.9736" x2="-23.8843" y2="555.4205" gradientTransform="matrix(8 0 0 -8 454.1409 4941.4102)">
		<stop  offset="0" style="stop-color:#FC5C7D"/>
		<stop  offset="0.129" style="stop-color:#F35E85"/>
		<stop  offset="0.343" style="stop-color:#D9659B"/>
		<stop  offset="0.616" style="stop-color:#B070BF"/>
		<stop  offset="0.934" style="stop-color:#777FF0"/>
		<stop  offset="1" style="stop-color:#6A82FB"/>
	</linearGradient>
	<path style="fill:url(#SVGID_9_);" d="M255.067,122.39h16v16h-16V122.39z"/>
	
		<linearGradient id="SVGID_10_" gradientUnits="userSpaceOnUse" x1="-13.7523" y1="616.9736" x2="-13.7523" y2="555.4205" gradientTransform="matrix(8 0 0 -8 454.1409 4941.4102)">
		<stop  offset="0" style="stop-color:#FC5C7D"/>
		<stop  offset="0.129" style="stop-color:#F35E85"/>
		<stop  offset="0.343" style="stop-color:#D9659B"/>
		<stop  offset="0.616" style="stop-color:#B070BF"/>
		<stop  offset="0.934" style="stop-color:#777FF0"/>
		<stop  offset="1" style="stop-color:#6A82FB"/>
	</linearGradient>
	<path style="fill:url(#SVGID_10_);" d="M336.123,264.046h16v16h-16V264.046z"/>
	
		<linearGradient id="SVGID_11_" gradientUnits="userSpaceOnUse" x1="-31.7523" y1="616.9736" x2="-31.7523" y2="555.4205" gradientTransform="matrix(8 0 0 -8 454.1409 4941.4102)">
		<stop  offset="0" style="stop-color:#FC5C7D"/>
		<stop  offset="0.129" style="stop-color:#F35E85"/>
		<stop  offset="0.343" style="stop-color:#D9659B"/>
		<stop  offset="0.616" style="stop-color:#B070BF"/>
		<stop  offset="0.934" style="stop-color:#777FF0"/>
		<stop  offset="1" style="stop-color:#6A82FB"/>
	</linearGradient>
	<path style="fill:url(#SVGID_11_);" d="M192.123,339.814h16v16h-16V339.814z"/>
	
		<linearGradient id="SVGID_12_" gradientUnits="userSpaceOnUse" x1="-30.7523" y1="616.9736" x2="-30.7523" y2="555.4205" gradientTransform="matrix(8 0 0 -8 454.1409 4941.4102)">
		<stop  offset="0" style="stop-color:#FC5C7D"/>
		<stop  offset="0.129" style="stop-color:#F35E85"/>
		<stop  offset="0.343" style="stop-color:#D9659B"/>
		<stop  offset="0.616" style="stop-color:#B070BF"/>
		<stop  offset="0.934" style="stop-color:#777FF0"/>
		<stop  offset="1" style="stop-color:#6A82FB"/>
	</linearGradient>
	<path style="fill:url(#SVGID_12_);" d="M200.123,216.046h16v16h-16V216.046z"/>
	
		<linearGradient id="SVGID_13_" gradientUnits="userSpaceOnUse" x1="-20.7523" y1="616.9736" x2="-20.7523" y2="555.4205" gradientTransform="matrix(8 0 0 -8 454.1409 4941.4102)">
		<stop  offset="0" style="stop-color:#FC5C7D"/>
		<stop  offset="0.129" style="stop-color:#F35E85"/>
		<stop  offset="0.343" style="stop-color:#D9659B"/>
		<stop  offset="0.616" style="stop-color:#B070BF"/>
		<stop  offset="0.934" style="stop-color:#777FF0"/>
		<stop  offset="1" style="stop-color:#6A82FB"/>
	</linearGradient>
	<path style="fill:url(#SVGID_13_);" d="M280.123,208.046h16v16h-16V208.046z"/>
	
		<linearGradient id="SVGID_14_" gradientUnits="userSpaceOnUse" x1="-14.7523" y1="616.9736" x2="-14.7523" y2="555.4205" gradientTransform="matrix(8 0 0 -8 454.1409 4941.4102)">
		<stop  offset="0" style="stop-color:#FC5C7D"/>
		<stop  offset="0.129" style="stop-color:#F35E85"/>
		<stop  offset="0.343" style="stop-color:#D9659B"/>
		<stop  offset="0.616" style="stop-color:#B070BF"/>
		<stop  offset="0.934" style="stop-color:#777FF0"/>
		<stop  offset="1" style="stop-color:#6A82FB"/>
	</linearGradient>
	<path style="fill:url(#SVGID_14_);" d="M328.123,102.878h16v16h-16V102.878z"/>
	
		<linearGradient id="SVGID_15_" gradientUnits="userSpaceOnUse" x1="-13.7523" y1="616.9736" x2="-13.7523" y2="555.4205" gradientTransform="matrix(8 0 0 -8 454.1409 4941.4102)">
		<stop  offset="0" style="stop-color:#FC5C7D"/>
		<stop  offset="0.129" style="stop-color:#F35E85"/>
		<stop  offset="0.343" style="stop-color:#D9659B"/>
		<stop  offset="0.616" style="stop-color:#B070BF"/>
		<stop  offset="0.934" style="stop-color:#777FF0"/>
		<stop  offset="1" style="stop-color:#6A82FB"/>
	</linearGradient>
	<path style="fill:url(#SVGID_15_);" d="M296.123,288.046c0,13.848,0,56,40,56c30.928,0,56-25.072,56-56s-25.072-56-56-56
		C296.123,232.046,296.123,274.198,296.123,288.046z M336.123,248.046c22.091,0,40,17.909,40,40s-17.909,40-40,40
		c-14.4,0-24-6.808-24-40S321.723,248.046,336.123,248.046z"/>
	
		<linearGradient id="SVGID_16_" gradientUnits="userSpaceOnUse" x1="-33.484" y1="616.9736" x2="-33.484" y2="555.4205" gradientTransform="matrix(8 0 0 -8 454.1409 4941.4102)">
		<stop  offset="0" style="stop-color:#FC5C7D"/>
		<stop  offset="0.129" style="stop-color:#F35E85"/>
		<stop  offset="0.343" style="stop-color:#D9659B"/>
		<stop  offset="0.616" style="stop-color:#B070BF"/>
		<stop  offset="0.934" style="stop-color:#777FF0"/>
		<stop  offset="1" style="stop-color:#6A82FB"/>
	</linearGradient>
	<path style="fill:url(#SVGID_16_);" d="M137.395,366.774c28.076,28.009,73.524,28.009,101.6,0
		c25.768-25.768,22.304-61.232-9.032-92.568s-66.8-34.808-92.568-9.032C109.386,293.249,109.386,338.698,137.395,366.774z
		 M176.299,264.046c2.047,0.004,4.091,0.17,6.112,0.496c13.962,3.066,26.626,10.396,36.24,20.976
		c10.58,9.614,17.91,22.278,20.976,36.24c1.974,12.532-2.52,25.212-11.944,33.704c-22.054,21.563-57.413,21.166-78.976-0.888
		c-21.221-21.704-21.221-56.384,0-78.088C155.813,268.736,165.786,264.24,176.299,264.046z"/>
	
		<linearGradient id="SVGID_17_" gradientUnits="userSpaceOnUse" x1="-11.7523" y1="616.9736" x2="-11.7523" y2="555.4205" gradientTransform="matrix(8 0 0 -8 454.1409 4941.4102)">
		<stop  offset="0" style="stop-color:#FC5C7D"/>
		<stop  offset="0.129" style="stop-color:#F35E85"/>
		<stop  offset="0.343" style="stop-color:#D9659B"/>
		<stop  offset="0.616" style="stop-color:#B070BF"/>
		<stop  offset="0.934" style="stop-color:#777FF0"/>
		<stop  offset="1" style="stop-color:#6A82FB"/>
	</linearGradient>
	<path style="fill:url(#SVGID_17_);" d="M344.123,168.046v24c0,4.418,3.582,8,8,8h24v-16h-16v-16H344.123z"/>
	
		<linearGradient id="SVGID_18_" gradientUnits="userSpaceOnUse" x1="-44.7523" y1="616.9736" x2="-44.7523" y2="555.4205" gradientTransform="matrix(8 0 0 -8 454.1409 4941.4102)">
		<stop  offset="0" style="stop-color:#FC5C7D"/>
		<stop  offset="0.129" style="stop-color:#F35E85"/>
		<stop  offset="0.343" style="stop-color:#D9659B"/>
		<stop  offset="0.616" style="stop-color:#B070BF"/>
		<stop  offset="0.934" style="stop-color:#777FF0"/>
		<stop  offset="1" style="stop-color:#6A82FB"/>
	</linearGradient>
	<path style="fill:url(#SVGID_18_);" d="M80.123,224.046v24c0,4.418,3.582,8,8,8h24v-16h-16v-16H80.123z"/>
	
		<linearGradient id="SVGID_19_" gradientUnits="userSpaceOnUse" x1="-20.7523" y1="616.9736" x2="-20.7523" y2="555.4205" gradientTransform="matrix(8 0 0 -8 454.1409 4941.4102)">
		<stop  offset="0" style="stop-color:#FC5C7D"/>
		<stop  offset="0.129" style="stop-color:#F35E85"/>
		<stop  offset="0.343" style="stop-color:#D9659B"/>
		<stop  offset="0.616" style="stop-color:#B070BF"/>
		<stop  offset="0.934" style="stop-color:#777FF0"/>
		<stop  offset="1" style="stop-color:#6A82FB"/>
	</linearGradient>
	<path style="fill:url(#SVGID_19_);" d="M272.123,384.046h24c4.418,0,8-3.582,8-8v-24h-16v16h-16V384.046z"/>
</g>
<g>
</g>
<g>
</g>
<g>
</g>
<g>
</g>
<g>
</g>
<g>
</g>
<g>
</g>
<g>
</g>
<g>
</g>
<g>
</g>
<g>
</g>
<g>
</g>
<g>
</g>
<g>
</g>
<g>
</g>
</svg>
