<?xml version="1.0" encoding="iso-8859-1"?>
<!-- Generator: Adobe Illustrator 19.0.0, SVG Export Plug-In . SVG Version: 6.00 Build 0)  -->
<svg version="1.1" id="Capa_1" xmlns="http://www.w3.org/2000/svg" xmlns:xlink="http://www.w3.org/1999/xlink" x="0px" y="0px"
	 viewBox="0 0 447.985 447.985" style="enable-background:new 0 0 447.985 447.985;" xml:space="preserve">
<linearGradient id="SVGID_1_" gradientUnits="userSpaceOnUse" x1="-28.8894" y1="600.0913" x2="-28.8894" y2="541.3973" gradientTransform="matrix(8 0 0 -8 455.1078 4796.9307)">
	<stop  offset="0" style="stop-color:#FC5C7D"/>
	<stop  offset="0.129" style="stop-color:#F35E85"/>
	<stop  offset="0.343" style="stop-color:#D9659B"/>
	<stop  offset="0.616" style="stop-color:#B070BF"/>
	<stop  offset="0.934" style="stop-color:#777FF0"/>
	<stop  offset="1" style="stop-color:#6A82FB"/>
</linearGradient>
<path style="fill:url(#SVGID_1_);" d="M47.985,215.352v0.64c0,17.673,14.327,32,32,32h16v160c0,17.673,14.327,32,32,32
	s32-14.327,32-32v-120h32c4.418,0,8-3.582,8-8v-24.408l200,31.256v1.152c0,13.255,10.745,24,24,24s24-10.745,24-24v-256
	c0-13.255-10.745-24-24-24s-24,10.745-24,24v1.152L151.377,71.992H79.985c-17.673,0-32,14.327-32,32v0.64
	c-30.574,4.391-51.8,32.736-47.409,63.311C4.104,192.517,23.411,211.823,47.985,215.352L47.985,215.352z M143.985,375.992h-32v-128
	h32V375.992z M127.985,423.992c-8.837,0-16-7.163-16-16v-16h32v16C143.985,416.829,136.821,423.992,127.985,423.992z
	 M183.985,271.992h-24v-22.656l24,3.752V271.992z M415.985,31.992c0-4.418,3.582-8,8-8s8,3.582,8,8v256c0,4.418-3.582,8-8,8
	s-8-3.582-8-8V31.992z M399.985,270.648l-240-37.504V86.84l240-37.504V270.648z M63.985,103.992c0-8.837,7.163-16,16-16h64v144h-64
	c-8.837,0-16-7.163-16-16V103.992z M47.985,120.792v78.4c-21.65-4.396-35.636-25.51-31.24-47.16
	C19.941,136.291,32.243,123.989,47.985,120.792L47.985,120.792z"/>
<linearGradient id="SVGID_2_" gradientUnits="userSpaceOnUse" x1="-16.0574" y1="584.7762" x2="-73.9534" y2="575.1273" gradientTransform="matrix(1.3151 -7.8911 -7.8911 -1.3151 4915.6362 638.5473)">
	<stop  offset="0" style="stop-color:#FC5C7D"/>
	<stop  offset="0.129" style="stop-color:#F35E85"/>
	<stop  offset="0.343" style="stop-color:#D9659B"/>
	<stop  offset="0.616" style="stop-color:#B070BF"/>
	<stop  offset="0.934" style="stop-color:#777FF0"/>
	<stop  offset="1" style="stop-color:#6A82FB"/>
</linearGradient>
<path style="fill:url(#SVGID_2_);" d="M182.665,215.916l2.63-15.782l191.999,31.998l-2.63,15.782L182.665,215.916z"/>
<g>
	
		<linearGradient id="SVGID_3_" gradientUnits="userSpaceOnUse" x1="-44.3904" y1="600.0913" x2="-44.3904" y2="541.3973" gradientTransform="matrix(8 0 0 -8 455.1078 4796.9307)">
		<stop  offset="0" style="stop-color:#FC5C7D"/>
		<stop  offset="0.129" style="stop-color:#F35E85"/>
		<stop  offset="0.343" style="stop-color:#D9659B"/>
		<stop  offset="0.616" style="stop-color:#B070BF"/>
		<stop  offset="0.934" style="stop-color:#777FF0"/>
		<stop  offset="1" style="stop-color:#6A82FB"/>
	</linearGradient>
	<path style="fill:url(#SVGID_3_);" d="M103.985,215.992h16v-16h-16c-4.418,0-8-3.582-8-8v-32h-16v32
		C79.985,205.247,90.73,215.992,103.985,215.992z"/>
	
		<linearGradient id="SVGID_4_" gradientUnits="userSpaceOnUse" x1="-45.8904" y1="600.0913" x2="-45.8904" y2="541.3973" gradientTransform="matrix(8 0 0 -8 455.1078 4796.9307)">
		<stop  offset="0" style="stop-color:#FC5C7D"/>
		<stop  offset="0.129" style="stop-color:#F35E85"/>
		<stop  offset="0.343" style="stop-color:#D9659B"/>
		<stop  offset="0.616" style="stop-color:#B070BF"/>
		<stop  offset="0.934" style="stop-color:#777FF0"/>
		<stop  offset="1" style="stop-color:#6A82FB"/>
	</linearGradient>
	<path style="fill:url(#SVGID_4_);" d="M79.985,127.992h16v16h-16V127.992z"/>
</g>
<g>
</g>
<g>
</g>
<g>
</g>
<g>
</g>
<g>
</g>
<g>
</g>
<g>
</g>
<g>
</g>
<g>
</g>
<g>
</g>
<g>
</g>
<g>
</g>
<g>
</g>
<g>
</g>
<g>
</g>
</svg>
