<?xml version="1.0" encoding="iso-8859-1"?>
<!-- Generator: Adobe Illustrator 19.0.0, SVG Export Plug-In . SVG Version: 6.00 Build 0)  -->
<svg version="1.1" id="Capa_1" xmlns="http://www.w3.org/2000/svg" xmlns:xlink="http://www.w3.org/1999/xlink" x="0px" y="0px"
	 viewBox="0 0 479.991 479.991" style="enable-background:new 0 0 479.991 479.991;" xml:space="preserve">
<linearGradient id="SVGID_1_" gradientUnits="userSpaceOnUse" x1="-26.8755" y1="608.9233" x2="-26.8755" y2="547.3703" gradientTransform="matrix(8 0 0 -8 454.9995 4868.958)">
	<stop  offset="0" style="stop-color:#FC5C7D"/>
	<stop  offset="0.129" style="stop-color:#F35E85"/>
	<stop  offset="0.343" style="stop-color:#D9659B"/>
	<stop  offset="0.616" style="stop-color:#B070BF"/>
	<stop  offset="0.934" style="stop-color:#777FF0"/>
	<stop  offset="1" style="stop-color:#6A82FB"/>
</linearGradient>
<path style="fill:url(#SVGID_1_);" d="M423.888,186.275c0-0.8,0.112-1.512,0.112-2.28c-0.007-13.327-2.104-26.571-6.216-39.248
	l22.616-8.888l-5.856-14.888l-22.704,8.928c-5.186-11.048-11.92-21.301-20-30.448l17.28-17.28l-11.312-11.312l-17.28,17.28
	c-7.962-7.044-16.768-13.071-26.216-17.944l9.744-22.344l-14.664-6.4l-9.752,22.4c-11.46-4.184-23.464-6.693-35.64-7.448V31.995h-16
	v24h-32v-24h-16v24h-32v-24h-16v24h-32v-24h-16v24.408c-10.618,0.622-21.116,2.573-31.248,5.808l-8.888-22.616l-14.888,5.848
	l8.92,22.712c-11.031,5.191-21.266,11.925-30.4,20l-17.28-17.28L38.864,82.171l17.28,17.28
	c-7.041,7.959-13.066,16.763-17.936,26.208l-22.352-9.736l-6.4,14.672l22.4,9.744c-4.186,11.465-6.694,23.474-7.448,35.656H0v16
	h24.408c0.619,10.618,2.57,21.117,5.808,31.248L7.6,232.131l5.856,14.888l22.704-8.928c5.186,11.048,11.92,21.301,20,30.448
	l-17.28,17.28l11.312,11.312l17.28-17.28c7.962,7.044,16.768,13.071,26.216,17.944l-9.744,22.344l14.664,6.4l9.752-22.4
	c11.46,4.184,23.464,6.693,35.64,7.448v24.408h16v-24h32v24h16v-24h32v24h16v-24h32v24h16v-24.408
	c10.618-0.622,21.116-2.573,31.248-5.808l8.888,22.616l14.888-5.848l-8.92-22.712c11.045-5.188,21.294-11.922,30.44-20l17.28,17.28
	l11.312-11.312l-17.28-17.28c7.041-7.959,13.066-16.763,17.936-26.208l22.352,9.736l6.4-14.672l-22.4-9.744
	c2.843-7.805,4.911-15.87,6.176-24.08c40.052,23.323,53.613,74.699,30.29,114.75c-15.047,25.84-42.708,41.721-72.61,41.69H132
	c-24.301,0-44,19.699-44,44s19.699,44,44,44h108v-16H132c-15.464,0-28-12.536-28-28s12.536-28,28-28h248
	c55.184,0.039,99.952-44.665,99.991-99.849C480.018,237.924,458.238,203.036,423.888,186.275L423.888,186.275z M296,295.995H152
	c-61.856,0-112-50.144-112-112s50.144-112,112-112h144c60.238,0.098,109.62,47.802,111.8,108c-5.289-1.541-10.697-2.638-16.168-3.28
	c-3.834-50.001-45.484-88.641-95.632-88.72H152c-53.019,0-96,42.981-96,96s42.981,96,96,96h144
	c49.543-0.067,90.917-37.786,95.552-87.112c5.338,0.734,10.592,1.986,15.688,3.736C400.765,253.181,352.931,295.914,296,295.995z
	 M375.592,191.995c-4.154,40.853-38.528,71.948-79.592,72H152c-44.183,0-80-35.817-80-80s35.817-80,80-80h144
	c41.064,0.052,75.438,31.147,79.592,72H360v16H375.592z"/>
<g>
	
		<linearGradient id="SVGID_2_" gradientUnits="userSpaceOnUse" x1="-34.2289" y1="608.9233" x2="-34.2289" y2="547.3703" gradientTransform="matrix(8 0 0 -8 454.9995 4868.958)">
		<stop  offset="0" style="stop-color:#FC5C7D"/>
		<stop  offset="0.129" style="stop-color:#F35E85"/>
		<stop  offset="0.343" style="stop-color:#D9659B"/>
		<stop  offset="0.616" style="stop-color:#B070BF"/>
		<stop  offset="0.934" style="stop-color:#777FF0"/>
		<stop  offset="1" style="stop-color:#6A82FB"/>
	</linearGradient>
	<path style="fill:url(#SVGID_2_);" d="M173.168,180.371h16v16h-16V180.371z"/>
	
		<linearGradient id="SVGID_3_" gradientUnits="userSpaceOnUse" x1="-35.0292" y1="608.9233" x2="-35.0292" y2="547.3703" gradientTransform="matrix(8 0 0 -8 454.9995 4868.958)">
		<stop  offset="0" style="stop-color:#FC5C7D"/>
		<stop  offset="0.129" style="stop-color:#F35E85"/>
		<stop  offset="0.343" style="stop-color:#D9659B"/>
		<stop  offset="0.616" style="stop-color:#B070BF"/>
		<stop  offset="0.934" style="stop-color:#777FF0"/>
		<stop  offset="1" style="stop-color:#6A82FB"/>
	</linearGradient>
	<path style="fill:url(#SVGID_3_);" d="M204.288,153.259c-7.946-8.585-18.386-14.461-29.848-16.8
		c-11.974-1.917-24.117,2.256-32.384,11.128c-18.745,18.747-18.743,49.139,0.004,67.884s49.139,18.743,67.884-0.004l0,0
		c8.877-8.261,13.051-20.403,11.128-32.376C218.738,171.635,212.868,161.201,204.288,153.259L204.288,153.259z M198.632,204.163
		c-12.671,12.079-32.593,12.079-45.264,0c-12.492-12.496-12.492-32.752,0-45.248c3.873-4.294,9.347-6.798,15.128-6.92
		c1.142,0.003,2.281,0.097,3.408,0.28c8.125,1.828,15.486,6.126,21.072,12.304c6.175,5.583,10.471,12.941,12.296,21.064
		C206.374,192.546,203.869,199.533,198.632,204.163L198.632,204.163z"/>
</g>
<linearGradient id="SVGID_4_" gradientUnits="userSpaceOnUse" x1="-18.4944" y1="603.7519" x2="-62.0184" y2="560.2279" gradientTransform="matrix(5.6569 -5.6569 -5.6569 -5.6569 3825.1519 3308.3293)">
	<stop  offset="0" style="stop-color:#FC5C7D"/>
	<stop  offset="0.129" style="stop-color:#F35E85"/>
	<stop  offset="0.343" style="stop-color:#D9659B"/>
	<stop  offset="0.616" style="stop-color:#B070BF"/>
	<stop  offset="0.934" style="stop-color:#777FF0"/>
	<stop  offset="1" style="stop-color:#6A82FB"/>
</linearGradient>
<path style="fill:url(#SVGID_4_);" d="M293.866,159.537l11.314-11.314l11.314,11.314l-11.314,11.314L293.866,159.537z"/>
<g>
	
		<linearGradient id="SVGID_5_" gradientUnits="userSpaceOnUse" x1="-18.3749" y1="608.9233" x2="-18.3749" y2="547.3703" gradientTransform="matrix(8 0 0 -8 454.9995 4868.958)">
		<stop  offset="0" style="stop-color:#FC5C7D"/>
		<stop  offset="0.129" style="stop-color:#F35E85"/>
		<stop  offset="0.343" style="stop-color:#D9659B"/>
		<stop  offset="0.616" style="stop-color:#B070BF"/>
		<stop  offset="0.934" style="stop-color:#777FF0"/>
		<stop  offset="1" style="stop-color:#6A82FB"/>
	</linearGradient>
	<path style="fill:url(#SVGID_5_);" d="M304,119.995c-24.304,0-40,18.84-40,48s15.696,48,40,48c26.51,0,48-21.49,48-48
		S330.51,119.995,304,119.995z M304,199.995c-21.664,0-24-22.4-24-32s2.336-32,24-32c17.673,0,32,14.327,32,32
		S321.673,199.995,304,199.995z"/>
	
		<linearGradient id="SVGID_6_" gradientUnits="userSpaceOnUse" x1="-41.8749" y1="608.9233" x2="-41.8749" y2="547.3703" gradientTransform="matrix(8 0 0 -8 454.9995 4868.958)">
		<stop  offset="0" style="stop-color:#FC5C7D"/>
		<stop  offset="0.129" style="stop-color:#F35E85"/>
		<stop  offset="0.343" style="stop-color:#D9659B"/>
		<stop  offset="0.616" style="stop-color:#B070BF"/>
		<stop  offset="0.934" style="stop-color:#777FF0"/>
		<stop  offset="1" style="stop-color:#6A82FB"/>
	</linearGradient>
	<path style="fill:url(#SVGID_6_);" d="M112,223.995h16v16h-16V223.995z"/>
	
		<linearGradient id="SVGID_7_" gradientUnits="userSpaceOnUse" x1="-43.8749" y1="608.9233" x2="-43.8749" y2="547.3703" gradientTransform="matrix(8 0 0 -8 454.9995 4868.958)">
		<stop  offset="0" style="stop-color:#FC5C7D"/>
		<stop  offset="0.129" style="stop-color:#F35E85"/>
		<stop  offset="0.343" style="stop-color:#D9659B"/>
		<stop  offset="0.616" style="stop-color:#B070BF"/>
		<stop  offset="0.934" style="stop-color:#777FF0"/>
		<stop  offset="1" style="stop-color:#6A82FB"/>
	</linearGradient>
	<path style="fill:url(#SVGID_7_);" d="M96,159.995h16v16H96V159.995z"/>
	
		<linearGradient id="SVGID_8_" gradientUnits="userSpaceOnUse" x1="-18.8749" y1="608.9233" x2="-18.8749" y2="547.3703" gradientTransform="matrix(8 0 0 -8 454.9995 4868.958)">
		<stop  offset="0" style="stop-color:#FC5C7D"/>
		<stop  offset="0.129" style="stop-color:#F35E85"/>
		<stop  offset="0.343" style="stop-color:#D9659B"/>
		<stop  offset="0.616" style="stop-color:#B070BF"/>
		<stop  offset="0.934" style="stop-color:#777FF0"/>
		<stop  offset="1" style="stop-color:#6A82FB"/>
	</linearGradient>
	<path style="fill:url(#SVGID_8_);" d="M296,231.995h16v16h-16V231.995z"/>
	
		<linearGradient id="SVGID_9_" gradientUnits="userSpaceOnUse" x1="-28.8749" y1="608.9233" x2="-28.8749" y2="547.3703" gradientTransform="matrix(8 0 0 -8 454.9995 4868.958)">
		<stop  offset="0" style="stop-color:#FC5C7D"/>
		<stop  offset="0.129" style="stop-color:#F35E85"/>
		<stop  offset="0.343" style="stop-color:#D9659B"/>
		<stop  offset="0.616" style="stop-color:#B070BF"/>
		<stop  offset="0.934" style="stop-color:#777FF0"/>
		<stop  offset="1" style="stop-color:#6A82FB"/>
	</linearGradient>
	<path style="fill:url(#SVGID_9_);" d="M216,119.995h16v16h-16V119.995z"/>
</g>
<linearGradient id="SVGID_10_" gradientUnits="userSpaceOnUse" x1="-26.8749" y1="608.9233" x2="-26.8749" y2="547.3703" gradientTransform="matrix(8 0 0 -8 454.9995 4868.958)">
	<stop  offset="0" style="stop-color:#FC5C7D"/>
	<stop  offset="0.129" style="stop-color:#F35E85"/>
	<stop  offset="0.343" style="stop-color:#D9659B"/>
	<stop  offset="0.616" style="stop-color:#B070BF"/>
	<stop  offset="0.934" style="stop-color:#777FF0"/>
	<stop  offset="1" style="stop-color:#6A82FB"/>
</linearGradient>
<path style="fill:url(#SVGID_10_);" d="M232,207.995h16v16h-16V207.995z"/>
<linearGradient id="SVGID_11_" gradientUnits="userSpaceOnUse" x1="-23.8749" y1="608.9233" x2="-23.8749" y2="547.3703" gradientTransform="matrix(8 0 0 -8 454.9995 4868.958)">
	<stop  offset="0" style="stop-color:#FC5C7D"/>
	<stop  offset="0.129" style="stop-color:#F35E85"/>
	<stop  offset="0.343" style="stop-color:#D9659B"/>
	<stop  offset="0.616" style="stop-color:#B070BF"/>
	<stop  offset="0.934" style="stop-color:#777FF0"/>
	<stop  offset="1" style="stop-color:#6A82FB"/>
</linearGradient>
<path style="fill:url(#SVGID_11_);" d="M256,431.995h16v16h-16V431.995z"/>
<g>
</g>
<g>
</g>
<g>
</g>
<g>
</g>
<g>
</g>
<g>
</g>
<g>
</g>
<g>
</g>
<g>
</g>
<g>
</g>
<g>
</g>
<g>
</g>
<g>
</g>
<g>
</g>
<g>
</g>
</svg>
