<?xml version="1.0" encoding="iso-8859-1"?>
<!-- Generator: Adobe Illustrator 19.0.0, SVG Export Plug-In . SVG Version: 6.00 Build 0)  -->
<svg version="1.1" id="Capa_1" xmlns="http://www.w3.org/2000/svg" xmlns:xlink="http://www.w3.org/1999/xlink" x="0px" y="0px"
	 viewBox="0 0 480.031 480.031" style="enable-background:new 0 0 480.031 480.031;" xml:space="preserve">
<linearGradient id="SVGID_1_" gradientUnits="userSpaceOnUse" x1="-17.4212" y1="619.6346" x2="-17.4212" y2="553.9557" gradientTransform="matrix(8 0 0 -8 374.8234 4941.2759)">
	<stop  offset="0" style="stop-color:#FC5C7D"/>
	<stop  offset="0.129" style="stop-color:#F35E85"/>
	<stop  offset="0.343" style="stop-color:#D9659B"/>
	<stop  offset="0.616" style="stop-color:#B070BF"/>
	<stop  offset="0.934" style="stop-color:#777FF0"/>
	<stop  offset="1" style="stop-color:#6A82FB"/>
</linearGradient>
<path style="fill:url(#SVGID_1_);" d="M219.454,240.031h16c0-8.837,7.163-16,16-16v-16
	C233.781,208.031,219.454,222.358,219.454,240.031z"/>
<g>
	
		<linearGradient id="SVGID_2_" gradientUnits="userSpaceOnUse" x1="-15.4212" y1="619.6346" x2="-15.4212" y2="553.9557" gradientTransform="matrix(8 0 0 -8 374.8234 4941.2759)">
		<stop  offset="0" style="stop-color:#FC5C7D"/>
		<stop  offset="0.129" style="stop-color:#F35E85"/>
		<stop  offset="0.343" style="stop-color:#D9659B"/>
		<stop  offset="0.616" style="stop-color:#B070BF"/>
		<stop  offset="0.934" style="stop-color:#777FF0"/>
		<stop  offset="1" style="stop-color:#6A82FB"/>
	</linearGradient>
	<path style="fill:url(#SVGID_2_);" d="M251.454,176.031c-35.346,0-64,28.654-64,64s28.654,64,64,64s64-28.654,64-64
		C315.414,204.701,286.784,176.07,251.454,176.031z M251.454,288.031c-26.51,0-48-21.49-48-48s21.49-48,48-48s48,21.49,48,48
		C299.427,266.529,277.952,288.004,251.454,288.031z"/>
	
		<linearGradient id="SVGID_3_" gradientUnits="userSpaceOnUse" x1="-16.851" y1="619.6346" x2="-16.851" y2="553.9557" gradientTransform="matrix(8 0 0 -8 374.8234 4941.2759)">
		<stop  offset="0" style="stop-color:#FC5C7D"/>
		<stop  offset="0.129" style="stop-color:#F35E85"/>
		<stop  offset="0.343" style="stop-color:#D9659B"/>
		<stop  offset="0.616" style="stop-color:#B070BF"/>
		<stop  offset="0.934" style="stop-color:#777FF0"/>
		<stop  offset="1" style="stop-color:#6A82FB"/>
	</linearGradient>
	<path style="fill:url(#SVGID_3_);" d="M411.454,48.031c-12.315,0.023-23.52,7.122-28.8,18.248
		c-13.089-1.476-26.341-0.221-38.92,3.688c-14.329-50.982-67.275-80.695-118.257-66.365c-32.199,9.05-57.355,34.224-66.383,66.429
		C110.38,54.803,58.28,80.435,40.614,128.319c-17.515,1.461-30.529,16.844-29.068,34.359c1.258,15.083,12.965,27.193,27.996,28.961
		c6.442,19.58,19.039,36.553,35.912,48.392c-43.331,30.476-53.752,90.308-23.276,133.639c23.952,34.055,67.138,48.77,106.9,36.425
		c2.121,7.524,5.157,14.759,9.04,21.544c-3.024,4.935-4.637,10.604-4.664,16.392c0,17.673,14.327,32,32,32
		c7.273-0.038,14.311-2.58,19.928-7.2c11.441,4.726,23.694,7.172,36.072,7.2c42.944-0.071,80.629-28.627,92.312-69.952
		c50.567,15.775,104.348-12.43,120.123-62.997c12.419-39.81-2.309-83.082-36.435-107.051c43.192-29.7,54.13-88.792,24.429-131.984
		c-3.466-5.041-7.412-9.735-11.781-14.016c2.181-4.346,3.329-9.137,3.352-14C443.454,62.358,429.127,48.031,411.454,48.031z
		 M411.454,64.031c8.837,0,16,7.163,16,16s-7.163,16-16,16s-16-7.163-16-16S402.617,64.031,411.454,64.031z M251.454,16.031
		c36.438,0.064,68.237,24.725,77.368,60c-3.038,1.529-5.994,3.217-8.856,5.056l-68.512,44.496l-68.512-44.48
		c-2.862-1.846-5.818-3.541-8.856-5.08C183.225,40.754,215.02,16.1,251.454,16.031z M331.454,96.031v81.48l-65.304-42.4
		l62.536-40.592c0.856-0.552,1.744-1.008,2.616-1.528C331.342,94.015,331.454,95.007,331.454,96.031L331.454,96.031z
		 M331.454,283.471l-80,51.928l-80-51.92v-86.888l80-51.928l80,51.928V283.471z M347.454,206.975l50.928,33.056l-50.928,33.056
		V206.975z M331.302,387.047c-0.864-0.512-1.76-0.96-2.616-1.512l-62.536-40.592l65.304-42.392v81.48
		C331.454,385.047,331.342,386.039,331.302,387.047z M171.454,384.031v-81.48l65.304,42.4l-62.536,40.592
		c-0.84,0.544-1.704,0.976-2.552,1.48C171.63,386.015,171.454,385.039,171.454,384.031z M155.454,273.095l-50.928-33.064
		l50.928-33.056V273.095z M171.606,93.015c0.864,0.512,1.76,0.96,2.616,1.512l62.536,40.592l-65.304,42.392v-81.48
		C171.454,95.015,171.566,94.023,171.606,93.015L171.606,93.015z M27.454,160.031c0-8.837,7.163-16,16-16s16,7.163,16,16
		s-7.163,16-16,16S27.454,168.867,27.454,160.031z M55.718,189.567c16.291-6.726,24.044-25.385,17.318-41.675
		c-3.07-7.436-8.836-13.438-16.142-16.805c15.664-39.12,59.295-59.035,99.112-45.24c-0.362,3.383-0.546,6.782-0.552,10.184v91.864
		l-65.6,42.6l-2.72-1.768C72.719,219.396,61.701,205.662,55.718,189.567L55.718,189.567z M63.566,361.991
		c-24.052-37.061-13.508-86.602,23.552-110.656l2.712-1.76l65.624,42.592v91.864c0.019,3.4,0.219,6.797,0.6,10.176
		C121.485,405.775,83.466,392.532,63.566,361.991z M195.454,464.031c-8.837,0-16-7.163-16-16s7.163-16,16-16s16,7.163,16,16
		S204.29,464.031,195.454,464.031z M251.454,464.031c-8.937,0.015-17.814-1.475-26.256-4.408c1.473-3.688,2.239-7.621,2.256-11.592
		c0-17.673-14.327-32-32-32c-5.348,0.039-10.6,1.431-15.264,4.048c-2.601-5.135-4.637-10.538-6.072-16.112
		c3.019-1.515,5.956-3.186,8.8-5.008l68.536-44.48l68.512,44.48c2.863,1.833,5.822,3.513,8.864,5.032
		C319.713,439.285,287.906,463.965,251.454,464.031L251.454,464.031z M450.486,301.783c9.209,43.163-18.316,85.618-61.478,94.828
		c-13.996,2.986-28.538,2.159-42.106-2.396c0.362-3.383,0.546-6.782,0.552-10.184v-91.864l65.6-42.592l2.712,1.76
		C433.616,262.835,446.119,281.003,450.486,301.783L450.486,301.783z M450.486,178.279c-4.361,20.776-16.855,38.943-34.696,50.448
		l-2.712,1.76l-65.624-42.592V96.031c-0.004-3.413-0.191-6.823-0.56-10.216c10.533-3.549,21.693-4.849,32.76-3.816
		c0.98,17.54,15.994,30.964,33.533,29.983c5.942-0.332,11.672-2.325,16.539-5.751c3.567,3.634,6.781,7.599,9.6,11.84
		C450.941,135.843,454.96,157.524,450.486,178.279L450.486,178.279z"/>
</g>
<g>
</g>
<g>
</g>
<g>
</g>
<g>
</g>
<g>
</g>
<g>
</g>
<g>
</g>
<g>
</g>
<g>
</g>
<g>
</g>
<g>
</g>
<g>
</g>
<g>
</g>
<g>
</g>
<g>
</g>
</svg>
