<?xml version="1.0" encoding="iso-8859-1"?>
<!-- Generator: Adobe Illustrator 19.0.0, SVG Export Plug-In . SVG Version: 6.00 Build 0)  -->
<svg version="1.1" id="Capa_1" xmlns="http://www.w3.org/2000/svg" xmlns:xlink="http://www.w3.org/1999/xlink" x="0px" y="0px"
	 viewBox="0 0 480 480" style="enable-background:new 0 0 480 480;" xml:space="preserve">
<linearGradient id="SVGID_1_" gradientUnits="userSpaceOnUse" x1="-44.3827" y1="619.803" x2="-44.3827" y2="554.739" gradientTransform="matrix(8 0 0 -8 455.0539 4941)">
	<stop  offset="0" style="stop-color:#FC5C7D"/>
	<stop  offset="0.129" style="stop-color:#F35E85"/>
	<stop  offset="0.343" style="stop-color:#D9659B"/>
	<stop  offset="0.616" style="stop-color:#B070BF"/>
	<stop  offset="0.934" style="stop-color:#777FF0"/>
	<stop  offset="1" style="stop-color:#6A82FB"/>
</linearGradient>
<path style="fill:url(#SVGID_1_);" d="M119.992,192h-16c-4.418,0-8-3.582-8-8v-32h-16v32c0,13.255,10.745,24,24,24h16V192z"/>
<g>
	
		<linearGradient id="SVGID_2_" gradientUnits="userSpaceOnUse" x1="-26.8817" y1="619.803" x2="-26.8817" y2="554.739" gradientTransform="matrix(8 0 0 -8 455.0539 4941)">
		<stop  offset="0" style="stop-color:#FC5C7D"/>
		<stop  offset="0.129" style="stop-color:#F35E85"/>
		<stop  offset="0.343" style="stop-color:#D9659B"/>
		<stop  offset="0.616" style="stop-color:#B070BF"/>
		<stop  offset="0.934" style="stop-color:#777FF0"/>
		<stop  offset="1" style="stop-color:#6A82FB"/>
	</linearGradient>
	<path style="fill:url(#SVGID_2_);" d="M471.992,152h-24V24c0-13.255-10.745-24-24-24s-24,10.745-24,24v1.152L151.36,64H79.992
		c-17.673,0-32,14.327-32,32v0.64c-30.574,4.391-51.8,32.736-47.409,63.311c3.529,24.574,22.835,43.88,47.409,47.409V208
		c0,17.673,14.327,32,32,32h16v160c0,17.673,14.327,32,32,32s32-14.327,32-32V280h32c4.418,0,8-3.582,8-8v-24.4l40,6.248V424h-40
		c-4.418,0-8,3.582-8,8v16c0,17.673,14.327,32,32,32h224c17.673,0,32-14.327,32-32V160C479.992,155.582,476.411,152,471.992,152z
		 M423.992,16c4.418,0,8,3.582,8,8v128h-16V24C415.992,19.582,419.574,16,423.992,16z M15.992,152
		c0.021-19.002,13.387-35.375,32-39.2v78.4C29.379,187.375,16.013,171.002,15.992,152L15.992,152z M63.992,208V96
		c0-8.837,7.163-16,16-16h64v144h-64C71.156,224,63.992,216.837,63.992,208z M143.992,240v128h-32V240H143.992z M127.992,416
		c-8.837,0-16-7.163-16-16v-16h32v16C143.992,408.837,136.829,416,127.992,416z M183.992,264h-24v-22.648l24,3.744V264z
		 M159.992,225.16V78.84l240-37.488V152h-152c-4.418,0-8,3.582-8,8v77.648L159.992,225.16z M223.992,464c-8.837,0-16-7.163-16-16v-8
		h208v8c-0.009,5.619,1.474,11.141,4.296,16H223.992z M463.992,448c0,8.837-7.163,16-16,16s-16-7.163-16-16v-16c0-4.418-3.582-8-8-8
		h-168V168h208V448z"/>
	
		<linearGradient id="SVGID_3_" gradientUnits="userSpaceOnUse" x1="-11.8827" y1="619.803" x2="-11.8827" y2="554.739" gradientTransform="matrix(8 0 0 -8 455.0539 4941)">
		<stop  offset="0" style="stop-color:#FC5C7D"/>
		<stop  offset="0.129" style="stop-color:#F35E85"/>
		<stop  offset="0.343" style="stop-color:#D9659B"/>
		<stop  offset="0.616" style="stop-color:#B070BF"/>
		<stop  offset="0.934" style="stop-color:#777FF0"/>
		<stop  offset="1" style="stop-color:#6A82FB"/>
	</linearGradient>
	<path style="fill:url(#SVGID_3_);" d="M287.992,328h144c4.418,0,8-3.582,8-8V192c0-4.418-3.582-8-8-8h-144c-4.418,0-8,3.582-8,8
		v128C279.992,324.418,283.574,328,287.992,328z M295.992,200h128v112h-128V200z"/>
	
		<linearGradient id="SVGID_4_" gradientUnits="userSpaceOnUse" x1="-11.8816" y1="619.803" x2="-11.8816" y2="554.739" gradientTransform="matrix(8 0 0 -8 455.0539 4941)">
		<stop  offset="0" style="stop-color:#FC5C7D"/>
		<stop  offset="0.129" style="stop-color:#F35E85"/>
		<stop  offset="0.343" style="stop-color:#D9659B"/>
		<stop  offset="0.616" style="stop-color:#B070BF"/>
		<stop  offset="0.934" style="stop-color:#777FF0"/>
		<stop  offset="1" style="stop-color:#6A82FB"/>
	</linearGradient>
	<path style="fill:url(#SVGID_4_);" d="M402.968,248.568l-80-32c-4.101-1.644-8.758,0.349-10.402,4.45
		c-0.38,0.948-0.575,1.961-0.574,2.982v64c-0.003,4.418,3.576,8.003,7.994,8.006c1.022,0.001,2.034-0.194,2.982-0.574l80-32
		c4.105-1.635,6.107-6.288,4.471-10.393C406.627,250.998,405.01,249.381,402.968,248.568z M327.992,276.184v-40.368L378.456,256
		L327.992,276.184z"/>
	
		<linearGradient id="SVGID_5_" gradientUnits="userSpaceOnUse" x1="-13.3827" y1="619.803" x2="-13.3827" y2="554.739" gradientTransform="matrix(8 0 0 -8 455.0539 4941)">
		<stop  offset="0" style="stop-color:#FC5C7D"/>
		<stop  offset="0.129" style="stop-color:#F35E85"/>
		<stop  offset="0.343" style="stop-color:#D9659B"/>
		<stop  offset="0.616" style="stop-color:#B070BF"/>
		<stop  offset="0.934" style="stop-color:#777FF0"/>
		<stop  offset="1" style="stop-color:#6A82FB"/>
	</linearGradient>
	<path style="fill:url(#SVGID_5_);" d="M271.992,384h152v16h-152V384z"/>
	
		<linearGradient id="SVGID_6_" gradientUnits="userSpaceOnUse" x1="-8.3827" y1="619.803" x2="-8.3827" y2="554.739" gradientTransform="matrix(8 0 0 -8 455.0539 4941)">
		<stop  offset="0" style="stop-color:#FC5C7D"/>
		<stop  offset="0.129" style="stop-color:#F35E85"/>
		<stop  offset="0.343" style="stop-color:#D9659B"/>
		<stop  offset="0.616" style="stop-color:#B070BF"/>
		<stop  offset="0.934" style="stop-color:#777FF0"/>
		<stop  offset="1" style="stop-color:#6A82FB"/>
	</linearGradient>
	<path style="fill:url(#SVGID_6_);" d="M327.992,352h120v16h-120V352z"/>
	
		<linearGradient id="SVGID_7_" gradientUnits="userSpaceOnUse" x1="-18.8827" y1="619.803" x2="-18.8827" y2="554.739" gradientTransform="matrix(8 0 0 -8 455.0539 4941)">
		<stop  offset="0" style="stop-color:#FC5C7D"/>
		<stop  offset="0.129" style="stop-color:#F35E85"/>
		<stop  offset="0.343" style="stop-color:#D9659B"/>
		<stop  offset="0.616" style="stop-color:#B070BF"/>
		<stop  offset="0.934" style="stop-color:#777FF0"/>
		<stop  offset="1" style="stop-color:#6A82FB"/>
	</linearGradient>
	<path style="fill:url(#SVGID_7_);" d="M295.992,352h16v16h-16V352z"/>
	
		<linearGradient id="SVGID_8_" gradientUnits="userSpaceOnUse" x1="-45.8827" y1="619.803" x2="-45.8827" y2="554.739" gradientTransform="matrix(8 0 0 -8 455.0539 4941)">
		<stop  offset="0" style="stop-color:#FC5C7D"/>
		<stop  offset="0.129" style="stop-color:#F35E85"/>
		<stop  offset="0.343" style="stop-color:#D9659B"/>
		<stop  offset="0.616" style="stop-color:#B070BF"/>
		<stop  offset="0.934" style="stop-color:#777FF0"/>
		<stop  offset="1" style="stop-color:#6A82FB"/>
	</linearGradient>
	<path style="fill:url(#SVGID_8_);" d="M79.992,120h16v16h-16V120z"/>
</g>
<g>
</g>
<g>
</g>
<g>
</g>
<g>
</g>
<g>
</g>
<g>
</g>
<g>
</g>
<g>
</g>
<g>
</g>
<g>
</g>
<g>
</g>
<g>
</g>
<g>
</g>
<g>
</g>
<g>
</g>
</svg>
