<?xml version="1.0" encoding="iso-8859-1"?>
<!-- Generator: Adobe Illustrator 19.0.0, SVG Export Plug-In . SVG Version: 6.00 Build 0)  -->
<svg version="1.1" id="Capa_1" xmlns="http://www.w3.org/2000/svg" xmlns:xlink="http://www.w3.org/1999/xlink" x="0px" y="0px"
	 viewBox="0 0 480.032 480.032" style="enable-background:new 0 0 480.032 480.032;" xml:space="preserve">
<g>
	
		<linearGradient id="SVGID_1_" gradientUnits="userSpaceOnUse" x1="-7.859" y1="619.162" x2="-7.859" y2="554.657" gradientTransform="matrix(8 0 0 -8 454.8879 4941.2881)">
		<stop  offset="0" style="stop-color:#FC5C7D"/>
		<stop  offset="0.129" style="stop-color:#F35E85"/>
		<stop  offset="0.343" style="stop-color:#D9659B"/>
		<stop  offset="0.616" style="stop-color:#B070BF"/>
		<stop  offset="0.934" style="stop-color:#777FF0"/>
		<stop  offset="1" style="stop-color:#6A82FB"/>
	</linearGradient>
	<path style="fill:url(#SVGID_1_);" d="M328.016,376.032h128v16h-128V376.032z"/>
	
		<linearGradient id="SVGID_2_" gradientUnits="userSpaceOnUse" x1="-7.859" y1="619.162" x2="-7.859" y2="554.657" gradientTransform="matrix(8 0 0 -8 454.8879 4941.2881)">
		<stop  offset="0" style="stop-color:#FC5C7D"/>
		<stop  offset="0.129" style="stop-color:#F35E85"/>
		<stop  offset="0.343" style="stop-color:#D9659B"/>
		<stop  offset="0.616" style="stop-color:#B070BF"/>
		<stop  offset="0.934" style="stop-color:#777FF0"/>
		<stop  offset="1" style="stop-color:#6A82FB"/>
	</linearGradient>
	<path style="fill:url(#SVGID_2_);" d="M328.016,408.032h128v16h-128V408.032z"/>
</g>
<g>
	
		<linearGradient id="SVGID_3_" gradientUnits="userSpaceOnUse" x1="-9.859" y1="619.162" x2="-9.859" y2="554.657" gradientTransform="matrix(8 0 0 -8 454.8879 4941.2881)">
		<stop  offset="0" style="stop-color:#FC5C7D"/>
		<stop  offset="0.129" style="stop-color:#F35E85"/>
		<stop  offset="0.343" style="stop-color:#D9659B"/>
		<stop  offset="0.616" style="stop-color:#B070BF"/>
		<stop  offset="0.934" style="stop-color:#777FF0"/>
		<stop  offset="1" style="stop-color:#6A82FB"/>
	</linearGradient>
	<path style="fill:url(#SVGID_3_);" d="M328.016,440.032h96v16h-96V440.032z"/>
	
		<linearGradient id="SVGID_4_" gradientUnits="userSpaceOnUse" x1="-3.859" y1="619.162" x2="-3.859" y2="554.657" gradientTransform="matrix(8 0 0 -8 454.8879 4941.2881)">
		<stop  offset="0" style="stop-color:#FC5C7D"/>
		<stop  offset="0.129" style="stop-color:#F35E85"/>
		<stop  offset="0.343" style="stop-color:#D9659B"/>
		<stop  offset="0.616" style="stop-color:#B070BF"/>
		<stop  offset="0.934" style="stop-color:#777FF0"/>
		<stop  offset="1" style="stop-color:#6A82FB"/>
	</linearGradient>
	<path style="fill:url(#SVGID_4_);" d="M392.016,344.032h64v16h-64V344.032z"/>
	
		<linearGradient id="SVGID_5_" gradientUnits="userSpaceOnUse" x1="-45.859" y1="619.162" x2="-45.859" y2="554.657" gradientTransform="matrix(8 0 0 -8 454.8879 4941.2881)">
		<stop  offset="0" style="stop-color:#FC5C7D"/>
		<stop  offset="0.129" style="stop-color:#F35E85"/>
		<stop  offset="0.343" style="stop-color:#D9659B"/>
		<stop  offset="0.616" style="stop-color:#B070BF"/>
		<stop  offset="0.934" style="stop-color:#777FF0"/>
		<stop  offset="1" style="stop-color:#6A82FB"/>
	</linearGradient>
	<path style="fill:url(#SVGID_5_);" d="M24.016,376.032h128v16h-128V376.032z"/>
	
		<linearGradient id="SVGID_6_" gradientUnits="userSpaceOnUse" x1="-45.859" y1="619.162" x2="-45.859" y2="554.657" gradientTransform="matrix(8 0 0 -8 454.8879 4941.2881)">
		<stop  offset="0" style="stop-color:#FC5C7D"/>
		<stop  offset="0.129" style="stop-color:#F35E85"/>
		<stop  offset="0.343" style="stop-color:#D9659B"/>
		<stop  offset="0.616" style="stop-color:#B070BF"/>
		<stop  offset="0.934" style="stop-color:#777FF0"/>
		<stop  offset="1" style="stop-color:#6A82FB"/>
	</linearGradient>
	<path style="fill:url(#SVGID_6_);" d="M24.016,408.032h128v16h-128V408.032z"/>
	
		<linearGradient id="SVGID_7_" gradientUnits="userSpaceOnUse" x1="-47.859" y1="619.162" x2="-47.859" y2="554.657" gradientTransform="matrix(8 0 0 -8 454.8879 4941.2881)">
		<stop  offset="0" style="stop-color:#FC5C7D"/>
		<stop  offset="0.129" style="stop-color:#F35E85"/>
		<stop  offset="0.343" style="stop-color:#D9659B"/>
		<stop  offset="0.616" style="stop-color:#B070BF"/>
		<stop  offset="0.934" style="stop-color:#777FF0"/>
		<stop  offset="1" style="stop-color:#6A82FB"/>
	</linearGradient>
	<path style="fill:url(#SVGID_7_);" d="M24.016,440.032h96v16h-96V440.032z"/>
	
		<linearGradient id="SVGID_8_" gradientUnits="userSpaceOnUse" x1="-41.859" y1="619.162" x2="-41.859" y2="554.657" gradientTransform="matrix(8 0 0 -8 454.8879 4941.2881)">
		<stop  offset="0" style="stop-color:#FC5C7D"/>
		<stop  offset="0.129" style="stop-color:#F35E85"/>
		<stop  offset="0.343" style="stop-color:#D9659B"/>
		<stop  offset="0.616" style="stop-color:#B070BF"/>
		<stop  offset="0.934" style="stop-color:#777FF0"/>
		<stop  offset="1" style="stop-color:#6A82FB"/>
	</linearGradient>
	<path style="fill:url(#SVGID_8_);" d="M88.016,344.032h64v16h-64V344.032z"/>
	
		<linearGradient id="SVGID_9_" gradientUnits="userSpaceOnUse" x1="-26.859" y1="619.162" x2="-26.859" y2="554.657" gradientTransform="matrix(8 0 0 -8 454.8879 4941.2881)">
		<stop  offset="0" style="stop-color:#FC5C7D"/>
		<stop  offset="0.129" style="stop-color:#F35E85"/>
		<stop  offset="0.343" style="stop-color:#D9659B"/>
		<stop  offset="0.616" style="stop-color:#B070BF"/>
		<stop  offset="0.934" style="stop-color:#777FF0"/>
		<stop  offset="1" style="stop-color:#6A82FB"/>
	</linearGradient>
	<path style="fill:url(#SVGID_9_);" d="M424.016,144.032h-24.8C390.391,56.108,311.96-8.013,224.036,0.812
		c-75.727,7.601-135.619,67.493-143.22,143.22h-24.8c-13.255,0-24,10.745-24,24v144h16v-144c0-4.418,3.582-8,8-8h24
		c0.002,26.452,6.549,52.492,19.056,75.8l14.088-7.592c-11.256-20.973-17.145-44.406-17.144-68.208h16
		c0.024,70.692,57.352,127.98,128.044,127.956c70.658-0.024,127.931-57.298,127.956-127.956h16
		c-0.001,79.529-64.473,143.999-144.003,143.998c-36.049-0.001-70.787-13.522-97.35-37.894l-10.816,11.792
		c27.481,25.198,62.925,39.967,100.168,41.736v24.368h-16c-4.418,0-8,3.582-8,8v96c0,17.673,14.327,32,32,32
		c17.673,0,32-14.327,32-32v-96c0-4.418-3.582-8-8-8h-16v-24.408c85.055-4.29,151.857-74.429,152-159.592h24c4.418,0,8,3.582,8,8
		v144h16v-144C448.016,154.777,437.271,144.032,424.016,144.032z M256.016,448.032c0,8.837-7.163,16-16,16c-8.837,0-16-7.163-16-16
		v-16h32V448.032z M256.016,416.032h-32v-56h32V416.032z M240.016,272.032c-61.828-0.066-111.934-50.172-112-112h40
		c0.053,36.643,27.588,67.417,64,71.528v16.472h16V231.56c13.5-1.509,26.294-6.825,36.888-15.328l13.456,13.456l11.312-11.312
		l-13.456-13.456c10.232-12.723,15.806-28.561,15.8-44.888h40C351.95,221.86,301.844,271.966,240.016,272.032z M186.416,144.032
		c6.267-20.862,24.047-36.208,45.6-39.36v110.72c-27.527-3.973-47.967-27.547-48-55.36h24v-16H186.416z M296.016,160.032
		c-0.001,12.077-3.932,23.826-11.2,33.472l-36.8-36.8v-52.032c21.554,3.152,39.333,18.498,45.6,39.36h-21.6v16H296.016z
		 M248.016,179.344l25.472,25.488c-7.469,5.604-16.229,9.236-25.472,10.56V179.344z M367,144.032
		c-1.914-15.287-6.573-30.104-13.752-43.736l-14.144,7.472c5.925,11.333,9.862,23.599,11.64,36.264H310.16
		c-6.84-29.817-31.748-52.074-62.144-55.528V72.032h-16v16.472c-30.396,3.454-55.304,25.711-62.144,55.528h-40.576
		c8.783-61.176,65.496-103.648,126.672-94.865c26.071,3.743,49.986,16.562,67.536,36.201l11.92-10.672
		C288.34,22.025,207.472,17.495,154.801,64.579c-23.028,20.585-37.83,48.806-41.673,79.453H96.96
		C105.777,65.024,176.973,8.123,255.98,16.94c66.857,7.461,119.631,60.234,127.092,127.092H367z"/>
	
		<linearGradient id="SVGID_10_" gradientUnits="userSpaceOnUse" x1="-41.707" y1="619.162" x2="-41.707" y2="554.657" gradientTransform="matrix(8 0 0 -8 454.8879 4941.2881)">
		<stop  offset="0" style="stop-color:#FC5C7D"/>
		<stop  offset="0.129" style="stop-color:#F35E85"/>
		<stop  offset="0.343" style="stop-color:#D9659B"/>
		<stop  offset="0.616" style="stop-color:#B070BF"/>
		<stop  offset="0.934" style="stop-color:#777FF0"/>
		<stop  offset="1" style="stop-color:#6A82FB"/>
	</linearGradient>
	<path style="fill:url(#SVGID_10_);" d="M123.12,244.136l-12.984,9.352c3.178,4.414,6.579,8.662,10.192,12.728l12-10.616
		C129.067,251.936,125.994,248.11,123.12,244.136z"/>
	
		<linearGradient id="SVGID_11_" gradientUnits="userSpaceOnUse" x1="-10.859" y1="619.162" x2="-10.859" y2="554.657" gradientTransform="matrix(8 0 0 -8 454.8879 4941.2881)">
		<stop  offset="0" style="stop-color:#FC5C7D"/>
		<stop  offset="0.129" style="stop-color:#F35E85"/>
		<stop  offset="0.343" style="stop-color:#D9659B"/>
		<stop  offset="0.616" style="stop-color:#B070BF"/>
		<stop  offset="0.934" style="stop-color:#777FF0"/>
		<stop  offset="1" style="stop-color:#6A82FB"/>
	</linearGradient>
	<path style="fill:url(#SVGID_11_);" d="M360.016,344.032h16v16h-16V344.032z"/>
	
		<linearGradient id="SVGID_12_" gradientUnits="userSpaceOnUse" x1="-48.859" y1="619.162" x2="-48.859" y2="554.657" gradientTransform="matrix(8 0 0 -8 454.8879 4941.2881)">
		<stop  offset="0" style="stop-color:#FC5C7D"/>
		<stop  offset="0.129" style="stop-color:#F35E85"/>
		<stop  offset="0.343" style="stop-color:#D9659B"/>
		<stop  offset="0.616" style="stop-color:#B070BF"/>
		<stop  offset="0.934" style="stop-color:#777FF0"/>
		<stop  offset="1" style="stop-color:#6A82FB"/>
	</linearGradient>
	<path style="fill:url(#SVGID_12_);" d="M56.016,344.032h16v16h-16V344.032z"/>
</g>
<g>
</g>
<g>
</g>
<g>
</g>
<g>
</g>
<g>
</g>
<g>
</g>
<g>
</g>
<g>
</g>
<g>
</g>
<g>
</g>
<g>
</g>
<g>
</g>
<g>
</g>
<g>
</g>
<g>
</g>
</svg>
