<?xml version="1.0" encoding="iso-8859-1"?>
<!-- Generator: Adobe Illustrator 19.0.0, SVG Export Plug-In . SVG Version: 6.00 Build 0)  -->
<svg version="1.1" id="Capa_1" xmlns="http://www.w3.org/2000/svg" xmlns:xlink="http://www.w3.org/1999/xlink" x="0px" y="0px"
	 viewBox="0 0 479.699 479.699" style="enable-background:new 0 0 479.699 479.699;" xml:space="preserve">
<linearGradient id="SVGID_1_" gradientUnits="userSpaceOnUse" x1="-24.3588" y1="619.3028" x2="-24.3588" y2="553.6238" gradientTransform="matrix(8 0 0 -8 434.7201 4938.2891)">
	<stop  offset="0" style="stop-color:#FC5C7D"/>
	<stop  offset="0.129" style="stop-color:#F35E85"/>
	<stop  offset="0.343" style="stop-color:#D9659B"/>
	<stop  offset="0.616" style="stop-color:#B070BF"/>
	<stop  offset="0.934" style="stop-color:#777FF0"/>
	<stop  offset="1" style="stop-color:#6A82FB"/>
</linearGradient>
<path style="fill:url(#SVGID_1_);" d="M22.161,144.131c-12.815,3.386-20.459,16.52-17.072,29.335c0,0,0,0.001,0,0.001l16.36,61.88
	c3.327,12.803,16.403,20.485,29.206,17.158c9.767-2.538,16.895-10.925,17.826-20.974l118.416-25.048v9.216h-8c-4.418,0-8,3.582-8,8
	v32c0.022,2.361,1.103,4.586,2.944,6.064L70.401,431.699H58.897c-4.418,0-8,3.582-8,8v32c0,4.418,3.582,8,8,8h80
	c4.418,0,8-3.582,8-8v-32c0-4.418-3.582-8-8-8h-2.8l82.8-158.704l82.8,158.704h-2.8c-4.418,0-8,3.582-8,8v32c0,4.418,3.582,8,8,8h80
	c4.418,0,8-3.582,8-8v-32c0-4.418-3.582-8-8-8h-11.504l-103.44-169.936c1.841-1.478,2.922-3.703,2.944-6.064v-32
	c0-4.418-3.582-8-8-8h-8v-5.72l177.128-33.056l0.144,0.552c2.778,10.535,12.305,17.877,23.2,17.88c2.084-0.001,4.16-0.27,6.176-0.8
	c12.812-3.39,20.451-16.523,17.064-29.336l-38.912-146.96C432.523,5.39,419.518-2.47,406.648,0.704s-20.729,16.179-17.555,29.049
	c0.064,0.258,0.132,0.515,0.204,0.77l0.08,0.28l-184.64,56.208c-9.742,2.954-16.531,11.771-16.896,21.944l-46.904,14.944
	l-3.136-11.84c10.944-7.43,13.793-22.326,6.362-33.27c-5.721-8.426-16.145-12.313-25.986-9.69l-30.936,8.2
	c-12.814,3.39-20.454,16.525-17.065,29.339c1.627,6.151,5.63,11.404,11.129,14.605c3.088,1.748,6.531,2.776,10.072,3.008
	l3.768,14.248l-47.28,15.064c-5.714-8.259-16.007-12.029-25.704-9.416L22.161,144.131z M405.609,20.371
	c1.067-1.835,2.82-3.17,4.872-3.712c0.665-0.18,1.351-0.272,2.04-0.272c3.633,0,6.81,2.447,7.736,5.96l38.848,146.952
	c1.129,4.272-1.42,8.651-5.692,9.78c-4.272,1.129-8.651-1.42-9.78-5.692l-2.04-7.728l-12.664-47.896l-24.136-91.328
	C404.241,24.386,404.535,22.201,405.609,20.371L405.609,20.371z M51.569,233.235c-2.217,3.822-7.112,5.123-10.934,2.906
	c-1.84-1.068-3.18-2.824-3.722-4.882l-16.352-61.88c-1.127-4.27,1.419-8.646,5.688-9.776c0.665-0.178,1.351-0.266,2.04-0.264
	c3.633-0.005,6.814,2.44,7.744,5.952l16.352,61.88C52.927,229.22,52.634,231.401,51.569,233.235L51.569,233.235z M186.897,231.699
	h64v16h-64V231.699z M130.897,463.699h-64v-16h64V463.699z M118.049,431.699h-28.92l102.264-168h14.304L118.049,431.699z
	 M370.897,463.699h-64v-16h64V463.699z M319.745,431.699l-87.648-168h14.304l102.264,168H319.745z M202.897,215.699v-16
	c0-8.837,7.163-16,16-16s16,7.163,16,16v16H202.897z M406.617,164.643l-29.936-113.24l16.8-5.12l30.4,115.128L406.617,164.643z
	 M209.393,102.315l152-46.256l29.48,111.528l-140.568,26.232c-2.827-15.126-16.02-26.097-31.408-26.12h-0.184l-3.72-14.072
	l-10.848-41.048l-0.144-0.544C202.887,107.871,205.271,103.573,209.393,102.315L209.393,102.315z M107.233,121.643l7.736-2.048
	l7.736-2.04l8.192,30.944c1.127,4.27-1.419,8.646-5.688,9.776c-4.271,1.132-8.651-1.412-9.783-5.683
	c0-0.002-0.001-0.003-0.001-0.005L107.233,121.643z M85.633,102.531c-1.132-4.271,1.412-8.651,5.683-9.783
	c0.002,0,0.003-0.001,0.005-0.001l30.936-8.176c0.665-0.178,1.351-0.266,2.04-0.264c4.418,0.005,7.996,3.59,7.992,8.008
	c-0.001,1.402-0.371,2.778-1.072,3.992c-1.063,1.837-2.818,3.171-4.872,3.704l-30.936,8.184c-4.26,1.124-8.627-1.408-9.768-5.664
	H85.633z M99.937,156.675c3.565,12.766,16.805,20.225,29.571,16.66c12.518-3.496,19.978-16.322,16.829-28.932l-1.328-5.016
	l45.792-14.592l7.36,27.824l5.104,19.32c-6.93,3.907-12.151,10.261-14.64,17.816l-88.8,18.792l-13.352-50.504l12.8-4.072
	L99.937,156.675z M71.137,162.907l12.944,48.96l-18.176,3.832v-0.128l-12.464-47.016L71.137,162.907z"/>
<g>
</g>
<g>
</g>
<g>
</g>
<g>
</g>
<g>
</g>
<g>
</g>
<g>
</g>
<g>
</g>
<g>
</g>
<g>
</g>
<g>
</g>
<g>
</g>
<g>
</g>
<g>
</g>
<g>
</g>
</svg>
