<?xml version="1.0" encoding="iso-8859-1"?>
<!-- Generator: Adobe Illustrator 19.0.0, SVG Export Plug-In . SVG Version: 6.00 Build 0)  -->
<svg version="1.1" id="Capa_1" xmlns="http://www.w3.org/2000/svg" xmlns:xlink="http://www.w3.org/1999/xlink" x="0px" y="0px"
	 viewBox="0 0 480.23 480.23" style="enable-background:new 0 0 480.23 480.23;" xml:space="preserve">
<linearGradient id="SVGID_1_" gradientUnits="userSpaceOnUse" x1="-26.7598" y1="616.6325" x2="-26.7598" y2="555.3855" gradientTransform="matrix(8 0 0 -8 454.1933 4943.0742)">
	<stop  offset="0" style="stop-color:#FC5C7D"/>
	<stop  offset="0.129" style="stop-color:#F35E85"/>
	<stop  offset="0.343" style="stop-color:#D9659B"/>
	<stop  offset="0.616" style="stop-color:#B070BF"/>
	<stop  offset="0.934" style="stop-color:#777FF0"/>
	<stop  offset="1" style="stop-color:#6A82FB"/>
</linearGradient>
<path style="fill:url(#SVGID_1_);" d="M83.403,192.23h-3.288c-26.499,0.026-47.974,21.501-48,48v64h16v-64c0-17.673,14.327-32,32-32
	h7.376c3.002,9.617,6.913,18.925,11.68,27.8l14.088-7.592c-3.472-6.496-6.433-13.252-8.856-20.208h17.136
	c26.487,65.514,101.069,97.152,166.583,70.665c48.36-19.552,80.01-66.502,79.993-118.665c0-2.667-0.085-5.333-0.256-8h15.848
	c0.152,2.664,0.408,5.296,0.408,8c-0.001,79.529-64.473,143.999-144.002,143.998c-36.049-0.001-70.787-13.522-97.35-37.894
	l-10.816,11.792c27.481,25.198,62.925,39.967,100.168,41.736v24.368h-16c-4.418,0-8,3.582-8,8v96c0,17.673,14.327,32,32,32
	s32-14.327,32-32v-96c0-4.418-3.582-8-8-8h-16v-24.408c85.055-4.29,151.857-74.429,152-159.592c0-2.704-0.272-5.336-0.408-8h0.408
	c17.673,0,32,14.327,32,32v120h16v-120c-0.026-26.499-21.501-47.974-48-48h-2C385.038,48.901,303.641-11.293,216.311,1.785
	S68.788,96.259,81.866,183.589C82.299,186.483,82.812,189.365,83.403,192.23L83.403,192.23z M256.115,448.23c0,8.837-7.163,16-16,16
	c-8.837,0-16-7.163-16-16v-16h32V448.23z M256.115,416.23h-32v-56h32V416.23z M352.115,160.23
	c0.058,61.803-49.997,111.951-111.8,112.008c-43.286,0.04-82.713-24.887-101.24-64.008h61.04v8c-0.001,3.032,1.712,5.805,4.424,7.16
	l27.576,13.784v19.056h16v-19.056l27.576-13.744c2.725-1.362,4.441-4.153,4.424-7.2v-35.056l27.576-13.744
	c2.725-1.362,4.441-4.153,4.424-7.2v-8h39.512C351.819,154.895,352.115,157.551,352.115,160.23z M216.115,192.23v-11.056l24-12
	l24,12v30.112l-24,12l-24-12v-3.056h24v-16H216.115z M208.115,113.174l24,12v30.112l-24,12l-24-12v-30.112L208.115,113.174z
	 M272.115,113.174l24,12v11.056h-24v16h24v3.056l-24,12l-24-12v-30.112L272.115,113.174z M240.115,16.23
	c70.193,0.121,130.088,50.797,141.832,120h-16.128c-2.352-12.467-6.556-24.513-12.472-35.736l-14.144,7.472
	c4.648,8.92,8.068,18.427,10.168,28.264h-37.256v-8h16v-16h-22.112l-25.888-12.944V80.23h-16v19.056l-24,12l-24-12V80.23h-16v19.056
	l-27.576,13.784c-2.712,1.355-4.425,4.128-4.424,7.16v32h-16v16h22.112l25.888,12.944v11.056h-67.28
	c-17.631-59.29,16.14-121.647,75.43-139.278c41.518-12.346,86.433,0.354,115.338,32.614l11.92-10.672
	c-46.826-52.807-127.594-57.655-180.4-10.83c-36.07,31.985-51.071,81.547-38.792,128.166H99.779
	c-17.81-77.369,30.471-154.526,107.84-172.336C218.277,17.441,229.179,16.212,240.115,16.23L240.115,16.23z"/>
<g>
	
		<linearGradient id="SVGID_2_" gradientUnits="userSpaceOnUse" x1="-4.7598" y1="616.6325" x2="-4.7598" y2="555.3855" gradientTransform="matrix(8 0 0 -8 454.1933 4943.0742)">
		<stop  offset="0" style="stop-color:#FC5C7D"/>
		<stop  offset="0.129" style="stop-color:#F35E85"/>
		<stop  offset="0.343" style="stop-color:#D9659B"/>
		<stop  offset="0.616" style="stop-color:#B070BF"/>
		<stop  offset="0.934" style="stop-color:#777FF0"/>
		<stop  offset="1" style="stop-color:#6A82FB"/>
	</linearGradient>
	<path style="fill:url(#SVGID_2_);" d="M352.115,376.23h128v16h-128V376.23z"/>
	
		<linearGradient id="SVGID_3_" gradientUnits="userSpaceOnUse" x1="-4.7598" y1="616.6325" x2="-4.7598" y2="555.3855" gradientTransform="matrix(8 0 0 -8 454.1933 4943.0742)">
		<stop  offset="0" style="stop-color:#FC5C7D"/>
		<stop  offset="0.129" style="stop-color:#F35E85"/>
		<stop  offset="0.343" style="stop-color:#D9659B"/>
		<stop  offset="0.616" style="stop-color:#B070BF"/>
		<stop  offset="0.934" style="stop-color:#777FF0"/>
		<stop  offset="1" style="stop-color:#6A82FB"/>
	</linearGradient>
	<path style="fill:url(#SVGID_3_);" d="M352.115,408.23h128v16h-128V408.23z"/>
	
		<linearGradient id="SVGID_4_" gradientUnits="userSpaceOnUse" x1="-6.7598" y1="616.6325" x2="-6.7598" y2="555.3855" gradientTransform="matrix(8 0 0 -8 454.1933 4943.0742)">
		<stop  offset="0" style="stop-color:#FC5C7D"/>
		<stop  offset="0.129" style="stop-color:#F35E85"/>
		<stop  offset="0.343" style="stop-color:#D9659B"/>
		<stop  offset="0.616" style="stop-color:#B070BF"/>
		<stop  offset="0.934" style="stop-color:#777FF0"/>
		<stop  offset="1" style="stop-color:#6A82FB"/>
	</linearGradient>
	<path style="fill:url(#SVGID_4_);" d="M352.115,440.23h96v16h-96V440.23z"/>
	
		<linearGradient id="SVGID_5_" gradientUnits="userSpaceOnUse" x1="-1.7598" y1="616.6325" x2="-1.7598" y2="555.3855" gradientTransform="matrix(8 0 0 -8 454.1933 4943.0742)">
		<stop  offset="0" style="stop-color:#FC5C7D"/>
		<stop  offset="0.129" style="stop-color:#F35E85"/>
		<stop  offset="0.343" style="stop-color:#D9659B"/>
		<stop  offset="0.616" style="stop-color:#B070BF"/>
		<stop  offset="0.934" style="stop-color:#777FF0"/>
		<stop  offset="1" style="stop-color:#6A82FB"/>
	</linearGradient>
	<path style="fill:url(#SVGID_5_);" d="M400.115,344.23h80v16h-80V344.23z"/>
	
		<linearGradient id="SVGID_6_" gradientUnits="userSpaceOnUse" x1="-48.7598" y1="616.6325" x2="-48.7598" y2="555.3855" gradientTransform="matrix(8 0 0 -8 454.1933 4943.0742)">
		<stop  offset="0" style="stop-color:#FC5C7D"/>
		<stop  offset="0.129" style="stop-color:#F35E85"/>
		<stop  offset="0.343" style="stop-color:#D9659B"/>
		<stop  offset="0.616" style="stop-color:#B070BF"/>
		<stop  offset="0.934" style="stop-color:#777FF0"/>
		<stop  offset="1" style="stop-color:#6A82FB"/>
	</linearGradient>
	<path style="fill:url(#SVGID_6_);" d="M0.115,376.23h128v16h-128V376.23z"/>
	
		<linearGradient id="SVGID_7_" gradientUnits="userSpaceOnUse" x1="-48.7598" y1="616.6325" x2="-48.7598" y2="555.3855" gradientTransform="matrix(8 0 0 -8 454.1933 4943.0742)">
		<stop  offset="0" style="stop-color:#FC5C7D"/>
		<stop  offset="0.129" style="stop-color:#F35E85"/>
		<stop  offset="0.343" style="stop-color:#D9659B"/>
		<stop  offset="0.616" style="stop-color:#B070BF"/>
		<stop  offset="0.934" style="stop-color:#777FF0"/>
		<stop  offset="1" style="stop-color:#6A82FB"/>
	</linearGradient>
	<path style="fill:url(#SVGID_7_);" d="M0.115,408.23h128v16h-128V408.23z"/>
	
		<linearGradient id="SVGID_8_" gradientUnits="userSpaceOnUse" x1="-50.7598" y1="616.6325" x2="-50.7598" y2="555.3855" gradientTransform="matrix(8 0 0 -8 454.1933 4943.0742)">
		<stop  offset="0" style="stop-color:#FC5C7D"/>
		<stop  offset="0.129" style="stop-color:#F35E85"/>
		<stop  offset="0.343" style="stop-color:#D9659B"/>
		<stop  offset="0.616" style="stop-color:#B070BF"/>
		<stop  offset="0.934" style="stop-color:#777FF0"/>
		<stop  offset="1" style="stop-color:#6A82FB"/>
	</linearGradient>
	<path style="fill:url(#SVGID_8_);" d="M0.115,440.23h96v16h-96V440.23z"/>
	
		<linearGradient id="SVGID_9_" gradientUnits="userSpaceOnUse" x1="-45.7598" y1="616.6325" x2="-45.7598" y2="555.3855" gradientTransform="matrix(8 0 0 -8 454.1933 4943.0742)">
		<stop  offset="0" style="stop-color:#FC5C7D"/>
		<stop  offset="0.129" style="stop-color:#F35E85"/>
		<stop  offset="0.343" style="stop-color:#D9659B"/>
		<stop  offset="0.616" style="stop-color:#B070BF"/>
		<stop  offset="0.934" style="stop-color:#777FF0"/>
		<stop  offset="1" style="stop-color:#6A82FB"/>
	</linearGradient>
	<path style="fill:url(#SVGID_9_);" d="M48.115,344.23h80v16h-80V344.23z"/>
	
		<linearGradient id="SVGID_10_" gradientUnits="userSpaceOnUse" x1="-51.2598" y1="616.6325" x2="-51.2598" y2="555.3855" gradientTransform="matrix(8 0 0 -8 454.1933 4943.0742)">
		<stop  offset="0" style="stop-color:#FC5C7D"/>
		<stop  offset="0.129" style="stop-color:#F35E85"/>
		<stop  offset="0.343" style="stop-color:#D9659B"/>
		<stop  offset="0.616" style="stop-color:#B070BF"/>
		<stop  offset="0.934" style="stop-color:#777FF0"/>
		<stop  offset="1" style="stop-color:#6A82FB"/>
	</linearGradient>
	<path style="fill:url(#SVGID_10_);" d="M0.115,32.23h88v16h-88V32.23z"/>
	
		<linearGradient id="SVGID_11_" gradientUnits="userSpaceOnUse" x1="-47.2598" y1="616.6325" x2="-47.2598" y2="555.3855" gradientTransform="matrix(8 0 0 -8 454.1933 4943.0742)">
		<stop  offset="0" style="stop-color:#FC5C7D"/>
		<stop  offset="0.129" style="stop-color:#F35E85"/>
		<stop  offset="0.343" style="stop-color:#D9659B"/>
		<stop  offset="0.616" style="stop-color:#B070BF"/>
		<stop  offset="0.934" style="stop-color:#777FF0"/>
		<stop  offset="1" style="stop-color:#6A82FB"/>
	</linearGradient>
	<path style="fill:url(#SVGID_11_);" d="M32.115,0.23h88v16h-88V0.23z"/>
	
		<linearGradient id="SVGID_12_" gradientUnits="userSpaceOnUse" x1="-4.2598" y1="616.6325" x2="-4.2598" y2="555.3855" gradientTransform="matrix(8 0 0 -8 454.1933 4943.0742)">
		<stop  offset="0" style="stop-color:#FC5C7D"/>
		<stop  offset="0.129" style="stop-color:#F35E85"/>
		<stop  offset="0.343" style="stop-color:#D9659B"/>
		<stop  offset="0.616" style="stop-color:#B070BF"/>
		<stop  offset="0.934" style="stop-color:#777FF0"/>
		<stop  offset="1" style="stop-color:#6A82FB"/>
	</linearGradient>
	<path style="fill:url(#SVGID_12_);" d="M392.115,32.23h56v16h-56V32.23z"/>
	
		<linearGradient id="SVGID_13_" gradientUnits="userSpaceOnUse" x1="-2.2598" y1="616.6325" x2="-2.2598" y2="555.3855" gradientTransform="matrix(8 0 0 -8 454.1933 4943.0742)">
		<stop  offset="0" style="stop-color:#FC5C7D"/>
		<stop  offset="0.129" style="stop-color:#F35E85"/>
		<stop  offset="0.343" style="stop-color:#D9659B"/>
		<stop  offset="0.616" style="stop-color:#B070BF"/>
		<stop  offset="0.934" style="stop-color:#777FF0"/>
		<stop  offset="1" style="stop-color:#6A82FB"/>
	</linearGradient>
	<path style="fill:url(#SVGID_13_);" d="M392.115,0.23h88v16h-88V0.23z"/>
	
		<linearGradient id="SVGID_14_" gradientUnits="userSpaceOnUse" x1="-41.6093" y1="616.6325" x2="-41.6093" y2="555.3855" gradientTransform="matrix(8 0 0 -8 454.1933 4943.0742)">
		<stop  offset="0" style="stop-color:#FC5C7D"/>
		<stop  offset="0.129" style="stop-color:#F35E85"/>
		<stop  offset="0.343" style="stop-color:#D9659B"/>
		<stop  offset="0.616" style="stop-color:#B070BF"/>
		<stop  offset="0.934" style="stop-color:#777FF0"/>
		<stop  offset="1" style="stop-color:#6A82FB"/>
	</linearGradient>
	<path style="fill:url(#SVGID_14_);" d="M123.203,244.319l-12.976,9.36c3.189,4.437,6.601,8.709,10.224,12.8l11.96-10.624
		C129.15,252.167,126.076,248.316,123.203,244.319L123.203,244.319z"/>
	
		<linearGradient id="SVGID_15_" gradientUnits="userSpaceOnUse" x1="-55.7598" y1="616.6325" x2="-55.7598" y2="555.3855" gradientTransform="matrix(8 0 0 -8 454.1933 4943.0742)">
		<stop  offset="0" style="stop-color:#FC5C7D"/>
		<stop  offset="0.129" style="stop-color:#F35E85"/>
		<stop  offset="0.343" style="stop-color:#D9659B"/>
		<stop  offset="0.616" style="stop-color:#B070BF"/>
		<stop  offset="0.934" style="stop-color:#777FF0"/>
		<stop  offset="1" style="stop-color:#6A82FB"/>
	</linearGradient>
	<path style="fill:url(#SVGID_15_);" d="M0.115,0.23h16v16h-16V0.23z"/>
	
		<linearGradient id="SVGID_16_" gradientUnits="userSpaceOnUse" x1="-53.7598" y1="616.6325" x2="-53.7598" y2="555.3855" gradientTransform="matrix(8 0 0 -8 454.1933 4943.0742)">
		<stop  offset="0" style="stop-color:#FC5C7D"/>
		<stop  offset="0.129" style="stop-color:#F35E85"/>
		<stop  offset="0.343" style="stop-color:#D9659B"/>
		<stop  offset="0.616" style="stop-color:#B070BF"/>
		<stop  offset="0.934" style="stop-color:#777FF0"/>
		<stop  offset="1" style="stop-color:#6A82FB"/>
	</linearGradient>
	<path style="fill:url(#SVGID_16_);" d="M16.115,344.23h16v16h-16V344.23z"/>
	
		<linearGradient id="SVGID_17_" gradientUnits="userSpaceOnUse" x1="-9.7598" y1="616.6325" x2="-9.7598" y2="555.3855" gradientTransform="matrix(8 0 0 -8 454.1933 4943.0742)">
		<stop  offset="0" style="stop-color:#FC5C7D"/>
		<stop  offset="0.129" style="stop-color:#F35E85"/>
		<stop  offset="0.343" style="stop-color:#D9659B"/>
		<stop  offset="0.616" style="stop-color:#B070BF"/>
		<stop  offset="0.934" style="stop-color:#777FF0"/>
		<stop  offset="1" style="stop-color:#6A82FB"/>
	</linearGradient>
	<path style="fill:url(#SVGID_17_);" d="M368.115,344.23h16v16h-16V344.23z"/>
	
		<linearGradient id="SVGID_18_" gradientUnits="userSpaceOnUse" x1="-10.7598" y1="616.6325" x2="-10.7598" y2="555.3855" gradientTransform="matrix(8 0 0 -8 454.1933 4943.0742)">
		<stop  offset="0" style="stop-color:#FC5C7D"/>
		<stop  offset="0.129" style="stop-color:#F35E85"/>
		<stop  offset="0.343" style="stop-color:#D9659B"/>
		<stop  offset="0.616" style="stop-color:#B070BF"/>
		<stop  offset="0.934" style="stop-color:#777FF0"/>
		<stop  offset="1" style="stop-color:#6A82FB"/>
	</linearGradient>
	<path style="fill:url(#SVGID_18_);" d="M360.115,0.23h16v16h-16V0.23z"/>
</g>
<g>
</g>
<g>
</g>
<g>
</g>
<g>
</g>
<g>
</g>
<g>
</g>
<g>
</g>
<g>
</g>
<g>
</g>
<g>
</g>
<g>
</g>
<g>
</g>
<g>
</g>
<g>
</g>
<g>
</g>
</svg>
