<?xml version="1.0" encoding="iso-8859-1"?>
<!-- Generator: Adobe Illustrator 19.0.0, SVG Export Plug-In . SVG Version: 6.00 Build 0)  -->
<svg version="1.1" id="Capa_1" xmlns="http://www.w3.org/2000/svg" xmlns:xlink="http://www.w3.org/1999/xlink" x="0px" y="0px"
	 viewBox="0 0 480 480" style="enable-background:new 0 0 480 480;" xml:space="preserve">
<linearGradient id="SVGID_1_" gradientUnits="userSpaceOnUse" x1="1.125" y1="619.13" x2="1.125" y2="554.625" gradientTransform="matrix(8 0 0 -8 287 4941)">
	<stop  offset="0" style="stop-color:#FC5C7D"/>
	<stop  offset="0.129" style="stop-color:#F35E85"/>
	<stop  offset="0.343" style="stop-color:#D9659B"/>
	<stop  offset="0.616" style="stop-color:#B070BF"/>
	<stop  offset="0.934" style="stop-color:#777FF0"/>
	<stop  offset="1" style="stop-color:#6A82FB"/>
</linearGradient>
<path style="fill:url(#SVGID_1_);" d="M208,320h176v16H208V320z"/>
<g>
	
		<linearGradient id="SVGID_2_" gradientUnits="userSpaceOnUse" x1="-2.875" y1="619.13" x2="-2.875" y2="554.625" gradientTransform="matrix(8 0 0 -8 287 4941)">
		<stop  offset="0" style="stop-color:#FC5C7D"/>
		<stop  offset="0.129" style="stop-color:#F35E85"/>
		<stop  offset="0.343" style="stop-color:#D9659B"/>
		<stop  offset="0.616" style="stop-color:#B070BF"/>
		<stop  offset="0.934" style="stop-color:#777FF0"/>
		<stop  offset="1" style="stop-color:#6A82FB"/>
	</linearGradient>
	<path style="fill:url(#SVGID_2_);" d="M144,352h240v16H144V352z"/>
	
		<linearGradient id="SVGID_3_" gradientUnits="userSpaceOnUse" x1="-4.875" y1="619.13" x2="-4.875" y2="554.625" gradientTransform="matrix(8 0 0 -8 287 4941)">
		<stop  offset="0" style="stop-color:#FC5C7D"/>
		<stop  offset="0.129" style="stop-color:#F35E85"/>
		<stop  offset="0.343" style="stop-color:#D9659B"/>
		<stop  offset="0.616" style="stop-color:#B070BF"/>
		<stop  offset="0.934" style="stop-color:#777FF0"/>
		<stop  offset="1" style="stop-color:#6A82FB"/>
	</linearGradient>
	<path style="fill:url(#SVGID_3_);" d="M144,384h208v16H144V384z"/>
	
		<linearGradient id="SVGID_4_" gradientUnits="userSpaceOnUse" x1="-5.875" y1="619.13" x2="-5.875" y2="554.625" gradientTransform="matrix(8 0 0 -8 287 4941)">
		<stop  offset="0" style="stop-color:#FC5C7D"/>
		<stop  offset="0.129" style="stop-color:#F35E85"/>
		<stop  offset="0.343" style="stop-color:#D9659B"/>
		<stop  offset="0.616" style="stop-color:#B070BF"/>
		<stop  offset="0.934" style="stop-color:#777FF0"/>
		<stop  offset="1" style="stop-color:#6A82FB"/>
	</linearGradient>
	<path style="fill:url(#SVGID_4_);" d="M176,0v24h-16c-4.418,0-8,3.582-8,8v8h-40c-4.418,0-8,3.582-8,8v376H64c-4.418,0-8,3.582-8,8
		v16c0,17.673,14.327,32,32,32h304c17.673,0,32-14.327,32-32V48c0-4.418-3.582-8-8-8h-40v-8c0-4.418-3.582-8-8-8h-16V0h-16v24h-16
		c-4.418,0-8,3.582-8,8v8h-96v-8c0-4.418-3.582-8-8-8h-16V0H176z M88,464c-8.837,0-16-7.163-16-16v-8h288v8
		c-0.009,5.619,1.474,11.141,4.296,16H88z M328,40h32v16h-32V40z M216,64v-8h96v8c0,4.418,3.582,8,8,8h48c4.418,0,8-3.582,8-8v-8h32
		v392c0,8.837-7.163,16-16,16s-16-7.163-16-16v-16c0-4.418-3.582-8-8-8H120V56h32v8c0,4.418,3.582,8,8,8h48
		C212.418,72,216,68.418,216,64z M200,56h-32V40h32V56z"/>
	
		<linearGradient id="SVGID_5_" gradientUnits="userSpaceOnUse" x1="-2.875" y1="619.13" x2="-2.875" y2="554.625" gradientTransform="matrix(8 0 0 -8 287 4941)">
		<stop  offset="0" style="stop-color:#FC5C7D"/>
		<stop  offset="0.129" style="stop-color:#F35E85"/>
		<stop  offset="0.343" style="stop-color:#D9659B"/>
		<stop  offset="0.616" style="stop-color:#B070BF"/>
		<stop  offset="0.934" style="stop-color:#777FF0"/>
		<stop  offset="1" style="stop-color:#6A82FB"/>
	</linearGradient>
	<path style="fill:url(#SVGID_5_);" d="M184,200c0,8.837,7.163,16,16,16v72c0,4.418,3.582,8,8,8h32c4.418,0,8-3.582,8-8v-40h24
		c4.418,0,8-3.582,8-8v-16.36l86.52,16.224c0.488,0.089,0.984,0.134,1.48,0.136c4.418,0,8-3.582,8-8V104
		c0.001-4.418-3.58-8.001-7.998-8.002c-0.497,0-0.993,0.046-1.482,0.138L239.256,120H200c-8.837,0-16,7.163-16,16
		c-17.673,0-32,14.327-32,32S166.327,200,184,200L184,200z M232,248h-16v-32h16V248z M216,280v-16h16v16H216z M264,232h-16v-14.4
		l16,3V232z M360,222.4l-112-21.04v-66.72l112-21.04V222.4z M200,136h32v64h-32V136z M184,152v32c-8.837,0-16-7.163-16-16
		S175.163,152,184,152z"/>
	
		<linearGradient id="SVGID_6_" gradientUnits="userSpaceOnUse" x1="-12.875" y1="619.13" x2="-12.875" y2="554.625" gradientTransform="matrix(8 0 0 -8 287 4941)">
		<stop  offset="0" style="stop-color:#FC5C7D"/>
		<stop  offset="0.129" style="stop-color:#F35E85"/>
		<stop  offset="0.343" style="stop-color:#D9659B"/>
		<stop  offset="0.616" style="stop-color:#B070BF"/>
		<stop  offset="0.934" style="stop-color:#777FF0"/>
		<stop  offset="1" style="stop-color:#6A82FB"/>
	</linearGradient>
	<path style="fill:url(#SVGID_6_);" d="M176,320h16v16h-16V320z"/>
</g>
<g>
</g>
<g>
</g>
<g>
</g>
<g>
</g>
<g>
</g>
<g>
</g>
<g>
</g>
<g>
</g>
<g>
</g>
<g>
</g>
<g>
</g>
<g>
</g>
<g>
</g>
<g>
</g>
<g>
</g>
</svg>
